<svg width="24" height="24" viewBox="0 0 24 24" fill="none" xmlns="http://www.w3.org/2000/svg">
<path d="M20.5086 14.2587L20.996 13.9736L21.0018 3.49785L20.5274 3.05335L20.5086 14.2587Z" fill="#231F20"/>
<path d="M17.8853 7.17146C17.8797 7.17663 17.8743 7.1818 17.8684 7.18728C17.8645 7.19086 17.8602 7.19471 17.8562 7.19842C17.8509 7.20324 17.8458 7.20797 17.8403 7.21296C17.8358 7.21703 17.831 7.22131 17.8263 7.22551C17.8207 7.23051 17.8152 7.23546 17.8094 7.24063C17.8043 7.24514 17.7989 7.24982 17.7936 7.25446C17.7877 7.25963 17.7819 7.26476 17.7757 7.27011C17.77 7.27501 17.7641 7.2801 17.7582 7.28518C17.7519 7.29048 17.7458 7.29579 17.7392 7.30131C17.733 7.30657 17.7264 7.31205 17.72 7.31749C17.7134 7.32301 17.7068 7.32845 17.7 7.33411C17.6931 7.33981 17.6859 7.34564 17.6788 7.35148C17.6719 7.35709 17.665 7.3627 17.6579 7.36841C17.6505 7.37442 17.6429 7.38047 17.6352 7.38662C17.6279 7.39245 17.6205 7.39833 17.6129 7.4043C17.6049 7.41053 17.5968 7.41685 17.5886 7.42326C17.5808 7.42927 17.5729 7.43537 17.5649 7.44151C17.5565 7.44792 17.5481 7.45442 17.5394 7.46096C17.5311 7.46723 17.5227 7.4736 17.5141 7.47996C17.5052 7.48664 17.4963 7.49327 17.4871 7.50003C17.4784 7.50644 17.4696 7.51289 17.4606 7.51943C17.4512 7.52628 17.4417 7.53313 17.432 7.54007C17.4229 7.5467 17.4135 7.55338 17.4041 7.56001C17.3941 7.56703 17.3842 7.57406 17.374 7.58113C17.3645 7.58781 17.3547 7.59457 17.3449 7.60129C17.3343 7.60858 17.3239 7.61579 17.3131 7.62312C17.3031 7.62989 17.2929 7.63669 17.2827 7.6435C17.2717 7.65092 17.2607 7.6583 17.2494 7.66573C17.2389 7.67267 17.2281 7.67961 17.2174 7.68659C17.2059 7.69406 17.1946 7.70149 17.1828 7.70896C17.1718 7.71603 17.1604 7.72314 17.1492 7.73026C17.1372 7.73777 17.1255 7.74529 17.1133 7.75284C17.1017 7.76 17.0898 7.76721 17.078 7.77437C17.0657 7.78193 17.0535 7.78949 17.0409 7.79709C17.0287 7.80438 17.0161 7.81176 17.0037 7.8191C16.991 7.82666 16.9784 7.83417 16.9654 7.84173C16.9404 7.85631 16.9149 7.87094 16.8889 7.88557C16.8768 7.89238 16.8642 7.89923 16.8519 7.90604C16.8372 7.91421 16.8227 7.92235 16.8078 7.93048C16.7944 7.93777 16.7806 7.94502 16.767 7.95231C16.7526 7.96 16.7383 7.96774 16.7237 7.97538C16.7096 7.98281 16.6951 7.99024 16.6807 7.99762C16.6661 8.00522 16.6515 8.01278 16.6366 8.02029C16.6221 8.02767 16.6072 8.03501 16.5924 8.04235C16.5771 8.04995 16.5619 8.05751 16.5464 8.06511C16.5315 8.07236 16.5163 8.07956 16.5011 8.08681C16.4853 8.09441 16.4694 8.10201 16.4532 8.10957C16.4379 8.11673 16.4223 8.12389 16.4068 8.13101C16.3904 8.13857 16.3739 8.14612 16.3572 8.15364C16.3413 8.16075 16.3251 8.16787 16.309 8.17494C16.2921 8.18237 16.2753 8.18975 16.2582 8.19713C16.2419 8.2042 16.2252 8.21118 16.2086 8.21821C16.1912 8.22555 16.1738 8.23284 16.156 8.24013C16.1392 8.24707 16.1222 8.25397 16.1051 8.26086C16.0872 8.26802 16.0693 8.27523 16.0511 8.28234C16.0337 8.28915 16.0163 8.29596 15.9986 8.30272C15.9801 8.30979 15.9616 8.31682 15.9429 8.32385C15.9251 8.33048 15.9073 8.33706 15.8893 8.34365C15.8808 8.34674 15.8726 8.34992 15.864 8.35302L16.6621 8.44773C16.7599 8.4103 17.501 8.12243 17.9183 7.83775L17.916 7.1422C17.909 7.149 17.9015 7.15621 17.8935 7.16377C17.8909 7.16624 17.888 7.16894 17.8853 7.17146Z" fill="#302D2E"/>
<path d="M15.713 6.08749V8.31152C15.7269 8.30679 15.7409 8.30206 15.7546 8.29728C15.7774 8.28933 15.8002 8.28137 15.8226 8.27333C15.8455 8.26506 15.8682 8.25671 15.8908 8.24836C15.9136 8.23987 15.9365 8.23134 15.959 8.22272C15.98 8.21468 16.0007 8.20659 16.0214 8.19846C16.0448 8.18922 16.0682 8.17994 16.0912 8.17061C16.11 8.16296 16.1284 8.15532 16.1469 8.14763C16.171 8.13759 16.195 8.12752 16.2186 8.1174C16.2351 8.11028 16.2513 8.10316 16.2676 8.096C16.2925 8.08504 16.3173 8.07408 16.3417 8.06303C16.3555 8.05676 16.3692 8.05044 16.3829 8.04411C16.4089 8.03209 16.4348 8.02003 16.4601 8.00792C16.4713 8.00261 16.4822 7.99726 16.4932 7.99192C16.5205 7.9787 16.5477 7.96544 16.5742 7.95209C16.5824 7.94803 16.5903 7.94387 16.5985 7.93981C16.6272 7.92522 16.6556 7.91063 16.6834 7.89601C16.6887 7.89327 16.6938 7.89048 16.6991 7.88774C16.7292 7.87178 16.7588 7.85583 16.7878 7.83987C16.7903 7.83855 16.7927 7.83718 16.7951 7.83585C17.5539 7.4172 17.9216 7.00876 17.9266 7.00302L18.007 6.91188L18.0303 14.105L20.4168 14.2895L20.4357 3L18.4441 3.28261C18.0994 4.95238 15.9792 5.9663 15.713 6.08749Z" fill="black"/>
<path d="M11.103 10.5679L12.1992 14.4267L13.2366 14.4097L11.623 8.75076L11.103 10.5679Z" fill="#8D0F14"/>
<path d="M9.86745 14.5532L11.6231 8.4175L13.3565 14.4962L9.86745 14.5532ZM17.6407 19.4705L13.3042 5.41479L9.85079 4.82217L4.15054 21.0017L8.15103 20.5519L9.1127 17.191L14.0452 16.9114L14.8484 19.7281L17.6407 19.4705Z" fill="#E81C24"/>
<path d="M8.40503 5.52422L3 20.3957L4.05833 20.9883L9.74001 4.86142L8.40503 5.52422Z" fill="#C1171D"/>
<path d="M13.0219 17.0579L13.764 19.6296L14.7524 19.7252L13.9763 17.0038L13.0219 17.0579Z" fill="#8D0F14"/>
</svg>
