<svg width="156" height="155" viewBox="0 0 156 155" fill="none" xmlns="http://www.w3.org/2000/svg">
<mask id="path-1-outside-1_10109_50" maskUnits="userSpaceOnUse" x="0" y="12.25" width="156" height="132" fill="black">
<rect fill="white" y="12.25" width="156" height="132"/>
<path fill-rule="evenodd" clip-rule="evenodd" d="M77.8106 23.25H77.6807C75.2005 23.2527 72.7862 24.0487 70.7906 25.5214C68.7949 26.9942 67.3227 29.0667 66.5889 31.4359C65.8552 33.8051 65.8984 36.3469 66.7123 38.6897C67.5262 41.0326 69.0681 43.0538 71.1126 44.4579L64.0795 69.3005L51.8151 49.8054C53.4804 47.7418 54.3903 45.1711 54.3939 42.5194C54.3976 39.8678 53.4947 37.2945 51.8351 35.2264C50.1755 33.1583 47.8588 31.7197 45.2693 31.149C42.6797 30.5783 39.9729 30.91 37.5977 32.0889L37.3594 32.209C35.4206 33.1812 33.7924 34.6764 32.659 36.5256C31.5255 38.3748 30.932 40.5042 30.9455 42.6731C30.959 44.842 31.579 46.9638 32.7354 48.7987C33.8918 50.6337 35.5385 52.1085 37.4892 53.0565L37.7218 77.0389L32.8993 72.7764C33.1318 71.8483 33.2558 70.8776 33.25 69.8779V69.7597C33.2652 66.6765 32.0549 63.7137 29.8855 61.5228C27.7161 59.332 24.7653 58.0927 21.6822 58.0775C18.599 58.0624 15.6361 59.2726 13.4453 61.442C11.2545 63.6114 10.0152 66.5622 10 69.6454V69.9902C10.0147 72.9463 11.155 75.7858 13.189 77.9309C15.2229 80.0761 17.9977 81.3658 20.9488 81.5377L30.3767 110.552C29.5373 110.761 28.792 111.244 28.2594 111.926C27.7267 112.607 27.4374 113.448 27.4375 114.312V129.812C27.4375 130.84 27.8458 131.826 28.5725 132.553C29.2992 133.279 30.2848 133.688 31.3125 133.688H124.312C125.34 133.688 126.326 133.279 127.053 132.553C127.779 131.826 128.188 130.84 128.188 129.812V114.312C128.188 113.448 127.898 112.607 127.366 111.926C126.833 111.244 126.088 110.761 125.248 110.552L134.676 81.5358C137.625 81.3616 140.397 80.0711 142.429 77.9266C144.461 75.782 145.6 72.9444 145.615 69.9902V69.6454C145.608 68.1188 145.3 66.6086 144.709 65.201C144.117 63.7935 143.255 62.5162 142.17 61.442C141.085 60.3678 139.799 59.5178 138.386 58.9406C136.973 58.3633 135.46 58.07 133.933 58.0775C132.407 58.085 130.896 58.3932 129.489 58.9843C128.081 59.5754 126.804 60.438 125.73 61.5228C123.56 63.7137 122.35 66.6765 122.365 69.7597V69.8779C122.361 70.8796 122.483 71.8541 122.718 72.7841L117.903 77.0389L118.136 53.0526C120.085 52.1035 121.73 50.6281 122.885 48.7932C124.04 46.9582 124.659 44.8369 124.672 42.6687C124.684 40.5006 124.09 38.3721 122.957 36.5238C121.824 34.6754 120.196 33.1809 118.258 32.209L118.025 32.0927L118.018 32.0889C115.641 30.9061 112.932 30.572 110.34 31.1422C107.748 31.7124 105.429 33.1525 103.768 35.2231C102.108 37.2937 101.206 39.8703 101.212 42.5245C101.219 45.1787 102.133 47.7507 103.804 49.8131L91.5494 69.3005L84.5163 44.4521C86.5592 43.0464 88.0991 41.0244 88.911 38.6813C89.723 36.3382 89.7644 33.7968 89.0292 31.4285C88.294 29.0602 86.8208 26.9891 84.8247 25.5176C82.8286 24.0462 80.4143 23.2516 77.9346 23.25H77.8106ZM127.075 79.2767L116.508 88.6116C115.947 89.1075 115.254 89.4301 114.513 89.5403C113.772 89.6504 113.015 89.5434 112.333 89.2322C111.652 88.921 111.075 88.419 110.673 87.7868C110.271 87.1547 110.061 86.4195 110.068 85.6704L110.378 53.9187L93.4694 80.7976C93.0704 81.4317 92.4962 81.9365 91.8163 82.2509C91.1364 82.5654 90.3798 82.676 89.6383 82.5694C88.8968 82.4628 88.2021 82.1435 87.6383 81.6503C87.0745 81.157 86.6657 80.5109 86.4615 79.7901L77.8125 49.2358L69.1635 79.7901C68.9593 80.5109 68.5505 81.157 67.9867 81.6503C67.4229 82.1435 66.7282 82.4628 65.9867 82.5694C65.2452 82.676 64.4887 82.5654 63.8087 82.2509C63.1288 81.9365 62.5545 81.4317 62.1556 80.7976L45.2489 53.9187L45.557 85.6704C45.5641 86.4195 45.354 87.1547 44.952 87.7868C44.55 88.419 43.9733 88.921 43.2919 89.2322C42.6104 89.5434 41.8534 89.6504 41.1124 89.5403C40.3714 89.4301 39.6782 89.1075 39.1167 88.6116L28.5477 79.2728L28.3985 79.3813L38.489 110.438H117.136L127.226 79.3871L127.075 79.2767ZM77.6885 31H77.9268C78.9545 31.0013 79.9396 31.4108 80.6654 32.1384C81.3912 32.866 81.7982 33.8521 81.797 34.8798C81.7957 35.9076 81.3862 36.8927 80.6586 37.6185C79.931 38.3443 78.9448 38.7513 77.9171 38.75H77.7001C77.1913 38.7506 76.6872 38.651 76.2169 38.4569C75.7465 38.2627 75.3189 37.9778 74.9587 37.6185C74.5984 37.2591 74.3124 36.8323 74.1171 36.3624C73.9218 35.8925 73.8209 35.3887 73.8203 34.8798C73.8196 34.371 73.9192 33.867 74.1134 33.3966C74.3075 32.9262 74.5924 32.4987 74.9518 32.1384C75.3112 31.7781 75.738 31.4921 76.2079 31.2968C76.6778 31.1015 77.1796 31.0006 77.6885 31ZM41.0465 39.0309L41.0504 39.029C41.9699 38.5809 43.0293 38.5146 43.9975 38.8445C44.9658 39.1743 45.7643 39.8737 46.219 40.7899C46.6737 41.7062 46.7476 42.7651 46.4247 43.7357C46.1018 44.7063 45.4082 45.5098 44.4953 45.9711L44.4894 45.9749L44.3151 46.0621L44.3073 46.0641C43.3899 46.5157 42.3311 46.5864 41.3618 46.2607C40.3925 45.935 39.5912 45.2394 39.1325 44.3255C38.6739 43.4115 38.5951 42.3533 38.9133 41.3815C39.2316 40.4097 39.921 39.6031 40.8314 39.1375L41.0465 39.0309ZM109.374 40.7766C109.831 39.8565 110.635 39.1555 111.609 38.8278C112.583 38.5001 113.647 38.5724 114.567 39.029L114.782 39.1375H114.786C115.696 39.6031 116.386 40.4097 116.704 41.3815C117.022 42.3533 116.943 43.4115 116.485 44.3255C116.026 45.2394 115.225 45.935 114.255 46.2607C113.286 46.5864 112.227 46.5157 111.31 46.0641L111.302 46.0621L111.128 45.9749L111.122 45.9711C110.666 45.7448 110.259 45.4309 109.925 45.0474C109.59 44.6639 109.335 44.2182 109.172 43.7358C109.01 43.2535 108.944 42.7439 108.979 42.2361C109.014 41.7284 109.148 41.2324 109.374 40.7766ZM17.75 69.6841V69.6802C17.7559 68.6525 18.1698 67.6693 18.9007 66.9467C19.2626 66.589 19.6914 66.306 20.1627 66.114C20.6339 65.9219 21.1384 65.8246 21.6473 65.8275C22.1562 65.8305 22.6595 65.9336 23.1285 66.131C23.5975 66.3285 24.023 66.6164 24.3808 66.9783C24.7386 67.3401 25.0215 67.769 25.2136 68.2402C25.4056 68.7115 25.5029 69.2159 25.5 69.7248V69.9108C25.5029 70.4197 25.4056 70.9242 25.2136 71.3954C25.0215 71.8667 24.7386 72.2955 24.3808 72.6574C23.6583 73.3883 22.675 73.8022 21.6473 73.8081C21.1384 73.811 20.6339 73.7137 20.1627 73.5216C19.6914 73.3296 19.2626 73.0466 18.9007 72.6889C18.1698 71.9664 17.7559 70.9831 17.75 69.9554V69.6841ZM133.971 65.8285C134.998 65.8233 135.986 66.2264 136.716 66.9491C137.446 67.6717 137.86 68.6548 137.865 69.6822V69.9554C137.859 70.9831 137.445 71.9664 136.715 72.6889C135.984 73.4114 134.996 73.814 133.968 73.8081C132.94 73.8022 131.957 73.3883 131.235 72.6574C130.512 71.9265 130.109 70.9385 130.115 69.9108V69.7248C130.113 69.2159 130.21 68.7115 130.403 68.2404C130.595 67.7693 130.879 67.3407 131.237 66.9791C131.595 66.6175 132.02 66.3299 132.489 66.1328C132.959 65.9357 133.462 65.831 133.971 65.8285ZM35.6758 118.197C35.5957 118.197 35.5162 118.195 35.4374 118.189H35.1875V125.939H120.438V118.189H120.188C120.11 118.195 120.031 118.197 119.949 118.197H35.6758Z"/>
</mask>
<path fill-rule="evenodd" clip-rule="evenodd" d="M77.8106 23.25H77.6807C75.2005 23.2527 72.7862 24.0487 70.7906 25.5214C68.7949 26.9942 67.3227 29.0667 66.5889 31.4359C65.8552 33.8051 65.8984 36.3469 66.7123 38.6897C67.5262 41.0326 69.0681 43.0538 71.1126 44.4579L64.0795 69.3005L51.8151 49.8054C53.4804 47.7418 54.3903 45.1711 54.3939 42.5194C54.3976 39.8678 53.4947 37.2945 51.8351 35.2264C50.1755 33.1583 47.8588 31.7197 45.2693 31.149C42.6797 30.5783 39.9729 30.91 37.5977 32.0889L37.3594 32.209C35.4206 33.1812 33.7924 34.6764 32.659 36.5256C31.5255 38.3748 30.932 40.5042 30.9455 42.6731C30.959 44.842 31.579 46.9638 32.7354 48.7987C33.8918 50.6337 35.5385 52.1085 37.4892 53.0565L37.7218 77.0389L32.8993 72.7764C33.1318 71.8483 33.2558 70.8776 33.25 69.8779V69.7597C33.2652 66.6765 32.0549 63.7137 29.8855 61.5228C27.7161 59.332 24.7653 58.0927 21.6822 58.0775C18.599 58.0624 15.6361 59.2726 13.4453 61.442C11.2545 63.6114 10.0152 66.5622 10 69.6454V69.9902C10.0147 72.9463 11.155 75.7858 13.189 77.9309C15.2229 80.0761 17.9977 81.3658 20.9488 81.5377L30.3767 110.552C29.5373 110.761 28.792 111.244 28.2594 111.926C27.7267 112.607 27.4374 113.448 27.4375 114.312V129.812C27.4375 130.84 27.8458 131.826 28.5725 132.553C29.2992 133.279 30.2848 133.688 31.3125 133.688H124.312C125.34 133.688 126.326 133.279 127.053 132.553C127.779 131.826 128.188 130.84 128.188 129.812V114.312C128.188 113.448 127.898 112.607 127.366 111.926C126.833 111.244 126.088 110.761 125.248 110.552L134.676 81.5358C137.625 81.3616 140.397 80.0711 142.429 77.9266C144.461 75.782 145.6 72.9444 145.615 69.9902V69.6454C145.608 68.1188 145.3 66.6086 144.709 65.201C144.117 63.7935 143.255 62.5162 142.17 61.442C141.085 60.3678 139.799 59.5178 138.386 58.9406C136.973 58.3633 135.46 58.07 133.933 58.0775C132.407 58.085 130.896 58.3932 129.489 58.9843C128.081 59.5754 126.804 60.438 125.73 61.5228C123.56 63.7137 122.35 66.6765 122.365 69.7597V69.8779C122.361 70.8796 122.483 71.8541 122.718 72.7841L117.903 77.0389L118.136 53.0526C120.085 52.1035 121.73 50.6281 122.885 48.7932C124.04 46.9582 124.659 44.8369 124.672 42.6687C124.684 40.5006 124.09 38.3721 122.957 36.5238C121.824 34.6754 120.196 33.1809 118.258 32.209L118.025 32.0927L118.018 32.0889C115.641 30.9061 112.932 30.572 110.34 31.1422C107.748 31.7124 105.429 33.1525 103.768 35.2231C102.108 37.2937 101.206 39.8703 101.212 42.5245C101.219 45.1787 102.133 47.7507 103.804 49.8131L91.5494 69.3005L84.5163 44.4521C86.5592 43.0464 88.0991 41.0244 88.911 38.6813C89.723 36.3382 89.7644 33.7968 89.0292 31.4285C88.294 29.0602 86.8208 26.9891 84.8247 25.5176C82.8286 24.0462 80.4143 23.2516 77.9346 23.25H77.8106ZM127.075 79.2767L116.508 88.6116C115.947 89.1075 115.254 89.4301 114.513 89.5403C113.772 89.6504 113.015 89.5434 112.333 89.2322C111.652 88.921 111.075 88.419 110.673 87.7868C110.271 87.1547 110.061 86.4195 110.068 85.6704L110.378 53.9187L93.4694 80.7976C93.0704 81.4317 92.4962 81.9365 91.8163 82.2509C91.1364 82.5654 90.3798 82.676 89.6383 82.5694C88.8968 82.4628 88.2021 82.1435 87.6383 81.6503C87.0745 81.157 86.6657 80.5109 86.4615 79.7901L77.8125 49.2358L69.1635 79.7901C68.9593 80.5109 68.5505 81.157 67.9867 81.6503C67.4229 82.1435 66.7282 82.4628 65.9867 82.5694C65.2452 82.676 64.4887 82.5654 63.8087 82.2509C63.1288 81.9365 62.5545 81.4317 62.1556 80.7976L45.2489 53.9187L45.557 85.6704C45.5641 86.4195 45.354 87.1547 44.952 87.7868C44.55 88.419 43.9733 88.921 43.2919 89.2322C42.6104 89.5434 41.8534 89.6504 41.1124 89.5403C40.3714 89.4301 39.6782 89.1075 39.1167 88.6116L28.5477 79.2728L28.3985 79.3813L38.489 110.438H117.136L127.226 79.3871L127.075 79.2767ZM77.6885 31H77.9268C78.9545 31.0013 79.9396 31.4108 80.6654 32.1384C81.3912 32.866 81.7982 33.8521 81.797 34.8798C81.7957 35.9076 81.3862 36.8927 80.6586 37.6185C79.931 38.3443 78.9448 38.7513 77.9171 38.75H77.7001C77.1913 38.7506 76.6872 38.651 76.2169 38.4569C75.7465 38.2627 75.3189 37.9778 74.9587 37.6185C74.5984 37.2591 74.3124 36.8323 74.1171 36.3624C73.9218 35.8925 73.8209 35.3887 73.8203 34.8798C73.8196 34.371 73.9192 33.867 74.1134 33.3966C74.3075 32.9262 74.5924 32.4987 74.9518 32.1384C75.3112 31.7781 75.738 31.4921 76.2079 31.2968C76.6778 31.1015 77.1796 31.0006 77.6885 31ZM41.0465 39.0309L41.0504 39.029C41.9699 38.5809 43.0293 38.5146 43.9975 38.8445C44.9658 39.1743 45.7643 39.8737 46.219 40.7899C46.6737 41.7062 46.7476 42.7651 46.4247 43.7357C46.1018 44.7063 45.4082 45.5098 44.4953 45.9711L44.4894 45.9749L44.3151 46.0621L44.3073 46.0641C43.3899 46.5157 42.3311 46.5864 41.3618 46.2607C40.3925 45.935 39.5912 45.2394 39.1325 44.3255C38.6739 43.4115 38.5951 42.3533 38.9133 41.3815C39.2316 40.4097 39.921 39.6031 40.8314 39.1375L41.0465 39.0309ZM109.374 40.7766C109.831 39.8565 110.635 39.1555 111.609 38.8278C112.583 38.5001 113.647 38.5724 114.567 39.029L114.782 39.1375H114.786C115.696 39.6031 116.386 40.4097 116.704 41.3815C117.022 42.3533 116.943 43.4115 116.485 44.3255C116.026 45.2394 115.225 45.935 114.255 46.2607C113.286 46.5864 112.227 46.5157 111.31 46.0641L111.302 46.0621L111.128 45.9749L111.122 45.9711C110.666 45.7448 110.259 45.4309 109.925 45.0474C109.59 44.6639 109.335 44.2182 109.172 43.7358C109.01 43.2535 108.944 42.7439 108.979 42.2361C109.014 41.7284 109.148 41.2324 109.374 40.7766ZM17.75 69.6841V69.6802C17.7559 68.6525 18.1698 67.6693 18.9007 66.9467C19.2626 66.589 19.6914 66.306 20.1627 66.114C20.6339 65.9219 21.1384 65.8246 21.6473 65.8275C22.1562 65.8305 22.6595 65.9336 23.1285 66.131C23.5975 66.3285 24.023 66.6164 24.3808 66.9783C24.7386 67.3401 25.0215 67.769 25.2136 68.2402C25.4056 68.7115 25.5029 69.2159 25.5 69.7248V69.9108C25.5029 70.4197 25.4056 70.9242 25.2136 71.3954C25.0215 71.8667 24.7386 72.2955 24.3808 72.6574C23.6583 73.3883 22.675 73.8022 21.6473 73.8081C21.1384 73.811 20.6339 73.7137 20.1627 73.5216C19.6914 73.3296 19.2626 73.0466 18.9007 72.6889C18.1698 71.9664 17.7559 70.9831 17.75 69.9554V69.6841ZM133.971 65.8285C134.998 65.8233 135.986 66.2264 136.716 66.9491C137.446 67.6717 137.86 68.6548 137.865 69.6822V69.9554C137.859 70.9831 137.445 71.9664 136.715 72.6889C135.984 73.4114 134.996 73.814 133.968 73.8081C132.94 73.8022 131.957 73.3883 131.235 72.6574C130.512 71.9265 130.109 70.9385 130.115 69.9108V69.7248C130.113 69.2159 130.21 68.7115 130.403 68.2404C130.595 67.7693 130.879 67.3407 131.237 66.9791C131.595 66.6175 132.02 66.3299 132.489 66.1328C132.959 65.9357 133.462 65.831 133.971 65.8285ZM35.6758 118.197C35.5957 118.197 35.5162 118.195 35.4374 118.189H35.1875V125.939H120.438V118.189H120.188C120.11 118.195 120.031 118.197 119.949 118.197H35.6758Z" fill="black"/>
<path fill-rule="evenodd" clip-rule="evenodd" d="M77.8106 23.25H77.6807C75.2005 23.2527 72.7862 24.0487 70.7906 25.5214C68.7949 26.9942 67.3227 29.0667 66.5889 31.4359C65.8552 33.8051 65.8984 36.3469 66.7123 38.6897C67.5262 41.0326 69.0681 43.0538 71.1126 44.4579L64.0795 69.3005L51.8151 49.8054C53.4804 47.7418 54.3903 45.1711 54.3939 42.5194C54.3976 39.8678 53.4947 37.2945 51.8351 35.2264C50.1755 33.1583 47.8588 31.7197 45.2693 31.149C42.6797 30.5783 39.9729 30.91 37.5977 32.0889L37.3594 32.209C35.4206 33.1812 33.7924 34.6764 32.659 36.5256C31.5255 38.3748 30.932 40.5042 30.9455 42.6731C30.959 44.842 31.579 46.9638 32.7354 48.7987C33.8918 50.6337 35.5385 52.1085 37.4892 53.0565L37.7218 77.0389L32.8993 72.7764C33.1318 71.8483 33.2558 70.8776 33.25 69.8779V69.7597C33.2652 66.6765 32.0549 63.7137 29.8855 61.5228C27.7161 59.332 24.7653 58.0927 21.6822 58.0775C18.599 58.0624 15.6361 59.2726 13.4453 61.442C11.2545 63.6114 10.0152 66.5622 10 69.6454V69.9902C10.0147 72.9463 11.155 75.7858 13.189 77.9309C15.2229 80.0761 17.9977 81.3658 20.9488 81.5377L30.3767 110.552C29.5373 110.761 28.792 111.244 28.2594 111.926C27.7267 112.607 27.4374 113.448 27.4375 114.312V129.812C27.4375 130.84 27.8458 131.826 28.5725 132.553C29.2992 133.279 30.2848 133.688 31.3125 133.688H124.312C125.34 133.688 126.326 133.279 127.053 132.553C127.779 131.826 128.188 130.84 128.188 129.812V114.312C128.188 113.448 127.898 112.607 127.366 111.926C126.833 111.244 126.088 110.761 125.248 110.552L134.676 81.5358C137.625 81.3616 140.397 80.0711 142.429 77.9266C144.461 75.782 145.6 72.9444 145.615 69.9902V69.6454C145.608 68.1188 145.3 66.6086 144.709 65.201C144.117 63.7935 143.255 62.5162 142.17 61.442C141.085 60.3678 139.799 59.5178 138.386 58.9406C136.973 58.3633 135.46 58.07 133.933 58.0775C132.407 58.085 130.896 58.3932 129.489 58.9843C128.081 59.5754 126.804 60.438 125.73 61.5228C123.56 63.7137 122.35 66.6765 122.365 69.7597V69.8779C122.361 70.8796 122.483 71.8541 122.718 72.7841L117.903 77.0389L118.136 53.0526C120.085 52.1035 121.73 50.6281 122.885 48.7932C124.04 46.9582 124.659 44.8369 124.672 42.6687C124.684 40.5006 124.09 38.3721 122.957 36.5238C121.824 34.6754 120.196 33.1809 118.258 32.209L118.025 32.0927L118.018 32.0889C115.641 30.9061 112.932 30.572 110.34 31.1422C107.748 31.7124 105.429 33.1525 103.768 35.2231C102.108 37.2937 101.206 39.8703 101.212 42.5245C101.219 45.1787 102.133 47.7507 103.804 49.8131L91.5494 69.3005L84.5163 44.4521C86.5592 43.0464 88.0991 41.0244 88.911 38.6813C89.723 36.3382 89.7644 33.7968 89.0292 31.4285C88.294 29.0602 86.8208 26.9891 84.8247 25.5176C82.8286 24.0462 80.4143 23.2516 77.9346 23.25H77.8106ZM127.075 79.2767L116.508 88.6116C115.947 89.1075 115.254 89.4301 114.513 89.5403C113.772 89.6504 113.015 89.5434 112.333 89.2322C111.652 88.921 111.075 88.419 110.673 87.7868C110.271 87.1547 110.061 86.4195 110.068 85.6704L110.378 53.9187L93.4694 80.7976C93.0704 81.4317 92.4962 81.9365 91.8163 82.2509C91.1364 82.5654 90.3798 82.676 89.6383 82.5694C88.8968 82.4628 88.2021 82.1435 87.6383 81.6503C87.0745 81.157 86.6657 80.5109 86.4615 79.7901L77.8125 49.2358L69.1635 79.7901C68.9593 80.5109 68.5505 81.157 67.9867 81.6503C67.4229 82.1435 66.7282 82.4628 65.9867 82.5694C65.2452 82.676 64.4887 82.5654 63.8087 82.2509C63.1288 81.9365 62.5545 81.4317 62.1556 80.7976L45.2489 53.9187L45.557 85.6704C45.5641 86.4195 45.354 87.1547 44.952 87.7868C44.55 88.419 43.9733 88.921 43.2919 89.2322C42.6104 89.5434 41.8534 89.6504 41.1124 89.5403C40.3714 89.4301 39.6782 89.1075 39.1167 88.6116L28.5477 79.2728L28.3985 79.3813L38.489 110.438H117.136L127.226 79.3871L127.075 79.2767ZM77.6885 31H77.9268C78.9545 31.0013 79.9396 31.4108 80.6654 32.1384C81.3912 32.866 81.7982 33.8521 81.797 34.8798C81.7957 35.9076 81.3862 36.8927 80.6586 37.6185C79.931 38.3443 78.9448 38.7513 77.9171 38.75H77.7001C77.1913 38.7506 76.6872 38.651 76.2169 38.4569C75.7465 38.2627 75.3189 37.9778 74.9587 37.6185C74.5984 37.2591 74.3124 36.8323 74.1171 36.3624C73.9218 35.8925 73.8209 35.3887 73.8203 34.8798C73.8196 34.371 73.9192 33.867 74.1134 33.3966C74.3075 32.9262 74.5924 32.4987 74.9518 32.1384C75.3112 31.7781 75.738 31.4921 76.2079 31.2968C76.6778 31.1015 77.1796 31.0006 77.6885 31ZM41.0465 39.0309L41.0504 39.029C41.9699 38.5809 43.0293 38.5146 43.9975 38.8445C44.9658 39.1743 45.7643 39.8737 46.219 40.7899C46.6737 41.7062 46.7476 42.7651 46.4247 43.7357C46.1018 44.7063 45.4082 45.5098 44.4953 45.9711L44.4894 45.9749L44.3151 46.0621L44.3073 46.0641C43.3899 46.5157 42.3311 46.5864 41.3618 46.2607C40.3925 45.935 39.5912 45.2394 39.1325 44.3255C38.6739 43.4115 38.5951 42.3533 38.9133 41.3815C39.2316 40.4097 39.921 39.6031 40.8314 39.1375L41.0465 39.0309ZM109.374 40.7766C109.831 39.8565 110.635 39.1555 111.609 38.8278C112.583 38.5001 113.647 38.5724 114.567 39.029L114.782 39.1375H114.786C115.696 39.6031 116.386 40.4097 116.704 41.3815C117.022 42.3533 116.943 43.4115 116.485 44.3255C116.026 45.2394 115.225 45.935 114.255 46.2607C113.286 46.5864 112.227 46.5157 111.31 46.0641L111.302 46.0621L111.128 45.9749L111.122 45.9711C110.666 45.7448 110.259 45.4309 109.925 45.0474C109.59 44.6639 109.335 44.2182 109.172 43.7358C109.01 43.2535 108.944 42.7439 108.979 42.2361C109.014 41.7284 109.148 41.2324 109.374 40.7766ZM17.75 69.6841V69.6802C17.7559 68.6525 18.1698 67.6693 18.9007 66.9467C19.2626 66.589 19.6914 66.306 20.1627 66.114C20.6339 65.9219 21.1384 65.8246 21.6473 65.8275C22.1562 65.8305 22.6595 65.9336 23.1285 66.131C23.5975 66.3285 24.023 66.6164 24.3808 66.9783C24.7386 67.3401 25.0215 67.769 25.2136 68.2402C25.4056 68.7115 25.5029 69.2159 25.5 69.7248V69.9108C25.5029 70.4197 25.4056 70.9242 25.2136 71.3954C25.0215 71.8667 24.7386 72.2955 24.3808 72.6574C23.6583 73.3883 22.675 73.8022 21.6473 73.8081C21.1384 73.811 20.6339 73.7137 20.1627 73.5216C19.6914 73.3296 19.2626 73.0466 18.9007 72.6889C18.1698 71.9664 17.7559 70.9831 17.75 69.9554V69.6841ZM133.971 65.8285C134.998 65.8233 135.986 66.2264 136.716 66.9491C137.446 67.6717 137.86 68.6548 137.865 69.6822V69.9554C137.859 70.9831 137.445 71.9664 136.715 72.6889C135.984 73.4114 134.996 73.814 133.968 73.8081C132.94 73.8022 131.957 73.3883 131.235 72.6574C130.512 71.9265 130.109 70.9385 130.115 69.9108V69.7248C130.113 69.2159 130.21 68.7115 130.403 68.2404C130.595 67.7693 130.879 67.3407 131.237 66.9791C131.595 66.6175 132.02 66.3299 132.489 66.1328C132.959 65.9357 133.462 65.831 133.971 65.8285ZM35.6758 118.197C35.5957 118.197 35.5162 118.195 35.4374 118.189H35.1875V125.939H120.438V118.189H120.188C120.11 118.195 120.031 118.197 119.949 118.197H35.6758Z" stroke="#B8FF01" stroke-width="20" mask="url(#path-1-outside-1_10109_50)"/>
</svg>
