<svg width="523" height="212" viewBox="0 0 523 212" fill="none" xmlns="http://www.w3.org/2000/svg">
<path fill-rule="evenodd" clip-rule="evenodd" d="M270.852 54.6529C269.971 55.625 269.196 57.0628 269.129 57.8478C269.048 58.7926 268.529 58.7766 267.589 57.8005C266.386 56.5506 266.109 56.7295 265.76 58.9867C265.498 60.6755 265.114 61.1399 264.705 60.2611C263.966 58.6715 261.062 60.5169 259.204 63.7594C258.553 64.8941 257.927 65.7412 257.812 65.6422C256.971 64.92 257.115 65.9844 258.112 67.8668C258.952 69.4519 259.735 69.8202 260.772 69.1198C261.579 68.5724 262.108 67.5534 261.947 66.855C261.785 66.1579 262.159 65.8188 262.778 66.1036C263.397 66.3871 263.751 65.9648 263.566 65.1651C263.381 64.3654 263.495 64.0327 263.818 64.4263C264.143 64.8198 264.823 64.4165 265.332 63.5305C265.84 62.6433 268.213 61.2394 270.606 60.4089C274.805 58.9535 276.415 56.9703 275.745 54.0779C275.532 53.1552 275.294 53.2493 275.03 54.3609C274.729 55.6282 274.374 55.6509 273.544 54.4551C272.708 53.2524 272.079 53.2981 270.852 54.6529ZM277.56 53.2325C277.8 54.2693 277.715 55.5272 277.37 56.0283C277.025 56.5293 277.904 56.4582 279.324 55.8704C280.887 55.2224 282.58 55.4017 283.618 56.324C285.515 58.0114 286.883 62.6646 286.257 65.3007C285.709 67.6081 288.452 79.1733 290.096 81.4838C292.178 84.4111 302.84 80.3975 307.841 74.8033C309.958 72.4338 312.395 70.3334 313.256 70.1342C314.117 69.935 314.864 69.1544 314.917 68.3995C314.971 67.6446 315.73 66.8613 316.604 66.6589C317.479 66.4564 317.927 65.8276 317.599 65.2622C317.271 64.6966 318.378 63.5508 320.057 62.7153C321.736 61.8797 323.327 60.5218 323.593 59.6989C323.858 58.876 324.311 58.489 324.598 58.8397C324.886 59.1889 326.765 57.8387 328.772 55.8363C330.779 53.8352 333.106 52.0382 333.944 51.8443C334.782 51.6504 335.32 50.8535 335.139 50.073C334.959 49.2926 335.289 48.8733 335.872 49.1419C336.456 49.4104 337.632 48.9521 338.485 48.1228C339.338 47.2935 339.667 46.6488 339.215 46.6899C338.764 46.7308 338.252 46.1447 338.077 45.3886C337.902 44.6338 338.79 45.0359 340.049 46.2822C341.31 47.5309 343.279 48.3335 344.429 48.0675C347.28 47.4077 348.781 48.2565 348.872 50.5767C348.914 51.6484 350.03 54.9802 351.353 57.9834C353.641 63.1811 353.864 63.4023 356.019 62.5904C357.263 62.1214 358.358 61.1132 358.452 60.3489C358.558 59.4886 358.768 59.5684 359.004 60.5588C359.457 62.4657 363.082 61.917 363.222 59.92C363.275 59.1651 364.304 58.3195 365.508 58.0408C367.165 57.6573 367.573 56.989 367.187 55.2893C366.801 53.5844 366.901 53.4221 367.604 54.6164C368.609 56.3225 372.703 54.3922 372.862 52.1358C372.908 51.4661 373.573 50.7694 374.339 50.5881C376.763 50.015 379.639 46.788 380.462 43.7189C381.237 40.8326 383.001 40.6403 382.802 43.4649C382.739 44.3613 383.062 44.2528 383.684 43.1677C384.223 42.226 385.667 41.2236 386.891 40.9402C388.117 40.6566 389.769 39.5679 390.565 38.5224C391.36 37.4756 392.247 36.6627 392.536 36.716C392.825 36.768 392.937 36.2749 392.785 35.6201C392.615 34.8858 393.409 34.7021 394.853 35.1443C396.142 35.5371 397.167 35.3878 397.13 34.8103C397.032 33.2615 410.889 31.4802 412.05 32.8923C412.383 33.296 413.191 33.5031 413.847 33.3513C414.504 33.1994 415.947 34.1169 417.056 35.3887C420.668 39.536 427.594 43.6876 429.178 42.6554C429.994 42.1236 431.009 42.287 431.433 43.0192C432.594 45.0227 443.482 43.2766 443.005 41.1631C442.732 39.949 442.896 39.9598 443.628 41.2039C444.192 42.1631 445.528 42.6248 446.714 42.272C448.727 41.6738 451.941 40.9042 458.04 39.5603C462.309 38.6194 479.542 32.8056 479.832 32.2077C479.97 31.9233 482.404 31.6045 485.239 31.4991C488.075 31.3923 490.43 30.8081 490.473 30.2001C490.515 29.5907 491.285 29.5907 492.184 30.1997C493.081 30.8088 494.65 30.8346 495.668 30.2586C496.928 29.5459 497.919 29.8147 498.763 31.0991C499.856 32.7594 499.916 32.6536 499.263 30.215C498.856 28.6906 498.373 27.7518 498.191 28.1288C498.009 28.5071 497.449 28.098 496.947 27.2219C495.032 23.8765 477.893 24.8458 477.991 28.2943C478.03 29.6327 477.85 29.6718 477.1 28.4884C476.368 27.3334 473.266 27.8799 463.044 30.9612C455.83 33.1372 445.487 35.8673 440.06 37.03C434.36 38.2493 429.996 39.7522 429.727 40.5854C429.396 41.6125 429.144 41.3982 428.853 39.8439C428.598 38.4825 427.707 37.4453 426.489 37.094C425.413 36.7853 423.492 35.5004 422.219 34.2409C420.946 32.9802 419.525 32.0372 419.061 32.1446C418.597 32.2519 417.444 31.3443 416.497 30.1267C414.033 26.9557 405.772 25.5448 400.935 27.4705C398.75 28.3407 396.913 29.1629 396.852 29.2998C396.791 29.4354 396.496 29.6792 396.195 29.842C395.895 30.0046 395.536 30.6142 395.397 31.1959C395.259 31.7787 394.703 31.7954 394.162 31.2335C393.558 30.605 391.568 31.0681 389.015 32.4313C383.467 35.391 382.883 35.7949 382.633 36.8423C382.516 37.3352 381.943 37.5191 381.359 37.2506C380.776 36.9832 380.076 37.4139 379.804 38.2088C379.532 39.0048 378.526 40.1787 377.568 40.819C374.324 42.986 370.338 47.2881 371.803 47.0421C372.601 46.9074 373.374 47.3132 373.52 47.9437C373.671 48.5947 372.708 48.8728 371.29 48.5867C368.877 48.1001 365.13 50.4324 364.289 52.9452C363.654 54.8406 355.749 57.7624 354.162 56.6878C353.368 56.1491 351.8 53.315 350.677 50.3885C347.581 42.3235 346.36 40.9089 342.717 41.1647C339.504 41.3912 332.447 44.6907 330.995 46.6455C330.145 47.7913 328.398 49.0463 326.973 49.5382C326.461 49.7148 324.683 51.1577 323.023 52.7436C321.363 54.3308 319.73 55.747 319.395 55.892C319.06 56.0371 317.43 57.4648 315.773 59.0661C312.754 61.9818 305.954 68.1314 301.501 71.9703C300.196 73.0961 299.212 74.3851 299.315 74.8323C299.419 75.2796 298.751 75.6528 297.832 75.663C296.846 75.6724 296.082 76.6176 295.969 77.9669C295.795 80.0514 295.762 80.0482 295.605 77.9324C295.47 76.1153 295.054 75.693 293.698 75.9906C291.44 76.4863 290.319 75.3969 289.788 72.1903C288.625 65.1699 288.044 60.7881 288.125 59.6419C288.174 58.9473 287.91 58.4481 287.54 58.5337C287.17 58.6194 286.466 56.9596 285.976 54.8451C285.487 52.7306 285.006 50.9787 284.908 50.9527C284.81 50.9268 283.019 51.0052 280.927 51.1275C277.876 51.3044 277.211 51.7216 277.56 53.2325ZM255.734 67.9203C256.179 68.9311 256.291 69.8166 255.981 69.8883C255.672 69.96 255.153 69.3752 254.828 68.589C254.387 67.5192 254.011 67.5953 253.335 68.894C252.838 69.8475 252.802 70.5605 253.256 70.4785C253.709 70.3952 254.56 71.4337 255.146 72.786C256.121 75.0339 256.29 75.0528 257.127 73.0134C258.043 70.7761 256.898 65.6257 255.552 65.9371C255.206 66.0172 255.287 66.9098 255.734 67.9203ZM95.01 105.972C94.9632 106.627 94.0168 107.394 92.9057 107.676C91.0853 108.136 88.5662 110.576 84.0406 116.259C83.1841 117.337 81.771 119.05 80.9008 120.069C77.2611 124.327 76.5004 125.676 77.0455 126.911C77.3961 127.705 76.8805 128.167 75.7239 128.099C74.6813 128.036 73.062 129.047 72.1249 130.347C71.1882 131.645 69.7834 133.536 69.004 134.547C67.5845 136.389 67.5397 139.155 68.9348 138.832C69.3426 138.738 69.5879 139.033 69.4793 139.491C69.3712 139.948 68.4752 139.774 67.4885 139.105C66.0023 138.099 65.648 138.276 65.4206 140.149C65.27 141.392 64.6735 142.519 64.0946 142.653C63.5163 142.787 62.6648 143.526 62.2026 144.295C60.5184 147.102 58.294 149.862 57.7997 149.759C57.5211 149.702 57.256 150.792 57.2111 152.182C57.1537 153.962 56.6097 154.637 55.373 154.463C54.3412 154.317 53.7529 154.804 53.9475 155.645C54.1299 156.433 53.8456 157.176 53.3157 157.299C52.259 157.544 50.5772 160.358 49.8037 163.175C49.5319 164.167 48.8837 165.076 48.3633 165.196C47.8423 165.317 47.7236 165.945 48.0987 166.593C48.4902 167.268 48.2834 167.541 47.6135 167.233C46.9723 166.938 45.4443 168.21 44.219 170.06C42.9934 171.908 41.7665 173.474 41.4923 173.537C41.2181 173.601 39.9397 176.023 38.6512 178.92C37.3626 181.818 36.0116 184.257 35.649 184.341C35.2864 184.425 33.8088 187.197 32.3652 190.501C30.9222 193.806 29.3275 196.605 28.8218 196.722C28.316 196.839 28.2039 197.455 28.5722 198.091C28.9405 198.727 28.599 199.782 27.8144 200.438C27.0291 201.093 26.5686 202.414 26.7905 203.372C27.0144 204.34 26.7267 204.9 26.1446 204.633C25.5679 204.368 25.0491 204.811 24.9926 205.618C24.9357 206.423 25.3119 206.986 25.8284 206.866C26.3444 206.747 27.0832 207.336 27.469 208.174C27.9668 209.257 28.2927 208.91 28.5891 206.982C28.8194 205.487 29.1029 204.676 29.2195 205.18C29.3361 205.683 29.9267 204.989 30.5319 203.636C31.1377 202.284 31.3916 200.76 31.0964 200.252C30.8015 199.742 30.8256 198.502 31.1502 197.496C31.6421 195.97 31.7537 196.032 31.8265 197.875C31.9077 199.952 34.3494 196.298 44.3481 179.132C45.8652 176.527 46.7555 173.783 46.4792 172.563C46.0778 170.791 46.1611 170.734 47.0209 172.196C47.8241 173.561 48.2765 173.552 49.1797 172.155C49.808 171.183 50.7485 169.95 51.2697 169.414C51.7904 168.877 51.9838 167.411 51.6982 166.154C51.255 164.201 51.3377 164.127 52.2631 165.644C53.1743 167.137 53.4268 166.803 53.8496 163.544C54.2574 160.407 54.5947 159.921 55.626 160.992C56.6608 162.066 56.8453 161.765 56.6102 159.383C56.4382 157.638 56.7282 156.637 57.326 156.912C58.5552 157.477 61.6323 154.306 62.4469 151.635C62.7752 150.56 63.9372 149.065 65.0294 148.314C67.7647 146.434 74.3597 136.692 73.9868 135.081C73.8196 134.359 74.1349 133.975 74.6877 134.229C75.2405 134.483 75.8543 133.707 76.0524 132.504C76.3378 130.777 76.681 130.595 77.6868 131.639C78.4485 132.431 79.021 132.441 79.1116 131.665C79.3269 129.815 82.2858 124.605 82.5275 125.649C82.6381 126.127 82.9842 125.726 83.2965 124.756C83.6092 123.787 84.216 123.269 84.6461 123.607C85.7435 124.471 87.1588 122.493 86.7394 120.68C86.4025 119.225 91.4741 114.678 94.3716 113.839C95.1494 113.614 95.6698 112.932 95.5292 112.325C95.3883 111.716 95.7854 111.454 96.4115 111.741C97.0379 112.029 98.2723 111.31 99.1547 110.145C100.628 108.198 100.913 108.245 102.643 110.721C103.836 112.43 104.598 114.41 104.719 116.124C104.825 117.61 105.374 121.196 105.94 124.091C106.505 126.986 107.259 131.414 107.615 133.931C109.043 144.03 109.941 147.675 111.865 151.174C113.7 154.511 114.1 154.707 117.487 153.923C119.493 153.459 121.597 152.234 122.164 151.201C122.981 149.711 122.968 149.366 122.102 149.527C121.501 149.641 120.51 148.814 119.898 147.691C119.049 146.131 118.662 146.036 118.258 147.291C117.931 148.307 116.8 148.779 115.296 148.53C113.049 148.156 112.793 147.786 111.948 143.671C110.69 137.553 109.43 129.513 109.054 125.21C108.881 123.236 107.897 118.427 106.866 114.525C105.316 108.654 104.639 107.134 102.949 105.725C100.728 103.872 95.1454 104.046 95.01 105.972ZM174.67 87.9391C172.936 89.8269 173.138 91.2181 174.992 90.1585C175.224 90.0263 175.45 90.814 175.493 91.9085C175.551 93.4031 176.054 93.7876 177.51 93.4507C178.576 93.2039 179.481 92.5326 179.522 91.9575C179.563 91.3837 182.243 90.4082 185.479 89.7902C189.75 88.9747 191.785 89.1383 192.901 90.388C194.622 92.3146 196.584 98.4873 195.551 98.7264C195.184 98.8114 195.226 99.4711 195.645 100.194C196.064 100.916 197.116 104.108 197.984 107.286C198.851 110.464 199.956 114.041 200.437 115.234C203.646 123.183 213.494 121.447 221.228 111.571C221.908 110.705 222.093 109.479 221.658 108.73C221.238 108.004 221.159 106.76 221.483 105.966C222.42 103.67 219.008 106.598 216.865 109.931C215.574 111.939 214.813 112.397 214.373 111.432C213.96 110.529 213.856 110.634 214.076 111.733C214.262 112.662 214.046 113.132 213.595 112.778C213.144 112.423 212.925 112.777 213.107 113.566C213.289 114.354 212.998 114.651 212.459 114.227C211.92 113.804 209.744 113.85 207.623 114.33C205.21 114.876 203.282 114.618 202.47 113.64C201.646 112.646 200.273 108.512 198.7 102.286C195.665 90.2735 195.387 89.4549 193.079 85.7873C191.313 82.9813 190.905 82.9111 184.02 84.2276C179.288 85.1339 176.075 86.408 174.67 87.9391ZM97.206 107.986C97.3691 108.691 97.3766 109.297 97.222 109.332C97.0674 109.368 96.6312 108.862 96.2517 108.207C95.8723 107.552 95.8654 106.946 96.2357 106.86C96.6059 106.775 97.0428 107.281 97.206 107.986ZM170.973 92.3429C170.915 93.1583 170.009 93.6299 168.904 93.4184C166.601 92.9781 160.629 98.2218 161.103 100.27C161.281 101.041 161.515 101.307 161.622 100.858C161.728 100.41 162.723 100.637 163.833 101.365C164.943 102.092 166.245 102.274 166.728 101.771C170.235 98.1143 172.991 93.7162 172.663 92.2988C172.195 90.2766 171.116 90.3048 170.973 92.3429ZM247.866 74.2751C247.249 74.6825 246.564 75.5404 246.344 76.1801C246.123 76.8186 244.169 78.7993 242.001 80.581C239.832 82.3615 237.871 84.3115 237.642 84.914C237.412 85.5153 236.502 86.5886 235.619 87.298C234.524 88.1778 234.264 89.1562 234.802 90.3738C235.235 91.3564 235.337 92.2185 235.027 92.2902C234.717 92.3619 234.189 91.755 233.853 90.9405C233.005 88.8859 229.447 94.3945 230.021 96.8729C230.556 99.1861 233.506 98.2077 233.41 95.7483C233.373 94.8036 233.711 93.9544 234.162 93.8609C234.735 93.743 234.781 94.1321 234.315 95.1554C233.012 98.0156 235.504 96.3884 237.517 93.0641C238.564 91.3367 239.745 89.8482 240.142 89.7563C241.088 89.5372 243.901 84.9857 244.005 83.5034C244.05 82.8665 244.728 82.515 245.513 82.7223C246.31 82.9321 246.793 82.4664 246.608 81.6668C246.426 80.8786 246.58 80.1651 246.951 80.0794C247.321 79.9937 247.587 80.4519 247.542 81.0983C247.496 81.7435 248.111 81.8306 248.908 81.2911C249.705 80.7516 250.394 79.161 250.439 77.7572C250.484 76.352 250.941 75.1054 251.453 74.9868C251.966 74.8682 252.285 74.338 252.162 73.81C251.927 72.7938 249.745 73.0301 247.866 74.2751ZM158.071 101.663C158.191 102.191 157.178 103.02 155.82 103.503C154.461 103.985 152.528 105.726 151.524 107.37C150.519 109.014 148.792 111.007 147.685 111.797C146.578 112.588 145.266 114.086 144.769 115.124C144.272 116.163 143.107 117.637 142.18 118.399C140.169 120.054 139.29 122.399 140.135 123.856C140.471 124.437 140.46 124.979 140.11 125.06C139.76 125.14 139.205 124.744 138.877 124.177C138.375 123.31 131.972 129.558 128.443 134.357C125.724 138.055 122.181 142.574 121.328 143.435C119.934 144.84 120.949 147.974 122.957 148.467C124.125 148.754 126.008 147.042 128.723 143.227C130.939 140.113 132.95 137.518 133.191 137.462C133.622 137.363 135.413 134.982 139.336 129.299C140.441 127.698 142.252 125.751 143.362 124.972C145.284 123.622 147.986 120.4 149.788 117.305C150.246 116.519 151.345 115.708 152.229 115.504C153.114 115.299 154.217 114.51 154.681 113.751C156.959 110.025 159.506 107.069 160.67 106.799C162.403 106.398 163.989 103.495 163.211 102.153C162.868 101.558 162.241 101.495 161.82 102.012C161.398 102.526 160.905 102.311 160.724 101.531C160.544 100.75 159.824 100.244 159.124 100.406C158.424 100.568 157.95 101.134 158.071 101.663ZM499.991 28.3211C499.835 30.5499 502.286 32.8451 505.25 33.2445C508.592 33.6943 509.055 32.6813 506.904 29.6226C504.745 26.5499 500.177 25.6912 499.991 28.3211ZM227.645 96.5599C227.596 97.2613 226.502 98.4893 225.215 99.2882C222.776 100.802 222.58 101.976 224.444 103.906C225.687 105.194 228.871 103.49 228.469 101.751C228.325 101.13 228.636 100.52 229.161 100.399C229.686 100.277 229.923 99.3474 229.688 98.3312C229.158 96.0411 227.767 94.8334 227.645 96.5599ZM222.569 105.22C223.048 107.288 224.303 108.611 224.601 107.361C224.866 106.247 223.412 103.079 222.71 103.242C222.398 103.314 222.334 104.204 222.569 105.22ZM19.948 202.019C20.4983 204.846 21.4939 207.378 22.7451 209.133C24.1229 211.063 24.5679 211.295 24.274 209.926C23.931 208.329 24.026 208.279 24.8243 209.634C25.3647 210.553 26.0315 210.767 26.3422 210.123C26.7223 209.335 26.0661 208.305 24.2553 206.846C22.0221 205.044 21.5401 204.14 21.1327 200.99C20.8135 198.516 20.3897 197.325 19.8728 197.446C19.4417 197.547 19.475 199.588 19.948 202.019Z" fill="#858585"/>
<path fill-rule="evenodd" clip-rule="evenodd" d="M27.8193 0.48018C27.1201 1.05648 27.5365 6.29871 28.3497 7.14822C28.7107 7.5256 28.6107 7.92431 28.0197 8.4622C26.8756 9.50424 26.8342 13.5704 27.9638 13.9277C28.793 14.1898 28.5361 15.7497 27.5795 16.2572C26.9543 16.5889 28.0462 20.0536 28.7759 20.0536C29.0696 20.0536 29.124 20.2901 28.8982 20.5872C28.6749 20.8809 28.5615 21.4683 28.6465 21.8935C28.7314 22.3182 28.5346 22.9304 28.2093 23.2536C27.7022 23.7569 27.5676 26.5291 27.7685 32.3109C27.7867 32.8309 27.4267 33.5647 26.9683 33.9425C26.5104 34.3199 26.1354 34.9303 26.1354 35.2983C26.1354 35.6667 25.7361 36.2084 25.2487 36.5026C24.5013 36.9525 24.4697 37.1442 25.0483 37.7188C25.4259 38.0936 25.9417 38.2951 26.194 38.1666C26.4467 38.0381 26.9113 38.0641 27.2268 38.2246C27.6339 38.4321 27.6137 38.6114 27.1568 38.8445C26.6943 39.0797 26.8336 39.3132 27.6525 39.6744C28.5879 40.0872 28.734 40.4193 28.4693 41.5348C28.2922 42.2814 27.8975 43.3098 27.593 43.8199C27.2651 44.3689 27.2066 45.2402 27.449 45.9544C27.6748 46.6182 27.781 47.3533 27.6851 47.5881C27.5893 47.8229 27.4526 49.7392 27.3806 51.8463C27.3003 54.2002 27.0268 55.7387 26.671 55.8365C26.2644 55.9483 26.2908 56.1929 26.7601 56.6587C27.2019 57.0975 27.4282 58.6966 27.4293 61.3843C27.4298 64.2539 27.6204 65.4987 28.0778 65.6242C28.4341 65.722 28.7252 66.0742 28.7252 66.4067C28.7252 66.9489 29.0619 67.0889 30.0915 66.9753C30.7473 66.9028 31.2383 68.0541 30.8167 68.6748C30.1899 69.5982 31.5392 71.0577 34.2154 72.3503C36.5441 73.4748 37.5303 73.4577 37.5303 72.2919C37.5303 71.856 37.9379 71.6904 38.7858 71.7822C40.1599 71.9303 42.7098 70.3922 42.7098 69.4146C42.7098 69.0897 43.0698 68.5775 43.5105 68.2761C43.9508 67.9751 44.1984 67.4872 44.0611 67.1922C43.9234 66.8968 44.1419 66.5506 44.5464 66.423C44.9572 66.2928 45.1473 65.9 44.9763 65.5337C44.8085 65.1726 44.9287 64.8772 45.2441 64.8772C45.5596 64.8772 45.8175 64.6667 45.8175 64.4089C45.8175 64.1515 46.7312 63.0855 47.8484 62.0396C49.1961 60.7773 50.0015 59.541 50.2428 58.362C50.6427 56.4115 51.4227 55.0305 52.4213 54.5037C52.7777 54.3159 53.0688 53.9483 53.0688 53.6866C53.0688 52.9063 54.7884 49.936 55.24 49.936C55.4705 49.936 55.6585 49.3413 55.6585 48.6143C55.6585 47.8878 56.0983 46.783 56.6354 46.1597C58.1985 44.3463 59.3587 41.7008 59.0438 40.6673C58.8211 39.9352 58.9371 39.7713 59.5431 39.9629C60.188 40.167 60.3159 39.8498 60.2418 38.2353C60.1512 36.2515 61.1011 35.0434 62.7803 35.0084C63.3754 34.9961 63.5205 34.3404 63.6442 31.1002C63.6681 30.4727 64.3399 29.4401 65.1722 28.7523C66.3635 27.7675 66.4914 27.4969 65.8196 27.3863C64.6439 27.1925 64.7713 26.457 65.9807 26.457C67.3693 26.457 68.7393 25.2121 68.4285 24.2328C68.2783 23.759 68.4788 23.3189 68.9066 23.1835C69.3116 23.0555 69.6431 22.5983 69.6431 22.1675C69.6431 21.7368 69.898 21.2549 70.2098 21.096C70.5216 20.9372 70.6713 20.3528 70.5423 19.797C70.3429 18.9381 70.476 18.8216 71.4311 19.0192C72.3354 19.2066 72.7493 18.9356 73.5588 17.625C74.1115 16.7302 75.2126 15.3258 76.0061 14.504C76.7991 13.6822 77.6734 12.7776 77.9484 12.4942C78.2235 12.2107 78.4483 11.5862 78.4483 11.1068C78.4483 10.6167 78.788 10.2351 79.2252 10.2351C79.7851 10.2351 80.0021 9.76251 80.0021 8.54202C80.0021 7.24129 79.6463 6.5493 78.4659 5.55378C77.6206 4.84173 76.5883 4.2586 76.1719 4.2586C75.7554 4.2586 75.0484 3.95678 74.6004 3.58795C73.8608 2.97792 73.7867 2.97792 73.7867 3.58795C73.7867 3.95678 73.4299 4.2586 72.9937 4.2586C72.5571 4.2586 72.0878 4.50064 71.9501 4.79648C71.7911 5.13714 70.6039 5.34674 68.7093 5.36766C66.9508 5.3873 65.1934 5.6763 64.444 6.06862C63.7427 6.43574 62.4566 6.85794 61.5859 7.00735C60.7158 7.15633 59.6737 7.65537 59.2702 8.11641C58.3974 9.11449 57.7303 9.20029 57.7303 8.31406C57.7303 7.50809 57.1994 7.50767 55.3291 8.3115C54.5133 8.66198 52.9719 8.95013 51.9034 8.95184C50.8354 8.95312 49.9611 9.12943 49.9611 9.34373C49.9611 9.55803 48.9941 9.86795 47.8126 10.0323C46.6307 10.1967 44.8904 10.5979 43.9446 10.9237C42.9988 11.2494 41.6599 11.5158 40.969 11.5158C40.278 11.5158 39.5788 11.8039 39.4146 12.1561C39.2395 12.5326 38.4626 12.7964 37.5303 12.7964C36.6539 12.7964 35.8206 13.062 35.6678 13.3894C35.5082 13.7326 34.9685 13.8914 34.389 13.7667C33.7752 13.6344 33.3867 13.7672 33.3867 14.1087C33.3867 14.4536 33.1174 14.364 32.6834 13.8743C32.1934 13.3219 32.0193 11.9798 32.1095 9.44447C32.1809 7.44406 32.0442 5.50683 31.8054 5.1397C31.5667 4.77257 31.2357 3.77023 31.0699 2.91261C30.9042 2.05456 30.4106 1.23962 29.9729 1.10131C29.5358 0.962567 29.3224 0.656059 29.5 0.419561C29.9444 -0.173818 28.5517 -0.123445 27.8193 0.48018ZM64.8941 14.4848C64.8485 15.4367 64.5154 16.2679 64.1301 16.3896C63.7541 16.5087 63.2957 17.3817 63.1118 18.3298C62.9279 19.2779 62.5742 20.0536 62.3256 20.0536C62.0769 20.0536 61.8739 20.3417 61.8739 20.6939C61.8739 21.0461 61.5243 21.3343 61.097 21.3343C60.6697 21.3343 60.3201 21.6224 60.3201 21.9746C60.3201 22.3268 60.0766 22.6149 59.7793 22.6149C59.482 22.6149 59.2764 22.8553 59.323 23.1485C59.5281 24.4518 59.2194 25.0772 58.3974 25.0222C57.8841 24.9876 57.4335 25.3223 57.3263 25.8166C57.0052 27.3035 55.6704 29.382 54.1632 30.7417C53.1366 31.668 52.7777 32.3664 52.9491 33.1049C53.1423 33.9369 53.0191 34.0983 52.3535 33.8878C51.7951 33.7115 51.5149 33.852 51.5149 34.3088C51.5149 34.6861 51.1653 34.9948 50.738 34.9948C50.3107 34.9948 49.9543 34.6588 49.9461 34.2477C49.9342 33.6765 49.5685 33.8285 48.3922 34.8949C47.5459 35.6616 46.8534 36.5948 46.8534 36.9687C46.8534 37.4853 46.5343 37.5826 45.5254 37.3738C44.5257 37.1672 43.7897 37.3837 42.5472 38.2503C41.6397 38.8833 40.9555 39.5625 41.0265 39.7593C41.2129 40.2746 40.2444 40.2016 39.8455 39.6697C39.3861 39.0575 37.9203 40.0803 38.2482 40.7843C38.6299 41.6043 38.0058 41.8511 37.2097 41.195C36.8161 40.8705 36.4944 40.0731 36.4944 39.4221C36.4944 38.5478 36.6462 38.3642 37.0756 38.7181C37.8893 39.3888 39.0842 38.9094 39.0842 37.9122C39.0842 37.4537 39.2701 37.1736 39.4975 37.2893C40.0522 37.5719 40.7634 37.113 41.5341 35.9749C41.9355 35.3815 41.9831 34.9389 41.6635 34.7758C40.8431 34.3579 41.0814 33.7154 42.0624 33.7C43.0252 33.6847 45.2995 32.3122 45.2995 31.7461C45.2995 31.5604 45.0255 31.6347 44.6904 31.9109C43.84 32.6119 42.7419 31.7837 43.0853 30.7011C43.2987 30.0292 43.5043 29.9566 44.0803 30.3506C44.4796 30.6238 44.9453 30.7331 45.1146 30.5935C45.284 30.4539 45.7517 30.6106 46.1531 30.9414C47.0797 31.7052 48.4072 31.3077 48.4072 30.2665C48.4072 29.7355 48.6652 29.5536 49.1842 29.7175C49.6762 29.8734 49.9611 29.712 49.9611 29.2774C49.9611 28.9001 50.1942 28.5914 50.479 28.5914C50.7639 28.5914 50.997 28.3237 50.997 27.9967C50.997 27.6697 51.3466 27.2915 51.7739 27.1562C52.2012 27.0213 52.5508 26.7127 52.5508 26.4702C52.5508 26.2281 52.2012 26.0301 51.7739 26.0301C51.3466 26.0301 50.997 25.7291 50.997 25.3611C50.997 24.886 51.2979 24.7707 52.0329 24.9628C52.6674 25.1289 53.0688 25.0397 53.0688 24.7323C53.0688 24.4565 53.4184 24.3417 53.8457 24.477C54.2771 24.6132 54.6226 24.489 54.6226 24.197C54.6226 23.9076 55.1463 23.4815 55.7859 23.2497C56.4256 23.0179 57.2807 22.2538 57.6868 21.5511C58.0929 20.8485 58.7346 20.0186 59.1138 19.7065C60.0766 18.9129 59.9767 18.3405 58.6761 17.1994C57.2802 15.9751 56.1179 15.9426 55.1255 17.0999C54.7065 17.5883 53.9581 18.1706 53.4624 18.3934C52.57 18.7943 52.5115 18.4408 53.0108 15.6779C53.0429 15.5016 53.6266 15.3578 54.3082 15.3578C54.9898 15.3578 55.673 15.0884 55.8263 14.7588C55.9916 14.4045 56.8073 14.1685 57.8241 14.1813C60.2393 14.2111 63.5738 13.7006 64.1689 13.2101C64.9319 12.5813 64.9806 12.6662 64.8941 14.4848ZM43.9368 17.1972C43.8845 17.7257 44.202 17.8226 45.3612 17.6314C47.0072 17.3603 47.202 17.7172 46.0765 18.9424C45.1939 19.9037 45.4964 20.4805 46.8839 20.4805C48.934 20.4805 47.5992 22.2286 45.3866 22.4408C44.1041 22.5637 43.5857 22.3481 42.7005 21.3236C41.5501 19.9921 39.6021 19.5964 39.6021 20.6939C39.6021 21.0922 40.0911 21.3343 40.897 21.3343C42.4524 21.3343 42.5922 22.2034 41.156 22.9428C40.0108 23.5319 39.7497 24.7481 40.7675 24.7515C41.1238 24.7528 40.7157 25.1135 39.8611 25.5528C38.951 26.0207 38.1032 26.197 37.8152 25.9776C36.9046 25.2847 36.4193 25.5955 36.5866 26.7635C36.7513 27.9105 36.3981 28.0497 33.9912 27.785C33.165 27.6941 33.5576 26.2397 34.5682 25.6493C35.4834 25.1144 35.5005 25.0162 34.7406 24.6657C34.2766 24.4514 33.6918 24.3806 33.4411 24.5082C33.1909 24.6358 32.6984 24.454 32.3462 24.1044C31.8474 23.6092 31.8432 23.3321 32.327 22.8519C32.6688 22.5125 32.8714 21.7923 32.7771 21.251C32.4927 19.6169 33.8234 18.8549 36.8875 18.898C38.3855 18.9189 39.8891 18.7072 40.2283 18.4276C40.5676 18.1479 41.2647 17.9191 41.7775 17.9191C42.2903 17.9191 42.6824 17.7753 42.6487 17.599C42.4767 16.7021 42.7787 16.1603 43.3572 16.3285C43.7136 16.4323 43.9741 16.8229 43.9368 17.1972ZM50.738 20.9074C50.9141 21.1422 50.811 21.3343 50.5096 21.3343C50.2081 21.3343 49.9611 21.1422 49.9611 20.9074C49.9611 20.6726 50.0636 20.4805 50.1895 20.4805C50.3154 20.4805 50.5619 20.6726 50.738 20.9074ZM30.6328 24.8296C30.4676 25.1699 30.3448 25.0687 30.32 24.5714C30.2977 24.1214 30.4199 23.8696 30.5919 24.0113C30.7638 24.153 30.7825 24.5214 30.6328 24.8296ZM46.8534 28.9026C46.4261 29.0367 45.9392 29.3188 45.7719 29.5293C45.6041 29.7402 45.168 29.6151 44.8018 29.2518C44.2232 28.6772 44.3641 28.5957 45.8838 28.6251C46.8441 28.6435 47.2807 28.7686 46.8534 28.9026ZM35.2835 35.9553C35.14 36.249 35.0224 36.0086 35.0224 35.4217C35.0224 34.8347 35.14 34.5948 35.2835 34.8881C35.4274 35.1818 35.4274 35.662 35.2835 35.9553ZM34.9406 39.5023C34.9406 39.8682 34.7075 40.0492 34.4226 39.904C34.1378 39.7589 33.9047 39.4596 33.9047 39.2385C33.9047 39.0174 34.1378 38.8368 34.4226 38.8368C34.7075 38.8368 34.9406 39.1365 34.9406 39.5023ZM43.7457 39.904C43.7457 40.2562 43.5126 40.5444 43.2278 40.5444C42.9429 40.5444 42.7098 40.2562 42.7098 39.904C42.7098 39.5518 42.9429 39.2637 43.2278 39.2637C43.5126 39.2637 43.7457 39.5518 43.7457 39.904ZM41.156 43.1514C41.156 43.361 40.8063 43.5326 40.379 43.5326C39.9517 43.5326 39.6021 43.2504 39.6021 42.9055C39.6021 42.5239 39.9056 42.3749 40.379 42.5243C40.8063 42.6596 41.156 42.9418 41.156 43.1514ZM37.9079 43.3636C37.7359 43.5053 37.289 43.5207 36.9155 43.3973C36.5022 43.2611 36.6249 43.1599 37.2284 43.1394C37.7743 43.1211 38.0799 43.2218 37.9079 43.3636ZM46.8534 44.1729C46.8534 44.5251 46.6203 44.8133 46.3354 44.8133C46.0506 44.8133 45.8175 44.5251 45.8175 44.1729C45.8175 43.8208 46.0506 43.5326 46.3354 43.5326C46.6203 43.5326 46.8534 43.8208 46.8534 44.1729ZM39.2551 45.4891C39.1002 45.8216 39.2064 46.094 39.4913 46.094C39.7761 46.094 40.1304 45.8331 40.2791 45.5142C40.5645 44.9008 43.5447 44.2336 44.2942 44.6152C44.5376 44.7394 44.6055 45.1215 44.446 45.4647C44.2859 45.8084 43.9581 45.9885 43.7172 45.866C43.4769 45.7435 43.0408 46.0116 42.7481 46.4619C42.3203 47.1206 42.4078 47.3217 43.1967 47.4916C43.7353 47.6077 44.4304 47.4933 44.7412 47.2372C45.1483 46.9016 45.2747 47.0809 45.1939 47.8826C45.0955 48.8623 44.9391 48.9482 43.8622 48.6109C42.2607 48.1089 42.3182 48.0854 42.4513 49.1889C42.5151 49.717 42.469 49.828 42.3488 49.4352C42.2286 49.0425 41.4103 48.5144 40.5298 48.2613C38.3854 47.6453 37.8815 47.6816 38.229 48.4282C38.6625 49.3592 37.679 49.6474 37.06 48.771C36.5954 48.1136 36.5239 48.1055 36.51 48.7099C36.5017 49.092 36.1686 49.6273 35.7708 49.8993C35.0234 50.4107 35.227 52.0704 36.0371 52.0704C37.1543 52.0704 36.3577 53.1441 35.199 53.1991C34.4019 53.2371 33.9047 53.0322 33.9047 52.6655C33.9047 52.3381 34.1963 52.0645 34.5521 52.0568C34.9473 52.0487 34.8468 51.8224 34.2931 51.4762C33.2054 50.7957 33.1604 49.6747 34.1636 48.2284C34.824 47.2764 34.9069 47.2534 34.9338 48.015C34.9618 48.8115 35.0271 48.8004 35.9169 47.8468C36.4494 47.2764 37.1305 46.9576 37.4594 47.1249C37.8033 47.2999 38.0483 47.1479 38.0483 46.7595C38.0483 46.3936 37.6986 46.094 37.2713 46.094C36.844 46.094 36.4944 45.7853 36.4944 45.4079C36.4944 44.9734 36.7793 44.812 37.2713 44.9678C37.6986 45.1027 38.0483 45.0331 38.0483 44.8133C38.0483 44.5934 38.3834 44.5192 38.7926 44.6485C39.2017 44.7778 39.41 45.1561 39.2551 45.4891ZM35.9765 46.2822C35.9765 46.386 35.7434 46.5891 35.4585 46.7343C35.1736 46.8794 34.9406 46.7945 34.9406 46.546C34.9406 46.2976 35.1736 46.094 35.4585 46.094C35.7434 46.094 35.9765 46.1785 35.9765 46.2822ZM47.6681 48.0448C46.928 48.6549 46.8534 48.6549 46.8534 48.0453C46.8534 47.6764 47.0865 47.3746 47.3713 47.3746C47.6562 47.3746 47.9162 47.0387 47.9494 46.6276C48.0063 45.9168 48.0208 45.9168 48.2462 46.6267C48.3762 47.0374 48.1161 47.6756 47.6681 48.0448ZM41.2704 50.7731C41.1694 51.136 41.5936 51.2051 42.6948 51.0058C44.6588 50.6502 44.6547 50.8286 42.6585 52.4739C41.719 53.2487 41.1756 54.058 41.3476 54.4277C41.5092 54.7748 41.3978 55.0587 41.1005 55.0587C40.8032 55.0587 40.6302 54.5063 40.7162 53.8314C40.8022 53.1564 40.5826 52.3163 40.2283 51.9646C39.4939 51.235 39.9497 49.8088 40.8312 50.0781C41.1523 50.1759 41.3502 50.4888 41.2704 50.7731ZM35.6833 56.2574C35.3886 57.1253 35.2405 57.2234 35.0789 56.6595C34.9608 56.2484 34.6485 55.9125 34.3848 55.9125C34.1207 55.9125 33.9047 55.4262 33.9047 54.832C33.9047 54.2373 33.5566 53.641 33.1309 53.5065C32.7051 53.3716 32.4777 53.1005 32.6253 52.9037C32.7724 52.7069 33.6089 53.1223 34.4837 53.8271C35.7973 54.8854 36.006 55.308 35.6833 56.2574ZM38.0483 59.0326C38.0483 59.34 37.7059 59.9641 37.2879 60.42C36.5685 61.2038 36.5265 61.1735 36.511 59.8612C36.4996 58.9067 36.7368 58.4738 37.2713 58.4738C37.6986 58.4738 38.0483 58.7253 38.0483 59.0326ZM24.174 90.2734C21.5899 91.4832 20.1909 92.6302 20.136 93.5856C20.004 95.8699 19.9936 95.8797 17.8379 95.7888C15.2787 95.6812 14.5349 96.5103 15.2678 98.6537C16.3333 101.77 18.402 104.151 20.0438 104.151C20.5825 104.151 21.622 104.738 22.3544 105.455C23.0868 106.173 23.9922 106.663 24.3661 106.544C24.7406 106.426 25.1902 106.702 25.3658 107.158C25.6667 107.94 25.7739 107.948 27.2656 107.313C28.1347 106.942 29.2851 106.733 29.8217 106.849C30.3583 106.965 30.7991 106.933 30.8011 106.779C30.8058 106.438 33.3525 105.432 34.2113 105.432C34.9634 105.432 35.5222 104.358 35.1669 103.595C34.7961 102.799 36.3038 100.034 37.277 99.726C37.9183 99.5233 38.0193 99.122 37.739 97.8895C37.5412 97.0225 37.3392 96.0112 37.2889 95.6428C37.1745 94.798 36.5674 93.4567 35.9242 92.6251C35.6517 92.2729 35.3016 91.6808 35.1467 91.3094C34.7515 90.3609 29.6875 89.0495 29.1437 89.7547C28.8749 90.1035 28.7387 90.1176 28.733 89.797C28.72 89.0055 26.3545 89.2527 24.174 90.2734ZM25.0995 90.6789C25.0995 90.7827 24.8665 90.9859 24.5816 91.131C24.2967 91.2761 24.0636 91.1912 24.0636 90.9427C24.0636 90.6943 24.2967 90.4907 24.5816 90.4907C24.8665 90.4907 25.0995 90.5752 25.0995 90.6789ZM31.3149 94.7536C31.3149 95.245 28.3025 96.4671 27.0916 96.4671C25.7604 96.4671 25.8946 95.4294 27.3008 94.8539C29.4793 93.9621 31.3149 93.916 31.3149 94.7536Z" fill="black"/>
</svg>
