<svg width="261" height="166" viewBox="0 0 261 166" fill="none" xmlns="http://www.w3.org/2000/svg">
<path fill-rule="evenodd" clip-rule="evenodd" d="M257.587 8.33849C256.284 9.06451 255.363 8.26579 256.368 7.28193C256.982 6.68057 256.939 6.59728 256.099 6.76667C254.774 7.03377 254.828 7.42733 256.435 9.21217C257.588 10.4933 257.832 10.5542 258.128 9.63133C258.363 8.90238 258.708 8.65805 259.194 8.87742C259.645 9.08062 259.677 8.9305 259.279 8.47545C258.93 8.07595 258.169 8.01441 257.587 8.33849ZM259.78 11.204C258.473 11.932 257.812 13.6124 259.039 13.087C259.461 12.9064 260.049 12.2703 260.345 11.6741C260.865 10.6247 260.846 10.6093 259.78 11.204ZM252.548 6.12489C252.076 6.61814 252.072 6.81506 252.539 6.62713C252.962 6.4569 253.312 6.09132 253.316 5.81547C253.321 5.53964 252.975 5.67881 252.548 6.12489ZM249.241 5.3545C247.442 4.95368 246.016 6.03138 246.583 7.36469C247.179 8.76893 247.404 8.84224 247.532 7.67324C247.624 6.82965 247.943 6.66245 249.044 6.88222C251.049 7.28275 251.24 5.79936 249.241 5.3545ZM242.447 4.32239C242.242 4.51965 241.532 4.37411 240.869 3.99899C239.703 3.33803 239.68 3.3537 240.142 4.49346C240.479 5.32195 240.84 5.54012 241.364 5.23009C241.8 4.97288 242.268 5.16523 242.492 5.69277C242.81 6.4423 242.897 6.39983 243.002 5.44017C243.146 4.12649 242.985 3.80448 242.447 4.32239ZM235.371 1.299C233.96 1.21837 232.64 0.981516 232.439 0.772434C232.238 0.56335 231.884 0.575161 231.652 0.798399C231.419 1.02164 230.988 0.953553 230.694 0.647149C229.879 -0.199811 226.585 -0.221443 226.194 0.61777C226.001 1.03182 225.388 1.07344 224.801 0.71252C224.015 0.230275 223.601 0.348336 223.149 1.1849C222.674 2.06375 222.46 2.1004 222.144 1.35716C221.71 0.334409 218.518 0.0873714 215.003 0.80456C213.883 1.03315 212.603 1.12967 212.158 1.01889C211.714 0.908113 210.661 1.23841 209.818 1.75349C208.975 2.26815 208.116 2.51316 207.91 2.29812C207.702 2.08266 207.248 2.1807 206.9 2.51555C206.552 2.85041 206.083 2.93314 205.858 2.69941C205.633 2.46568 205.165 2.54842 204.816 2.88328C204.468 3.21813 203.907 3.20525 203.57 2.85465C203.131 2.39781 202.494 2.66287 201.32 3.79123C200.381 4.69473 199.199 5.30841 198.546 5.23272C197.919 5.16015 197.05 5.44357 196.615 5.86244C196.179 6.28172 195.638 6.43346 195.413 6.19973C195.189 5.96599 194.614 6.15102 194.136 6.61048C193.658 7.06994 193.207 7.17387 193.134 6.8414C192.958 6.03653 191.219 6.79492 190.974 7.78418C190.606 9.26351 189.562 10.1617 188.245 10.1314C187.341 10.1111 186.901 9.81383 186.853 9.19144C186.802 8.51702 186.414 8.63735 185.353 9.65775C184.566 10.4143 184.139 11.1896 184.405 11.3802C184.67 11.5704 184.625 12.1191 184.304 12.5997C183.984 13.0798 183.525 13.2675 183.283 13.0163C183.042 12.7656 183.079 12.3346 183.366 12.0591C183.653 11.7831 182.811 11.8568 181.495 12.2222C180.179 12.588 178.912 13.0701 178.679 13.2941C178.446 13.5182 177.508 13.6845 176.594 13.6635C174.805 13.6224 172.952 14.945 173.703 15.7257C174.015 16.0503 173.863 16.2293 173.226 16.2857C172.693 16.3329 172.068 16.8655 171.775 17.5228C171.104 19.0289 170.328 19.8451 170.006 19.3851C169.098 18.0872 168.49 18.0396 167.76 19.2097C167.332 19.8972 166.677 20.3809 166.307 20.2843C165.936 20.1876 165.281 20.6713 164.853 21.3588C164.254 22.3196 163.912 22.4401 163.373 21.8796C162.932 21.4211 162.531 21.4534 162.291 21.9674C162.082 22.4168 161.636 22.6397 161.302 22.4633C160.968 22.2873 159.815 22.9187 158.741 23.8673C157.666 24.8164 156.229 25.8659 155.545 26.201C154.687 26.6218 154.467 26.9845 154.835 27.3757C155.251 27.8191 155.162 27.8911 154.423 27.707C153.862 27.5678 153.292 27.8755 153.016 28.466C152.738 29.0638 151.951 29.4755 151.039 29.4998C149.843 29.5318 149.463 29.7957 149.223 30.7597C148.996 31.6742 148.674 31.9747 147.934 31.9627C147.175 31.9511 146.991 32.2719 147.136 33.3536C147.242 34.1398 147.097 34.523 146.807 34.2221C146.242 33.634 144.231 35.7567 139 42.4658C135.89 46.455 134.669 48.6332 135.22 49.2065C135.829 49.8402 132.863 52.4542 131.69 52.3175C131.078 52.2465 130.068 52.6776 129.447 53.275C128.825 53.8729 127.961 54.3542 127.528 54.3443C127.094 54.3347 125.955 54.929 124.997 55.6655C123.012 57.1916 121.178 57.5102 120.711 56.4102C120.491 55.8903 119.688 56.171 118.092 57.3263C116.826 58.2426 115.199 59.0601 114.476 59.1428C112.93 59.3201 111.683 61.0572 112.495 61.9017C112.805 62.2246 112.87 62.672 112.638 62.8953C112.406 63.1185 111.927 63.0007 111.573 62.6331C111.158 62.2009 110.622 62.315 110.056 62.9561C108.428 64.7992 108.042 64.8747 106.809 63.5925C105.992 62.7426 105.372 62.5206 104.95 62.9265C104.602 63.2613 104.501 63.7265 104.726 63.9603C104.95 64.194 104.659 64.8419 104.079 65.4C103.499 65.9581 102.84 66.2234 102.615 65.9897C102.39 65.756 102.434 65.3456 102.713 65.0777C103.101 64.7043 102.991 64.5854 102.243 64.5682C101.706 64.5558 99.7303 65.9043 97.8531 67.5647C95.9763 69.2254 93.9823 70.8673 93.4219 71.2139C92.862 71.5609 92.2475 71.967 92.056 72.1168C91.8641 72.2661 91.4211 72.0901 91.0709 71.7259C90.7207 71.3617 90.3655 71.332 90.2821 71.6609C90.199 71.9893 89.012 72.7504 87.6439 73.3528C83.6707 75.1017 81.0055 78.1552 82.2883 79.4892C82.623 79.8373 82.4228 80.4993 81.8023 81.0959C81.1455 81.7275 80.5154 81.8697 80.1341 81.4732C79.5416 80.857 78.6725 81.305 77.2839 82.9445C76.9179 83.3766 76.4459 83.5516 76.2359 83.3331C76.0254 83.1143 74.965 83.5516 73.8791 84.3046C72.3894 85.3372 71.8986 86.0079 71.882 87.0315C71.8621 88.2882 71.778 88.3494 70.7609 87.8544C69.8469 87.4099 69.3366 87.6692 67.7364 89.3936C66.6779 90.5342 65.9444 91.745 66.1068 92.0845C66.3182 92.5265 66.101 92.7231 65.3422 92.7755C64.7594 92.8165 64.2235 92.5777 64.1508 92.2461C64.078 91.9136 63.585 91.8233 63.0549 92.046C62.5253 92.2682 62.1642 92.7806 62.2524 93.1849C62.495 94.2947 56.9357 99.4852 54.1866 100.717C53.8061 100.887 53.5585 101.318 53.6363 101.673C53.8363 102.589 51.6555 104.549 50.4667 104.521C49.6917 104.504 49.4663 104.72 49.4537 105.496C49.4449 106.044 48.9881 106.925 48.4389 107.453C47.8898 107.981 47.2801 108.912 47.0845 109.521C46.8784 110.163 45.9336 111.109 44.8376 111.769C43.7604 112.419 43.1996 112.975 43.5343 113.062C43.8575 113.147 43.3968 113.677 42.5101 114.242C41.4063 114.945 40.9328 115.598 41.009 116.314C41.1157 117.319 38.6679 120.192 33.3835 125.262C32.2498 126.349 31.1558 127.756 30.9528 128.388C30.706 129.157 30.0791 129.714 29.0616 130.069C27.9993 130.439 27.1689 131.198 26.3134 132.578C25.3654 134.108 24.7417 134.618 23.5595 134.829C22.1943 135.073 22.1016 135.176 22.6933 135.791C23.0578 136.17 23.1467 136.738 22.8907 137.052C21.5153 138.744 21.2147 138.987 20.3804 139.088C19.7887 139.16 19.6313 139.365 19.9296 139.675C20.1817 139.938 19.9132 140.609 19.3329 141.167C18.7525 141.725 18.0982 141.995 17.8792 141.767C17.6266 141.505 17.2449 141.855 16.8374 142.721C16.4837 143.473 14.8994 145.342 13.3164 146.874C8.724 151.319 8.1789 151.956 8.59614 152.39C8.81313 152.615 8.28195 153.394 7.41589 154.121C6.05949 155.259 5.76028 155.287 5.26142 154.326C4.94264 153.712 4.68008 151.372 4.67778 149.125C4.67548 146.878 4.28267 144.368 3.80479 143.548C3.2412 142.58 3.22271 142.131 3.75318 142.268C4.32545 142.417 4.6521 141.336 4.84459 138.658C4.99578 136.555 5.14788 134.73 5.18275 134.604C5.21723 134.476 4.72121 134.341 4.08026 134.302C3.10681 134.243 2.82775 134.489 2.38528 135.794C2.0938 136.655 1.88041 138.107 1.91172 139.023C1.94219 139.94 1.71208 140.935 1.39974 141.235C1.0874 141.535 1.10787 142.068 1.44501 142.418C1.78215 142.769 1.81529 143.289 1.51899 143.574C1.22226 143.859 0.907798 145.266 0.81936 146.701C0.731339 148.135 0.556601 149.407 0.431656 149.527C0.0201303 149.923 0.104207 155.386 0.528796 155.828C0.757232 156.065 1.24546 156.117 1.61476 155.942C2.13609 155.695 2.23948 155.803 2.08144 156.428C1.96918 156.869 1.67425 157.019 1.42579 156.76C1.17733 156.502 0.770735 157.695 0.52315 159.412C0.275158 161.129 0.0406403 162.68 0.00201011 162.859C-0.0365981 163.037 0.334718 163.098 0.827576 162.993C1.45465 162.861 1.66682 163.026 1.53586 163.543C1.1045 165.243 3.15304 166.142 6.10168 165.546C7.73046 165.217 9.27347 164.745 9.53137 164.497C9.78885 164.249 10.5992 164.243 11.3321 164.483C12.2852 164.795 12.9007 164.584 13.4939 163.744C14.1012 162.884 14.5051 162.759 15.0024 163.276C15.8279 164.134 17.409 164.232 17.916 163.457C18.1197 163.145 18.2058 163.137 18.1066 163.439C18.0074 163.741 18.8933 164.025 20.0747 164.07C22.5722 164.166 27.1744 164.481 29.967 164.748C31.3008 164.875 32.1215 164.596 32.5688 163.863C33.1062 162.981 33.4107 162.988 34.2909 163.903C35.1953 164.844 35.5469 164.836 36.568 163.854C37.6088 162.853 37.8826 162.857 38.5476 163.875C39.0662 164.67 40.0511 165.102 41.5534 165.194C42.7817 165.269 43.9089 165.457 44.0576 165.612C44.2064 165.766 45.0984 165.078 46.0391 164.082C49.3387 160.59 49.5952 158.739 46.6731 159.512C44.89 159.983 44.0022 159.713 44.2203 158.766C44.3606 158.158 44.1488 158.001 43.3847 158.149C42.4985 158.321 42.3916 158.171 42.5875 157.033C42.793 155.838 42.7021 155.725 41.6031 155.802C40.9375 155.848 40.218 155.705 40.0047 155.483C39.7914 155.261 39.0561 155.067 38.3708 155.051C37.6256 155.034 37.3102 155.216 37.5869 155.503C37.8406 155.767 37.7451 156.048 37.374 156.127C37.0029 156.205 36.3426 155.899 35.9062 155.445C35.4383 154.958 34.8243 154.898 34.4094 155.297C34.0227 155.669 33.7101 155.725 33.715 155.423C33.7308 154.422 25.228 153.493 24.2914 154.393C24.0715 154.605 22.4042 154.744 20.5874 154.702C16.2384 154.602 15.7431 153.551 18.7631 150.83C22.6939 147.288 28.3635 141.294 28.4873 140.549C28.5532 140.153 30.278 137.97 32.3201 135.698C34.3622 133.426 36.0751 131.181 36.1268 130.708C36.1785 130.236 36.4356 129.854 36.699 129.86C37.4857 129.878 41.7222 125.984 41.5868 125.367C41.5183 125.052 42.1498 124.107 42.9911 123.267C43.832 122.427 44.7524 121.22 45.0357 120.586C45.3194 119.951 46.0206 119.295 46.5946 119.127C47.2839 118.926 47.6087 118.446 47.5525 117.711C47.4941 116.951 47.8076 116.506 48.5464 116.3C49.9151 115.919 59.0711 106.88 58.5926 106.382C58.3964 106.178 58.7612 105.974 59.4035 105.929C60.3012 105.867 60.6799 105.527 61.0387 104.462C61.2958 103.699 62.3743 102.268 63.4362 101.281C64.4976 100.294 65.8303 98.8513 66.3976 98.0743C66.9653 97.2977 68.017 96.499 68.7354 96.299C69.4537 96.099 70.5752 95.5317 71.2269 95.0384C71.8793 94.5452 73.2556 93.5137 74.2852 92.7461C76.1434 91.3609 76.917 89.548 75.777 89.2513C75.4505 89.1661 75.3639 88.923 75.5851 88.7103C75.8062 88.4977 76.3399 88.4908 76.7712 88.6944C77.203 88.8975 78.5942 88.3285 79.8641 87.4297C81.7644 86.0849 82.1425 85.5725 81.9985 84.5364C81.8441 83.4187 81.9254 83.325 82.7238 83.7016C84.6232 84.598 87.7242 82.9321 90.7953 79.3655C92.4934 77.3931 93.6758 75.5289 93.6875 74.8044C93.698 74.1302 94.091 73.4177 94.5604 73.2207C95.9749 72.6278 96.3322 73.6608 95.1436 74.9052C94.3887 75.6957 94.3435 75.8946 95.0039 75.5237C95.539 75.2226 96.6223 74.9416 97.4112 74.8987C98.9446 74.8154 99.7285 74.3643 103.531 71.3771C105.213 70.0547 106.139 69.6546 106.543 70.0745C107.178 70.7349 108.799 68.7125 109.036 66.9642C109.125 66.3042 109.351 66.2363 109.824 66.728C110.189 67.107 110.772 67.1433 111.12 66.8084C111.468 66.4736 112.01 66.4665 112.323 66.7924C112.765 67.2518 113.156 66.9844 114.065 65.6027C114.904 64.3275 115.325 64.0051 115.546 64.4702C115.871 65.1547 118.881 64.253 120.062 63.1177C120.444 62.7504 121.728 62.4354 122.916 62.4178C124.104 62.4006 125.535 61.9444 126.096 61.4045C128 59.574 130.264 58.4146 130.815 58.9883C131.124 59.3087 131.002 59.7115 130.536 59.9061C129.344 60.4065 128.078 64.1688 128.538 65.8409C128.755 66.6246 128.634 68.4546 128.27 69.9074C127.906 71.3602 127.847 72.7976 128.138 73.101C128.43 73.4044 128.406 73.9059 128.085 74.2152C127.128 75.1353 128.018 78.2568 129.503 79.1894C130.343 79.7166 130.744 80.3375 130.608 80.9004C130.448 81.5633 130.581 81.6079 131.14 81.0801C132.44 79.8516 134.051 81.9129 134.086 84.8481C134.113 87.1614 136.516 90.3505 137.171 88.9439C137.415 88.4221 138.225 88.5575 139.63 89.3544C141.678 90.5156 142.344 90.3834 143.998 88.489C144.437 87.9858 144.761 87.9791 144.868 88.4695C144.985 89.0041 145.254 88.8989 145.719 88.1358C146.093 87.5226 146.54 87.1685 146.713 87.3486C147.052 87.7009 151.647 85.9102 152.495 85.0956C152.777 84.8236 152.732 84.3148 152.395 83.9642C151.564 83.0998 152.46 82.3519 154.005 82.6206C155.015 82.7959 155.271 82.6318 155.29 81.7936C155.304 81.2187 155.751 80.328 156.285 79.8146C156.819 79.3011 157.071 78.6881 156.844 78.4527C156.594 78.1926 156.943 77.918 157.731 77.7541C158.748 77.5435 159.059 77.2352 159.156 76.339C159.225 75.7084 159.834 74.5069 160.51 73.6692C161.185 72.8311 161.615 71.8893 161.465 71.5758C161.315 71.2623 161.452 70.7568 161.769 70.452C162.086 70.1468 162.177 68.6794 161.971 67.1902C161.765 65.7014 161.654 63.953 161.725 63.3051C161.838 62.2629 161.73 62.1453 160.791 62.2854C159.899 62.4187 159.882 62.3693 160.689 61.9764C161.72 61.4744 161.454 59.1925 160.354 59.1107C160.01 59.0854 160.15 58.9627 160.665 58.8386C161.356 58.6716 161.36 58.4984 160.681 58.1782C160.034 57.8733 160.01 57.6391 160.599 57.3921C161.708 56.9268 160.462 55.6527 158.122 54.8588C157.119 54.5186 156.008 53.6936 155.603 52.9869C155.011 51.9564 154.715 51.8793 153.997 52.5693C153.232 53.3048 153.036 53.2251 152.494 51.9605C151.96 50.7127 151.528 50.5183 149.452 50.5919C148.122 50.6395 146.256 50.4121 145.308 50.0878C144.131 49.6855 143.25 49.8173 142.538 50.5021C141.288 51.7039 140.337 51.0067 141.23 49.5428C141.577 48.9739 141.698 48.3396 141.499 48.1331C141.301 47.9266 142.054 46.9045 143.174 45.8613C146.361 42.8908 148.622 39.4885 147.905 38.7427C147.309 38.1231 148.789 36.9972 149.965 37.1759C150.694 37.2869 152.408 36.1648 155.501 33.5528C157.965 31.4717 160.397 29.7401 160.904 29.7044C161.412 29.6687 161.911 29.3128 162.012 28.9128C162.113 28.5129 162.695 28.151 163.305 28.108C164.085 28.0536 164.278 27.8897 163.954 27.5536C163.297 26.8698 164.484 25.9122 165.948 25.9458C167.644 25.9843 167.798 25.7248 167.077 24.0422C166.736 23.2456 166.713 22.3765 167.027 22.1102C167.475 21.7295 167.528 21.7802 167.275 22.3479C166.545 23.9872 169.499 24.5753 171.037 23.0967C171.534 22.6194 172.573 22.0577 173.347 21.8477C174.121 21.6378 175.078 21.2317 175.472 20.9453C175.867 20.6585 177.455 19.6489 179.002 18.7016C180.548 17.7539 182.556 16.4211 183.465 15.7396C185.9 13.9142 186.449 13.7739 187.38 14.7424C187.844 15.2247 188.656 15.4046 189.187 15.1425C189.717 14.88 190.83 14.4223 191.66 14.1243C192.491 13.8262 193.53 13.2986 193.97 12.9509C194.41 12.6036 195.316 12.2816 195.983 12.2346C196.996 12.1639 197.163 11.9874 196.994 11.1711C196.827 10.3672 196.92 10.3241 197.512 10.9295C197.909 11.3354 198.592 11.3748 199.03 11.0171C199.774 10.4104 200.412 9.89975 202.502 8.24096C202.96 7.87706 203.396 7.8559 203.47 8.19422C203.544 8.53212 204.019 9.00476 204.526 9.24372C205.207 9.56524 205.476 9.42305 205.555 8.69802C205.635 7.9734 206.003 7.77449 206.963 7.93659C208.475 8.19117 214.76 7.22593 215.364 6.64592C215.589 6.42918 216.049 6.53866 216.386 6.88926C217.126 7.65845 218.339 6.65859 217.874 5.66298C217.694 5.27483 217.818 5.34294 218.153 5.81442C218.979 6.97957 221.376 6.33438 220.847 5.08878C220.285 3.76596 221.219 3.19563 221.916 4.43593C222.244 5.02071 222.582 5.2263 222.666 4.89285C222.751 4.55942 223.185 4.66665 223.632 5.13156C224.584 6.12131 227 6.31312 227.228 5.41696C227.314 5.07649 227.758 4.97365 228.214 5.18859C228.67 5.40394 229.318 5.22476 229.654 4.79113C229.99 4.3575 230.106 4.3132 229.913 4.69276C229.324 5.84578 230.408 6.33779 233.766 6.4436C236.795 6.53893 238.326 5.56133 236.499 4.69942C235.346 4.15512 236.302 3.36878 237.624 3.77401C238.587 4.06957 238.656 3.96935 238.317 2.77382C237.998 1.65399 237.536 1.4227 235.371 1.299ZM160.837 66.2187C160.561 66.2124 160.193 65.8602 160.021 65.4365C159.829 64.9679 160.026 64.9725 160.522 65.4481C160.971 65.8785 161.113 66.225 160.837 66.2187ZM155.67 65.1571C155.516 65.6904 155.429 66.7852 155.479 67.59C155.528 68.3949 155.339 69.2733 155.059 69.5428C154.779 69.8119 154.539 70.5236 154.526 71.1239C154.505 72.0331 154.043 73.5273 153.374 74.8439C153.297 74.9959 153.041 75.5905 152.806 76.1653C152.572 76.74 151.972 77.2574 151.475 77.3153C150.193 77.4638 148.412 79.1226 148.285 80.2879C148.205 81.0187 147.564 81.3743 145.814 81.6603C142.844 82.1456 140.146 81.2471 137.634 78.9378C135.834 77.2836 135.526 77.2116 133.803 78.0465C132.348 78.7519 132.031 78.7368 132.384 77.9798C132.634 77.444 133.203 76.655 133.648 76.2268C134.093 75.7986 134.234 75.2034 133.961 74.9037C133.268 74.1431 133.074 70.7063 133.726 70.7217C134.336 70.7358 134.638 68.0327 134.089 67.4619C133.416 66.762 133.72 64.1384 134.691 62.259C135.88 59.9582 137.503 58.339 138.049 58.9076C138.274 59.1413 138.844 58.9616 139.315 58.5082C139.787 58.0544 140.558 57.8652 141.029 58.0875C141.5 58.3094 142.108 58.2769 142.38 58.0147C142.653 57.7529 143.642 57.9053 144.58 58.3536C145.723 58.9006 146.573 58.8902 147.164 58.3219C147.812 57.6989 148.304 57.7439 149.023 58.4918C149.561 59.0511 150.38 59.35 150.843 59.1557C151.989 58.675 156.075 63.7551 155.67 65.1571ZM135.776 83.7366C135.309 83.9245 135.312 83.7276 135.784 83.2344C136.212 82.7883 136.557 82.6491 136.553 82.9249C136.548 83.2008 136.199 83.5664 135.776 83.7366ZM89.2355 78.688C88.7693 79.3031 88.5772 79.339 88.6858 78.7921C88.7772 78.3296 88.5941 77.2894 88.2785 76.4813C87.7144 75.0354 87.7236 75.0331 88.8283 76.3771C89.6246 77.3454 89.7433 78.0189 89.2355 78.688Z" fill="black"/>
</svg>
