<svg width="8667" height="2410" viewBox="0 0 8667 2410" fill="none" xmlns="http://www.w3.org/2000/svg">
<mask id="path-1-outside-1_1093_77" maskUnits="userSpaceOnUse" x="425.305" y="556.656" width="8242" height="1364" fill="black">
<rect fill="white" x="425.305" y="556.656" width="8242" height="1364"/>
<path d="M922.392 620.443C1185.44 620.443 1316.96 729.963 1316.96 949.001V1057.02H1051.42V935.499C1051.42 857.485 1008.41 816.978 922.392 813.977V620.443ZM922.392 1667.63C1008.41 1665.63 1051.42 1626.12 1051.42 1549.11V1387.08C1051.42 1337.07 1030.41 1312.06 988.404 1312.06H899.888V1133.53H1316.96V1835.66H1190.94L1130.93 1750.14C1089.92 1821.15 1024.41 1856.66 934.395 1856.66H922.392V1667.63ZM488.817 946C488.817 729.963 618.839 621.944 878.885 621.944V815.478C804.872 824.479 767.865 864.486 767.865 935.499V1549.11C767.865 1620.12 804.872 1659.63 878.885 1667.63V1855.16C742.861 1855.16 643.844 1827.65 581.833 1772.65C519.822 1717.64 488.817 1629.62 488.817 1508.6V946Z"/>
<path d="M2348.47 647.448L2015.42 1334.57V1835.66H1742.37V1414.08L2060.42 647.448H2348.47ZM1844.39 1039.02L1721.36 1334.57L1404.81 647.448H1686.86L1844.39 1039.02ZM2691.16 647.448V1835.66H2436.11V647.448H2691.16ZM3571.81 647.448V1835.66H3313.76V647.448H3571.81ZM2932.7 1835.66L2721.16 1174.04V647.448H2799.17L3003.21 1463.59L3202.74 647.448H3282.26V1183.04L3063.22 1835.66H2932.7ZM4595.66 647.448L4309.11 1058.52L4198.09 831.98L4307.61 647.448H4595.66ZM4039.06 1082.52L4163.58 879.989L4619.66 1835.66H4327.11L4096.07 1339.07L4039.06 1423.08V1082.52ZM3721 1835.66V647.448H3997.05V1835.66H3721ZM4997.64 1835.66H4724.6V647.448H4997.64V1835.66ZM5270.69 647.448H5546.74V1835.66H5270.69V1318.07H5045.65V1120.03H5270.69V647.448ZM6287.03 647.448L6588.58 1835.66H6302.03L6246.52 1586.61H6009.48L6048.49 1388.58H6206.01L6113 905.493L5902.96 1835.66H5632.91L5934.47 647.448H6287.03ZM7255.35 1756.14L6958.3 1154.54V740.464L7255.35 1346.57V1756.14ZM6925.3 647.448V1835.66H6670.25V647.448H6925.3ZM7546.4 647.448V1835.66H7286.86V647.448H7546.4ZM8283.96 647.448L8585.51 1835.66H8298.96L8243.45 1586.61H8006.41L8045.42 1388.58H8202.94L8109.93 905.493L7899.89 1835.66H7629.84L7931.4 647.448H8283.96Z"/>
</mask>
<path d="M922.392 620.443C1185.44 620.443 1316.96 729.963 1316.96 949.001V1057.02H1051.42V935.499C1051.42 857.485 1008.41 816.978 922.392 813.977V620.443ZM922.392 1667.63C1008.41 1665.63 1051.42 1626.12 1051.42 1549.11V1387.08C1051.42 1337.07 1030.41 1312.06 988.404 1312.06H899.888V1133.53H1316.96V1835.66H1190.94L1130.93 1750.14C1089.92 1821.15 1024.41 1856.66 934.395 1856.66H922.392V1667.63ZM488.817 946C488.817 729.963 618.839 621.944 878.885 621.944V815.478C804.872 824.479 767.865 864.486 767.865 935.499V1549.11C767.865 1620.12 804.872 1659.63 878.885 1667.63V1855.16C742.861 1855.16 643.844 1827.65 581.833 1772.65C519.822 1717.64 488.817 1629.62 488.817 1508.6V946Z" fill="#AEE534"/>
<path d="M2348.47 647.448L2015.42 1334.57V1835.66H1742.37V1414.08L2060.42 647.448H2348.47ZM1844.39 1039.02L1721.36 1334.57L1404.81 647.448H1686.86L1844.39 1039.02ZM2691.16 647.448V1835.66H2436.11V647.448H2691.16ZM3571.81 647.448V1835.66H3313.76V647.448H3571.81ZM2932.7 1835.66L2721.16 1174.04V647.448H2799.17L3003.21 1463.59L3202.74 647.448H3282.26V1183.04L3063.22 1835.66H2932.7ZM4595.66 647.448L4309.11 1058.52L4198.09 831.98L4307.61 647.448H4595.66ZM4039.06 1082.52L4163.58 879.989L4619.66 1835.66H4327.11L4096.07 1339.07L4039.06 1423.08V1082.52ZM3721 1835.66V647.448H3997.05V1835.66H3721ZM4997.64 1835.66H4724.6V647.448H4997.64V1835.66ZM5270.69 647.448H5546.74V1835.66H5270.69V1318.07H5045.65V1120.03H5270.69V647.448ZM6287.03 647.448L6588.58 1835.66H6302.03L6246.52 1586.61H6009.48L6048.49 1388.58H6206.01L6113 905.493L5902.96 1835.66H5632.91L5934.47 647.448H6287.03ZM7255.35 1756.14L6958.3 1154.54V740.464L7255.35 1346.57V1756.14ZM6925.3 647.448V1835.66H6670.25V647.448H6925.3ZM7546.4 647.448V1835.66H7286.86V647.448H7546.4ZM8283.96 647.448L8585.51 1835.66H8298.96L8243.45 1586.61H8006.41L8045.42 1388.58H8202.94L8109.93 905.493L7899.89 1835.66H7629.84L7931.4 647.448H8283.96Z" fill="white"/>
<path d="M922.392 620.443V557.379H859.328V620.443H922.392ZM1316.96 1057.02V1120.08H1380.03V1057.02H1316.96ZM1051.42 1057.02H988.351V1120.08H1051.42V1057.02ZM922.392 813.977H859.328V874.88L920.194 877.003L922.392 813.977ZM922.392 1667.63L920.926 1604.58L859.328 1606.01V1667.63H922.392ZM899.888 1312.06H836.824V1375.13H899.888V1312.06ZM899.888 1133.53V1070.47H836.824V1133.53H899.888ZM1316.96 1133.53H1380.03V1070.47H1316.96V1133.53ZM1316.96 1835.66V1898.72H1380.03V1835.66H1316.96ZM1190.94 1835.66L1139.32 1871.88L1158.15 1898.72H1190.94V1835.66ZM1130.93 1750.14L1182.55 1713.92L1125.76 1632.99L1076.32 1718.6L1130.93 1750.14ZM922.392 1856.66H859.328V1919.72H922.392V1856.66ZM878.885 621.944H941.949V558.88H878.885V621.944ZM878.885 815.478L886.499 878.081L941.949 871.337V815.478H878.885ZM878.885 1667.63H941.949V1611.01L885.663 1604.93L878.885 1667.63ZM878.885 1855.16V1918.22H941.949V1855.16H878.885ZM581.833 1772.65L623.683 1725.47V1725.47L581.833 1772.65ZM922.392 620.443V683.508C1046.72 683.508 1128.23 709.628 1177.96 751.045C1225.49 790.62 1253.9 852.548 1253.9 949.001H1316.96H1380.03C1380.03 826.416 1342.67 724.064 1258.67 654.12C1176.89 586.018 1061.11 557.379 922.392 557.379V620.443ZM1316.96 949.001H1253.9V1057.02H1316.96H1380.03V949.001H1316.96ZM1316.96 1057.02V993.956H1051.42V1057.02V1120.08H1316.96V1057.02ZM1051.42 1057.02H1114.48V935.499H1051.42H988.351V1057.02H1051.42ZM1051.42 935.499H1114.48C1114.48 884.94 1100.25 836.351 1062.4 800.7C1025.6 766.042 976.046 752.746 924.591 750.951L922.392 813.977L920.194 877.003C954.754 878.209 969.711 886.667 975.921 892.516C981.077 897.372 988.351 908.043 988.351 935.499H1051.42ZM922.392 813.977H985.457V620.443H922.392H859.328V813.977H922.392ZM922.392 1667.63L923.859 1730.67C975.091 1729.48 1024.76 1716.99 1061.82 1682.94C1100.12 1647.76 1114.48 1599.35 1114.48 1549.11H1051.42H988.351C988.351 1575.87 981.202 1585.73 976.496 1590.05C970.554 1595.51 955.709 1603.77 920.926 1604.58L922.392 1667.63ZM1051.42 1549.11H1114.48V1387.08H1051.42H988.351V1549.11H1051.42ZM1051.42 1387.08H1114.48C1114.48 1354.77 1107.93 1318.8 1083.95 1290.26C1058.21 1259.61 1022.29 1249 988.404 1249V1312.06V1375.13C992.783 1375.13 993.776 1375.79 992.71 1375.37C992.144 1375.15 991.222 1374.7 990.146 1373.93C989.061 1373.16 988.117 1372.26 987.374 1371.38C985.843 1369.56 986.085 1368.89 986.748 1371.26C987.457 1373.8 988.351 1378.78 988.351 1387.08H1051.42ZM988.404 1312.06V1249H899.888V1312.06V1375.13H988.404V1312.06ZM899.888 1312.06H962.953V1133.53H899.888H836.824V1312.06H899.888ZM899.888 1133.53V1196.6H1316.96V1133.53V1070.47H899.888V1133.53ZM1316.96 1133.53H1253.9V1835.66H1316.96H1380.03V1133.53H1316.96ZM1316.96 1835.66V1772.59H1190.94V1835.66V1898.72H1316.96V1835.66ZM1190.94 1835.66L1242.56 1799.43L1182.55 1713.92L1130.93 1750.14L1079.31 1786.37L1139.32 1871.88L1190.94 1835.66ZM1130.93 1750.14L1076.32 1718.6C1047.85 1767.9 1004.55 1793.6 934.395 1793.6V1856.66V1919.72C1044.27 1919.72 1131.99 1874.41 1185.54 1781.68L1130.93 1750.14ZM934.395 1856.66V1793.6H922.392V1856.66V1919.72H934.395V1856.66ZM922.392 1856.66H985.457V1667.63H922.392H859.328V1856.66H922.392ZM488.817 946H551.881C551.881 851.096 579.88 790.307 626.633 751.466C675.625 710.765 756.03 685.008 878.885 685.008V621.944V558.88C741.694 558.88 627.065 587.132 546.034 654.449C462.764 723.628 425.752 824.867 425.752 946H488.817ZM878.885 621.944H815.821V815.478H878.885H941.949V621.944H878.885ZM878.885 815.478L871.271 752.875C824.891 758.516 781.166 774.988 749.325 809.411C717.093 844.256 704.801 889.068 704.801 935.499H767.865H830.93C830.93 910.917 837.141 900.219 841.916 895.057C847.081 889.473 858.866 881.441 886.499 878.081L878.885 815.478ZM767.865 935.499H704.801V1549.11H767.865H830.93V935.499H767.865ZM767.865 1549.11H704.801C704.801 1595.49 717.076 1640.39 749.594 1675.11C781.719 1709.4 825.723 1725.31 872.107 1730.33L878.885 1667.63L885.663 1604.93C858.034 1601.94 846.528 1594.09 841.646 1588.88C837.158 1584.09 830.93 1573.74 830.93 1549.11H767.865ZM878.885 1667.63H815.821V1855.16H878.885H941.949V1667.63H878.885ZM878.885 1855.16V1792.1C749.034 1792.1 668.731 1765.43 623.683 1725.47L581.833 1772.65L539.982 1819.82C618.957 1889.88 736.688 1918.22 878.885 1918.22V1855.16ZM581.833 1772.65L623.683 1725.47C580.403 1687.08 551.881 1620.03 551.881 1508.6H488.817H425.752C425.752 1639.21 459.241 1748.2 539.982 1819.82L581.833 1772.65ZM488.817 1508.6H551.881V946H488.817H425.752V1508.6H488.817ZM2348.47 647.448L2405.22 674.955L2449.12 584.384H2348.47V647.448ZM2015.42 1334.57L1958.67 1307.06L1952.35 1320.09V1334.57H2015.42ZM2015.42 1835.66V1898.72H2078.48V1835.66H2015.42ZM1742.37 1835.66H1679.3V1898.72H1742.37V1835.66ZM1742.37 1414.08L1684.12 1389.92L1679.3 1401.52V1414.08H1742.37ZM2060.42 647.448V584.384H2018.31L2002.17 623.282L2060.42 647.448ZM1844.39 1039.02L1902.61 1063.25L1912.53 1039.42L1902.89 1015.48L1844.39 1039.02ZM1721.36 1334.57L1664.09 1360.96L1724.29 1491.64L1779.59 1358.8L1721.36 1334.57ZM1404.81 647.448V584.384H1306.32L1347.53 673.836L1404.81 647.448ZM1686.86 647.448L1745.37 623.911L1729.46 584.384H1686.86V647.448ZM2348.47 647.448L2291.73 619.941L1958.67 1307.06L2015.42 1334.57L2072.16 1362.08L2405.22 674.955L2348.47 647.448ZM2015.42 1334.57H1952.35V1835.66H2015.42H2078.48V1334.57H2015.42ZM2015.42 1835.66V1772.59H1742.37V1835.66V1898.72H2015.42V1835.66ZM1742.37 1835.66H1805.43V1414.08H1742.37H1679.3V1835.66H1742.37ZM1742.37 1414.08L1800.62 1438.25L2118.67 671.615L2060.42 647.448L2002.17 623.282L1684.12 1389.92L1742.37 1414.08ZM2060.42 647.448V710.512H2348.47V647.448V584.384H2060.42V647.448ZM1844.39 1039.02L1786.16 1014.78L1663.14 1310.33L1721.36 1334.57L1779.59 1358.8L1902.61 1063.25L1844.39 1039.02ZM1721.36 1334.57L1778.64 1308.18L1462.09 621.06L1404.81 647.448L1347.53 673.836L1664.09 1360.96L1721.36 1334.57ZM1404.81 647.448V710.512H1686.86V647.448V584.384H1404.81V647.448ZM1686.86 647.448L1628.35 670.985L1785.88 1062.55L1844.39 1039.02L1902.89 1015.48L1745.37 623.911L1686.86 647.448ZM2691.16 647.448H2754.22V584.384H2691.16V647.448ZM2691.16 1835.66V1898.72H2754.22V1835.66H2691.16ZM2436.11 1835.66H2373.05V1898.72H2436.11V1835.66ZM2436.11 647.448V584.384H2373.05V647.448H2436.11ZM3571.81 647.448H3634.87V584.384H3571.81V647.448ZM3571.81 1835.66V1898.72H3634.87V1835.66H3571.81ZM3313.76 1835.66H3250.7V1898.72H3313.76V1835.66ZM3313.76 647.448V584.384H3250.7V647.448H3313.76ZM2932.7 1835.66L2872.63 1854.86L2886.65 1898.72H2932.7V1835.66ZM2721.16 1174.04H2658.1V1183.88L2661.09 1193.25L2721.16 1174.04ZM2721.16 647.448V584.384H2658.1V647.448H2721.16ZM2799.17 647.448L2860.36 632.153L2848.41 584.384H2799.17V647.448ZM3003.21 1463.59L2942.03 1478.89L3064.47 1478.57L3003.21 1463.59ZM3202.74 647.448V584.384H3153.24L3141.48 632.471L3202.74 647.448ZM3282.26 647.448H3345.32V584.384H3282.26V647.448ZM3282.26 1183.04L3342.05 1203.11L3345.32 1193.34V1183.04H3282.26ZM3063.22 1835.66V1898.72H3108.58L3123.01 1855.72L3063.22 1835.66ZM2691.16 647.448H2628.09V1835.66H2691.16H2754.22V647.448H2691.16ZM2691.16 1835.66V1772.59H2436.11V1835.66V1898.72H2691.16V1835.66ZM2436.11 1835.66H2499.17V647.448H2436.11H2373.05V1835.66H2436.11ZM2436.11 647.448V710.512H2691.16V647.448V584.384H2436.11V647.448ZM3571.81 647.448H3508.75V1835.66H3571.81H3634.87V647.448H3571.81ZM3571.81 1835.66V1772.59H3313.76V1835.66V1898.72H3571.81V1835.66ZM3313.76 1835.66H3376.83V647.448H3313.76H3250.7V1835.66H3313.76ZM3313.76 647.448V710.512H3571.81V647.448V584.384H3313.76V647.448ZM2932.7 1835.66L2992.77 1816.45L2781.23 1154.83L2721.16 1174.04L2661.09 1193.25L2872.63 1854.86L2932.7 1835.66ZM2721.16 1174.04H2784.22V647.448H2721.16H2658.1V1174.04H2721.16ZM2721.16 647.448V710.512H2799.17V647.448V584.384H2721.16V647.448ZM2799.17 647.448L2737.99 662.743L2942.03 1478.89L3003.21 1463.59L3064.39 1448.3L2860.36 632.153L2799.17 647.448ZM3003.21 1463.59L3064.47 1478.57L3264 662.425L3202.74 647.448L3141.48 632.471L2941.95 1448.61L3003.21 1463.59ZM3202.74 647.448V710.512H3282.26V647.448V584.384H3202.74V647.448ZM3282.26 647.448H3219.19V1183.04H3282.26H3345.32V647.448H3282.26ZM3282.26 1183.04L3222.47 1162.98L3003.43 1815.59L3063.22 1835.66L3123.01 1855.72L3342.05 1203.11L3282.26 1183.04ZM3063.22 1835.66V1772.59H2932.7V1835.66V1898.72H3063.22V1835.66ZM4595.66 647.448L4647.39 683.512L4716.49 584.384H4595.66V647.448ZM4309.11 1058.52L4252.48 1086.27L4299.6 1182.43L4360.84 1094.58L4309.11 1058.52ZM4198.09 831.98L4143.85 799.794L4126.45 829.115L4141.46 859.733L4198.09 831.98ZM4307.61 647.448V584.384H4271.7L4253.37 615.262L4307.61 647.448ZM4039.06 1082.52L3985.34 1049.49L3976 1064.69V1082.52H4039.06ZM4163.58 879.989L4220.5 852.827L4170.57 748.212L4109.86 846.959L4163.58 879.989ZM4619.66 1835.66V1898.72H4719.64L4676.58 1808.49L4619.66 1835.66ZM4327.11 1835.66L4269.93 1862.26L4286.9 1898.72H4327.11V1835.66ZM4096.07 1339.07L4153.25 1312.47L4106.33 1211.63L4043.89 1303.66L4096.07 1339.07ZM4039.06 1423.08H3976V1628.33L4091.24 1458.49L4039.06 1423.08ZM3721 1835.66H3657.94V1898.72H3721V1835.66ZM3721 647.448V584.384H3657.94V647.448H3721ZM3997.05 647.448H4060.12V584.384H3997.05V647.448ZM3997.05 1835.66V1898.72H4060.12V1835.66H3997.05ZM4595.66 647.448L4543.92 611.385L4257.37 1022.46L4309.11 1058.52L4360.84 1094.58L4647.39 683.512L4595.66 647.448ZM4309.11 1058.52L4365.74 1030.77L4254.72 804.228L4198.09 831.98L4141.46 859.733L4252.48 1086.27L4309.11 1058.52ZM4198.09 831.98L4252.32 864.167L4361.84 679.635L4307.61 647.448L4253.37 615.262L4143.85 799.794L4198.09 831.98ZM4307.61 647.448V710.512H4595.66V647.448V584.384H4307.61V647.448ZM4039.06 1082.52L4092.78 1115.55L4217.3 913.018L4163.58 879.989L4109.86 846.959L3985.34 1049.49L4039.06 1082.52ZM4163.58 879.989L4106.67 907.151L4562.75 1862.82L4619.66 1835.66L4676.58 1808.49L4220.5 852.827L4163.58 879.989ZM4619.66 1835.66V1772.59H4327.11V1835.66V1898.72H4619.66V1835.66ZM4327.11 1835.66L4384.29 1809.05L4153.25 1312.47L4096.07 1339.07L4038.89 1365.67L4269.93 1862.26L4327.11 1835.66ZM4096.07 1339.07L4043.89 1303.66L3986.88 1387.67L4039.06 1423.08L4091.24 1458.49L4148.25 1374.48L4096.07 1339.07ZM4039.06 1423.08H4102.12V1082.52H4039.06H3976V1423.08H4039.06ZM3721 1835.66H3784.07V647.448H3721H3657.94V1835.66H3721ZM3721 647.448V710.512H3997.05V647.448V584.384H3721V647.448ZM3997.05 647.448H3933.99V1835.66H3997.05H4060.12V647.448H3997.05ZM3997.05 1835.66V1772.59H3721V1835.66V1898.72H3997.05V1835.66ZM4997.65 1835.66V1898.72H5060.71V1835.66H4997.65ZM4724.6 1835.66H4661.53V1898.72H4724.6V1835.66ZM4724.6 647.448V584.384H4661.53V647.448H4724.6ZM4997.65 647.448H5060.71V584.384H4997.65V647.448ZM5270.69 647.448V584.384H5207.63V647.448H5270.69ZM5546.74 647.448H5609.81V584.384H5546.74V647.448ZM5546.74 1835.66V1898.72H5609.81V1835.66H5546.74ZM5270.69 1835.66H5207.63V1898.72H5270.69V1835.66ZM5270.69 1318.07H5333.76V1255H5270.69V1318.07ZM5045.65 1318.07H4982.59V1381.13H5045.65V1318.07ZM5045.65 1120.03V1056.97H4982.59V1120.03H5045.65ZM5270.69 1120.03V1183.1H5333.76V1120.03H5270.69ZM4997.65 1835.66V1772.59H4724.6V1835.66V1898.72H4997.65V1835.66ZM4724.6 1835.66H4787.66V647.448H4724.6H4661.53V1835.66H4724.6ZM4724.6 647.448V710.512H4997.65V647.448V584.384H4724.6V647.448ZM4997.65 647.448H4934.58V1835.66H4997.65H5060.71V647.448H4997.65ZM5270.69 647.448V710.512H5546.74V647.448V584.384H5270.69V647.448ZM5546.74 647.448H5483.68V1835.66H5546.74H5609.81V647.448H5546.74ZM5546.74 1835.66V1772.59H5270.69V1835.66V1898.72H5546.74V1835.66ZM5270.69 1835.66H5333.76V1318.07H5270.69H5207.63V1835.66H5270.69ZM5270.69 1318.07V1255H5045.65V1318.07V1381.13H5270.69V1318.07ZM5045.65 1318.07H5108.72V1120.03H5045.65H4982.59V1318.07H5045.65ZM5045.65 1120.03V1183.1H5270.69V1120.03V1056.97H5045.65V1120.03ZM5270.69 1120.03H5333.76V647.448H5270.69H5207.63V1120.03H5270.69ZM6287.03 647.448L6348.15 631.935L6336.09 584.384H6287.03V647.448ZM6588.58 1835.66V1898.72H6669.65L6649.71 1820.14L6588.58 1835.66ZM6302.03 1835.66L6240.48 1849.38L6251.47 1898.72H6302.03V1835.66ZM6246.52 1586.61L6308.07 1572.89L6297.08 1523.55H6246.52V1586.61ZM6009.48 1586.61L5947.6 1574.43L5932.78 1649.68H6009.48V1586.61ZM6048.49 1388.58V1325.51H5996.63L5986.61 1376.39L6048.49 1388.58ZM6206.01 1388.58V1451.64H6282.38L6267.94 1376.65L6206.01 1388.58ZM6113 905.493L6174.92 893.57L6051.48 891.603L6113 905.493ZM5902.96 1835.66V1898.72H5953.37L5964.48 1849.55L5902.96 1835.66ZM5632.91 1835.66L5571.79 1820.14L5551.84 1898.72H5632.91V1835.66ZM5934.47 647.448V584.384H5885.41L5873.34 631.935L5934.47 647.448ZM6287.03 647.448L6225.9 662.961L6527.45 1851.17L6588.58 1835.66L6649.71 1820.14L6348.15 631.935L6287.03 647.448ZM6588.58 1835.66V1772.59H6302.03V1835.66V1898.72H6588.58V1835.66ZM6302.03 1835.66L6363.58 1821.94L6308.07 1572.89L6246.52 1586.61L6184.97 1600.33L6240.48 1849.38L6302.03 1835.66ZM6246.52 1586.61V1523.55H6009.48V1586.61V1649.68H6246.52V1586.61ZM6009.48 1586.61L6071.35 1598.8L6110.36 1400.77L6048.49 1388.58L5986.61 1376.39L5947.6 1574.43L6009.48 1586.61ZM6048.49 1388.58V1451.64H6206.01V1388.58V1325.51H6048.49V1388.58ZM6206.01 1388.58L6267.94 1376.65L6174.92 893.57L6113 905.493L6051.07 917.417L6144.09 1400.5L6206.01 1388.58ZM6113 905.493L6051.48 891.603L5841.44 1821.77L5902.96 1835.66L5964.48 1849.55L6174.51 919.384L6113 905.493ZM5902.96 1835.66V1772.59H5632.91V1835.66V1898.72H5902.96V1835.66ZM5632.91 1835.66L5694.04 1851.17L5995.59 662.961L5934.47 647.448L5873.34 631.935L5571.79 1820.14L5632.91 1835.66ZM5934.47 647.448V710.512H6287.03V647.448V584.384H5934.47V647.448ZM7255.35 1756.14L7198.81 1784.06L7318.42 1756.14H7255.35ZM6958.3 1154.54H6895.24V1169.26L6901.75 1182.46L6958.3 1154.54ZM6958.3 740.464L7014.93 712.711L6895.24 740.464H6958.3ZM7255.35 1346.57H7318.42V1331.95L7311.98 1318.82L7255.35 1346.57ZM6925.29 647.448H6988.36V584.384H6925.29V647.448ZM6925.29 1835.66V1898.72H6988.36V1835.66H6925.29ZM6670.25 1835.66H6607.19V1898.72H6670.25V1835.66ZM6670.25 647.448V584.384H6607.19V647.448H6670.25ZM7546.4 647.448H7609.47V584.384H7546.4V647.448ZM7546.4 1835.66V1898.72H7609.47V1835.66H7546.4ZM7286.86 1835.66H7223.79V1898.72H7286.86V1835.66ZM7286.86 647.448V584.384H7223.79V647.448H7286.86ZM7255.35 1756.14L7311.9 1728.22L7014.85 1126.62L6958.3 1154.54L6901.75 1182.46L7198.81 1784.06L7255.35 1756.14ZM6958.3 1154.54H7021.37V740.464H6958.3H6895.24V1154.54H6958.3ZM6958.3 740.464L6901.67 768.218L7198.72 1374.32L7255.35 1346.57L7311.98 1318.82L7014.93 712.711L6958.3 740.464ZM7255.35 1346.57H7192.29V1756.14H7255.35H7318.42V1346.57H7255.35ZM6925.29 647.448H6862.23V1835.66H6925.29H6988.36V647.448H6925.29ZM6925.29 1835.66V1772.59H6670.25V1835.66V1898.72H6925.29V1835.66ZM6670.25 1835.66H6733.31V647.448H6670.25H6607.19V1835.66H6670.25ZM6670.25 647.448V710.512H6925.29V647.448V584.384H6670.25V647.448ZM7546.4 647.448H7483.34V1835.66H7546.4H7609.47V647.448H7546.4ZM7546.4 1835.66V1772.59H7286.86V1835.66V1898.72H7546.4V1835.66ZM7286.86 1835.66H7349.92V647.448H7286.86H7223.79V1835.66H7286.86ZM7286.86 647.448V710.512H7546.4V647.448V584.384H7286.86V647.448ZM8283.96 647.448L8345.08 631.935L8333.02 584.384H8283.96V647.448ZM8585.51 1835.66V1898.72H8666.58L8646.64 1820.14L8585.51 1835.66ZM8298.96 1835.66L8237.41 1849.38L8248.41 1898.72H8298.96V1835.66ZM8243.45 1586.61L8305.01 1572.89L8294.01 1523.55H8243.45V1586.61ZM8006.41 1586.61L7944.53 1574.43L7929.71 1649.68H8006.41V1586.61ZM8045.42 1388.58V1325.51H7993.56L7983.54 1376.39L8045.42 1388.58ZM8202.94 1388.58V1451.64H8279.31L8264.87 1376.65L8202.94 1388.58ZM8109.93 905.493L8171.85 893.57L8048.41 891.603L8109.93 905.493ZM7899.89 1835.66V1898.72H7950.3L7961.41 1849.55L7899.89 1835.66ZM7629.84 1835.66L7568.72 1820.14L7548.78 1898.72H7629.84V1835.66ZM7931.4 647.448V584.384H7882.34L7870.27 631.935L7931.4 647.448ZM8283.96 647.448L8222.83 662.961L8524.39 1851.17L8585.51 1835.66L8646.64 1820.14L8345.08 631.935L8283.96 647.448ZM8585.51 1835.66V1772.59H8298.96V1835.66V1898.72H8585.51V1835.66ZM8298.96 1835.66L8360.52 1821.94L8305.01 1572.89L8243.45 1586.61L8181.9 1600.33L8237.41 1849.38L8298.96 1835.66ZM8243.45 1586.61V1523.55H8006.41V1586.61V1649.68H8243.45V1586.61ZM8006.41 1586.61L8068.29 1598.8L8107.29 1400.77L8045.42 1388.58L7983.54 1376.39L7944.53 1574.43L8006.41 1586.61ZM8045.42 1388.58V1451.64H8202.94V1388.58V1325.51H8045.42V1388.58ZM8202.94 1388.58L8264.87 1376.65L8171.85 893.57L8109.93 905.493L8048 917.417L8141.02 1400.5L8202.94 1388.58ZM8109.93 905.493L8048.41 891.603L7838.38 1821.77L7899.89 1835.66L7961.41 1849.55L8171.44 919.384L8109.93 905.493ZM7899.89 1835.66V1772.59H7629.84V1835.66V1898.72H7899.89V1835.66ZM7629.84 1835.66L7690.97 1851.17L7992.52 662.961L7931.4 647.448L7870.27 631.935L7568.72 1820.14L7629.84 1835.66ZM7931.4 647.448V710.512H8283.96V647.448V584.384H7931.4V647.448Z" fill="#090909" mask="url(#path-1-outside-1_1093_77)"/>
<mask id="path-3-outside-2_1093_77" maskUnits="userSpaceOnUse" x="4762.27" y="1628.09" width="3864" height="698" fill="black">
<rect fill="white" x="4762.27" y="1628.09" width="3864" height="698"/>
<path d="M4953.43 1691.66V2251.09H4825.58V1691.66H4953.43ZM5021.24 1918.4C5041.49 1918.4 5056.56 1912.98 5066.45 1902.15C5076.34 1891.32 5081.28 1875.78 5081.28 1855.53C5081.28 1831.51 5076.57 1813.86 5067.15 1802.55C5057.74 1791.25 5042.43 1785.6 5021.24 1785.6H4976.74V1691.66H5017.71C5147.68 1691.66 5212.66 1741.1 5212.66 1839.99C5212.66 1876.72 5206.78 1905.45 5195 1926.17C5183.7 1946.41 5164.63 1959.13 5137.79 1964.31C5186.76 1977.02 5211.25 2015.17 5211.25 2078.74V2201.64C5211.25 2212.47 5211.72 2222.13 5212.66 2230.6C5214.08 2239.08 5216.43 2245.91 5219.73 2251.09H5089.05C5082.93 2242.14 5079.87 2228.48 5079.87 2210.12V2083.68C5079.87 2035.65 5060.33 2011.63 5021.24 2011.63H4976.74V1918.4H5021.24ZM5607.25 2120.41C5607.25 2209.41 5554.51 2256.03 5449.02 2260.27V2176.21C5475.87 2171.97 5489.29 2155.49 5489.29 2126.77V1987.62C5489.29 1960.78 5475.87 1945.94 5449.02 1943.12V1859.06C5554.51 1861.42 5607.25 1905.92 5607.25 1992.56V2120.41ZM5392.52 2126.77C5392.52 2158.79 5406.41 2175.51 5434.19 2176.92V2260.27C5327.3 2257.91 5273.85 2211.06 5273.85 2119.7V1991.15C5273.85 1904.03 5327.3 1860 5434.19 1859.06V1942.41C5406.41 1944.77 5392.52 1959.83 5392.52 1987.62V2126.77ZM5790.61 1868.95V2133.83C5790.61 2165.38 5806.39 2181.16 5837.94 2181.16C5848.3 2181.16 5857.71 2177.63 5866.19 2170.56V2238.37C5844.53 2252.97 5817.69 2260.27 5785.67 2260.27C5747.52 2260.27 5718.8 2249.67 5699.49 2228.48C5680.66 2207.29 5671.24 2173.86 5671.24 2128.18V1868.95H5790.61ZM6002.52 2251.09H5885.26V1868.95H6002.52V2251.09ZM6089.68 1868.95V1957.24H6043.77V1868.95H6089.68ZM6235.9 1868.95H6284.64V1957.24H6235.9V1868.95ZM6218.24 1753.11V2124.65C6218.24 2160.44 6233.78 2178.33 6264.86 2178.33C6270.04 2178.33 6275.92 2178.1 6282.52 2177.63C6289.11 2177.15 6296.41 2176.45 6304.41 2175.51V2256.03C6299.23 2256.97 6291.93 2257.91 6282.52 2258.86C6273.1 2259.8 6261.8 2260.97 6248.61 2262.39C6152.08 2261.92 6103.81 2218.36 6103.81 2131.71V1753.11H6218.24ZM6675.05 2120.41C6675.05 2209.41 6622.31 2256.03 6516.83 2260.27V2176.21C6543.67 2171.97 6557.09 2155.49 6557.09 2126.77V2116.17H6675.05V2120.41ZM6516.83 2016.58H6557.09V1987.62C6557.09 1960.78 6543.67 1945.94 6516.83 1943.12V1859.77C6622.31 1862.12 6675.05 1906.39 6675.05 1992.56V2073.79H6516.83V2016.58ZM6497.05 2016.58V2073.79H6460.32V2126.77C6460.32 2155.96 6472.56 2172.68 6497.05 2176.92V2260.27C6393.45 2257.44 6341.65 2210.59 6341.65 2119.7V1991.15C6341.65 1904.97 6393.45 1860.95 6497.05 1859.06V1943.12C6472.56 1945 6460.32 1959.83 6460.32 1987.62V2016.58H6497.05ZM7105.59 1691.66V2251.09H6977.74V1691.66H7105.59ZM7173.4 1918.4C7193.65 1918.4 7208.72 1912.98 7218.61 1902.15C7228.5 1891.32 7233.44 1875.78 7233.44 1855.53C7233.44 1831.51 7228.73 1813.86 7219.31 1802.55C7209.89 1791.25 7194.59 1785.6 7173.4 1785.6H7128.9V1691.66H7169.87C7299.84 1691.66 7364.82 1741.1 7364.82 1839.99C7364.82 1876.72 7358.93 1905.45 7347.16 1926.17C7335.86 1946.41 7316.79 1959.13 7289.95 1964.31C7338.92 1977.02 7363.41 2015.17 7363.41 2078.74V2201.64C7363.41 2212.47 7363.88 2222.13 7364.82 2230.6C7366.23 2239.08 7368.59 2245.91 7371.88 2251.09H7241.21C7235.09 2242.14 7232.03 2228.48 7232.03 2210.12V2083.68C7232.03 2035.65 7212.48 2011.63 7173.4 2011.63H7128.9V1918.4H7173.4ZM7649.92 1976.32C7649.92 1954.18 7638.38 1943.12 7615.31 1943.12C7597.42 1943.12 7583.76 1946.18 7574.34 1952.3C7564.92 1957.95 7559.74 1967.6 7558.8 1981.26H7442.25C7442.25 1900.27 7499.94 1859.77 7615.31 1859.77C7717.97 1859.77 7769.29 1898.38 7769.29 1975.61V2095.69C7769.29 2181.86 7774.24 2233.66 7784.13 2251.09H7667.58C7660.99 2243.55 7656.28 2235.55 7653.45 2227.07C7651.1 2218.12 7649.92 2208.23 7649.92 2197.4V1976.32ZM7423.18 2140.19C7423.18 2100.16 7439.19 2068.38 7471.21 2044.83C7503.71 2020.82 7555.27 2004.1 7625.9 1994.68V2068.85C7597.65 2075.44 7576.93 2083.68 7563.75 2093.57C7550.56 2103.46 7543.5 2114.53 7542.56 2126.77C7543.5 2157.38 7554.33 2172.68 7575.05 2172.68C7585.88 2172.68 7595.3 2172.45 7603.3 2171.97C7611.78 2171.03 7619.31 2169.38 7625.9 2167.03V2239.08C7608.01 2250.38 7585.41 2256.03 7558.1 2256.03C7468.15 2256.03 7423.18 2217.42 7423.18 2140.19ZM8171.21 2120.41C8171.21 2209.41 8118.94 2256.03 8014.4 2260.27V2176.21C8040.3 2171.5 8053.25 2155.02 8053.25 2126.77V2088.63H8171.21V2120.41ZM8053.25 1987.62C8053.25 1961.25 8040.3 1946.41 8014.4 1943.12V1859.77C8118.94 1862.12 8171.21 1906.39 8171.21 1992.56V2029.29H8053.25V1987.62ZM7956.48 2126.77C7956.48 2155.49 7968.25 2171.97 7991.8 2176.21V2260.27C7889.14 2256.5 7837.82 2209.65 7837.82 2119.7V1991.15C7837.82 1905.92 7889.14 1862.12 7991.8 1859.77V1943.12C7980.97 1944.53 7972.26 1949 7965.66 1956.54C7959.54 1964.07 7956.48 1974.43 7956.48 1987.62V2126.77ZM8563.02 2120.41C8563.02 2209.41 8510.27 2256.03 8404.79 2260.27V2176.21C8431.63 2171.97 8445.05 2155.49 8445.05 2126.77V2116.17H8563.02V2120.41ZM8404.79 2016.58H8445.05V1987.62C8445.05 1960.78 8431.63 1945.94 8404.79 1943.12V1859.77C8510.27 1862.12 8563.02 1906.39 8563.02 1992.56V2073.79H8404.79V2016.58ZM8385.02 2016.58V2073.79H8348.29V2126.77C8348.29 2155.96 8360.53 2172.68 8385.02 2176.92V2260.27C8281.42 2257.44 8229.62 2210.59 8229.62 2119.7V1991.15C8229.62 1904.97 8281.42 1860.95 8385.02 1859.06V1943.12C8360.53 1945 8348.29 1959.83 8348.29 1987.62V2016.58H8385.02Z"/>
</mask>
<path d="M4953.43 1691.66V2251.09H4825.58V1691.66H4953.43ZM5021.24 1918.4C5041.49 1918.4 5056.56 1912.98 5066.45 1902.15C5076.34 1891.32 5081.28 1875.78 5081.28 1855.53C5081.28 1831.51 5076.57 1813.86 5067.15 1802.55C5057.74 1791.25 5042.43 1785.6 5021.24 1785.6H4976.74V1691.66H5017.71C5147.68 1691.66 5212.66 1741.1 5212.66 1839.99C5212.66 1876.72 5206.78 1905.45 5195 1926.17C5183.7 1946.41 5164.63 1959.13 5137.79 1964.31C5186.76 1977.02 5211.25 2015.17 5211.25 2078.74V2201.64C5211.25 2212.47 5211.72 2222.13 5212.66 2230.6C5214.08 2239.08 5216.43 2245.91 5219.73 2251.09H5089.05C5082.93 2242.14 5079.87 2228.48 5079.87 2210.12V2083.68C5079.87 2035.65 5060.33 2011.63 5021.24 2011.63H4976.74V1918.4H5021.24ZM5607.25 2120.41C5607.25 2209.41 5554.51 2256.03 5449.02 2260.27V2176.21C5475.87 2171.97 5489.29 2155.49 5489.29 2126.77V1987.62C5489.29 1960.78 5475.87 1945.94 5449.02 1943.12V1859.06C5554.51 1861.42 5607.25 1905.92 5607.25 1992.56V2120.41ZM5392.52 2126.77C5392.52 2158.79 5406.41 2175.51 5434.19 2176.92V2260.27C5327.3 2257.91 5273.85 2211.06 5273.85 2119.7V1991.15C5273.85 1904.03 5327.3 1860 5434.19 1859.06V1942.41C5406.41 1944.77 5392.52 1959.83 5392.52 1987.62V2126.77ZM5790.61 1868.95V2133.83C5790.61 2165.38 5806.39 2181.16 5837.94 2181.16C5848.3 2181.16 5857.71 2177.63 5866.19 2170.56V2238.37C5844.53 2252.97 5817.69 2260.27 5785.67 2260.27C5747.52 2260.27 5718.8 2249.67 5699.49 2228.48C5680.66 2207.29 5671.24 2173.86 5671.24 2128.18V1868.95H5790.61ZM6002.52 2251.09H5885.26V1868.95H6002.52V2251.09ZM6089.68 1868.95V1957.24H6043.77V1868.95H6089.68ZM6235.9 1868.95H6284.64V1957.24H6235.9V1868.95ZM6218.24 1753.11V2124.65C6218.24 2160.44 6233.78 2178.33 6264.86 2178.33C6270.04 2178.33 6275.92 2178.1 6282.52 2177.63C6289.11 2177.15 6296.41 2176.45 6304.41 2175.51V2256.03C6299.23 2256.97 6291.93 2257.91 6282.52 2258.86C6273.1 2259.8 6261.8 2260.97 6248.61 2262.39C6152.08 2261.92 6103.81 2218.36 6103.81 2131.71V1753.11H6218.24ZM6675.05 2120.41C6675.05 2209.41 6622.31 2256.03 6516.83 2260.27V2176.21C6543.67 2171.97 6557.09 2155.49 6557.09 2126.77V2116.17H6675.05V2120.41ZM6516.83 2016.58H6557.09V1987.62C6557.09 1960.78 6543.67 1945.94 6516.83 1943.12V1859.77C6622.31 1862.12 6675.05 1906.39 6675.05 1992.56V2073.79H6516.83V2016.58ZM6497.05 2016.58V2073.79H6460.32V2126.77C6460.32 2155.96 6472.56 2172.68 6497.05 2176.92V2260.27C6393.45 2257.44 6341.65 2210.59 6341.65 2119.7V1991.15C6341.65 1904.97 6393.45 1860.95 6497.05 1859.06V1943.12C6472.56 1945 6460.32 1959.83 6460.32 1987.62V2016.58H6497.05ZM7105.59 1691.66V2251.09H6977.74V1691.66H7105.59ZM7173.4 1918.4C7193.65 1918.4 7208.72 1912.98 7218.61 1902.15C7228.5 1891.32 7233.44 1875.78 7233.44 1855.53C7233.44 1831.51 7228.73 1813.86 7219.31 1802.55C7209.89 1791.25 7194.59 1785.6 7173.4 1785.6H7128.9V1691.66H7169.87C7299.84 1691.66 7364.82 1741.1 7364.82 1839.99C7364.82 1876.72 7358.93 1905.45 7347.16 1926.17C7335.86 1946.41 7316.79 1959.13 7289.95 1964.31C7338.92 1977.02 7363.41 2015.17 7363.41 2078.74V2201.64C7363.41 2212.47 7363.88 2222.13 7364.82 2230.6C7366.23 2239.08 7368.59 2245.91 7371.88 2251.09H7241.21C7235.09 2242.14 7232.03 2228.48 7232.03 2210.12V2083.68C7232.03 2035.65 7212.48 2011.63 7173.4 2011.63H7128.9V1918.4H7173.4ZM7649.92 1976.32C7649.92 1954.18 7638.38 1943.12 7615.31 1943.12C7597.42 1943.12 7583.76 1946.18 7574.34 1952.3C7564.92 1957.95 7559.74 1967.6 7558.8 1981.26H7442.25C7442.25 1900.27 7499.94 1859.77 7615.31 1859.77C7717.97 1859.77 7769.29 1898.38 7769.29 1975.61V2095.69C7769.29 2181.86 7774.24 2233.66 7784.13 2251.09H7667.58C7660.99 2243.55 7656.28 2235.55 7653.45 2227.07C7651.1 2218.12 7649.92 2208.23 7649.92 2197.4V1976.32ZM7423.18 2140.19C7423.18 2100.16 7439.19 2068.38 7471.21 2044.83C7503.71 2020.82 7555.27 2004.1 7625.9 1994.68V2068.85C7597.65 2075.44 7576.93 2083.68 7563.75 2093.57C7550.56 2103.46 7543.5 2114.53 7542.56 2126.77C7543.5 2157.38 7554.33 2172.68 7575.05 2172.68C7585.88 2172.68 7595.3 2172.45 7603.3 2171.97C7611.78 2171.03 7619.31 2169.38 7625.9 2167.03V2239.08C7608.01 2250.38 7585.41 2256.03 7558.1 2256.03C7468.15 2256.03 7423.18 2217.42 7423.18 2140.19ZM8171.21 2120.41C8171.21 2209.41 8118.94 2256.03 8014.4 2260.27V2176.21C8040.3 2171.5 8053.25 2155.02 8053.25 2126.77V2088.63H8171.21V2120.41ZM8053.25 1987.62C8053.25 1961.25 8040.3 1946.41 8014.4 1943.12V1859.77C8118.94 1862.12 8171.21 1906.39 8171.21 1992.56V2029.29H8053.25V1987.62ZM7956.48 2126.77C7956.48 2155.49 7968.25 2171.97 7991.8 2176.21V2260.27C7889.14 2256.5 7837.82 2209.65 7837.82 2119.7V1991.15C7837.82 1905.92 7889.14 1862.12 7991.8 1859.77V1943.12C7980.97 1944.53 7972.26 1949 7965.66 1956.54C7959.54 1964.07 7956.48 1974.43 7956.48 1987.62V2126.77ZM8563.02 2120.41C8563.02 2209.41 8510.27 2256.03 8404.79 2260.27V2176.21C8431.63 2171.97 8445.05 2155.49 8445.05 2126.77V2116.17H8563.02V2120.41ZM8404.79 2016.58H8445.05V1987.62C8445.05 1960.78 8431.63 1945.94 8404.79 1943.12V1859.77C8510.27 1862.12 8563.02 1906.39 8563.02 1992.56V2073.79H8404.79V2016.58ZM8385.02 2016.58V2073.79H8348.29V2126.77C8348.29 2155.96 8360.53 2172.68 8385.02 2176.92V2260.27C8281.42 2257.44 8229.62 2210.59 8229.62 2119.7V1991.15C8229.62 1904.97 8281.42 1860.95 8385.02 1859.06V1943.12C8360.53 1945 8348.29 1959.83 8348.29 1987.62V2016.58H8385.02Z" fill="#AEE534"/>
<path d="M4953.43 1691.66H5016.5V1628.59H4953.43V1691.66ZM4953.43 2251.09V2314.15H5016.5V2251.09H4953.43ZM4825.58 2251.09H4762.52V2314.15H4825.58V2251.09ZM4825.58 1691.66V1628.59H4762.52V1691.66H4825.58ZM5066.45 1902.15L5113.02 1944.67L5113.02 1944.67L5066.45 1902.15ZM5067.15 1802.55L5115.6 1762.18L5115.6 1762.18L5067.15 1802.55ZM4976.74 1785.6H4913.68V1848.67H4976.74V1785.6ZM4976.74 1691.66V1628.59H4913.68V1691.66H4976.74ZM5195 1926.17L5140.17 1895.01L5140.05 1895.22L5139.94 1895.43L5195 1926.17ZM5137.79 1964.31L5125.84 1902.39L5121.94 2025.35L5137.79 1964.31ZM5212.66 2230.6L5149.98 2237.57L5150.17 2239.27L5150.46 2240.97L5212.66 2230.6ZM5219.73 2251.09V2314.15H5334.61L5272.93 2217.23L5219.73 2251.09ZM5089.05 2251.09L5037 2286.7L5055.79 2314.15H5089.05V2251.09ZM4976.74 2011.63H4913.68V2074.7H4976.74V2011.63ZM4976.74 1918.4V1855.33H4913.68V1918.4H4976.74ZM4953.43 1691.66H4890.37V2251.09H4953.43H5016.5V1691.66H4953.43ZM4953.43 2251.09V2188.02H4825.58V2251.09V2314.15H4953.43V2251.09ZM4825.58 2251.09H4888.65V1691.66H4825.58H4762.52V2251.09H4825.58ZM4825.58 1691.66V1754.72H4953.43V1691.66V1628.59H4825.58V1691.66ZM5021.24 1918.4V1981.46C5052.23 1981.46 5087.17 1972.98 5113.02 1944.67L5066.45 1902.15L5019.88 1859.63C5021.06 1858.33 5022.37 1857.24 5023.66 1856.4C5024.92 1855.58 5025.92 1855.16 5026.4 1854.99C5027.25 1854.68 5025.93 1855.33 5021.24 1855.33V1918.4ZM5066.45 1902.15L5113.02 1944.67C5136.98 1918.43 5144.35 1885.49 5144.35 1855.53H5081.28H5018.22C5018.22 1860.67 5017.57 1862.95 5017.48 1863.25C5017.44 1863.35 5017.56 1862.95 5017.97 1862.23C5018.39 1861.48 5019.02 1860.57 5019.88 1859.63L5066.45 1902.15ZM5081.28 1855.53H5144.35C5144.35 1825.44 5138.83 1790.06 5115.6 1762.18L5067.15 1802.55L5018.71 1842.93C5016.31 1840.05 5016.26 1838.46 5016.81 1840.52C5017.39 1842.69 5018.22 1847.4 5018.22 1855.53H5081.28ZM5067.15 1802.55L5115.6 1762.18C5089.65 1731.03 5052.62 1722.54 5021.24 1722.54V1785.6V1848.67C5026.5 1848.67 5027.85 1849.4 5026.77 1849C5026.14 1848.77 5024.89 1848.22 5023.32 1847.15C5021.73 1846.06 5020.13 1844.63 5018.71 1842.93L5067.15 1802.55ZM5021.24 1785.6V1722.54H4976.74V1785.6V1848.67H5021.24V1785.6ZM4976.74 1785.6H5039.81V1691.66H4976.74H4913.68V1785.6H4976.74ZM4976.74 1691.66V1754.72H5017.71V1691.66V1628.59H4976.74V1691.66ZM5017.71 1691.66V1754.72C5076.49 1754.72 5109.03 1766.21 5125.74 1778.93C5139.19 1789.17 5149.6 1805.6 5149.6 1839.99H5212.66H5275.73C5275.73 1775.5 5253.64 1717.76 5202.11 1678.55C5153.84 1641.82 5088.9 1628.59 5017.71 1628.59V1691.66ZM5212.66 1839.99H5149.6C5149.6 1871.21 5144.39 1887.59 5140.17 1895.01L5195 1926.17L5249.84 1957.32C5269.16 1923.31 5275.73 1882.24 5275.73 1839.99H5212.66ZM5195 1926.17L5139.94 1895.43C5139.36 1896.47 5138.03 1900.03 5125.84 1902.39L5137.79 1964.31L5149.74 2026.23C5191.23 2018.22 5228.05 1996.36 5250.07 1956.9L5195 1926.17ZM5137.79 1964.31L5121.94 2025.35C5133 2028.22 5137.16 2032.39 5139.82 2036.52C5143.4 2042.11 5148.19 2054.37 5148.19 2078.74H5211.25H5274.31C5274.31 2039.53 5266.85 2000.93 5245.95 1968.38C5224.12 1934.37 5191.55 1913.11 5153.64 1903.27L5137.79 1964.31ZM5211.25 2078.74H5148.19V2201.64H5211.25H5274.31V2078.74H5211.25ZM5211.25 2201.64H5148.19C5148.19 2214.21 5148.73 2226.26 5149.98 2237.57L5212.66 2230.6L5275.34 2223.64C5274.71 2217.99 5274.31 2210.73 5274.31 2201.64H5211.25ZM5212.66 2230.6L5150.46 2240.97C5152.74 2254.69 5157.25 2270.37 5166.52 2284.94L5219.73 2251.09L5272.93 2217.23C5274.35 2219.46 5274.95 2221.06 5275.11 2221.52C5275.27 2221.98 5275.1 2221.64 5274.87 2220.23L5212.66 2230.6ZM5219.73 2251.09V2188.02H5089.05V2251.09V2314.15H5219.73V2251.09ZM5089.05 2251.09L5141.1 2215.47C5143.66 2219.22 5143.97 2221.53 5143.7 2220.34C5143.44 2219.19 5142.93 2216.01 5142.93 2210.12H5079.87H5016.8C5016.8 2233.3 5020.26 2262.23 5037 2286.7L5089.05 2251.09ZM5079.87 2210.12H5142.93V2083.68H5079.87H5016.8V2210.12H5079.87ZM5079.87 2083.68H5142.93C5142.93 2052.74 5136.9 2017.83 5114.13 1989.84C5089.33 1959.37 5054.34 1948.57 5021.24 1948.57V2011.63V2074.7C5024.67 2074.7 5024.79 2075.23 5022.99 2074.49C5022.06 2074.11 5020.84 2073.48 5019.54 2072.52C5018.23 2071.56 5017.14 2070.48 5016.3 2069.45C5014.59 2067.35 5014.74 2066.46 5015.34 2068.67C5015.98 2071.01 5016.8 2075.74 5016.8 2083.68H5079.87ZM5021.24 2011.63V1948.57H4976.74V2011.63V2074.7H5021.24V2011.63ZM4976.74 2011.63H5039.81V1918.4H4976.74H4913.68V2011.63H4976.74ZM4976.74 1918.4V1981.46H5021.24V1918.4V1855.33H4976.74V1918.4ZM5449.02 2260.27H5385.96V2325.92L5451.56 2323.28L5449.02 2260.27ZM5449.02 2176.21L5439.19 2113.92L5385.96 2122.32V2176.21H5449.02ZM5449.02 1943.12H5385.96V1999.89L5442.42 2005.84L5449.02 1943.12ZM5449.02 1859.06L5450.43 1796.01L5385.96 1794.57V1859.06H5449.02ZM5434.19 2176.92H5497.26V2116.98L5437.39 2113.94L5434.19 2176.92ZM5434.19 2260.27L5432.8 2323.32L5497.26 2324.74V2260.27H5434.19ZM5434.19 1859.06H5497.26V1795.44L5433.64 1796L5434.19 1859.06ZM5434.19 1942.41L5439.52 2005.25L5497.26 2000.36V1942.41H5434.19ZM5607.25 2120.41H5544.18C5544.18 2151.97 5535.33 2166.56 5525.92 2174.87C5514.7 2184.8 5491.69 2195.44 5446.49 2197.26L5449.02 2260.27L5451.56 2323.28C5511.84 2320.86 5567.94 2306.07 5609.46 2269.38C5652.79 2231.07 5670.31 2177.86 5670.31 2120.41H5607.25ZM5449.02 2260.27H5512.09V2176.21H5449.02H5385.96V2260.27H5449.02ZM5449.02 2176.21L5458.86 2238.51C5483.22 2234.66 5509.11 2223.84 5528.12 2200.49C5546.76 2177.6 5552.35 2150.55 5552.35 2126.77H5489.29H5426.22C5426.22 2131.71 5425.1 2127.26 5430.32 2120.85C5432.81 2117.8 5435.6 2115.79 5437.78 2114.66C5439.78 2113.64 5440.55 2113.7 5439.19 2113.92L5449.02 2176.21ZM5489.29 2126.77H5552.35V1987.62H5489.29H5426.22V2126.77H5489.29ZM5489.29 1987.62H5552.35C5552.35 1963.99 5546.33 1936.54 5525.99 1914.05C5505.68 1891.61 5479.03 1882.86 5455.63 1880.4L5449.02 1943.12L5442.42 2005.84C5445.86 2006.2 5439.34 2006.28 5432.46 1998.67C5425.53 1991.02 5426.22 1984.41 5426.22 1987.62H5489.29ZM5449.02 1943.12H5512.09V1859.06H5449.02H5385.96V1943.12H5449.02ZM5449.02 1859.06L5447.62 1922.11C5493.21 1923.13 5516.15 1933.23 5527.02 1942.4C5535.68 1949.7 5544.18 1962.67 5544.18 1992.56H5607.25H5670.31C5670.31 1935.81 5652.45 1883.2 5608.36 1846C5566.49 1810.67 5510.32 1797.35 5450.43 1796.01L5449.02 1859.06ZM5607.25 1992.56H5544.18V2120.41H5607.25H5670.31V1992.56H5607.25ZM5392.52 2126.77H5329.45C5329.45 2150.75 5334.51 2179.66 5354.43 2203.63C5375.61 2229.11 5404.72 2238.57 5430.99 2239.9L5434.19 2176.92L5437.39 2113.94C5436.37 2113.88 5438.01 2113.81 5441.12 2115.16C5444.53 2116.65 5448.32 2119.26 5451.44 2123.02C5457.47 2130.27 5455.58 2134.81 5455.58 2126.77H5392.52ZM5434.19 2176.92H5371.13V2260.27H5434.19H5497.26V2176.92H5434.19ZM5434.19 2260.27L5435.58 2197.22C5389.76 2196.21 5366.67 2185.72 5355.51 2175.94C5346.12 2167.71 5336.91 2152.76 5336.91 2119.7H5273.85H5210.79C5210.79 2178.01 5228.3 2232.16 5272.36 2270.78C5314.65 2307.85 5371.73 2321.97 5432.8 2323.32L5434.19 2260.27ZM5273.85 2119.7H5336.91V1991.15H5273.85H5210.79V2119.7H5273.85ZM5273.85 1991.15H5336.91C5336.91 1961.14 5345.5 1948.5 5354.03 1941.47C5364.97 1932.45 5388.29 1922.53 5434.75 1922.12L5434.19 1859.06L5433.64 1796C5373.2 1796.53 5316.34 1809.1 5273.84 1844.12C5228.93 1881.11 5210.79 1934.04 5210.79 1991.15H5273.85ZM5434.19 1859.06H5371.13V1942.41H5434.19H5497.26V1859.06H5434.19ZM5434.19 1942.41L5428.87 1879.57C5405 1881.6 5377.55 1889.98 5356.57 1912.73C5335.56 1935.53 5329.45 1963.6 5329.45 1987.62H5392.52H5455.58C5455.58 1983.85 5456.42 1990.5 5449.3 1998.22C5442.21 2005.91 5435.6 2005.58 5439.52 2005.25L5434.19 1942.41ZM5392.52 1987.62H5329.45V2126.77H5392.52H5455.58V1987.62H5392.52ZM5790.61 1868.95H5853.68V1805.89H5790.61V1868.95ZM5866.19 2170.56H5929.25V2035.92L5825.82 2122.11L5866.19 2170.56ZM5866.19 2238.37L5901.43 2290.67L5929.25 2271.92V2238.37H5866.19ZM5699.49 2228.48L5652.36 2270.38L5652.61 2270.67L5652.87 2270.96L5699.49 2228.48ZM5671.24 1868.95V1805.89H5608.17V1868.95H5671.24ZM6002.52 2251.09V2314.15H6065.58V2251.09H6002.52ZM5885.26 2251.09H5822.2V2314.15H5885.26V2251.09ZM5885.26 1868.95V1805.89H5822.2V1868.95H5885.26ZM6002.52 1868.95H6065.58V1805.89H6002.52V1868.95ZM5790.61 1868.95H5727.55V2133.83H5790.61H5853.68V1868.95H5790.61ZM5790.61 2133.83H5727.55C5727.55 2159.33 5733.96 2190.03 5757.85 2213.92C5781.73 2237.8 5812.44 2244.22 5837.94 2244.22V2181.16V2118.09C5831.88 2118.09 5838.92 2116.62 5847.04 2124.73C5855.15 2132.84 5853.68 2139.89 5853.68 2133.83H5790.61ZM5837.94 2181.16V2244.22C5864.05 2244.22 5887.55 2234.85 5906.56 2219.01L5866.19 2170.56L5825.82 2122.11C5826.49 2121.55 5828.1 2120.41 5830.63 2119.46C5833.21 2118.49 5835.78 2118.09 5837.94 2118.09V2181.16ZM5866.19 2170.56H5803.13V2238.37H5866.19H5929.25V2170.56H5866.19ZM5866.19 2238.37L5830.95 2186.07C5821.84 2192.21 5807.99 2197.2 5785.67 2197.2V2260.27V2323.33C5827.38 2323.33 5867.21 2313.73 5901.43 2290.67L5866.19 2238.37ZM5785.67 2260.27V2197.2C5759.11 2197.2 5749.87 2190.14 5746.11 2186.01L5699.49 2228.48L5652.87 2270.96C5687.73 2309.21 5735.93 2323.33 5785.67 2323.33V2260.27ZM5699.49 2228.48L5746.63 2186.59C5742.73 2182.2 5734.3 2167.32 5734.3 2128.18H5671.24H5608.17C5608.17 2180.4 5618.58 2232.38 5652.36 2270.38L5699.49 2228.48ZM5671.24 2128.18H5734.3V1868.95H5671.24H5608.17V2128.18H5671.24ZM5671.24 1868.95V1932.02H5790.61V1868.95V1805.89H5671.24V1868.95ZM6002.52 2251.09V2188.02H5885.26V2251.09V2314.15H6002.52V2251.09ZM5885.26 2251.09H5948.33V1868.95H5885.26H5822.2V2251.09H5885.26ZM5885.26 1868.95V1932.02H6002.52V1868.95V1805.89H5885.26V1868.95ZM6002.52 1868.95H5939.45V2251.09H6002.52H6065.58V1868.95H6002.52ZM6089.68 1868.95H6152.75V1805.89H6089.68V1868.95ZM6089.68 1957.24V2020.31H6152.75V1957.24H6089.68ZM6043.77 1957.24H5980.71V2020.31H6043.77V1957.24ZM6043.77 1868.95V1805.89H5980.71V1868.95H6043.77ZM6235.9 1868.95V1805.89H6172.83V1868.95H6235.9ZM6284.64 1868.95H6347.7V1805.89H6284.64V1868.95ZM6284.64 1957.24V2020.31H6347.7V1957.24H6284.64ZM6235.9 1957.24H6172.83V2020.31H6235.9V1957.24ZM6218.24 1753.11H6281.3V1690.05H6218.24V1753.11ZM6282.52 2177.63L6287.01 2240.53V2240.53L6282.52 2177.63ZM6304.41 2175.51H6367.48V2104.59L6297.05 2112.87L6304.41 2175.51ZM6304.41 2256.03L6315.69 2318.08L6367.48 2308.66V2256.03H6304.41ZM6282.52 2258.86L6276.24 2196.1V2196.1L6282.52 2258.86ZM6248.61 2262.39L6248.3 2325.45L6251.83 2325.47L6255.33 2325.09L6248.61 2262.39ZM6103.81 1753.11V1690.05H6040.75V1753.11H6103.81ZM6089.68 1868.95H6026.62V1957.24H6089.68H6152.75V1868.95H6089.68ZM6089.68 1957.24V1894.18H6043.77V1957.24V2020.31H6089.68V1957.24ZM6043.77 1957.24H6106.83V1868.95H6043.77H5980.71V1957.24H6043.77ZM6043.77 1868.95V1932.02H6089.68V1868.95V1805.89H6043.77V1868.95ZM6235.9 1868.95V1932.02H6284.64V1868.95V1805.89H6235.9V1868.95ZM6284.64 1868.95H6221.57V1957.24H6284.64H6347.7V1868.95H6284.64ZM6284.64 1957.24V1894.18H6235.9V1957.24V2020.31H6284.64V1957.24ZM6235.9 1957.24H6298.96V1868.95H6235.9H6172.83V1957.24H6235.9ZM6218.24 1753.11H6155.17V2124.65H6218.24H6281.3V1753.11H6218.24ZM6218.24 2124.65H6155.17C6155.17 2150.25 6160.54 2181.23 6182.28 2206.26C6205.49 2232.99 6237.1 2241.4 6264.86 2241.4V2178.33V2115.27C6262.99 2115.27 6264.15 2114.98 6267.06 2116.1C6270.35 2117.36 6274.25 2119.81 6277.51 2123.56C6280.6 2127.12 6281.58 2130.08 6281.73 2130.6C6281.82 2130.93 6281.3 2129.24 6281.3 2124.65H6218.24ZM6264.86 2178.33V2241.4C6271.88 2241.4 6279.31 2241.08 6287.01 2240.53L6282.52 2177.63L6278.02 2114.72C6272.54 2115.11 6268.2 2115.27 6264.86 2115.27V2178.33ZM6282.52 2177.63L6287.01 2240.53C6294.74 2239.98 6303.02 2239.17 6311.78 2238.14L6304.41 2175.51L6297.05 2112.87C6289.8 2113.73 6283.48 2114.33 6278.02 2114.72L6282.52 2177.63ZM6304.41 2175.51H6241.35V2256.03H6304.41H6367.48V2175.51H6304.41ZM6304.41 2256.03L6293.13 2193.98C6290.42 2194.48 6285.08 2195.22 6276.24 2196.1L6282.52 2258.86L6288.79 2321.61C6298.79 2320.61 6308.04 2319.47 6315.69 2318.08L6304.41 2256.03ZM6282.52 2258.86L6276.24 2196.1C6266.63 2197.07 6255.17 2198.26 6241.89 2199.68L6248.61 2262.39L6255.33 2325.09C6268.42 2323.69 6279.57 2322.53 6288.79 2321.61L6282.52 2258.86ZM6248.61 2262.39L6248.92 2199.32C6208.82 2199.13 6190.41 2189.9 6182.26 2182.55C6175.39 2176.35 6166.87 2163.42 6166.87 2131.71H6103.81H6040.75C6040.75 2186.65 6056.36 2238.82 6097.76 2276.18C6137.88 2312.39 6191.87 2325.18 6248.3 2325.45L6248.61 2262.39ZM6103.81 2131.71H6166.87V1753.11H6103.81H6040.75V2131.71H6103.81ZM6103.81 1753.11V1816.17H6218.24V1753.11V1690.05H6103.81V1753.11ZM6516.83 2260.27H6453.76V2325.92L6519.36 2323.28L6516.83 2260.27ZM6516.83 2176.21L6506.99 2113.92L6453.76 2122.32V2176.21H6516.83ZM6557.09 2116.17V2053.11H6494.02V2116.17H6557.09ZM6675.05 2116.17H6738.11V2053.11H6675.05V2116.17ZM6516.83 2016.58V1953.51H6453.76V2016.58H6516.83ZM6557.09 2016.58V2079.64H6620.15V2016.58H6557.09ZM6516.83 1943.12H6453.76V1999.89L6510.22 2005.84L6516.83 1943.12ZM6516.83 1859.77L6518.23 1796.72L6453.76 1795.28V1859.77H6516.83ZM6675.05 2073.79V2136.86H6738.11V2073.79H6675.05ZM6516.83 2073.79H6453.76V2136.86H6516.83V2073.79ZM6497.05 2016.58H6560.11V1953.51H6497.05V2016.58ZM6497.05 2073.79V2136.86H6560.11V2073.79H6497.05ZM6460.32 2073.79V2010.73H6397.25V2073.79H6460.32ZM6497.05 2176.92H6560.11V2123.83L6507.8 2114.78L6497.05 2176.92ZM6497.05 2260.27L6495.33 2323.31L6560.11 2325.08V2260.27H6497.05ZM6497.05 1859.06H6560.11V1794.84L6495.9 1796.01L6497.05 1859.06ZM6497.05 1943.12L6501.89 2006L6560.11 2001.52V1943.12H6497.05ZM6460.32 2016.58H6397.25V2079.64H6460.32V2016.58ZM6675.05 2120.41H6611.98C6611.98 2151.97 6603.13 2166.56 6593.73 2174.87C6582.5 2184.8 6559.49 2195.44 6514.29 2197.26L6516.83 2260.27L6519.36 2323.28C6579.64 2320.86 6635.74 2306.07 6677.26 2269.38C6720.59 2231.07 6738.11 2177.86 6738.11 2120.41H6675.05ZM6516.83 2260.27H6579.89V2176.21H6516.83H6453.76V2260.27H6516.83ZM6516.83 2176.21L6526.66 2238.51C6551.02 2234.66 6576.91 2223.84 6595.92 2200.49C6614.56 2177.6 6620.15 2150.55 6620.15 2126.77H6557.09H6494.02C6494.02 2131.71 6492.9 2127.26 6498.12 2120.85C6500.61 2117.8 6503.4 2115.79 6505.58 2114.66C6507.58 2113.64 6508.36 2113.7 6506.99 2113.92L6516.83 2176.21ZM6557.09 2126.77H6620.15V2116.17H6557.09H6494.02V2126.77H6557.09ZM6557.09 2116.17V2179.24H6675.05V2116.17V2053.11H6557.09V2116.17ZM6675.05 2116.17H6611.98V2120.41H6675.05H6738.11V2116.17H6675.05ZM6516.83 2016.58V2079.64H6557.09V2016.58V1953.51H6516.83V2016.58ZM6557.09 2016.58H6620.15V1987.62H6557.09H6494.02V2016.58H6557.09ZM6557.09 1987.62H6620.15C6620.15 1963.99 6614.13 1936.54 6593.79 1914.05C6573.48 1891.61 6546.83 1882.86 6523.43 1880.4L6516.83 1943.12L6510.22 2005.84C6513.66 2006.2 6507.14 2006.28 6500.26 1998.67C6493.33 1991.02 6494.02 1984.41 6494.02 1987.62H6557.09ZM6516.83 1943.12H6579.89V1859.77H6516.83H6453.76V1943.12H6516.83ZM6516.83 1859.77L6515.42 1922.82C6561.07 1923.84 6584.07 1933.91 6594.95 1943.04C6603.55 1950.26 6611.98 1963.02 6611.98 1992.56H6675.05H6738.11C6738.11 1935.93 6720.17 1883.47 6676.04 1846.43C6634.17 1811.29 6578.06 1798.06 6518.23 1796.72L6516.83 1859.77ZM6675.05 1992.56H6611.98V2073.79H6675.05H6738.11V1992.56H6675.05ZM6675.05 2073.79V2010.73H6516.83V2073.79V2136.86H6675.05V2073.79ZM6516.83 2073.79H6579.89V2016.58H6516.83H6453.76V2073.79H6516.83ZM6497.05 2016.58H6433.98V2073.79H6497.05H6560.11V2016.58H6497.05ZM6497.05 2073.79V2010.73H6460.32V2073.79V2136.86H6497.05V2073.79ZM6460.32 2073.79H6397.25V2126.77H6460.32H6523.38V2073.79H6460.32ZM6460.32 2126.77H6397.25C6397.25 2149.45 6401.93 2175.68 6418.62 2198.47C6436.26 2222.55 6461.37 2234.75 6486.29 2239.06L6497.05 2176.92L6507.8 2114.78C6507.65 2114.75 6509.46 2115.05 6512.23 2116.62C6515.18 2118.31 6518.09 2120.82 6520.38 2123.94C6524.83 2130.01 6523.38 2133.29 6523.38 2126.77H6460.32ZM6497.05 2176.92H6433.98V2260.27H6497.05H6560.11V2176.92H6497.05ZM6497.05 2260.27L6498.77 2197.23C6454.94 2196.03 6433.24 2185.68 6422.81 2176.24C6413.82 2168.11 6404.72 2153.01 6404.72 2119.7H6341.65H6278.59C6278.59 2177.29 6295.38 2231.05 6338.2 2269.78C6379.56 2307.19 6435.55 2321.68 6495.33 2323.31L6497.05 2260.27ZM6341.65 2119.7H6404.72V1991.15H6341.65H6278.59V2119.7H6341.65ZM6341.65 1991.15H6404.72C6404.72 1961.22 6413.16 1948.5 6421.34 1941.55C6431.63 1932.8 6453.67 1922.93 6498.19 1922.12L6497.05 1859.06L6495.9 1796.01C6436.83 1797.08 6381.17 1810.16 6339.66 1845.45C6296.04 1882.52 6278.59 1934.91 6278.59 1991.15H6341.65ZM6497.05 1859.06H6433.98V1943.12H6497.05H6560.11V1859.06H6497.05ZM6497.05 1943.12L6492.21 1880.24C6467.88 1882.11 6440.71 1891.46 6420.86 1915.51C6402.04 1938.31 6397.25 1965.43 6397.25 1987.62H6460.32H6523.38C6523.38 1982.02 6524.71 1987.83 6518.14 1995.8C6514.8 1999.84 6510.79 2002.68 6507.1 2004.36C6503.69 2005.91 6501.58 2006.02 6501.89 2006L6497.05 1943.12ZM6460.32 1987.62H6397.25V2016.58H6460.32H6523.38V1987.62H6460.32ZM6460.32 2016.58V2079.64H6497.05V2016.58V1953.51H6460.32V2016.58ZM7105.59 1691.66H7168.65V1628.59H7105.59V1691.66ZM7105.59 2251.09V2314.15H7168.65V2251.09H7105.59ZM6977.74 2251.09H6914.68V2314.15H6977.74V2251.09ZM6977.74 1691.66V1628.59H6914.68V1691.66H6977.74ZM7218.61 1902.15L7265.18 1944.67V1944.67L7218.61 1902.15ZM7219.31 1802.55L7267.76 1762.18V1762.18L7219.31 1802.55ZM7128.9 1785.6H7065.84V1848.67H7128.9V1785.6ZM7128.9 1691.66V1628.59H7065.84V1691.66H7128.9ZM7347.16 1926.17L7292.33 1895.01L7292.21 1895.22L7292.09 1895.43L7347.16 1926.17ZM7289.95 1964.31L7278 1902.39L7274.1 2025.35L7289.95 1964.31ZM7364.82 2230.6L7302.14 2237.57L7302.33 2239.27L7302.61 2240.97L7364.82 2230.6ZM7371.88 2251.09V2314.15H7486.77L7425.09 2217.23L7371.88 2251.09ZM7241.21 2251.09L7189.16 2286.7L7207.95 2314.15H7241.21V2251.09ZM7128.9 2011.63H7065.84V2074.7H7128.9V2011.63ZM7128.9 1918.4V1855.33H7065.84V1918.4H7128.9ZM7105.59 1691.66H7042.53V2251.09H7105.59H7168.65V1691.66H7105.59ZM7105.59 2251.09V2188.02H6977.74V2251.09V2314.15H7105.59V2251.09ZM6977.74 2251.09H7040.81V1691.66H6977.74H6914.68V2251.09H6977.74ZM6977.74 1691.66V1754.72H7105.59V1691.66V1628.59H6977.74V1691.66ZM7173.4 1918.4V1981.46C7204.39 1981.46 7239.33 1972.98 7265.18 1944.67L7218.61 1902.15L7172.03 1859.63C7173.22 1858.33 7174.53 1857.24 7175.81 1856.4C7177.08 1855.58 7178.07 1855.16 7178.56 1854.99C7179.41 1854.68 7178.09 1855.33 7173.4 1855.33V1918.4ZM7218.61 1902.15L7265.18 1944.67C7289.14 1918.43 7296.5 1885.49 7296.5 1855.53H7233.44H7170.38C7170.38 1860.67 7169.73 1862.95 7169.64 1863.25C7169.6 1863.35 7169.72 1862.95 7170.13 1862.23C7170.55 1861.48 7171.18 1860.57 7172.03 1859.63L7218.61 1902.15ZM7233.44 1855.53H7296.5C7296.5 1825.44 7290.99 1790.06 7267.76 1762.18L7219.31 1802.55L7170.87 1842.93C7168.47 1840.05 7168.42 1838.46 7168.97 1840.52C7169.55 1842.69 7170.38 1847.4 7170.38 1855.53H7233.44ZM7219.31 1802.55L7267.76 1762.18C7241.8 1731.03 7204.78 1722.54 7173.4 1722.54V1785.6V1848.67C7178.65 1848.67 7180.01 1849.4 7178.93 1849C7178.3 1848.77 7177.04 1848.22 7175.48 1847.15C7173.89 1846.06 7172.29 1844.63 7170.87 1842.93L7219.31 1802.55ZM7173.4 1785.6V1722.54H7128.9V1785.6V1848.67H7173.4V1785.6ZM7128.9 1785.6H7191.96V1691.66H7128.9H7065.84V1785.6H7128.9ZM7128.9 1691.66V1754.72H7169.87V1691.66V1628.59H7128.9V1691.66ZM7169.87 1691.66V1754.72C7228.64 1754.72 7261.18 1766.21 7277.9 1778.93C7291.35 1789.17 7301.76 1805.6 7301.76 1839.99H7364.82H7427.88C7427.88 1775.5 7405.8 1717.76 7354.27 1678.55C7306 1641.82 7241.06 1628.59 7169.87 1628.59V1691.66ZM7364.82 1839.99H7301.76C7301.76 1871.21 7296.55 1887.59 7292.33 1895.01L7347.16 1926.17L7401.99 1957.32C7421.32 1923.31 7427.88 1882.24 7427.88 1839.99H7364.82ZM7347.16 1926.17L7292.09 1895.43C7291.52 1896.47 7290.19 1900.03 7278 1902.39L7289.95 1964.31L7301.9 2026.23C7343.39 2018.22 7380.21 1996.36 7402.23 1956.9L7347.16 1926.17ZM7289.95 1964.31L7274.1 2025.35C7285.16 2028.22 7289.32 2032.39 7291.97 2036.52C7295.56 2042.11 7300.34 2054.37 7300.34 2078.74H7363.41H7426.47C7426.47 2039.53 7419.01 2000.93 7398.11 1968.38C7376.28 1934.37 7343.71 1913.11 7305.79 1903.27L7289.95 1964.31ZM7363.41 2078.74H7300.34V2201.64H7363.41H7426.47V2078.74H7363.41ZM7363.41 2201.64H7300.34C7300.34 2214.21 7300.89 2226.26 7302.14 2237.57L7364.82 2230.6L7427.5 2223.64C7426.87 2217.99 7426.47 2210.73 7426.47 2201.64H7363.41ZM7364.82 2230.6L7302.61 2240.97C7304.9 2254.69 7309.4 2270.37 7318.68 2284.94L7371.88 2251.09L7425.09 2217.23C7426.51 2219.46 7427.11 2221.06 7427.27 2221.52C7427.42 2221.98 7427.26 2221.64 7427.03 2220.23L7364.82 2230.6ZM7371.88 2251.09V2188.02H7241.21V2251.09V2314.15H7371.88V2251.09ZM7241.21 2251.09L7293.26 2215.47C7295.82 2219.22 7296.13 2221.53 7295.86 2220.34C7295.6 2219.19 7295.09 2216.01 7295.09 2210.12H7232.03H7168.96C7168.96 2233.3 7172.42 2262.23 7189.16 2286.7L7241.21 2251.09ZM7232.03 2210.12H7295.09V2083.68H7232.03H7168.96V2210.12H7232.03ZM7232.03 2083.68H7295.09C7295.09 2052.74 7289.06 2017.83 7266.29 1989.84C7241.49 1959.37 7206.49 1948.57 7173.4 1948.57V2011.63V2074.7C7176.83 2074.7 7176.95 2075.23 7175.14 2074.49C7174.22 2074.11 7173 2073.48 7171.7 2072.52C7170.39 2071.56 7169.3 2070.48 7168.45 2069.45C7166.75 2067.35 7166.9 2066.46 7167.5 2068.67C7168.13 2071.01 7168.96 2075.74 7168.96 2083.68H7232.03ZM7173.4 2011.63V1948.57H7128.9V2011.63V2074.7H7173.4V2011.63ZM7128.9 2011.63H7191.96V1918.4H7128.9H7065.84V2011.63H7128.9ZM7128.9 1918.4V1981.46H7173.4V1918.4V1855.33H7128.9V1918.4ZM7574.34 1952.3L7606.79 2006.38L7607.76 2005.79L7608.71 2005.18L7574.34 1952.3ZM7558.8 1981.26V2044.32H7617.67L7621.72 1985.6L7558.8 1981.26ZM7442.25 1981.26H7379.19V2044.32H7442.25V1981.26ZM7784.13 2251.09V2314.15H7892.43L7838.97 2219.96L7784.13 2251.09ZM7667.58 2251.09L7620.12 2292.61L7638.96 2314.15H7667.58V2251.09ZM7653.45 2227.07L7592.46 2243.12L7592.98 2245.08L7593.62 2247.01L7653.45 2227.07ZM7471.21 2044.83L7508.57 2095.64L7508.64 2095.59L7508.7 2095.55L7471.21 2044.83ZM7625.91 1994.68H7688.97V1922.65L7617.57 1932.17L7625.91 1994.68ZM7625.91 2068.85L7640.24 2130.26L7688.97 2118.89V2068.85H7625.91ZM7563.75 2093.57L7601.58 2144.02V2144.02L7563.75 2093.57ZM7542.56 2126.77L7479.68 2121.93L7479.42 2125.32L7479.52 2128.71L7542.56 2126.77ZM7603.3 2171.97L7607 2234.93L7608.64 2234.83L7610.27 2234.65L7603.3 2171.97ZM7625.91 2167.03H7688.97V2077.54L7604.69 2107.64L7625.91 2167.03ZM7625.91 2239.08L7659.58 2292.4L7688.97 2273.84V2239.08H7625.91ZM7649.92 1976.32H7712.99C7712.99 1954.84 7707.25 1927.32 7684.92 1905.9C7663.08 1884.96 7635.93 1880.05 7615.31 1880.05V1943.12V2006.18C7617.77 2006.18 7607.92 2006.81 7597.61 1996.93C7586.82 1986.58 7586.86 1975.66 7586.86 1976.32H7649.92ZM7615.31 1943.12V1880.05C7591.82 1880.05 7564.03 1883.79 7539.97 1899.42L7574.34 1952.3L7608.71 2005.18C7605.8 2007.07 7604.2 2007.23 7605.44 2006.95C7606.69 2006.67 7609.79 2006.18 7615.31 2006.18V1943.12ZM7574.34 1952.3L7541.9 1898.22C7510.41 1917.11 7497.85 1948.4 7495.89 1976.92L7558.8 1981.26L7621.72 1985.6C7621.72 1985.61 7621.66 1986.4 7621.3 1987.79C7620.93 1989.2 7620.23 1991.23 7618.96 1993.6C7616.16 1998.82 7611.81 2003.37 7606.79 2006.38L7574.34 1952.3ZM7558.8 1981.26V1918.2H7442.25V1981.26V2044.32H7558.8V1981.26ZM7442.25 1981.26H7505.32C7505.32 1957.78 7512.43 1948.3 7521.75 1941.76C7535.15 1932.35 7563.07 1922.83 7615.31 1922.83V1859.77V1796.7C7552.18 1796.7 7493.57 1807.44 7449.28 1838.53C7400.92 1872.48 7379.19 1923.75 7379.19 1981.26H7442.25ZM7615.31 1859.77V1922.83C7660.54 1922.83 7682.96 1931.66 7692.89 1939.12C7699.43 1944.05 7706.23 1952.31 7706.23 1975.61H7769.29H7832.36C7832.36 1921.68 7813.49 1872.02 7768.71 1838.33C7727.31 1807.19 7672.73 1796.7 7615.31 1796.7V1859.77ZM7769.29 1975.61H7706.23V2095.69H7769.29H7832.36V1975.61H7769.29ZM7769.29 2095.69H7706.23C7706.23 2139.66 7707.48 2176.41 7710.22 2205.16C7711.59 2219.52 7713.43 2232.93 7715.97 2244.79C7718.31 2255.69 7722.1 2269.56 7729.28 2282.21L7784.13 2251.09L7838.97 2219.96C7841.21 2223.9 7840.67 2224.76 7839.3 2218.36C7838.13 2212.91 7836.88 2204.71 7835.78 2193.18C7833.58 2170.13 7832.36 2137.89 7832.36 2095.69H7769.29ZM7784.13 2251.09V2188.02H7667.58V2251.09V2314.15H7784.13V2251.09ZM7667.58 2251.09L7715.04 2209.56C7714.14 2208.53 7713.67 2207.82 7713.46 2207.46C7713.26 2207.11 7713.24 2207.01 7713.28 2207.13L7653.45 2227.07L7593.62 2247.01C7599.4 2264.34 7608.68 2279.54 7620.12 2292.61L7667.58 2251.09ZM7653.45 2227.07L7714.44 2211.02C7713.68 2208.11 7712.99 2203.71 7712.99 2197.4H7649.92H7586.86C7586.86 2212.75 7588.52 2228.13 7592.46 2243.12L7653.45 2227.07ZM7649.92 2197.4H7712.99V1976.32H7649.92H7586.86V2197.4H7649.92ZM7423.18 2140.19H7486.25C7486.25 2120.05 7492.85 2107.2 7508.57 2095.64L7471.21 2044.83L7433.86 1994.02C7385.54 2029.55 7360.12 2080.27 7360.12 2140.19H7423.18ZM7471.21 2044.83L7508.7 2095.55C7528.36 2081.02 7567.21 2066.13 7634.24 2057.19L7625.91 1994.68L7617.57 1932.17C7543.33 1942.07 7479.06 1960.61 7433.73 1994.12L7471.21 2044.83ZM7625.91 1994.68H7562.84V2068.85H7625.91H7688.97V1994.68H7625.91ZM7625.91 2068.85L7611.57 2007.43C7580.31 2014.73 7549.51 2025.42 7525.91 2043.12L7563.75 2093.57L7601.58 2144.02C7604.35 2141.95 7614.99 2136.15 7640.24 2130.26L7625.91 2068.85ZM7563.75 2093.57L7525.91 2043.12C7503.43 2059.98 7482.44 2085.96 7479.68 2121.93L7542.56 2126.77L7605.43 2131.61C7605.05 2136.55 7603.37 2140.62 7601.72 2143.22C7600.28 2145.46 7599.56 2145.54 7601.58 2144.02L7563.75 2093.57ZM7542.56 2126.77L7479.52 2128.71C7480.15 2149.29 7484.11 2175.31 7499.91 2197.63C7518.52 2223.94 7546.73 2235.75 7575.05 2235.75V2172.68V2109.62C7577.68 2109.62 7582.83 2110.13 7588.89 2113.07C7595.17 2116.12 7599.87 2120.54 7602.86 2124.77C7604.25 2126.73 7605.09 2128.39 7605.58 2129.5C7605.82 2130.05 7605.98 2130.48 7606.07 2130.76C7606.12 2130.9 7606.15 2131.01 7606.17 2131.08C7606.19 2131.15 7606.2 2131.19 7606.2 2131.19C7606.2 2131.19 7606.2 2131.16 7606.18 2131.09C7606.17 2131.02 7606.14 2130.92 7606.12 2130.78C7606.07 2130.5 7606 2130.1 7605.93 2129.55C7605.79 2128.45 7605.65 2126.9 7605.59 2124.83L7542.56 2126.77ZM7575.05 2172.68V2235.75C7586.72 2235.75 7597.43 2235.49 7607 2234.93L7603.3 2171.97L7599.6 2109.02C7593.17 2109.4 7585.04 2109.62 7575.05 2109.62V2172.68ZM7603.3 2171.97L7610.27 2234.65C7622.59 2233.28 7635.05 2230.73 7647.12 2226.42L7625.91 2167.03L7604.69 2107.64C7603.58 2108.04 7600.97 2108.78 7596.34 2109.3L7603.3 2171.97ZM7625.91 2167.03H7562.84V2239.08H7625.91H7688.97V2167.03H7625.91ZM7625.91 2239.08L7592.23 2185.76C7586.96 2189.09 7576.9 2192.97 7558.1 2192.97V2256.03V2319.09C7593.91 2319.09 7629.07 2311.67 7659.58 2292.4L7625.91 2239.08ZM7558.1 2256.03V2192.97C7520.69 2192.97 7504.41 2184.73 7497.99 2179.22C7493.42 2175.29 7486.25 2166.36 7486.25 2140.19H7423.18H7360.12C7360.12 2191.25 7375.43 2240.23 7415.83 2274.92C7454.38 2308.02 7505.56 2319.09 7558.1 2319.09V2256.03ZM8014.4 2260.27H7951.34V2325.94L8016.96 2323.28L8014.4 2260.27ZM8014.4 2176.21L8003.12 2114.17L7951.34 2123.58V2176.21H8014.4ZM8053.25 2088.63V2025.56H7990.19V2088.63H8053.25ZM8171.21 2088.63H8234.28V2025.56H8171.21V2088.63ZM8014.4 1943.12H7951.34V1998.66L8006.44 2005.68L8014.4 1943.12ZM8014.4 1859.77L8015.82 1796.72L7951.34 1795.27V1859.77H8014.4ZM8171.21 2029.29V2092.36H8234.28V2029.29H8171.21ZM8053.25 2029.29H7990.19V2092.36H8053.25V2029.29ZM7991.8 2176.21H8054.86V2123.49L8002.97 2114.15L7991.8 2176.21ZM7991.8 2260.27L7989.49 2323.29L8054.86 2325.69V2260.27H7991.8ZM7991.8 1859.77H8054.86V1795.24L7990.35 1796.72L7991.8 1859.77ZM7991.8 1943.12L7999.96 2005.65L8054.86 1998.49V1943.12H7991.8ZM7965.66 1956.54L7918.2 1915.01L7917.45 1915.88L7916.72 1916.77L7965.66 1956.54ZM8171.21 2120.41H8108.15C8108.15 2152.14 8099.3 2166.79 8090.03 2175.06C8079.05 2184.86 8056.46 2195.45 8011.85 2197.26L8014.4 2260.27L8016.96 2323.28C8076.88 2320.85 8132.7 2306.01 8173.99 2269.19C8216.99 2230.84 8234.28 2177.68 8234.28 2120.41H8171.21ZM8014.4 2260.27H8077.47V2176.21H8014.4H7951.34V2260.27H8014.4ZM8014.4 2176.21L8025.68 2238.26C8049.78 2233.88 8074.88 2222.51 8093.13 2199.28C8110.94 2176.61 8116.32 2150.13 8116.32 2126.77H8053.25H7990.19C7990.19 2131.66 7989.09 2127.54 7993.95 2121.36C7996.29 2118.38 7998.97 2116.33 8001.2 2115.11C8003.25 2113.99 8004.19 2113.97 8003.12 2114.17L8014.4 2176.21ZM8053.25 2126.77H8116.32V2088.63H8053.25H7990.19V2126.77H8053.25ZM8053.25 2088.63V2151.69H8171.21V2088.63V2025.56H8053.25V2088.63ZM8171.21 2088.63H8108.15V2120.41H8171.21H8234.28V2088.63H8171.21ZM8053.25 1987.62H8116.32C8116.32 1964.41 8110.53 1937.55 8091.05 1915.24C8071.49 1892.84 8045.55 1883.51 8022.36 1880.56L8014.4 1943.12L8006.44 2005.68C8009.15 2006.02 8002.64 2005.76 7996.03 1998.19C7989.5 1990.71 7990.19 1984.45 7990.19 1987.62H8053.25ZM8014.4 1943.12H8077.47V1859.77H8014.4H7951.34V1943.12H8014.4ZM8014.4 1859.77L8012.98 1922.82C8058.06 1923.83 8080.62 1933.85 8091.25 1942.86C8099.71 1950.02 8108.15 1962.83 8108.15 1992.56H8171.21H8234.28C8234.28 1936.12 8216.58 1883.71 8172.76 1846.61C8131.13 1811.35 8075.28 1798.06 8015.82 1796.72L8014.4 1859.77ZM8171.21 1992.56H8108.15V2029.29H8171.21H8234.28V1992.56H8171.21ZM8171.21 2029.29V1966.23H8053.25V2029.29V2092.36H8171.21V2029.29ZM8053.25 2029.29H8116.32V1987.62H8053.25H7990.19V2029.29H8053.25ZM7956.48 2126.77H7893.42C7893.42 2148.97 7897.87 2174.76 7913.99 2197.33C7931.14 2221.34 7955.81 2233.81 7980.63 2238.28L7991.8 2176.21L8002.97 2114.15C8003.19 2114.19 8005.29 2114.6 8008.26 2116.34C8011.4 2118.19 8014.36 2120.85 8016.63 2124.02C8020.98 2130.11 8019.55 2133.3 8019.55 2126.77H7956.48ZM7991.8 2176.21H7928.74V2260.27H7991.8H8054.86V2176.21H7991.8ZM7991.8 2260.27L7994.11 2197.25C7950.78 2195.66 7929.24 2185.23 7918.83 2175.73C7909.84 2167.52 7900.88 2152.48 7900.88 2119.7H7837.82H7774.75C7774.75 2176.88 7791.45 2230.23 7833.79 2268.88C7874.71 2306.23 7930.16 2321.11 7989.49 2323.29L7991.8 2260.27ZM7837.82 2119.7H7900.88V1991.15H7837.82H7774.75V2119.7H7837.82ZM7837.82 1991.15H7900.88C7900.88 1961.74 7909.18 1949.24 7917.24 1942.35C7927.4 1933.69 7949.2 1923.83 7993.25 1922.82L7991.8 1859.77L7990.35 1796.72C7931.75 1798.06 7876.55 1811.28 7835.38 1846.4C7792.12 1883.32 7774.75 1935.32 7774.75 1991.15H7837.82ZM7991.8 1859.77H7928.74V1943.12H7991.8H8054.86V1859.77H7991.8ZM7991.8 1943.12L7983.64 1880.58C7959.09 1883.79 7935.86 1894.84 7918.2 1915.01L7965.66 1956.54L8013.12 1998.07C8011.3 2000.15 8008.84 2002.15 8005.95 2003.63C8003.14 2005.07 8000.92 2005.53 7999.96 2005.65L7991.8 1943.12ZM7965.66 1956.54L7916.72 1916.77C7898.66 1938.99 7893.42 1965.12 7893.42 1987.62H7956.48H8019.55C8019.55 1983.75 8020.42 1989.15 8014.61 1996.31L7965.66 1956.54ZM7956.48 1987.62H7893.42V2126.77H7956.48H8019.55V1987.62H7956.48ZM8404.79 2260.27H8341.73V2325.92L8407.32 2323.28L8404.79 2260.27ZM8404.79 2176.21L8394.96 2113.92L8341.73 2122.32V2176.21H8404.79ZM8445.05 2116.17V2053.11H8381.99V2116.17H8445.05ZM8563.02 2116.17H8626.08V2053.11H8563.02V2116.17ZM8404.79 2016.58V1953.51H8341.73V2016.58H8404.79ZM8445.05 2016.58V2079.64H8508.12V2016.58H8445.05ZM8404.79 1943.12H8341.73V1999.89L8398.19 2005.84L8404.79 1943.12ZM8404.79 1859.77L8406.2 1796.72L8341.73 1795.28V1859.77H8404.79ZM8563.02 2073.79V2136.86H8626.08V2073.79H8563.02ZM8404.79 2073.79H8341.73V2136.86H8404.79V2073.79ZM8385.02 2016.58H8448.08V1953.51H8385.02V2016.58ZM8385.02 2073.79V2136.86H8448.08V2073.79H8385.02ZM8348.29 2073.79V2010.73H8285.22V2073.79H8348.29ZM8385.02 2176.92H8448.08V2123.83L8395.77 2114.78L8385.02 2176.92ZM8385.02 2260.27L8383.3 2323.31L8448.08 2325.08V2260.27H8385.02ZM8385.02 1859.06H8448.08V1794.84L8383.87 1796.01L8385.02 1859.06ZM8385.02 1943.12L8389.85 2006L8448.08 2001.52V1943.12H8385.02ZM8348.29 2016.58H8285.22V2079.64H8348.29V2016.58ZM8563.02 2120.41H8499.95C8499.95 2151.97 8491.1 2166.56 8481.69 2174.87C8470.47 2184.8 8447.46 2195.44 8402.26 2197.26L8404.79 2260.27L8407.32 2323.28C8467.61 2320.86 8523.71 2306.07 8565.23 2269.38C8608.56 2231.07 8626.08 2177.86 8626.08 2120.41H8563.02ZM8404.79 2260.27H8467.86V2176.21H8404.79H8341.73V2260.27H8404.79ZM8404.79 2176.21L8414.63 2238.51C8438.99 2234.66 8464.88 2223.84 8483.89 2200.49C8502.53 2177.6 8508.12 2150.55 8508.12 2126.77H8445.05H8381.99C8381.99 2131.71 8380.87 2127.26 8386.09 2120.85C8388.57 2117.8 8391.36 2115.79 8393.55 2114.66C8395.54 2113.64 8396.32 2113.7 8394.96 2113.92L8404.79 2176.21ZM8445.05 2126.77H8508.12V2116.17H8445.05H8381.99V2126.77H8445.05ZM8445.05 2116.17V2179.24H8563.02V2116.17V2053.11H8445.05V2116.17ZM8563.02 2116.17H8499.95V2120.41H8563.02H8626.08V2116.17H8563.02ZM8404.79 2016.58V2079.64H8445.05V2016.58V1953.51H8404.79V2016.58ZM8445.05 2016.58H8508.12V1987.62H8445.05H8381.99V2016.58H8445.05ZM8445.05 1987.62H8508.12C8508.12 1963.99 8502.1 1936.54 8481.75 1914.05C8461.45 1891.61 8434.8 1882.86 8411.4 1880.4L8404.79 1943.12L8398.19 2005.84C8401.63 2006.2 8395.11 2006.28 8388.23 1998.67C8381.3 1991.02 8381.99 1984.41 8381.99 1987.62H8445.05ZM8404.79 1943.12H8467.86V1859.77H8404.79H8341.73V1943.12H8404.79ZM8404.79 1859.77L8403.39 1922.82C8449.04 1923.84 8472.04 1933.91 8482.92 1943.04C8491.52 1950.26 8499.95 1963.02 8499.95 1992.56H8563.02H8626.08C8626.08 1935.93 8608.14 1883.47 8564 1846.43C8522.14 1811.29 8466.03 1798.06 8406.2 1796.72L8404.79 1859.77ZM8563.02 1992.56H8499.95V2073.79H8563.02H8626.08V1992.56H8563.02ZM8563.02 2073.79V2010.73H8404.79V2073.79V2136.86H8563.02V2073.79ZM8404.79 2073.79H8467.86V2016.58H8404.79H8341.73V2073.79H8404.79ZM8385.02 2016.58H8321.95V2073.79H8385.02H8448.08V2016.58H8385.02ZM8385.02 2073.79V2010.73H8348.29V2073.79V2136.86H8385.02V2073.79ZM8348.29 2073.79H8285.22V2126.77H8348.29H8411.35V2073.79H8348.29ZM8348.29 2126.77H8285.22C8285.22 2149.45 8289.9 2175.68 8306.59 2198.47C8324.23 2222.55 8349.34 2234.75 8374.26 2239.06L8385.02 2176.92L8395.77 2114.78C8395.62 2114.75 8397.43 2115.05 8400.2 2116.62C8403.14 2118.31 8406.06 2120.82 8408.35 2123.94C8412.79 2130.01 8411.35 2133.29 8411.35 2126.77H8348.29ZM8385.02 2176.92H8321.95V2260.27H8385.02H8448.08V2176.92H8385.02ZM8385.02 2260.27L8386.73 2197.23C8342.91 2196.03 8321.21 2185.68 8310.77 2176.24C8301.79 2168.11 8292.68 2153.01 8292.68 2119.7H8229.62H8166.55C8166.55 2177.29 8183.35 2231.05 8226.16 2269.78C8267.53 2307.19 8323.52 2321.68 8383.3 2323.31L8385.02 2260.27ZM8229.62 2119.7H8292.68V1991.15H8229.62H8166.55V2119.7H8229.62ZM8229.62 1991.15H8292.68C8292.68 1961.22 8301.13 1948.5 8309.31 1941.55C8319.6 1932.8 8341.64 1922.93 8386.16 1922.12L8385.02 1859.06L8383.87 1796.01C8324.79 1797.08 8269.14 1810.16 8227.62 1845.45C8184.01 1882.52 8166.55 1934.91 8166.55 1991.15H8229.62ZM8385.02 1859.06H8321.95V1943.12H8385.02H8448.08V1859.06H8385.02ZM8385.02 1943.12L8380.18 1880.24C8355.84 1882.11 8328.68 1891.46 8308.83 1915.51C8290.01 1938.31 8285.22 1965.43 8285.22 1987.62H8348.29H8411.35C8411.35 1982.02 8412.68 1987.83 8406.1 1995.8C8402.77 1999.84 8398.76 2002.68 8395.07 2004.36C8391.66 2005.91 8389.54 2006.02 8389.85 2006L8385.02 1943.12ZM8348.29 1987.62H8285.22V2016.58H8348.29H8411.35V1987.62H8348.29ZM8348.29 2016.58V2079.64H8385.02V2016.58V1953.51H8348.29V2016.58Z" fill="black" mask="url(#path-3-outside-2_1093_77)"/>
<mask id="mask0_1093_77" style="mask-type:alpha" maskUnits="userSpaceOnUse" x="0" y="0" width="1392" height="1192">
<path d="M763.444 881.792V986.083V996.673C660.782 1056.69 451.874 1179.35 437.534 1189.77C423.194 1200.2 322.379 1143.6 273.764 1114C210.755 1009.98 80.9886 799.499 65.9967 789.723C51.0049 779.946 15.7523 584.127 0 487.439C125.475 326.929 377.892 4.76775 383.759 0.205011C389.625 -4.35773 950.027 68.3745 1229.49 105.311L1391.64 323.671L1327.27 801.943L1023.36 948.603C1026.62 858.652 1004.62 823.671 993.21 817.425C960.619 783.53 894.197 797.055 861.877 801.943C792.133 809.765 765.073 854.361 763.444 881.792Z" fill="#D9D9D9"/>
</mask>
<g mask="url(#mask0_1093_77)">
<path d="M456.402 65.6659C497.884 45.619 546.999 64.9959 566.974 106.328C579.581 132.416 578.101 161.737 565.179 185.023L676.851 330.427L676.95 330.555L677.047 330.686C694.33 353.998 710.955 371.663 725.989 383.165C741.355 394.92 752.958 398.656 760.76 398.295C767.107 398.002 774.538 394.824 782.186 382.114C790.208 368.782 797.256 346.58 801.259 312.669L802.675 297.714C785.803 289.575 771.382 275.708 762.554 257.441C742.522 215.99 758.028 165.531 799.396 145.538C840.878 125.492 889.993 144.868 909.968 186.199C929.155 225.902 915.738 273.867 878.221 295.411L893.679 344.591C902.45 372.467 912.626 392.484 922.872 405.471C933.152 418.499 942.198 422.924 948.901 423.622C955.299 424.289 963.991 422.013 974.859 411.699C985.869 401.249 997.723 383.705 1009.07 357.623L1036.97 293.431C1028.59 286.026 1021.48 276.837 1016.28 266.083C996.253 224.632 1011.76 174.173 1053.13 154.181C1094.61 134.134 1143.72 153.509 1163.7 194.841C1183.73 236.292 1168.22 286.752 1126.86 306.744C1125.33 307.482 1123.78 308.168 1122.22 308.804L1175.3 606.048L1177.94 620.839L1164.22 626.966L472.597 935.902L460.872 941.14L451.549 932.308L245.336 736.951C242.254 739.02 238.99 740.9 235.543 742.566C194.078 762.605 144.995 743.339 124.971 701.905C104.938 660.454 120.445 609.994 161.812 590.002C203.294 569.955 252.41 589.331 272.385 630.663C277.721 641.705 280.533 653.316 281.028 664.801L352.683 678.419L352.703 678.423L352.723 678.426C369.393 681.631 379.041 683.931 388.924 684.314C397.65 684.652 406.64 683.398 419.669 678L419.678 677.997L419.687 677.993C431.259 673.211 435.365 667.585 437.077 662.825C439.075 657.273 439.146 649.141 435.808 637.605C428.983 614.025 411.149 586.446 393.778 560.166L393.565 559.844L393.365 559.514L380.143 537.651C339.308 555.419 292.022 535.995 272.518 495.638C252.486 454.187 267.992 403.727 309.36 383.735C350.842 363.688 399.957 383.064 419.932 424.396C429.129 443.425 430.833 464.234 426.05 483.136L441.839 491.926C464.097 504.125 481.797 511.427 495.672 515.106C509.642 518.81 518.525 518.522 523.932 517.031C531.785 514.866 538.472 507.952 540.393 486.595C542.286 465.546 538.49 437.547 532.186 407.149C525.872 376.705 517.806 347.09 511.67 320.914L511.644 320.802L511.618 320.69L490.625 226.028C461.124 224.23 433.445 206.299 419.561 177.569C399.528 136.118 415.034 85.658 456.402 65.6659Z" fill="#AEE534" stroke="black" stroke-width="38.4229"/>
</g>
<path d="M362.625 838.488L1161.7 481.742" stroke="black" stroke-width="39.994"/>
<path d="M926.691 754.105L871.509 778.63L859.246 817.17L926.691 814.542V754.105Z" fill="#AEE534"/>
</svg>
