<svg width="5087" height="1414" viewBox="0 0 5087 1414" fill="none" xmlns="http://www.w3.org/2000/svg">
<g filter="url(#filter0_d_1087_925)">
<mask id="path-1-outside-1_1087_925" maskUnits="userSpaceOnUse" x="271.5" y="334.133" width="4705" height="778" fill="black">
<rect fill="white" x="271.5" y="334.133" width="4705" height="778"/>
<path d="M555.544 370.432C705.703 370.432 780.783 432.951 780.783 557.988V619.651H629.197V550.281C629.197 505.747 604.646 482.623 555.544 480.911V370.432ZM555.544 968.214C604.646 967.072 629.197 944.519 629.197 900.557V808.063C629.197 779.516 617.207 765.242 593.227 765.242H542.698V663.328H780.783V1064.13H708.844L674.587 1015.32C651.178 1055.85 613.781 1076.12 562.396 1076.12H555.544V968.214ZM308.039 556.276C308.039 432.951 382.262 371.289 530.708 371.289V481.767C488.458 486.906 467.333 509.743 467.333 550.281V900.557C467.333 941.094 488.458 963.646 530.708 968.214V1075.27C453.059 1075.27 396.536 1059.57 361.137 1028.16C325.738 996.761 308.039 946.518 308.039 877.433V556.276Z"/>
<path d="M1369.62 385.848L1179.49 778.088V1064.13H1023.62V823.479L1205.19 385.848H1369.62ZM1081.86 609.374L1011.63 778.088L830.93 385.848H991.937L1081.86 609.374ZM1565.24 385.848V1064.13H1419.65V385.848H1565.24ZM2067.96 385.848V1064.13H1920.65V385.848H2067.96ZM1703.12 1064.13L1582.37 686.451V385.848H1626.9L1743.37 851.741L1857.28 385.848H1902.67V691.59L1777.63 1064.13H1703.12ZM2652.42 385.848L2488.84 620.507L2425.46 491.188L2487.98 385.848H2652.42ZM2334.68 634.21L2405.77 518.593L2666.12 1064.13H2499.12L2367.23 780.658L2334.68 828.617V634.21ZM2153.12 1064.13V385.848H2310.7V1064.13H2153.12ZM2881.89 1064.13H2726.02V385.848H2881.89V1064.13ZM3037.76 385.848H3195.34V1064.13H3037.76V768.668H2909.29V655.62H3037.76V385.848ZM3617.93 385.848L3790.07 1064.13H3626.49L3594.81 921.967H3459.49L3481.76 808.92H3571.68L3518.58 533.152L3398.69 1064.13H3244.53L3416.67 385.848H3617.93ZM4170.69 1018.74L4001.12 675.318V438.946L4170.69 784.94V1018.74ZM3982.28 385.848V1064.13H3836.69V385.848H3982.28ZM4336.84 385.848V1064.13H4188.68V385.848H4336.84ZM4757.87 385.848L4930.01 1064.13H4766.44L4734.75 921.967H4599.43L4621.7 808.92H4711.62L4658.53 533.152L4538.63 1064.13H4384.47L4556.61 385.848H4757.87Z"/>
</mask>
<path d="M555.544 370.432C705.703 370.432 780.783 432.951 780.783 557.988V619.651H629.197V550.281C629.197 505.747 604.646 482.623 555.544 480.911V370.432ZM555.544 968.214C604.646 967.072 629.197 944.519 629.197 900.557V808.063C629.197 779.516 617.207 765.242 593.227 765.242H542.698V663.328H780.783V1064.13H708.844L674.587 1015.32C651.178 1055.85 613.781 1076.12 562.396 1076.12H555.544V968.214ZM308.039 556.276C308.039 432.951 382.262 371.289 530.708 371.289V481.767C488.458 486.906 467.333 509.743 467.333 550.281V900.557C467.333 941.094 488.458 963.646 530.708 968.214V1075.27C453.059 1075.27 396.536 1059.57 361.137 1028.16C325.738 996.761 308.039 946.518 308.039 877.433V556.276Z" fill="#AEE534"/>
<path d="M1369.62 385.848L1179.49 778.088V1064.13H1023.62V823.479L1205.19 385.848H1369.62ZM1081.86 609.374L1011.63 778.088L830.93 385.848H991.937L1081.86 609.374ZM1565.24 385.848V1064.13H1419.65V385.848H1565.24ZM2067.96 385.848V1064.13H1920.65V385.848H2067.96ZM1703.12 1064.13L1582.37 686.451V385.848H1626.9L1743.37 851.741L1857.28 385.848H1902.67V691.59L1777.63 1064.13H1703.12ZM2652.42 385.848L2488.84 620.507L2425.46 491.188L2487.98 385.848H2652.42ZM2334.68 634.21L2405.77 518.593L2666.12 1064.13H2499.12L2367.23 780.658L2334.68 828.617V634.21ZM2153.12 1064.13V385.848H2310.7V1064.13H2153.12ZM2881.89 1064.13H2726.02V385.848H2881.89V1064.13ZM3037.76 385.848H3195.34V1064.13H3037.76V768.668H2909.29V655.62H3037.76V385.848ZM3617.93 385.848L3790.07 1064.13H3626.49L3594.81 921.967H3459.49L3481.76 808.92H3571.68L3518.58 533.152L3398.69 1064.13H3244.53L3416.67 385.848H3617.93ZM4170.69 1018.74L4001.12 675.318V438.946L4170.69 784.94V1018.74ZM3982.28 385.848V1064.13H3836.69V385.848H3982.28ZM4336.84 385.848V1064.13H4188.68V385.848H4336.84ZM4757.87 385.848L4930.01 1064.13H4766.44L4734.75 921.967H4599.43L4621.7 808.92H4711.62L4658.53 533.152L4538.63 1064.13H4384.47L4556.61 385.848H4757.87Z" fill="white"/>
<path d="M555.544 370.432V334.432H519.544V370.432H555.544ZM780.783 619.651V655.651H816.783V619.651H780.783ZM629.197 619.651H593.197V655.651H629.197V619.651ZM555.544 480.911H519.544V515.677L554.289 516.889L555.544 480.911ZM555.544 968.214L554.707 932.224L519.544 933.041V968.214H555.544ZM542.698 765.242H506.698V801.242H542.698V765.242ZM542.698 663.328V627.328H506.698V663.328H542.698ZM780.783 663.328H816.783V627.328H780.783V663.328ZM780.783 1064.13V1100.13H816.783V1064.13H780.783ZM708.844 1064.13L679.376 1084.81L690.127 1100.13H708.844V1064.13ZM674.587 1015.32L704.055 994.638L671.635 948.439L643.411 997.314L674.587 1015.32ZM555.544 1076.12H519.544V1112.12H555.544V1076.12ZM530.708 371.289H566.708V335.289H530.708V371.289ZM530.708 481.767L535.055 517.504L566.708 513.654V481.767H530.708ZM530.708 968.214H566.708V935.896L534.578 932.422L530.708 968.214ZM530.708 1075.27V1111.27H566.708V1075.27H530.708ZM361.137 1028.16L385.027 1001.23H385.027L361.137 1028.16ZM555.544 370.432V406.432C626.516 406.432 673.044 421.343 701.437 444.986C728.567 467.577 744.783 502.928 744.783 557.988H780.783H816.783C816.783 488.011 795.459 429.584 747.51 389.657C700.823 350.781 634.731 334.432 555.544 334.432V370.432ZM780.783 557.988H744.783V619.651H780.783H816.783V557.988H780.783ZM780.783 619.651V583.651H629.197V619.651V655.651H780.783V619.651ZM629.197 619.651H665.197V550.281H629.197H593.197V619.651H629.197ZM629.197 550.281H665.197C665.197 521.42 657.074 493.683 635.466 473.331C614.46 453.547 586.172 445.957 556.799 444.932L555.544 480.911L554.289 516.889C574.018 517.577 582.556 522.405 586.101 525.744C589.044 528.516 593.197 534.608 593.197 550.281H629.197ZM555.544 480.911H591.544V370.432H555.544H519.544V480.911H555.544ZM555.544 968.214L556.381 1004.2C585.627 1003.52 613.979 996.391 635.137 976.955C657.002 956.87 665.197 929.239 665.197 900.557H629.197H593.197C593.197 915.837 589.116 921.464 586.429 923.931C583.037 927.047 574.563 931.762 554.707 932.224L555.544 968.214ZM629.197 900.557H665.197V808.063H629.197H593.197V900.557H629.197ZM629.197 808.063H665.197C665.197 789.623 661.455 769.085 647.769 752.792C633.074 735.298 612.573 729.242 593.227 729.242V765.242V801.242C595.727 801.242 596.293 801.621 595.685 801.38C595.362 801.252 594.835 800.997 594.221 800.558C593.602 800.116 593.063 799.607 592.639 799.102C591.765 798.062 591.903 797.683 592.282 799.036C592.687 800.481 593.197 803.329 593.197 808.063H629.197ZM593.227 765.242V729.242H542.698V765.242V801.242H593.227V765.242ZM542.698 765.242H578.698V663.328H542.698H506.698V765.242H542.698ZM542.698 663.328V699.328H780.783V663.328V627.328H542.698V663.328ZM780.783 663.328H744.783V1064.13H780.783H816.783V663.328H780.783ZM780.783 1064.13V1028.13H708.844V1064.13V1100.13H780.783V1064.13ZM708.844 1064.13L738.312 1043.45L704.055 994.638L674.587 1015.32L645.119 1036L679.376 1084.81L708.844 1064.13ZM674.587 1015.32L643.411 997.314C627.162 1025.45 602.445 1040.12 562.396 1040.12V1076.12V1112.12C625.117 1112.12 675.194 1086.25 705.762 1033.32L674.587 1015.32ZM562.396 1076.12V1040.12H555.544V1076.12V1112.12H562.396V1076.12ZM555.544 1076.12H591.544V968.214H555.544H519.544V1076.12H555.544ZM308.039 556.276H344.039C344.039 502.099 360.022 467.398 386.711 445.226C414.678 421.992 460.577 407.289 530.708 407.289V371.289V335.289C452.393 335.289 386.958 351.417 340.702 389.845C293.167 429.335 272.039 487.127 272.039 556.276H308.039ZM530.708 371.289H494.708V481.767H530.708H566.708V371.289H530.708ZM530.708 481.767L526.362 446.03C499.886 449.25 474.926 458.654 456.749 478.304C438.35 498.195 431.333 523.776 431.333 550.281H467.333H503.333C503.333 536.248 506.879 530.142 509.604 527.195C512.553 524.007 519.281 519.422 535.055 517.504L530.708 481.767ZM467.333 550.281H431.333V900.557H467.333H503.333V550.281H467.333ZM467.333 900.557H431.333C431.333 927.033 438.34 952.667 456.903 972.485C475.241 992.062 500.361 1001.14 526.839 1004.01L530.708 968.214L534.578 932.422C518.805 930.717 512.238 926.238 509.451 923.263C506.889 920.528 503.333 914.617 503.333 900.557H467.333ZM530.708 968.214H494.708V1075.27H530.708H566.708V968.214H530.708ZM530.708 1075.27V1039.27C456.583 1039.27 410.742 1024.04 385.027 1001.23L361.137 1028.16L337.247 1055.09C382.329 1095.09 449.536 1111.27 530.708 1111.27V1075.27ZM361.137 1028.16L385.027 1001.23C360.321 979.316 344.039 941.043 344.039 877.433H308.039H272.039C272.039 951.992 291.156 1014.21 337.247 1055.09L361.137 1028.16ZM308.039 877.433H344.039V556.276H308.039H272.039V877.433H308.039ZM1369.62 385.848L1402.01 401.55L1427.07 349.848H1369.62V385.848ZM1179.49 778.088L1147.1 762.386L1143.49 769.823V778.088H1179.49ZM1179.49 1064.13V1100.13H1215.49V1064.13H1179.49ZM1023.62 1064.13H987.625V1100.13H1023.62V1064.13ZM1023.62 823.479L990.373 809.683L987.625 816.307V823.479H1023.62ZM1205.19 385.848V349.848H1181.15L1171.93 372.053L1205.19 385.848ZM1081.86 609.374L1115.1 623.208L1120.76 609.606L1115.26 595.937L1081.86 609.374ZM1011.64 778.088L978.938 793.152L1013.31 867.753L1044.87 791.923L1011.64 778.088ZM830.93 385.848V349.848H774.708L798.233 400.911L830.93 385.848ZM991.937 385.848L1025.34 372.412L1016.26 349.848H991.937V385.848ZM1369.62 385.848L1337.22 370.146L1147.1 762.386L1179.49 778.088L1211.89 793.791L1402.01 401.55L1369.62 385.848ZM1179.49 778.088H1143.49V1064.13H1179.49H1215.49V778.088H1179.49ZM1179.49 1064.13V1028.13H1023.62V1064.13V1100.13H1179.49V1064.13ZM1023.62 1064.13H1059.62V823.479H1023.62H987.625V1064.13H1023.62ZM1023.62 823.479L1056.88 837.274L1238.44 399.643L1205.19 385.848L1171.93 372.053L990.373 809.683L1023.62 823.479ZM1205.19 385.848V421.848H1369.62V385.848V349.848H1205.19V385.848ZM1081.86 609.374L1048.63 595.539L978.399 764.254L1011.64 778.088L1044.87 791.923L1115.1 623.208L1081.86 609.374ZM1011.64 778.088L1044.33 763.025L863.627 370.784L830.93 385.848L798.233 400.911L978.938 793.152L1011.64 778.088ZM830.93 385.848V421.848H991.937V385.848V349.848H830.93V385.848ZM991.937 385.848L958.539 399.284L1048.46 622.81L1081.86 609.374L1115.26 595.937L1025.34 372.412L991.937 385.848ZM1565.24 385.848H1601.24V349.848H1565.24V385.848ZM1565.24 1064.13V1100.13H1601.24V1064.13H1565.24ZM1419.65 1064.13H1383.65V1100.13H1419.65V1064.13ZM1419.65 385.848V349.848H1383.65V385.848H1419.65ZM2067.96 385.848H2103.96V349.848H2067.96V385.848ZM2067.96 1064.13V1100.13H2103.96V1064.13H2067.96ZM1920.65 1064.13H1884.65V1100.13H1920.65V1064.13ZM1920.65 385.848V349.848H1884.65V385.848H1920.65ZM1703.12 1064.13L1668.83 1075.1L1676.84 1100.13H1703.12V1064.13ZM1582.37 686.451H1546.37V692.067L1548.08 697.415L1582.37 686.451ZM1582.37 385.848V349.848H1546.37V385.848H1582.37ZM1626.9 385.848L1661.82 377.117L1655.01 349.848H1626.9V385.848ZM1743.37 851.741L1708.45 860.472L1778.34 860.29L1743.37 851.741ZM1857.28 385.848V349.848H1829.02L1822.31 377.298L1857.28 385.848ZM1902.67 385.848H1938.67V349.848H1902.67V385.848ZM1902.67 691.59L1936.8 703.045L1938.67 697.47V691.59H1902.67ZM1777.63 1064.13V1100.13H1803.52L1811.76 1075.59L1777.63 1064.13ZM1565.24 385.848H1529.24V1064.13H1565.24H1601.24V385.848H1565.24ZM1565.24 1064.13V1028.13H1419.65V1064.13V1100.13H1565.24V1064.13ZM1419.65 1064.13H1455.65V385.848H1419.65H1383.65V1064.13H1419.65ZM1419.65 385.848V421.848H1565.24V385.848V349.848H1419.65V385.848ZM2067.96 385.848H2031.96V1064.13H2067.96H2103.96V385.848H2067.96ZM2067.96 1064.13V1028.13H1920.65V1064.13V1100.13H2067.96V1064.13ZM1920.65 1064.13H1956.65V385.848H1920.65H1884.65V1064.13H1920.65ZM1920.65 385.848V421.848H2067.96V385.848V349.848H1920.65V385.848ZM1703.12 1064.13L1737.41 1053.17L1616.66 675.488L1582.37 686.451L1548.08 697.415L1668.83 1075.1L1703.12 1064.13ZM1582.37 686.451H1618.37V385.848H1582.37H1546.37V686.451H1582.37ZM1582.37 385.848V421.848H1626.9V385.848V349.848H1582.37V385.848ZM1626.9 385.848L1591.97 394.579L1708.45 860.472L1743.37 851.741L1778.3 843.009L1661.82 377.117L1626.9 385.848ZM1743.37 851.741L1778.34 860.29L1892.25 394.398L1857.28 385.848L1822.31 377.298L1708.4 843.191L1743.37 851.741ZM1857.28 385.848V421.848H1902.67V385.848V349.848H1857.28V385.848ZM1902.67 385.848H1866.67V691.59H1902.67H1938.67V385.848H1902.67ZM1902.67 691.59L1868.54 680.135L1743.5 1052.68L1777.63 1064.13L1811.76 1075.59L1936.8 703.045L1902.67 691.59ZM1777.63 1064.13V1028.13H1703.12V1064.13V1100.13H1777.63V1064.13ZM2652.42 385.848L2681.95 406.435L2721.39 349.848H2652.42V385.848ZM2488.84 620.507L2456.51 636.349L2483.41 691.243L2518.37 641.094L2488.84 620.507ZM2425.46 491.188L2394.51 472.814L2384.57 489.552L2393.14 507.03L2425.46 491.188ZM2487.98 385.848V349.848H2467.49L2457.02 367.474L2487.98 385.848ZM2334.68 634.21L2304.02 615.355L2298.68 624.028V634.21H2334.68ZM2405.77 518.593L2438.26 503.088L2409.76 443.368L2375.1 499.738L2405.77 518.593ZM2666.12 1064.13V1100.13H2723.19L2698.61 1048.63L2666.12 1064.13ZM2499.12 1064.13L2466.48 1079.32L2476.16 1100.13H2499.12V1064.13ZM2367.23 780.658L2399.87 765.472L2373.09 707.909L2337.44 760.444L2367.23 780.658ZM2334.68 828.617H2298.68V945.784L2364.47 848.831L2334.68 828.617ZM2153.12 1064.13H2117.12V1100.13H2153.12V1064.13ZM2153.12 385.848V349.848H2117.12V385.848H2153.12ZM2310.7 385.848H2346.7V349.848H2310.7V385.848ZM2310.7 1064.13V1100.13H2346.7V1064.13H2310.7ZM2652.42 385.848L2622.88 365.261L2459.31 599.92L2488.84 620.507L2518.37 641.094L2681.95 406.435L2652.42 385.848ZM2488.84 620.507L2521.17 604.665L2457.79 475.345L2425.46 491.188L2393.14 507.03L2456.51 636.349L2488.84 620.507ZM2425.46 491.188L2456.42 509.561L2518.94 404.221L2487.98 385.848L2457.02 367.474L2394.51 472.814L2425.46 491.188ZM2487.98 385.848V421.848H2652.42V385.848V349.848H2487.98V385.848ZM2334.68 634.21L2365.35 653.065L2436.43 537.448L2405.77 518.593L2375.1 499.738L2304.02 615.355L2334.68 634.21ZM2405.77 518.593L2373.28 534.098L2633.63 1079.64L2666.12 1064.13L2698.61 1048.63L2438.26 503.088L2405.77 518.593ZM2666.12 1064.13V1028.13H2499.12V1064.13V1100.13H2666.12V1064.13ZM2499.12 1064.13L2531.76 1048.95L2399.87 765.472L2367.23 780.658L2334.59 795.844L2466.48 1079.32L2499.12 1064.13ZM2367.23 780.658L2337.44 760.444L2304.89 808.403L2334.68 828.617L2364.47 848.831L2397.02 800.872L2367.23 780.658ZM2334.68 828.617H2370.68V634.21H2334.68H2298.68V828.617H2334.68ZM2153.12 1064.13H2189.12V385.848H2153.12H2117.12V1064.13H2153.12ZM2153.12 385.848V421.848H2310.7V385.848V349.848H2153.12V385.848ZM2310.7 385.848H2274.7V1064.13H2310.7H2346.7V385.848H2310.7ZM2310.7 1064.13V1028.13H2153.12V1064.13V1100.13H2310.7V1064.13ZM2881.89 1064.13V1100.13H2917.89V1064.13H2881.89ZM2726.02 1064.13H2690.02V1100.13H2726.02V1064.13ZM2726.02 385.848V349.848H2690.02V385.848H2726.02ZM2881.89 385.848H2917.89V349.848H2881.89V385.848ZM3037.76 385.848V349.848H3001.76V385.848H3037.76ZM3195.34 385.848H3231.34V349.848H3195.34V385.848ZM3195.34 1064.13V1100.13H3231.34V1064.13H3195.34ZM3037.76 1064.13H3001.76V1100.13H3037.76V1064.13ZM3037.76 768.668H3073.76V732.668H3037.76V768.668ZM2909.29 768.668H2873.29V804.668H2909.29V768.668ZM2909.29 655.62V619.62H2873.29V655.62H2909.29ZM3037.76 655.62V691.62H3073.76V655.62H3037.76ZM2881.89 1064.13V1028.13H2726.02V1064.13V1100.13H2881.89V1064.13ZM2726.02 1064.13H2762.02V385.848H2726.02H2690.02V1064.13H2726.02ZM2726.02 385.848V421.848H2881.89V385.848V349.848H2726.02V385.848ZM2881.89 385.848H2845.89V1064.13H2881.89H2917.89V385.848H2881.89ZM3037.76 385.848V421.848H3195.34V385.848V349.848H3037.76V385.848ZM3195.34 385.848H3159.34V1064.13H3195.34H3231.34V385.848H3195.34ZM3195.34 1064.13V1028.13H3037.76V1064.13V1100.13H3195.34V1064.13ZM3037.76 1064.13H3073.76V768.668H3037.76H3001.76V1064.13H3037.76ZM3037.76 768.668V732.668H2909.29V768.668V804.668H3037.76V768.668ZM2909.29 768.668H2945.29V655.62H2909.29H2873.29V768.668H2909.29ZM2909.29 655.62V691.62H3037.76V655.62V619.62H2909.29V655.62ZM3037.76 655.62H3073.76V385.848H3037.76H3001.76V655.62H3037.76ZM3617.93 385.848L3652.82 376.992L3645.93 349.848H3617.93V385.848ZM3790.07 1064.13V1100.13H3836.35L3824.96 1055.28L3790.07 1064.13ZM3626.49 1064.13L3591.36 1071.96L3597.63 1100.13H3626.49V1064.13ZM3594.81 921.967L3629.94 914.135L3623.67 885.967H3594.81V921.967ZM3459.49 921.967L3424.17 915.01L3415.71 957.967H3459.49V921.967ZM3481.76 808.92V772.92H3452.16L3446.44 801.962L3481.76 808.92ZM3571.68 808.92V844.92H3615.28L3607.03 802.113L3571.68 808.92ZM3518.58 533.152L3553.94 526.346L3483.47 525.223L3518.58 533.152ZM3398.69 1064.13V1100.13H3427.46L3433.8 1072.06L3398.69 1064.13ZM3244.53 1064.13L3209.64 1055.28L3198.25 1100.13H3244.53V1064.13ZM3416.67 385.848V349.848H3388.67L3381.78 376.992L3416.67 385.848ZM3617.93 385.848L3583.04 394.704L3755.18 1072.99L3790.07 1064.13L3824.96 1055.28L3652.82 376.992L3617.93 385.848ZM3790.07 1064.13V1028.13H3626.49V1064.13V1100.13H3790.07V1064.13ZM3626.49 1064.13L3661.63 1056.3L3629.94 914.135L3594.81 921.967L3559.67 929.799L3591.36 1071.96L3626.49 1064.13ZM3594.81 921.967V885.967H3459.49V921.967V957.967H3594.81V921.967ZM3459.49 921.967L3494.81 928.924L3517.08 815.877L3481.76 808.92L3446.44 801.962L3424.17 915.01L3459.49 921.967ZM3481.76 808.92V844.92H3571.68V808.92V772.92H3481.76V808.92ZM3571.68 808.92L3607.03 802.113L3553.94 526.346L3518.58 533.152L3483.23 539.959L3536.33 815.726L3571.68 808.92ZM3518.58 533.152L3483.47 525.223L3363.57 1056.2L3398.69 1064.13L3433.8 1072.06L3553.7 541.082L3518.58 533.152ZM3398.69 1064.13V1028.13H3244.53V1064.13V1100.13H3398.69V1064.13ZM3244.53 1064.13L3279.42 1072.99L3451.56 394.704L3416.67 385.848L3381.78 376.992L3209.64 1055.28L3244.53 1064.13ZM3416.67 385.848V421.848H3617.93V385.848V349.848H3416.67V385.848ZM4170.69 1018.74L4138.42 1034.68L4206.69 1018.74H4170.69ZM4001.12 675.318H3965.12V683.721L3968.84 691.257L4001.12 675.318ZM4001.12 438.946L4033.45 423.103L3965.12 438.946H4001.12ZM4170.69 784.94H4206.69V776.592L4203.02 769.097L4170.69 784.94ZM3982.28 385.848H4018.28V349.848H3982.28V385.848ZM3982.28 1064.13V1100.13H4018.28V1064.13H3982.28ZM3836.69 1064.13H3800.69V1100.13H3836.69V1064.13ZM3836.69 385.848V349.848H3800.69V385.848H3836.69ZM4336.84 385.848H4372.84V349.848H4336.84V385.848ZM4336.84 1064.13V1100.13H4372.84V1064.13H4336.84ZM4188.68 1064.13H4152.68V1100.13H4188.68V1064.13ZM4188.68 385.848V349.848H4152.68V385.848H4188.68ZM4170.69 1018.74L4202.97 1002.8L4033.4 659.38L4001.12 675.318L3968.84 691.257L4138.42 1034.68L4170.69 1018.74ZM4001.12 675.318H4037.12V438.946H4001.12H3965.12V675.318H4001.12ZM4001.12 438.946L3968.8 454.789L4138.37 800.783L4170.69 784.94L4203.02 769.097L4033.45 423.103L4001.12 438.946ZM4170.69 784.94H4134.69V1018.74H4170.69H4206.69V784.94H4170.69ZM3982.28 385.848H3946.28V1064.13H3982.28H4018.28V385.848H3982.28ZM3982.28 1064.13V1028.13H3836.69V1064.13V1100.13H3982.28V1064.13ZM3836.69 1064.13H3872.69V385.848H3836.69H3800.69V1064.13H3836.69ZM3836.69 385.848V421.848H3982.28V385.848V349.848H3836.69V385.848ZM4336.84 385.848H4300.84V1064.13H4336.84H4372.84V385.848H4336.84ZM4336.84 1064.13V1028.13H4188.68V1064.13V1100.13H4336.84V1064.13ZM4188.68 1064.13H4224.68V385.848H4188.68H4152.68V1064.13H4188.68ZM4188.68 385.848V421.848H4336.84V385.848V349.848H4188.68V385.848ZM4757.87 385.848L4792.77 376.992L4785.88 349.848H4757.87V385.848ZM4930.01 1064.13V1100.13H4976.29L4964.91 1055.28L4930.01 1064.13ZM4766.44 1064.13L4731.3 1071.96L4737.58 1100.13H4766.44V1064.13ZM4734.75 921.967L4769.89 914.135L4763.61 885.967H4734.75V921.967ZM4599.43 921.967L4564.11 915.01L4555.65 957.967H4599.43V921.967ZM4621.7 808.92V772.92H4592.1L4586.38 801.962L4621.7 808.92ZM4711.62 808.92V844.92H4755.22L4746.98 802.113L4711.62 808.92ZM4658.53 533.152L4693.88 526.346L4623.41 525.223L4658.53 533.152ZM4538.63 1064.13V1100.13H4567.4L4573.74 1072.06L4538.63 1064.13ZM4384.47 1064.13L4349.58 1055.28L4338.19 1100.13H4384.47V1064.13ZM4556.61 385.848V349.848H4528.61L4521.72 376.992L4556.61 385.848ZM4757.87 385.848L4722.98 394.704L4895.12 1072.99L4930.01 1064.13L4964.91 1055.28L4792.77 376.992L4757.87 385.848ZM4930.01 1064.13V1028.13H4766.44V1064.13V1100.13H4930.01V1064.13ZM4766.44 1064.13L4801.57 1056.3L4769.89 914.135L4734.75 921.967L4699.61 929.799L4731.3 1071.96L4766.44 1064.13ZM4734.75 921.967V885.967H4599.43V921.967V957.967H4734.75V921.967ZM4599.43 921.967L4634.75 928.924L4657.02 815.877L4621.7 808.92L4586.38 801.962L4564.11 915.01L4599.43 921.967ZM4621.7 808.92V844.92H4711.62V808.92V772.92H4621.7V808.92ZM4711.62 808.92L4746.98 802.113L4693.88 526.346L4658.53 533.152L4623.18 539.959L4676.27 815.726L4711.62 808.92ZM4658.53 533.152L4623.41 525.223L4503.51 1056.2L4538.63 1064.13L4573.74 1072.06L4693.64 541.082L4658.53 533.152ZM4538.63 1064.13V1028.13H4384.47V1064.13V1100.13H4538.63V1064.13ZM4384.47 1064.13L4419.37 1072.99L4591.51 394.704L4556.61 385.848L4521.72 376.992L4349.58 1055.28L4384.47 1064.13ZM4556.61 385.848V421.848H4757.87V385.848V349.848H4556.61V385.848Z" fill="#090909" mask="url(#path-1-outside-1_1087_925)"/>
</g>
<mask id="mask0_1087_925" style="mask-type:alpha" maskUnits="userSpaceOnUse" x="0" y="0" width="854" height="731">
<path d="M468.5 541.126V605.126V611.625C405.5 648.458 277.3 723.725 268.5 730.125C259.7 736.525 197.833 701.792 168 683.625C129.333 619.792 49.7 490.626 40.5 484.626C31.3 478.627 9.66667 358.459 0 299.125C77 200.625 231.9 2.92581 235.5 0.125808C239.1 -2.67419 583 41.9591 754.5 64.6258L854 198.626L814.5 492.126L628 582.126C630 526.926 616.5 505.46 609.5 501.626C589.5 480.826 544.833 481.626 525 484.626C482.2 489.426 469.5 524.293 468.5 541.126Z" fill="#D9D9D9"/>
</mask>
<g mask="url(#mask0_1087_925)">
<path d="M645.37 686.398L648.5 698.5L651.629 710.602L394.445 777.102L391.316 765L388.187 752.897L645.37 686.398ZM333.067 43.4859C360.922 32.409 391.894 47.2728 402.931 75.0273C409.898 92.5456 407.57 111.506 398.098 126.016L463.794 225.585L463.853 225.674L463.91 225.763C474.04 241.697 484.006 253.937 493.227 262.102C502.651 270.446 510.007 273.411 515.087 273.541C519.22 273.647 524.191 271.931 529.747 264.039C535.575 255.759 541.185 241.676 545.363 219.85L546.978 210.22C536.407 204.151 527.695 194.48 522.817 182.213C511.748 154.379 524.163 122.354 551.942 111.308C579.797 100.231 610.769 115.095 621.806 142.849C632.408 169.51 621.464 200.012 596.113 212.245L603.85 244.879L603.851 244.88C608.245 263.381 613.916 276.847 619.961 285.753C626.025 294.688 631.69 297.981 636.007 298.747C640.128 299.477 645.875 298.406 653.409 292.219C661.041 285.95 669.552 275.117 678.132 258.719L699.23 218.36C694.136 213.163 689.952 206.869 687.081 199.648C676.012 171.813 688.427 139.788 716.206 128.742C744.061 117.665 775.033 132.529 786.07 160.283C797.139 188.118 784.724 220.142 756.945 231.189C755.709 231.68 754.459 232.122 753.199 232.515L763.153 448.752L763.563 457.65L305.658 639.741L299.858 632.759L164.316 469.575C162.365 470.663 160.322 471.638 158.185 472.488C130.341 483.56 99.3852 468.77 88.321 440.947C77.2522 413.112 89.6674 381.087 117.446 370.041C145.301 358.964 176.274 373.828 187.311 401.582C190.259 408.997 191.54 416.663 191.326 424.14L237.196 436.318L237.222 436.325C247.891 439.182 254.046 441.124 260.442 441.833C266.089 442.459 271.982 442.064 280.689 439.168L280.701 439.164C288.434 436.6 291.36 433.14 292.693 430.131C294.248 426.621 294.675 421.346 293.046 413.704C289.716 398.083 279.427 379.354 269.378 361.489L269.255 361.27L269.141 361.046L261.578 346.241C234.249 355.869 204.466 341.059 193.69 313.959C182.621 286.125 195.036 254.1 222.815 243.053C250.67 231.977 281.642 246.84 292.679 274.595C297.761 287.373 297.897 300.957 293.912 313.001L303.787 319.466C317.646 328.406 328.78 333.963 337.605 336.994C346.499 340.05 352.278 340.276 355.857 339.561C361.054 338.521 365.716 334.346 367.958 320.576C370.167 307.004 369.009 288.656 366.334 268.634C363.655 248.582 359.801 228.987 357.039 211.713L357.015 211.565L347.803 149.152C328.741 146.61 311.613 133.683 303.942 114.392C292.873 86.557 305.288 54.5324 333.067 43.4859Z" fill="#AEE534" stroke="black" stroke-width="25"/>
</g>
<g filter="url(#filter1_d_1087_925)">
<mask id="path-5-outside-2_1087_925" maskUnits="userSpaceOnUse" x="2747.5" y="945.125" width="2206" height="399" fill="black">
<rect fill="white" x="2747.5" y="945.125" width="2206" height="399"/>
<path d="M2856.64 981.777V1301.12H2783.66V981.777H2856.64ZM2895.35 1111.21C2906.91 1111.21 2915.51 1108.12 2921.16 1101.94C2926.8 1095.75 2929.63 1086.88 2929.63 1075.32C2929.63 1061.61 2926.94 1051.53 2921.56 1045.08C2916.18 1038.63 2907.45 1035.4 2895.35 1035.4H2869.95V981.777H2893.34C2967.53 981.777 3004.62 1010 3004.62 1066.45C3004.62 1087.42 3001.26 1103.82 2994.54 1115.65C2988.09 1127.2 2977.21 1134.46 2961.88 1137.42C2989.84 1144.68 3003.82 1166.45 3003.82 1202.74V1272.9C3003.82 1279.08 3004.09 1284.59 3004.62 1289.43C3005.43 1294.27 3006.77 1298.17 3008.66 1301.12H2934.06C2930.57 1296.02 2928.82 1288.22 2928.82 1277.74V1205.56C2928.82 1178.14 2917.66 1164.43 2895.35 1164.43H2869.95V1111.21H2895.35ZM3229.87 1226.53C3229.87 1277.34 3199.76 1303.95 3139.55 1306.37V1258.38C3154.87 1255.96 3162.53 1246.56 3162.53 1230.16V1150.72C3162.53 1135.4 3154.87 1126.94 3139.55 1125.32V1077.34C3199.76 1078.68 3229.87 1104.09 3229.87 1153.55V1226.53ZM3107.29 1230.16C3107.29 1248.44 3115.22 1257.98 3131.08 1258.79V1306.37C3070.06 1305.02 3039.55 1278.28 3039.55 1226.13V1152.74C3039.55 1103.01 3070.06 1077.88 3131.08 1077.34V1124.92C3115.22 1126.26 3107.29 1134.87 3107.29 1150.72V1230.16ZM3334.54 1082.98V1234.19C3334.54 1252.2 3343.55 1261.21 3361.56 1261.21C3367.47 1261.21 3372.85 1259.19 3377.69 1255.16V1293.87C3365.32 1302.2 3350 1306.37 3331.72 1306.37C3309.95 1306.37 3293.55 1300.32 3282.53 1288.22C3271.78 1276.13 3266.4 1257.04 3266.4 1230.97V1082.98H3334.54ZM3455.51 1301.12H3388.58V1082.98H3455.51V1301.12ZM3505.27 1082.98V1133.39H3479.06V1082.98H3505.27ZM3588.73 1082.98H3616.56V1133.39H3588.73V1082.98ZM3578.65 1016.86V1228.95C3578.65 1249.38 3587.52 1259.59 3605.27 1259.59C3608.22 1259.59 3611.58 1259.46 3615.35 1259.19C3619.11 1258.92 3623.28 1258.52 3627.85 1257.98V1303.95C3624.89 1304.49 3620.72 1305.02 3615.35 1305.56C3609.97 1306.1 3603.52 1306.77 3595.99 1307.58C3540.89 1307.31 3513.33 1282.44 3513.33 1232.98V1016.86H3578.65ZM3839.42 1226.53C3839.42 1277.34 3809.32 1303.95 3749.1 1306.37V1258.38C3764.42 1255.96 3772.09 1246.56 3772.09 1230.16V1224.11H3839.42V1226.53ZM3749.1 1167.26H3772.09V1150.72C3772.09 1135.4 3764.42 1126.94 3749.1 1125.32V1077.74C3809.32 1079.09 3839.42 1104.35 3839.42 1153.55V1199.92H3749.1V1167.26ZM3737.81 1167.26V1199.92H3716.84V1230.16C3716.84 1246.83 3723.83 1256.37 3737.81 1258.79V1306.37C3678.67 1304.75 3649.1 1278.01 3649.1 1226.13V1152.74C3649.1 1103.55 3678.67 1078.41 3737.81 1077.34V1125.32C3723.83 1126.4 3716.84 1134.87 3716.84 1150.72V1167.26H3737.81ZM4085.2 981.777V1301.12H4012.21V981.777H4085.2ZM4123.9 1111.21C4135.46 1111.21 4144.07 1108.12 4149.71 1101.94C4155.36 1095.75 4158.18 1086.88 4158.18 1075.32C4158.18 1061.61 4155.49 1051.53 4150.11 1045.08C4144.74 1038.63 4136 1035.4 4123.9 1035.4H4098.5V981.777H4121.89C4196.08 981.777 4233.18 1010 4233.18 1066.45C4233.18 1087.42 4229.82 1103.82 4223.1 1115.65C4216.64 1127.2 4205.76 1134.46 4190.44 1137.42C4218.39 1144.68 4232.37 1166.45 4232.37 1202.74V1272.9C4232.37 1279.08 4232.64 1284.59 4233.18 1289.43C4233.98 1294.27 4235.33 1298.17 4237.21 1301.12H4162.61C4159.12 1296.02 4157.37 1288.22 4157.37 1277.74V1205.56C4157.37 1178.14 4146.22 1164.43 4123.9 1164.43H4098.5V1111.21H4123.9ZM4395.93 1144.27C4395.93 1131.64 4389.34 1125.32 4376.17 1125.32C4365.95 1125.32 4358.16 1127.07 4352.78 1130.56C4347.4 1133.79 4344.45 1139.3 4343.91 1147.1H4277.38C4277.38 1100.86 4310.31 1077.74 4376.17 1077.74C4434.77 1077.74 4464.07 1099.79 4464.07 1143.87V1212.42C4464.07 1261.61 4466.89 1291.18 4472.54 1301.12H4406.01C4402.24 1296.82 4399.55 1292.25 4397.94 1287.42C4396.6 1282.31 4395.93 1276.66 4395.93 1270.48V1144.27ZM4266.49 1237.82C4266.49 1214.97 4275.63 1196.83 4293.91 1183.39C4312.46 1169.68 4341.89 1160.13 4382.22 1154.76V1197.09C4366.09 1200.86 4354.26 1205.56 4346.73 1211.21C4339.21 1216.85 4335.17 1223.17 4334.64 1230.16C4335.17 1247.63 4341.36 1256.37 4353.18 1256.37C4359.37 1256.37 4364.74 1256.23 4369.31 1255.96C4374.15 1255.43 4378.45 1254.49 4382.22 1253.14V1294.27C4372 1300.72 4359.1 1303.95 4343.51 1303.95C4292.16 1303.95 4266.49 1281.9 4266.49 1237.82ZM4693.5 1226.53C4693.5 1277.34 4663.66 1303.95 4603.99 1306.37V1258.38C4618.77 1255.7 4626.17 1246.29 4626.17 1230.16V1208.39H4693.5V1226.53ZM4626.17 1150.72C4626.17 1135.67 4618.77 1127.2 4603.99 1125.32V1077.74C4663.66 1079.09 4693.5 1104.35 4693.5 1153.55V1174.51H4626.17V1150.72ZM4570.92 1230.16C4570.92 1246.56 4577.65 1255.96 4591.09 1258.38V1306.37C4532.48 1304.22 4503.18 1277.47 4503.18 1226.13V1152.74C4503.18 1104.09 4532.48 1079.09 4591.09 1077.74V1125.32C4584.9 1126.13 4579.93 1128.68 4576.17 1132.98C4572.67 1137.28 4570.92 1143.2 4570.92 1150.72V1230.16ZM4917.16 1226.53C4917.16 1277.34 4887.06 1303.95 4826.84 1306.37V1258.38C4842.16 1255.96 4849.83 1246.56 4849.83 1230.16V1224.11H4917.16V1226.53ZM4826.84 1167.26H4849.83V1150.72C4849.83 1135.4 4842.16 1126.94 4826.84 1125.32V1077.74C4887.06 1079.09 4917.16 1104.35 4917.16 1153.55V1199.92H4826.84V1167.26ZM4815.55 1167.26V1199.92H4794.58V1230.16C4794.58 1246.83 4801.57 1256.37 4815.55 1258.79V1306.37C4756.41 1304.75 4726.84 1278.01 4726.84 1226.13V1152.74C4726.84 1103.55 4756.41 1078.41 4815.55 1077.34V1125.32C4801.57 1126.4 4794.58 1134.87 4794.58 1150.72V1167.26H4815.55Z"/>
</mask>
<path d="M2856.64 981.777V1301.12H2783.66V981.777H2856.64ZM2895.35 1111.21C2906.91 1111.21 2915.51 1108.12 2921.16 1101.94C2926.8 1095.75 2929.63 1086.88 2929.63 1075.32C2929.63 1061.61 2926.94 1051.53 2921.56 1045.08C2916.18 1038.63 2907.45 1035.4 2895.35 1035.4H2869.95V981.777H2893.34C2967.53 981.777 3004.62 1010 3004.62 1066.45C3004.62 1087.42 3001.26 1103.82 2994.54 1115.65C2988.09 1127.2 2977.21 1134.46 2961.88 1137.42C2989.84 1144.68 3003.82 1166.45 3003.82 1202.74V1272.9C3003.82 1279.08 3004.09 1284.59 3004.62 1289.43C3005.43 1294.27 3006.77 1298.17 3008.66 1301.12H2934.06C2930.57 1296.02 2928.82 1288.22 2928.82 1277.74V1205.56C2928.82 1178.14 2917.66 1164.43 2895.35 1164.43H2869.95V1111.21H2895.35ZM3229.87 1226.53C3229.87 1277.34 3199.76 1303.95 3139.55 1306.37V1258.38C3154.87 1255.96 3162.53 1246.56 3162.53 1230.16V1150.72C3162.53 1135.4 3154.87 1126.94 3139.55 1125.32V1077.34C3199.76 1078.68 3229.87 1104.09 3229.87 1153.55V1226.53ZM3107.29 1230.16C3107.29 1248.44 3115.22 1257.98 3131.08 1258.79V1306.37C3070.06 1305.02 3039.55 1278.28 3039.55 1226.13V1152.74C3039.55 1103.01 3070.06 1077.88 3131.08 1077.34V1124.92C3115.22 1126.26 3107.29 1134.87 3107.29 1150.72V1230.16ZM3334.54 1082.98V1234.19C3334.54 1252.2 3343.55 1261.21 3361.56 1261.21C3367.47 1261.21 3372.85 1259.19 3377.69 1255.16V1293.87C3365.32 1302.2 3350 1306.37 3331.72 1306.37C3309.95 1306.37 3293.55 1300.32 3282.53 1288.22C3271.78 1276.13 3266.4 1257.04 3266.4 1230.97V1082.98H3334.54ZM3455.51 1301.12H3388.58V1082.98H3455.51V1301.12ZM3505.27 1082.98V1133.39H3479.06V1082.98H3505.27ZM3588.73 1082.98H3616.56V1133.39H3588.73V1082.98ZM3578.65 1016.86V1228.95C3578.65 1249.38 3587.52 1259.59 3605.27 1259.59C3608.22 1259.59 3611.58 1259.46 3615.35 1259.19C3619.11 1258.92 3623.28 1258.52 3627.85 1257.98V1303.95C3624.89 1304.49 3620.72 1305.02 3615.35 1305.56C3609.97 1306.1 3603.52 1306.77 3595.99 1307.58C3540.89 1307.31 3513.33 1282.44 3513.33 1232.98V1016.86H3578.65ZM3839.42 1226.53C3839.42 1277.34 3809.32 1303.95 3749.1 1306.37V1258.38C3764.42 1255.96 3772.09 1246.56 3772.09 1230.16V1224.11H3839.42V1226.53ZM3749.1 1167.26H3772.09V1150.72C3772.09 1135.4 3764.42 1126.94 3749.1 1125.32V1077.74C3809.32 1079.09 3839.42 1104.35 3839.42 1153.55V1199.92H3749.1V1167.26ZM3737.81 1167.26V1199.92H3716.84V1230.16C3716.84 1246.83 3723.83 1256.37 3737.81 1258.79V1306.37C3678.67 1304.75 3649.1 1278.01 3649.1 1226.13V1152.74C3649.1 1103.55 3678.67 1078.41 3737.81 1077.34V1125.32C3723.83 1126.4 3716.84 1134.87 3716.84 1150.72V1167.26H3737.81ZM4085.2 981.777V1301.12H4012.21V981.777H4085.2ZM4123.9 1111.21C4135.46 1111.21 4144.07 1108.12 4149.71 1101.94C4155.36 1095.75 4158.18 1086.88 4158.18 1075.32C4158.18 1061.61 4155.49 1051.53 4150.11 1045.08C4144.74 1038.63 4136 1035.4 4123.9 1035.4H4098.5V981.777H4121.89C4196.08 981.777 4233.18 1010 4233.18 1066.45C4233.18 1087.42 4229.82 1103.82 4223.1 1115.65C4216.64 1127.2 4205.76 1134.46 4190.44 1137.42C4218.39 1144.68 4232.37 1166.45 4232.37 1202.74V1272.9C4232.37 1279.08 4232.64 1284.59 4233.18 1289.43C4233.98 1294.27 4235.33 1298.17 4237.21 1301.12H4162.61C4159.12 1296.02 4157.37 1288.22 4157.37 1277.74V1205.56C4157.37 1178.14 4146.22 1164.43 4123.9 1164.43H4098.5V1111.21H4123.9ZM4395.93 1144.27C4395.93 1131.64 4389.34 1125.32 4376.17 1125.32C4365.95 1125.32 4358.16 1127.07 4352.78 1130.56C4347.4 1133.79 4344.45 1139.3 4343.91 1147.1H4277.38C4277.38 1100.86 4310.31 1077.74 4376.17 1077.74C4434.77 1077.74 4464.07 1099.79 4464.07 1143.87V1212.42C4464.07 1261.61 4466.89 1291.18 4472.54 1301.12H4406.01C4402.24 1296.82 4399.55 1292.25 4397.94 1287.42C4396.6 1282.31 4395.93 1276.66 4395.93 1270.48V1144.27ZM4266.49 1237.82C4266.49 1214.97 4275.63 1196.83 4293.91 1183.39C4312.46 1169.68 4341.89 1160.13 4382.22 1154.76V1197.09C4366.09 1200.86 4354.26 1205.56 4346.73 1211.21C4339.21 1216.85 4335.17 1223.17 4334.64 1230.16C4335.17 1247.63 4341.36 1256.37 4353.18 1256.37C4359.37 1256.37 4364.74 1256.23 4369.31 1255.96C4374.15 1255.43 4378.45 1254.49 4382.22 1253.14V1294.27C4372 1300.72 4359.1 1303.95 4343.51 1303.95C4292.16 1303.95 4266.49 1281.9 4266.49 1237.82ZM4693.5 1226.53C4693.5 1277.34 4663.66 1303.95 4603.99 1306.37V1258.38C4618.77 1255.7 4626.17 1246.29 4626.17 1230.16V1208.39H4693.5V1226.53ZM4626.17 1150.72C4626.17 1135.67 4618.77 1127.2 4603.99 1125.32V1077.74C4663.66 1079.09 4693.5 1104.35 4693.5 1153.55V1174.51H4626.17V1150.72ZM4570.92 1230.16C4570.92 1246.56 4577.65 1255.96 4591.09 1258.38V1306.37C4532.48 1304.22 4503.18 1277.47 4503.18 1226.13V1152.74C4503.18 1104.09 4532.48 1079.09 4591.09 1077.74V1125.32C4584.9 1126.13 4579.93 1128.68 4576.17 1132.98C4572.67 1137.28 4570.92 1143.2 4570.92 1150.72V1230.16ZM4917.16 1226.53C4917.16 1277.34 4887.06 1303.95 4826.84 1306.37V1258.38C4842.16 1255.96 4849.83 1246.56 4849.83 1230.16V1224.11H4917.16V1226.53ZM4826.84 1167.26H4849.83V1150.72C4849.83 1135.4 4842.16 1126.94 4826.84 1125.32V1077.74C4887.06 1079.09 4917.16 1104.35 4917.16 1153.55V1199.92H4826.84V1167.26ZM4815.55 1167.26V1199.92H4794.58V1230.16C4794.58 1246.83 4801.57 1256.37 4815.55 1258.79V1306.37C4756.41 1304.75 4726.84 1278.01 4726.84 1226.13V1152.74C4726.84 1103.55 4756.41 1078.41 4815.55 1077.34V1125.32C4801.57 1126.4 4794.58 1134.87 4794.58 1150.72V1167.26H4815.55Z" fill="#AEE534"/>
<path d="M2856.64 981.777H2892.64V945.777H2856.64V981.777ZM2856.64 1301.12V1337.12H2892.64V1301.12H2856.64ZM2783.66 1301.12H2747.66V1337.12H2783.66V1301.12ZM2783.66 981.777V945.777H2747.66V981.777H2783.66ZM2921.16 1101.94L2947.74 1126.21L2947.74 1126.21L2921.16 1101.94ZM2921.56 1045.08L2949.22 1022.04L2949.22 1022.04L2921.56 1045.08ZM2869.95 1035.4H2833.95V1071.4H2869.95V1035.4ZM2869.95 981.777V945.777H2833.95V981.777H2869.95ZM2994.54 1115.65L2963.24 1097.86L2963.18 1097.98L2963.11 1098.1L2994.54 1115.65ZM2961.88 1137.42L2955.06 1102.07L2952.84 1172.26L2961.88 1137.42ZM3004.62 1289.43L2968.84 1293.41L2968.95 1294.38L2969.11 1295.35L3004.62 1289.43ZM3008.66 1301.12V1337.12H3074.24L3039.03 1281.8L3008.66 1301.12ZM2934.06 1301.12L2904.35 1321.45L2915.07 1337.12H2934.06V1301.12ZM2869.95 1164.43H2833.95V1200.43H2869.95V1164.43ZM2869.95 1111.21V1075.21H2833.95V1111.21H2869.95ZM2856.64 981.777H2820.64V1301.12H2856.64H2892.64V981.777H2856.64ZM2856.64 1301.12V1265.12H2783.66V1301.12V1337.12H2856.64V1301.12ZM2783.66 1301.12H2819.66V981.777H2783.66H2747.66V1301.12H2783.66ZM2783.66 981.777V1017.78H2856.64V981.777V945.777H2783.66V981.777ZM2895.35 1111.21V1147.21C2913.04 1147.21 2932.99 1142.37 2947.74 1126.21L2921.16 1101.94L2894.57 1077.66C2895.25 1076.92 2895.99 1076.3 2896.73 1075.82C2897.45 1075.35 2898.02 1075.11 2898.3 1075.01C2898.78 1074.84 2898.03 1075.21 2895.35 1075.21V1111.21ZM2921.16 1101.94L2947.74 1126.21C2961.42 1111.23 2965.63 1092.42 2965.63 1075.32H2929.63H2893.63C2893.63 1078.26 2893.26 1079.56 2893.2 1079.73C2893.18 1079.79 2893.25 1079.56 2893.49 1079.15C2893.73 1078.72 2894.08 1078.2 2894.57 1077.66L2921.16 1101.94ZM2929.63 1075.32H2965.63C2965.63 1058.15 2962.48 1037.95 2949.22 1022.04L2921.56 1045.08L2893.91 1068.13C2892.54 1066.49 2892.51 1065.58 2892.82 1066.76C2893.16 1068 2893.63 1070.68 2893.63 1075.32H2929.63ZM2921.56 1045.08L2949.22 1022.04C2934.4 1004.26 2913.27 999.405 2895.35 999.405V1035.4V1071.4C2898.35 1071.4 2899.12 1071.82 2898.51 1071.6C2898.15 1071.46 2897.43 1071.15 2896.54 1070.54C2895.63 1069.91 2894.72 1069.1 2893.91 1068.13L2921.56 1045.08ZM2895.35 1035.4V999.405H2869.95V1035.4V1071.4H2895.35V1035.4ZM2869.95 1035.4H2905.95V981.777H2869.95H2833.95V1035.4H2869.95ZM2869.95 981.777V1017.78H2893.34V981.777V945.777H2869.95V981.777ZM2893.34 981.777V1017.78C2926.89 1017.78 2945.46 1024.34 2955 1031.6C2962.68 1037.44 2968.62 1046.82 2968.62 1066.45H3004.62H3040.62C3040.62 1029.64 3028.02 996.677 2998.6 974.296C2971.04 953.329 2933.98 945.777 2893.34 945.777V981.777ZM3004.62 1066.45H2968.62C2968.62 1084.27 2965.65 1093.62 2963.24 1097.86L2994.54 1115.65L3025.84 1133.43C3036.88 1114.01 3040.62 1090.57 3040.62 1066.45H3004.62ZM2994.54 1115.65L2963.11 1098.1C2962.78 1098.69 2962.02 1100.73 2955.06 1102.07L2961.88 1137.42L2968.7 1172.77C2992.39 1168.2 3013.41 1155.72 3025.98 1133.19L2994.54 1115.65ZM2961.88 1137.42L2952.84 1172.26C2959.15 1173.9 2961.53 1176.28 2963.04 1178.64C2965.09 1181.83 2967.82 1188.83 2967.82 1202.74H3003.82H3039.82C3039.82 1180.36 3035.56 1158.33 3023.63 1139.74C3011.16 1120.33 2992.57 1108.19 2970.93 1102.57L2961.88 1137.42ZM3003.82 1202.74H2967.82V1272.9H3003.82H3039.82V1202.74H3003.82ZM3003.82 1272.9H2967.82C2967.82 1280.08 2968.13 1286.95 2968.84 1293.41L3004.62 1289.43L3040.4 1285.46C3040.05 1282.23 3039.82 1278.09 3039.82 1272.9H3003.82ZM3004.62 1289.43L2969.11 1295.35C2970.42 1303.19 2972.99 1312.13 2978.28 1320.45L3008.66 1301.12L3039.03 1281.8C3039.84 1283.07 3040.18 1283.99 3040.27 1284.25C3040.36 1284.51 3040.27 1284.32 3040.13 1283.51L3004.62 1289.43ZM3008.66 1301.12V1265.12H2934.06V1301.12V1337.12H3008.66V1301.12ZM2934.06 1301.12L2963.77 1280.8C2965.23 1282.93 2965.41 1284.25 2965.26 1283.57C2965.11 1282.92 2964.82 1281.1 2964.82 1277.74H2928.82H2892.82C2892.82 1290.97 2894.79 1307.49 2904.35 1321.45L2934.06 1301.12ZM2928.82 1277.74H2964.82V1205.56H2928.82H2892.82V1277.74H2928.82ZM2928.82 1205.56H2964.82C2964.82 1187.9 2961.37 1167.97 2948.38 1151.99C2934.22 1134.6 2914.24 1128.43 2895.35 1128.43V1164.43V1200.43C2897.31 1200.43 2897.38 1200.74 2896.35 1200.32C2895.82 1200.1 2895.12 1199.74 2894.38 1199.19C2893.63 1198.64 2893.01 1198.03 2892.53 1197.44C2891.56 1196.24 2891.64 1195.73 2891.98 1196.99C2892.35 1198.33 2892.82 1201.03 2892.82 1205.56H2928.82ZM2895.35 1164.43V1128.43H2869.95V1164.43V1200.43H2895.35V1164.43ZM2869.95 1164.43H2905.95V1111.21H2869.95H2833.95V1164.43H2869.95ZM2869.95 1111.21V1147.21H2895.35V1111.21V1075.21H2869.95V1111.21ZM3139.55 1306.37H3103.55V1343.84L3141 1342.34L3139.55 1306.37ZM3139.55 1258.38L3133.94 1222.82L3103.55 1227.62V1258.38H3139.55ZM3139.55 1125.32H3103.55V1157.73L3135.78 1161.12L3139.55 1125.32ZM3139.55 1077.34L3140.35 1041.35L3103.55 1040.53V1077.34H3139.55ZM3131.08 1258.79H3167.08V1224.57L3132.91 1222.83L3131.08 1258.79ZM3131.08 1306.37L3130.29 1342.36L3167.08 1343.17V1306.37H3131.08ZM3131.08 1077.34H3167.08V1041.02L3130.77 1041.34L3131.08 1077.34ZM3131.08 1124.92L3134.12 1160.79L3167.08 1158V1124.92H3131.08ZM3229.87 1226.53H3193.87C3193.87 1244.54 3188.82 1252.87 3183.45 1257.62C3177.04 1263.28 3163.91 1269.36 3138.11 1270.4L3139.55 1306.37L3141 1342.34C3175.41 1340.96 3207.43 1332.51 3231.13 1311.57C3255.87 1289.7 3265.87 1259.32 3265.87 1226.53H3229.87ZM3139.55 1306.37H3175.55V1258.38H3139.55H3103.55V1306.37H3139.55ZM3139.55 1258.38L3145.17 1293.94C3159.07 1291.75 3173.85 1285.57 3184.7 1272.24C3195.34 1259.18 3198.53 1243.73 3198.53 1230.16H3162.53H3126.53C3126.53 1232.98 3125.89 1230.44 3128.87 1226.78C3130.29 1225.04 3131.88 1223.89 3133.13 1223.25C3134.27 1222.66 3134.72 1222.7 3133.94 1222.82L3139.55 1258.38ZM3162.53 1230.16H3198.53V1150.72H3162.53H3126.53V1230.16H3162.53ZM3162.53 1150.72H3198.53C3198.53 1137.24 3195.1 1121.57 3183.48 1108.73C3171.89 1095.92 3156.68 1090.93 3143.32 1089.52L3139.55 1125.32L3135.78 1161.12C3137.74 1161.33 3134.02 1161.38 3130.09 1157.04C3126.14 1152.66 3126.53 1148.89 3126.53 1150.72H3162.53ZM3139.55 1125.32H3175.55V1077.34H3139.55H3103.55V1125.32H3139.55ZM3139.55 1077.34L3138.75 1113.33C3164.77 1113.91 3177.87 1119.68 3184.08 1124.91C3189.02 1129.08 3193.87 1136.48 3193.87 1153.55H3229.87H3265.87C3265.87 1121.15 3255.67 1091.12 3230.51 1069.88C3206.6 1049.72 3174.54 1042.11 3140.35 1041.35L3139.55 1077.34ZM3229.87 1153.55H3193.87V1226.53H3229.87H3265.87V1153.55H3229.87ZM3107.29 1230.16H3071.29C3071.29 1243.85 3074.18 1260.35 3085.55 1274.03C3097.64 1288.58 3114.26 1293.98 3129.25 1294.74L3131.08 1258.79L3132.91 1222.83C3132.33 1222.8 3133.26 1222.76 3135.04 1223.53C3136.98 1224.38 3139.15 1225.87 3140.93 1228.02C3144.37 1232.16 3143.29 1234.75 3143.29 1230.16H3107.29ZM3131.08 1258.79H3095.08V1306.37H3131.08H3167.08V1258.79H3131.08ZM3131.08 1306.37L3131.88 1270.38C3105.72 1269.8 3092.54 1263.81 3086.17 1258.23C3080.81 1253.53 3075.55 1244.99 3075.55 1226.13H3039.55H3003.55C3003.55 1259.41 3013.55 1290.32 3038.7 1312.37C3062.84 1333.53 3095.43 1341.59 3130.29 1342.36L3131.08 1306.37ZM3039.55 1226.13H3075.55V1152.74H3039.55H3003.55V1226.13H3039.55ZM3039.55 1152.74H3075.55C3075.55 1135.61 3080.45 1128.39 3085.32 1124.38C3091.57 1119.23 3104.88 1113.57 3131.4 1113.34L3131.08 1077.34L3130.77 1041.34C3096.26 1041.64 3063.81 1048.82 3039.55 1068.81C3013.91 1089.93 3003.55 1120.14 3003.55 1152.74H3039.55ZM3131.08 1077.34H3095.08V1124.92H3131.08H3167.08V1077.34H3131.08ZM3131.08 1124.92L3128.04 1089.05C3114.42 1090.2 3098.75 1094.99 3086.77 1107.98C3074.78 1120.99 3071.29 1137.02 3071.29 1150.72H3107.29H3143.29C3143.29 1148.57 3143.77 1152.37 3139.71 1156.78C3135.66 1161.17 3131.89 1160.98 3134.12 1160.79L3131.08 1124.92ZM3107.29 1150.72H3071.29V1230.16H3107.29H3143.29V1150.72H3107.29ZM3334.54 1082.98H3370.54V1046.98H3334.54V1082.98ZM3377.69 1255.16H3413.69V1178.3L3354.64 1227.5L3377.69 1255.16ZM3377.69 1293.87L3397.81 1323.72L3413.69 1313.02V1293.87H3377.69ZM3282.53 1288.22L3255.62 1312.14L3255.77 1312.3L3255.92 1312.47L3282.53 1288.22ZM3266.4 1082.98V1046.98H3230.4V1082.98H3266.4ZM3455.51 1301.12V1337.12H3491.51V1301.12H3455.51ZM3388.58 1301.12H3352.58V1337.12H3388.58V1301.12ZM3388.58 1082.98V1046.98H3352.58V1082.98H3388.58ZM3455.51 1082.98H3491.51V1046.98H3455.51V1082.98ZM3334.54 1082.98H3298.54V1234.19H3334.54H3370.54V1082.98H3334.54ZM3334.54 1234.19H3298.54C3298.54 1248.75 3302.21 1266.27 3315.84 1279.91C3329.48 1293.54 3347.01 1297.21 3361.56 1297.21V1261.21V1225.21C3358.1 1225.21 3362.12 1224.37 3366.75 1229C3371.38 1233.63 3370.54 1237.65 3370.54 1234.19H3334.54ZM3361.56 1261.21V1297.21C3376.47 1297.21 3389.88 1291.86 3400.73 1282.81L3377.69 1255.16L3354.64 1227.5C3355.03 1227.18 3355.94 1226.53 3357.39 1225.99C3358.86 1225.43 3360.33 1225.21 3361.56 1225.21V1261.21ZM3377.69 1255.16H3341.69V1293.87H3377.69H3413.69V1255.16H3377.69ZM3377.69 1293.87L3357.57 1264.01C3352.37 1267.52 3344.47 1270.37 3331.72 1270.37V1306.37V1342.37C3355.54 1342.37 3378.27 1336.89 3397.81 1323.72L3377.69 1293.87ZM3331.72 1306.37V1270.37C3316.56 1270.37 3311.29 1266.33 3309.14 1263.98L3282.53 1288.22L3255.92 1312.47C3275.81 1334.31 3303.33 1342.37 3331.72 1342.37V1306.37ZM3282.53 1288.22L3309.44 1264.3C3307.21 1261.8 3302.4 1253.31 3302.4 1230.97H3266.4H3230.4C3230.4 1260.77 3236.34 1290.45 3255.62 1312.14L3282.53 1288.22ZM3266.4 1230.97H3302.4V1082.98H3266.4H3230.4V1230.97H3266.4ZM3266.4 1082.98V1118.98H3334.54V1082.98V1046.98H3266.4V1082.98ZM3455.51 1301.12V1265.12H3388.58V1301.12V1337.12H3455.51V1301.12ZM3388.58 1301.12H3424.58V1082.98H3388.58H3352.58V1301.12H3388.58ZM3388.58 1082.98V1118.98H3455.51V1082.98V1046.98H3388.58V1082.98ZM3455.51 1082.98H3419.51V1301.12H3455.51H3491.51V1082.98H3455.51ZM3505.27 1082.98H3541.27V1046.98H3505.27V1082.98ZM3505.27 1133.39V1169.39H3541.27V1133.39H3505.27ZM3479.06 1133.39H3443.06V1169.39H3479.06V1133.39ZM3479.06 1082.98V1046.98H3443.06V1082.98H3479.06ZM3588.73 1082.98V1046.98H3552.73V1082.98H3588.73ZM3616.56 1082.98H3652.56V1046.98H3616.56V1082.98ZM3616.56 1133.39V1169.39H3652.56V1133.39H3616.56ZM3588.73 1133.39H3552.73V1169.39H3588.73V1133.39ZM3578.65 1016.86H3614.65V980.857H3578.65V1016.86ZM3615.35 1259.19L3617.91 1295.1V1295.1L3615.35 1259.19ZM3627.85 1257.98H3663.85V1217.5L3623.64 1222.23L3627.85 1257.98ZM3627.85 1303.95L3634.29 1339.37L3663.85 1333.99V1303.95H3627.85ZM3615.35 1305.56L3611.76 1269.74V1269.74L3615.35 1305.56ZM3595.99 1307.58L3595.82 1343.58L3597.83 1343.59L3599.83 1343.37L3595.99 1307.58ZM3513.33 1016.86V980.857H3477.33V1016.86H3513.33ZM3505.27 1082.98H3469.27V1133.39H3505.27H3541.27V1082.98H3505.27ZM3505.27 1133.39V1097.39H3479.06V1133.39V1169.39H3505.27V1133.39ZM3479.06 1133.39H3515.06V1082.98H3479.06H3443.06V1133.39H3479.06ZM3479.06 1082.98V1118.98H3505.27V1082.98V1046.98H3479.06V1082.98ZM3588.73 1082.98V1118.98H3616.56V1082.98V1046.98H3588.73V1082.98ZM3616.56 1082.98H3580.56V1133.39H3616.56H3652.56V1082.98H3616.56ZM3616.56 1133.39V1097.39H3588.73V1133.39V1169.39H3616.56V1133.39ZM3588.73 1133.39H3624.73V1082.98H3588.73H3552.73V1133.39H3588.73ZM3578.65 1016.86H3542.65V1228.95H3578.65H3614.65V1016.86H3578.65ZM3578.65 1228.95H3542.65C3542.65 1243.57 3545.72 1261.25 3558.13 1275.54C3571.38 1290.8 3589.42 1295.59 3605.27 1295.59V1259.59V1223.59C3604.2 1223.59 3604.86 1223.43 3606.52 1224.07C3608.4 1224.79 3610.63 1226.19 3612.49 1228.33C3614.25 1230.36 3614.81 1232.05 3614.9 1232.35C3614.95 1232.53 3614.65 1231.57 3614.65 1228.95H3578.65ZM3605.27 1259.59V1295.59C3609.27 1295.59 3613.51 1295.41 3617.91 1295.1L3615.35 1259.19L3612.78 1223.28C3609.65 1223.51 3607.17 1223.59 3605.27 1223.59V1259.59ZM3615.35 1259.19L3617.91 1295.1C3622.33 1294.78 3627.05 1294.32 3632.05 1293.73L3627.85 1257.98L3623.64 1222.23C3619.5 1222.71 3615.89 1223.06 3612.78 1223.28L3615.35 1259.19ZM3627.85 1257.98H3591.85V1303.95H3627.85H3663.85V1257.98H3627.85ZM3627.85 1303.95L3621.41 1268.53C3619.86 1268.81 3616.81 1269.23 3611.76 1269.74L3615.35 1305.56L3618.93 1341.38C3624.64 1340.81 3629.92 1340.16 3634.29 1339.37L3627.85 1303.95ZM3615.35 1305.56L3611.76 1269.74C3606.28 1270.29 3599.74 1270.97 3592.16 1271.78L3595.99 1307.58L3599.83 1343.37C3607.3 1342.57 3613.66 1341.91 3618.93 1341.38L3615.35 1305.56ZM3595.99 1307.58L3596.17 1271.58C3573.28 1271.47 3562.77 1266.2 3558.12 1262C3554.2 1258.46 3549.33 1251.08 3549.33 1232.98H3513.33H3477.33C3477.33 1264.34 3486.25 1294.13 3509.88 1315.45C3532.78 1336.12 3563.6 1343.42 3595.82 1343.58L3595.99 1307.58ZM3513.33 1232.98H3549.33V1016.86H3513.33H3477.33V1232.98H3513.33ZM3513.33 1016.86V1052.86H3578.65V1016.86V980.857H3513.33V1016.86ZM3749.1 1306.37H3713.1V1343.84L3750.55 1342.34L3749.1 1306.37ZM3749.1 1258.38L3743.49 1222.82L3713.1 1227.62V1258.38H3749.1ZM3772.09 1224.11V1188.11H3736.09V1224.11H3772.09ZM3839.42 1224.11H3875.42V1188.11H3839.42V1224.11ZM3749.1 1167.26V1131.26H3713.1V1167.26H3749.1ZM3772.09 1167.26V1203.26H3808.09V1167.26H3772.09ZM3749.1 1125.32H3713.1V1157.73L3745.33 1161.12L3749.1 1125.32ZM3749.1 1077.74L3749.91 1041.75L3713.1 1040.93V1077.74H3749.1ZM3839.42 1199.92V1235.92H3875.42V1199.92H3839.42ZM3749.1 1199.92H3713.1V1235.92H3749.1V1199.92ZM3737.81 1167.26H3773.81V1131.26H3737.81V1167.26ZM3737.81 1199.92V1235.92H3773.81V1199.92H3737.81ZM3716.84 1199.92V1163.92H3680.84V1199.92H3716.84ZM3737.81 1258.79H3773.81V1228.48L3743.95 1223.31L3737.81 1258.79ZM3737.81 1306.37L3736.83 1342.35L3773.81 1343.36V1306.37H3737.81ZM3737.81 1077.34H3773.81V1040.68L3737.16 1041.35L3737.81 1077.34ZM3737.81 1125.32L3740.57 1161.22L3773.81 1158.66V1125.32H3737.81ZM3716.84 1167.26H3680.84V1203.26H3716.84V1167.26ZM3839.42 1226.53H3803.42C3803.42 1244.54 3798.37 1252.87 3793 1257.62C3786.59 1263.28 3773.46 1269.36 3747.66 1270.4L3749.1 1306.37L3750.55 1342.34C3784.96 1340.96 3816.99 1332.51 3840.68 1311.57C3865.42 1289.7 3875.42 1259.32 3875.42 1226.53H3839.42ZM3749.1 1306.37H3785.1V1258.38H3749.1H3713.1V1306.37H3749.1ZM3749.1 1258.38L3754.72 1293.94C3768.62 1291.75 3783.4 1285.57 3794.26 1272.24C3804.89 1259.18 3808.09 1243.73 3808.09 1230.16H3772.09H3736.09C3736.09 1232.98 3735.45 1230.44 3738.42 1226.78C3739.84 1225.04 3741.44 1223.89 3742.68 1223.25C3743.82 1222.66 3744.27 1222.7 3743.49 1222.82L3749.1 1258.38ZM3772.09 1230.16H3808.09V1224.11H3772.09H3736.09V1230.16H3772.09ZM3772.09 1224.11V1260.11H3839.42V1224.11V1188.11H3772.09V1224.11ZM3839.42 1224.11H3803.42V1226.53H3839.42H3875.42V1224.11H3839.42ZM3749.1 1167.26V1203.26H3772.09V1167.26V1131.26H3749.1V1167.26ZM3772.09 1167.26H3808.09V1150.72H3772.09H3736.09V1167.26H3772.09ZM3772.09 1150.72H3808.09C3808.09 1137.24 3804.65 1121.57 3793.03 1108.73C3781.45 1095.92 3766.23 1090.93 3752.87 1089.52L3749.1 1125.32L3745.33 1161.12C3747.29 1161.33 3743.57 1161.38 3739.64 1157.04C3735.69 1152.66 3736.09 1148.89 3736.09 1150.72H3772.09ZM3749.1 1125.32H3785.1V1077.74H3749.1H3713.1V1125.32H3749.1ZM3749.1 1077.74L3748.3 1113.73C3774.36 1114.32 3787.49 1120.06 3793.7 1125.28C3798.61 1129.4 3803.42 1136.68 3803.42 1153.55H3839.42H3875.42C3875.42 1121.22 3865.18 1091.27 3839.99 1070.13C3816.09 1050.07 3784.06 1042.51 3749.91 1041.75L3749.1 1077.74ZM3839.42 1153.55H3803.42V1199.92H3839.42H3875.42V1153.55H3839.42ZM3839.42 1199.92V1163.92H3749.1V1199.92V1235.92H3839.42V1199.92ZM3749.1 1199.92H3785.1V1167.26H3749.1H3713.1V1199.92H3749.1ZM3737.81 1167.26H3701.81V1199.92H3737.81H3773.81V1167.26H3737.81ZM3737.81 1199.92V1163.92H3716.84V1199.92V1235.92H3737.81V1199.92ZM3716.84 1199.92H3680.84V1230.16H3716.84H3752.84V1199.92H3716.84ZM3716.84 1230.16H3680.84C3680.84 1243.1 3683.51 1258.08 3693.04 1271.09C3703.11 1284.84 3717.45 1291.8 3731.67 1294.26L3737.81 1258.79L3743.95 1223.31C3743.87 1223.3 3744.9 1223.47 3746.48 1224.37C3748.16 1225.33 3749.82 1226.76 3751.13 1228.54C3753.67 1232.01 3752.84 1233.88 3752.84 1230.16H3716.84ZM3737.81 1258.79H3701.81V1306.37H3737.81H3773.81V1258.79H3737.81ZM3737.81 1306.37L3738.79 1270.38C3713.78 1269.7 3701.39 1263.79 3695.43 1258.4C3690.3 1253.76 3685.1 1245.14 3685.1 1226.13H3649.1H3613.1C3613.1 1259 3622.69 1289.69 3647.13 1311.8C3670.74 1333.15 3702.71 1341.42 3736.83 1342.35L3737.81 1306.37ZM3649.1 1226.13H3685.1V1152.74H3649.1H3613.1V1226.13H3649.1ZM3649.1 1152.74H3685.1C3685.1 1135.65 3689.92 1128.4 3694.6 1124.43C3700.47 1119.44 3713.05 1113.8 3738.47 1113.33L3737.81 1077.34L3737.16 1041.35C3703.43 1041.96 3671.66 1049.42 3647.97 1069.57C3623.07 1090.73 3613.1 1120.64 3613.1 1152.74H3649.1ZM3737.81 1077.34H3701.81V1125.32H3737.81H3773.81V1077.34H3737.81ZM3737.81 1125.32L3735.05 1089.43C3721.16 1090.5 3705.65 1095.84 3694.32 1109.56C3683.58 1122.58 3680.84 1138.06 3680.84 1150.72H3716.84H3752.84C3752.84 1147.53 3753.6 1150.85 3749.85 1155.4C3747.95 1157.7 3745.66 1159.32 3743.55 1160.28C3741.6 1161.17 3740.4 1161.23 3740.57 1161.22L3737.81 1125.32ZM3716.84 1150.72H3680.84V1167.26H3716.84H3752.84V1150.72H3716.84ZM3716.84 1167.26V1203.26H3737.81V1167.26V1131.26H3716.84V1167.26ZM4085.2 981.777H4121.2V945.777H4085.2V981.777ZM4085.2 1301.12V1337.12H4121.2V1301.12H4085.2ZM4012.21 1301.12H3976.21V1337.12H4012.21V1301.12ZM4012.21 981.777V945.777H3976.21V981.777H4012.21ZM4149.71 1101.94L4176.3 1126.21V1126.21L4149.71 1101.94ZM4150.11 1045.08L4177.77 1022.04V1022.04L4150.11 1045.08ZM4098.5 1035.4H4062.5V1071.4H4098.5V1035.4ZM4098.5 981.777V945.777H4062.5V981.777H4098.5ZM4223.1 1115.65L4191.8 1097.86L4191.73 1097.98L4191.66 1098.1L4223.1 1115.65ZM4190.44 1137.42L4183.61 1102.07L4181.39 1172.26L4190.44 1137.42ZM4233.18 1289.43L4197.4 1293.41L4197.51 1294.38L4197.67 1295.35L4233.18 1289.43ZM4237.21 1301.12V1337.12H4302.79L4267.58 1281.8L4237.21 1301.12ZM4162.61 1301.12L4132.9 1321.45L4143.63 1337.12H4162.61V1301.12ZM4098.5 1164.43H4062.5V1200.43H4098.5V1164.43ZM4098.5 1111.21V1075.21H4062.5V1111.21H4098.5ZM4085.2 981.777H4049.2V1301.12H4085.2H4121.2V981.777H4085.2ZM4085.2 1301.12V1265.12H4012.21V1301.12V1337.12H4085.2V1301.12ZM4012.21 1301.12H4048.21V981.777H4012.21H3976.21V1301.12H4012.21ZM4012.21 981.777V1017.78H4085.2V981.777V945.777H4012.21V981.777ZM4123.9 1111.21V1147.21C4141.59 1147.21 4161.54 1142.37 4176.3 1126.21L4149.71 1101.94L4123.13 1077.66C4123.8 1076.92 4124.55 1076.3 4125.28 1075.82C4126.01 1075.35 4126.57 1075.11 4126.85 1075.01C4127.33 1074.84 4126.58 1075.21 4123.9 1075.21V1111.21ZM4149.71 1101.94L4176.3 1126.21C4189.97 1111.23 4194.18 1092.42 4194.18 1075.32H4158.18H4122.18C4122.18 1078.26 4121.81 1079.56 4121.76 1079.73C4121.74 1079.79 4121.8 1079.56 4122.04 1079.15C4122.28 1078.72 4122.64 1078.2 4123.13 1077.66L4149.71 1101.94ZM4158.18 1075.32H4194.18C4194.18 1058.15 4191.03 1037.95 4177.77 1022.04L4150.11 1045.08L4122.46 1068.13C4121.09 1066.49 4121.06 1065.58 4121.38 1066.76C4121.71 1068 4122.18 1070.68 4122.18 1075.32H4158.18ZM4150.11 1045.08L4177.77 1022.04C4162.95 1004.26 4141.82 999.405 4123.9 999.405V1035.4V1071.4C4126.9 1071.4 4127.68 1071.82 4127.06 1071.6C4126.7 1071.46 4125.99 1071.15 4125.09 1070.54C4124.18 1069.91 4123.27 1069.1 4122.46 1068.13L4150.11 1045.08ZM4123.9 1035.4V999.405H4098.5V1035.4V1071.4H4123.9V1035.4ZM4098.5 1035.4H4134.5V981.777H4098.5H4062.5V1035.4H4098.5ZM4098.5 981.777V1017.78H4121.89V981.777V945.777H4098.5V981.777ZM4121.89 981.777V1017.78C4155.44 1017.78 4174.02 1024.34 4183.56 1031.6C4191.24 1037.44 4197.18 1046.82 4197.18 1066.45H4233.18H4269.18C4269.18 1029.64 4256.57 996.677 4227.15 974.296C4199.6 953.329 4162.53 945.777 4121.89 945.777V981.777ZM4233.18 1066.45H4197.18C4197.18 1084.27 4194.2 1093.62 4191.8 1097.86L4223.1 1115.65L4254.4 1133.43C4265.43 1114.01 4269.18 1090.57 4269.18 1066.45H4233.18ZM4223.1 1115.65L4191.66 1098.1C4191.33 1098.69 4190.57 1100.73 4183.61 1102.07L4190.44 1137.42L4197.26 1172.77C4220.94 1168.2 4241.96 1155.72 4254.53 1133.19L4223.1 1115.65ZM4190.44 1137.42L4181.39 1172.26C4187.7 1173.9 4190.08 1176.28 4191.59 1178.64C4193.64 1181.83 4196.37 1188.83 4196.37 1202.74H4232.37H4268.37C4268.37 1180.36 4264.11 1158.33 4252.18 1139.74C4239.72 1120.33 4221.13 1108.19 4199.48 1102.57L4190.44 1137.42ZM4232.37 1202.74H4196.37V1272.9H4232.37H4268.37V1202.74H4232.37ZM4232.37 1272.9H4196.37C4196.37 1280.08 4196.68 1286.95 4197.4 1293.41L4233.18 1289.43L4268.96 1285.46C4268.6 1282.23 4268.37 1278.09 4268.37 1272.9H4232.37ZM4233.18 1289.43L4197.67 1295.35C4198.97 1303.19 4201.54 1312.13 4206.84 1320.45L4237.21 1301.12L4267.58 1281.8C4268.39 1283.07 4268.73 1283.99 4268.82 1284.25C4268.91 1284.51 4268.82 1284.32 4268.69 1283.51L4233.18 1289.43ZM4237.21 1301.12V1265.12H4162.61V1301.12V1337.12H4237.21V1301.12ZM4162.61 1301.12L4192.32 1280.8C4193.79 1282.93 4193.96 1284.25 4193.81 1283.57C4193.66 1282.92 4193.37 1281.1 4193.37 1277.74H4157.37H4121.37C4121.37 1290.97 4123.35 1307.49 4132.9 1321.45L4162.61 1301.12ZM4157.37 1277.74H4193.37V1205.56H4157.37H4121.37V1277.74H4157.37ZM4157.37 1205.56H4193.37C4193.37 1187.9 4189.93 1167.97 4176.93 1151.99C4162.77 1134.6 4142.8 1128.43 4123.9 1128.43V1164.43V1200.43C4125.86 1200.43 4125.93 1200.74 4124.9 1200.32C4124.37 1200.1 4123.68 1199.74 4122.93 1199.19C4122.19 1198.64 4121.56 1198.03 4121.08 1197.44C4120.11 1196.24 4120.19 1195.73 4120.54 1196.99C4120.9 1198.33 4121.37 1201.03 4121.37 1205.56H4157.37ZM4123.9 1164.43V1128.43H4098.5V1164.43V1200.43H4123.9V1164.43ZM4098.5 1164.43H4134.5V1111.21H4098.5H4062.5V1164.43H4098.5ZM4098.5 1111.21V1147.21H4123.9V1111.21V1075.21H4098.5V1111.21ZM4352.78 1130.56L4371.3 1161.43L4371.86 1161.1L4372.4 1160.75L4352.78 1130.56ZM4343.91 1147.1V1183.1H4377.51L4379.82 1149.57L4343.91 1147.1ZM4277.38 1147.1H4241.38V1183.1H4277.38V1147.1ZM4472.54 1301.12V1337.12H4534.36L4503.85 1283.36L4472.54 1301.12ZM4406.01 1301.12L4378.91 1324.83L4389.67 1337.12H4406.01V1301.12ZM4397.94 1287.42L4363.13 1296.58L4363.42 1297.7L4363.79 1298.8L4397.94 1287.42ZM4293.91 1183.39L4315.24 1212.39L4315.27 1212.36L4315.31 1212.34L4293.91 1183.39ZM4382.22 1154.76H4418.22V1113.64L4377.46 1119.07L4382.22 1154.76ZM4382.22 1197.09L4390.4 1232.15L4418.22 1225.66V1197.09H4382.22ZM4346.73 1211.21L4368.33 1240.01V1240.01L4346.73 1211.21ZM4334.64 1230.16L4298.74 1227.4L4298.59 1229.33L4298.65 1231.27L4334.64 1230.16ZM4369.31 1255.96L4371.43 1291.9L4372.36 1291.85L4373.29 1291.74L4369.31 1255.96ZM4382.22 1253.14H4418.22V1202.06L4370.11 1219.24L4382.22 1253.14ZM4382.22 1294.27L4401.44 1324.71L4418.22 1314.11V1294.27H4382.22ZM4395.93 1144.27H4431.93C4431.93 1132.02 4428.65 1116.31 4415.91 1104.08C4403.44 1092.12 4387.94 1089.32 4376.17 1089.32V1125.32V1161.32C4377.57 1161.32 4371.95 1161.68 4366.07 1156.04C4359.91 1150.13 4359.93 1143.9 4359.93 1144.27H4395.93ZM4376.17 1125.32V1089.32C4362.76 1089.32 4346.89 1091.46 4333.16 1100.38L4352.78 1130.56L4372.4 1160.75C4370.74 1161.83 4369.83 1161.92 4370.53 1161.76C4371.25 1161.6 4373.02 1161.32 4376.17 1161.32V1125.32ZM4352.78 1130.56L4334.26 1099.69C4316.29 1110.48 4309.12 1128.34 4308 1144.62L4343.91 1147.1L4379.82 1149.57C4379.82 1149.58 4379.79 1150.03 4379.59 1150.82C4379.37 1151.63 4378.98 1152.79 4378.25 1154.14C4376.65 1157.12 4374.17 1159.71 4371.3 1161.43L4352.78 1130.56ZM4343.91 1147.1V1111.1H4277.38V1147.1V1183.1H4343.91V1147.1ZM4277.38 1147.1H4313.38C4313.38 1133.69 4317.44 1128.28 4322.76 1124.55C4330.41 1119.18 4346.35 1113.74 4376.17 1113.74V1077.74V1041.74C4340.13 1041.74 4306.67 1047.87 4281.39 1065.62C4253.79 1085 4241.38 1114.27 4241.38 1147.1H4277.38ZM4376.17 1077.74V1113.74C4401.99 1113.74 4414.79 1118.78 4420.45 1123.04C4424.19 1125.85 4428.07 1130.57 4428.07 1143.87H4464.07H4500.07C4500.07 1113.09 4489.3 1084.74 4463.74 1065.51C4440.1 1047.73 4408.95 1041.74 4376.17 1041.74V1077.74ZM4464.07 1143.87H4428.07V1212.42H4464.07H4500.07V1143.87H4464.07ZM4464.07 1212.42H4428.07C4428.07 1237.52 4428.78 1258.49 4430.35 1274.91C4431.13 1283.11 4432.18 1290.76 4433.63 1297.53C4434.97 1303.75 4437.13 1311.67 4441.23 1318.89L4472.54 1301.12L4503.85 1283.36C4505.12 1285.61 4504.82 1286.1 4504.03 1282.44C4503.37 1279.33 4502.65 1274.65 4502.02 1268.07C4500.77 1254.91 4500.07 1236.51 4500.07 1212.42H4464.07ZM4472.54 1301.12V1265.12H4406.01V1301.12V1337.12H4472.54V1301.12ZM4406.01 1301.12L4433.1 1277.42C4432.58 1276.83 4432.32 1276.42 4432.2 1276.22C4432.08 1276.02 4432.07 1275.97 4432.09 1276.03L4397.94 1287.42L4363.79 1298.8C4367.09 1308.69 4372.38 1317.37 4378.91 1324.83L4406.01 1301.12ZM4397.94 1287.42L4432.76 1278.25C4432.32 1276.59 4431.93 1274.08 4431.93 1270.48H4395.93H4359.93C4359.93 1279.24 4360.88 1288.02 4363.13 1296.58L4397.94 1287.42ZM4395.93 1270.48H4431.93V1144.27H4395.93H4359.93V1270.48H4395.93ZM4266.49 1237.82H4302.49C4302.49 1226.33 4306.26 1218.99 4315.24 1212.39L4293.91 1183.39L4272.59 1154.38C4245 1174.66 4230.49 1203.62 4230.49 1237.82H4266.49ZM4293.91 1183.39L4315.31 1212.34C4326.53 1204.04 4348.71 1195.54 4386.97 1190.44L4382.22 1154.76L4377.46 1119.07C4335.08 1124.72 4298.39 1135.31 4272.51 1154.44L4293.91 1183.39ZM4382.22 1154.76H4346.22V1197.09H4382.22H4418.22V1154.76H4382.22ZM4382.22 1197.09L4374.04 1162.04C4356.19 1166.2 4338.61 1172.3 4325.13 1182.41L4346.73 1211.21L4368.33 1240.01C4369.91 1238.82 4375.99 1235.52 4390.4 1232.15L4382.22 1197.09ZM4346.73 1211.21L4325.13 1182.41C4312.3 1192.03 4300.32 1206.86 4298.74 1227.4L4334.64 1230.16L4370.53 1232.92C4370.31 1235.74 4369.35 1238.07 4368.41 1239.55C4367.59 1240.83 4367.18 1240.87 4368.33 1240.01L4346.73 1211.21ZM4334.64 1230.16L4298.65 1231.27C4299.01 1243.02 4301.27 1257.87 4310.29 1270.61C4320.92 1285.63 4337.02 1292.37 4353.18 1292.37V1256.37V1220.37C4354.69 1220.37 4357.63 1220.66 4361.08 1222.34C4364.67 1224.08 4367.35 1226.6 4369.06 1229.02C4369.85 1230.14 4370.34 1231.09 4370.61 1231.72C4370.75 1232.03 4370.84 1232.28 4370.89 1232.44C4370.92 1232.52 4370.94 1232.58 4370.95 1232.62C4370.96 1232.66 4370.97 1232.68 4370.97 1232.68C4370.97 1232.68 4370.97 1232.67 4370.96 1232.63C4370.95 1232.59 4370.94 1232.53 4370.92 1232.45C4370.89 1232.29 4370.85 1232.06 4370.81 1231.75C4370.73 1231.12 4370.66 1230.23 4370.62 1229.05L4334.64 1230.16ZM4353.18 1256.37V1292.37C4359.85 1292.37 4365.96 1292.22 4371.43 1291.9L4369.31 1255.96L4367.2 1220.03C4363.53 1220.24 4358.89 1220.37 4353.18 1220.37V1256.37ZM4369.31 1255.96L4373.29 1291.74C4380.32 1290.96 4387.43 1289.51 4394.32 1287.04L4382.22 1253.14L4370.11 1219.24C4369.47 1219.47 4367.98 1219.89 4365.34 1220.18L4369.31 1255.96ZM4382.22 1253.14H4346.22V1294.27H4382.22H4418.22V1253.14H4382.22ZM4382.22 1294.27L4362.99 1263.83C4359.98 1265.73 4354.24 1267.95 4343.51 1267.95V1303.95V1339.95C4363.95 1339.95 4384.02 1335.71 4401.44 1324.71L4382.22 1294.27ZM4343.51 1303.95V1267.95C4322.16 1267.95 4312.86 1263.25 4309.2 1260.1C4306.59 1257.86 4302.49 1252.76 4302.49 1237.82H4266.49H4230.49C4230.49 1266.97 4239.23 1294.93 4262.29 1314.73C4284.3 1333.63 4313.52 1339.95 4343.51 1339.95V1303.95ZM4603.99 1306.37H4567.99V1343.86L4605.45 1342.34L4603.99 1306.37ZM4603.99 1258.38L4597.55 1222.96L4567.99 1228.34V1258.38H4603.99ZM4626.17 1208.39V1172.39H4590.17V1208.39H4626.17ZM4693.5 1208.39H4729.5V1172.39H4693.5V1208.39ZM4603.99 1125.32H4567.99V1157.03L4599.44 1161.03L4603.99 1125.32ZM4603.99 1077.74L4604.8 1041.75L4567.99 1040.92V1077.74H4603.99ZM4693.5 1174.51V1210.51H4729.5V1174.51H4693.5ZM4626.17 1174.51H4590.17V1210.51H4626.17V1174.51ZM4591.09 1258.38H4627.09V1228.29L4597.46 1222.95L4591.09 1258.38ZM4591.09 1306.37L4589.77 1342.34L4627.09 1343.71V1306.37H4591.09ZM4591.09 1077.74H4627.09V1040.91L4590.26 1041.75L4591.09 1077.74ZM4591.09 1125.32L4595.74 1161.02L4627.09 1156.93V1125.32H4591.09ZM4576.17 1132.98L4549.07 1109.28L4548.64 1109.77L4548.23 1110.28L4576.17 1132.98ZM4693.5 1226.53H4657.5C4657.5 1244.64 4652.45 1253.01 4647.16 1257.73C4640.89 1263.32 4628 1269.36 4602.53 1270.4L4603.99 1306.37L4605.45 1342.34C4639.65 1340.95 4671.52 1332.48 4695.09 1311.46C4719.63 1289.57 4729.5 1259.22 4729.5 1226.53H4693.5ZM4603.99 1306.37H4639.99V1258.38H4603.99H4567.99V1306.37H4603.99ZM4603.99 1258.38L4610.43 1293.8C4624.18 1291.3 4638.51 1284.81 4648.93 1271.55C4659.1 1258.61 4662.17 1243.5 4662.17 1230.16H4626.17H4590.17C4590.17 1232.95 4589.54 1230.6 4592.31 1227.07C4593.65 1225.37 4595.18 1224.2 4596.45 1223.5C4597.62 1222.86 4598.16 1222.85 4597.55 1222.96L4603.99 1258.38ZM4626.17 1230.16H4662.17V1208.39H4626.17H4590.17V1230.16H4626.17ZM4626.17 1208.39V1244.39H4693.5V1208.39V1172.39H4626.17V1208.39ZM4693.5 1208.39H4657.5V1226.53H4693.5H4729.5V1208.39H4693.5ZM4626.17 1150.72H4662.17C4662.17 1137.48 4658.86 1122.15 4647.74 1109.41C4636.58 1096.62 4621.77 1091.3 4608.53 1089.61L4603.99 1125.32L4599.44 1161.03C4600.99 1161.23 4597.27 1161.08 4593.5 1156.76C4589.77 1152.49 4590.17 1148.92 4590.17 1150.72H4626.17ZM4603.99 1125.32H4639.99V1077.74H4603.99H4567.99V1125.32H4603.99ZM4603.99 1077.74L4603.18 1113.73C4628.91 1114.31 4641.79 1120.03 4647.86 1125.17C4652.69 1129.26 4657.5 1136.58 4657.5 1153.55H4693.5H4729.5C4729.5 1121.33 4719.4 1091.41 4694.39 1070.23C4670.62 1050.1 4638.74 1042.52 4604.8 1041.75L4603.99 1077.74ZM4693.5 1153.55H4657.5V1174.51H4693.5H4729.5V1153.55H4693.5ZM4693.5 1174.51V1138.51H4626.17V1174.51V1210.51H4693.5V1174.51ZM4626.17 1174.51H4662.17V1150.72H4626.17H4590.17V1174.51H4626.17ZM4570.92 1230.16H4534.92C4534.92 1242.83 4537.47 1257.55 4546.67 1270.44C4556.46 1284.14 4570.54 1291.26 4584.71 1293.81L4591.09 1258.38L4597.46 1222.95C4597.59 1222.98 4598.79 1223.21 4600.48 1224.21C4602.28 1225.26 4603.97 1226.78 4605.26 1228.59C4607.74 1232.06 4606.92 1233.88 4606.92 1230.16H4570.92ZM4591.09 1258.38H4555.09V1306.37H4591.09H4627.09V1258.38H4591.09ZM4591.09 1306.37L4592.41 1270.39C4567.67 1269.48 4555.37 1263.53 4549.43 1258.11C4544.3 1253.42 4539.18 1244.83 4539.18 1226.13H4503.18H4467.18C4467.18 1258.76 4476.72 1289.22 4500.89 1311.28C4524.25 1332.6 4555.9 1341.1 4589.77 1342.34L4591.09 1306.37ZM4503.18 1226.13H4539.18V1152.74H4503.18H4467.18V1226.13H4503.18ZM4503.18 1152.74H4539.18C4539.18 1135.95 4543.92 1128.82 4548.53 1124.89C4554.33 1119.94 4566.77 1114.31 4591.91 1113.73L4591.09 1077.74L4590.26 1041.75C4556.8 1042.52 4525.29 1050.06 4501.79 1070.11C4477.1 1091.18 4467.18 1120.87 4467.18 1152.74H4503.18ZM4591.09 1077.74H4555.09V1125.32H4591.09H4627.09V1077.74H4591.09ZM4591.09 1125.32L4586.43 1089.62C4572.41 1091.45 4559.15 1097.76 4549.07 1109.28L4576.17 1132.98L4603.26 1156.69C4602.22 1157.88 4600.81 1159.02 4599.16 1159.87C4597.56 1160.69 4596.29 1160.95 4595.74 1161.02L4591.09 1125.32ZM4576.17 1132.98L4548.23 1110.28C4537.92 1122.97 4534.92 1137.88 4534.92 1150.72H4570.92H4606.92C4606.92 1148.52 4607.42 1151.6 4604.11 1155.68L4576.17 1132.98ZM4570.92 1150.72H4534.92V1230.16H4570.92H4606.92V1150.72H4570.92ZM4826.84 1306.37H4790.84V1343.84L4828.29 1342.34L4826.84 1306.37ZM4826.84 1258.38L4821.23 1222.82L4790.84 1227.62V1258.38H4826.84ZM4849.83 1224.11V1188.11H4813.83V1224.11H4849.83ZM4917.16 1224.11H4953.16V1188.11H4917.16V1224.11ZM4826.84 1167.26V1131.26H4790.84V1167.26H4826.84ZM4849.83 1167.26V1203.26H4885.83V1167.26H4849.83ZM4826.84 1125.32H4790.84V1157.73L4823.07 1161.12L4826.84 1125.32ZM4826.84 1077.74L4827.65 1041.75L4790.84 1040.93V1077.74H4826.84ZM4917.16 1199.92V1235.92H4953.16V1199.92H4917.16ZM4826.84 1199.92H4790.84V1235.92H4826.84V1199.92ZM4815.55 1167.26H4851.55V1131.26H4815.55V1167.26ZM4815.55 1199.92V1235.92H4851.55V1199.92H4815.55ZM4794.58 1199.92V1163.92H4758.58V1199.92H4794.58ZM4815.55 1258.79H4851.55V1228.48L4821.69 1223.31L4815.55 1258.79ZM4815.55 1306.37L4814.57 1342.35L4851.55 1343.36V1306.37H4815.55ZM4815.55 1077.34H4851.55V1040.68L4814.9 1041.35L4815.55 1077.34ZM4815.55 1125.32L4818.31 1161.22L4851.55 1158.66V1125.32H4815.55ZM4794.58 1167.26H4758.58V1203.26H4794.58V1167.26ZM4917.16 1226.53H4881.16C4881.16 1244.54 4876.11 1252.87 4870.74 1257.62C4864.33 1263.28 4851.2 1269.36 4825.4 1270.4L4826.84 1306.37L4828.29 1342.34C4862.7 1340.96 4894.73 1332.51 4918.42 1311.57C4943.16 1289.7 4953.16 1259.32 4953.16 1226.53H4917.16ZM4826.84 1306.37H4862.84V1258.38H4826.84H4790.84V1306.37H4826.84ZM4826.84 1258.38L4832.46 1293.94C4846.36 1291.75 4861.14 1285.57 4872 1272.24C4882.63 1259.18 4885.83 1243.73 4885.83 1230.16H4849.83H4813.83C4813.83 1232.98 4813.19 1230.44 4816.16 1226.78C4817.58 1225.04 4819.18 1223.89 4820.42 1223.25C4821.56 1222.66 4822.01 1222.7 4821.23 1222.82L4826.84 1258.38ZM4849.83 1230.16H4885.83V1224.11H4849.83H4813.83V1230.16H4849.83ZM4849.83 1224.11V1260.11H4917.16V1224.11V1188.11H4849.83V1224.11ZM4917.16 1224.11H4881.16V1226.53H4917.16H4953.16V1224.11H4917.16ZM4826.84 1167.26V1203.26H4849.83V1167.26V1131.26H4826.84V1167.26ZM4849.83 1167.26H4885.83V1150.72H4849.83H4813.83V1167.26H4849.83ZM4849.83 1150.72H4885.83C4885.83 1137.24 4882.39 1121.57 4870.77 1108.73C4859.19 1095.92 4843.97 1090.93 4830.61 1089.52L4826.84 1125.32L4823.07 1161.12C4825.03 1161.33 4821.31 1161.38 4817.38 1157.04C4813.43 1152.66 4813.83 1148.89 4813.83 1150.72H4849.83ZM4826.84 1125.32H4862.84V1077.74H4826.84H4790.84V1125.32H4826.84ZM4826.84 1077.74L4826.04 1113.73C4852.1 1114.32 4865.23 1120.06 4871.44 1125.28C4876.35 1129.4 4881.16 1136.68 4881.16 1153.55H4917.16H4953.16C4953.16 1121.22 4942.92 1091.27 4917.73 1070.13C4893.83 1050.07 4861.8 1042.51 4827.65 1041.75L4826.84 1077.74ZM4917.16 1153.55H4881.16V1199.92H4917.16H4953.16V1153.55H4917.16ZM4917.16 1199.92V1163.92H4826.84V1199.92V1235.92H4917.16V1199.92ZM4826.84 1199.92H4862.84V1167.26H4826.84H4790.84V1199.92H4826.84ZM4815.55 1167.26H4779.55V1199.92H4815.55H4851.55V1167.26H4815.55ZM4815.55 1199.92V1163.92H4794.58V1199.92V1235.92H4815.55V1199.92ZM4794.58 1199.92H4758.58V1230.16H4794.58H4830.58V1199.92H4794.58ZM4794.58 1230.16H4758.58C4758.58 1243.1 4761.25 1258.08 4770.78 1271.09C4780.85 1284.84 4795.19 1291.8 4809.41 1294.26L4815.55 1258.79L4821.69 1223.31C4821.61 1223.3 4822.64 1223.47 4824.22 1224.37C4825.9 1225.33 4827.56 1226.76 4828.87 1228.54C4831.41 1232.01 4830.58 1233.88 4830.58 1230.16H4794.58ZM4815.55 1258.79H4779.55V1306.37H4815.55H4851.55V1258.79H4815.55ZM4815.55 1306.37L4816.53 1270.38C4791.52 1269.7 4779.13 1263.79 4773.17 1258.4C4768.04 1253.76 4762.84 1245.14 4762.84 1226.13H4726.84H4690.84C4690.84 1259 4700.43 1289.69 4724.87 1311.8C4748.48 1333.15 4780.45 1341.42 4814.57 1342.35L4815.55 1306.37ZM4726.84 1226.13H4762.84V1152.74H4726.84H4690.84V1226.13H4726.84ZM4726.84 1152.74H4762.84C4762.84 1135.65 4767.66 1128.4 4772.34 1124.43C4778.21 1119.44 4790.79 1113.8 4816.21 1113.33L4815.55 1077.34L4814.9 1041.35C4781.17 1041.96 4749.4 1049.42 4725.71 1069.57C4700.81 1090.73 4690.84 1120.64 4690.84 1152.74H4726.84ZM4815.55 1077.34H4779.55V1125.32H4815.55H4851.55V1077.34H4815.55ZM4815.55 1125.32L4812.79 1089.43C4798.9 1090.5 4783.39 1095.84 4772.06 1109.56C4761.32 1122.58 4758.58 1138.06 4758.58 1150.72H4794.58H4830.58C4830.58 1147.53 4831.34 1150.85 4827.59 1155.4C4825.69 1157.7 4823.4 1159.32 4821.29 1160.28C4819.34 1161.17 4818.14 1161.23 4818.31 1161.22L4815.55 1125.32ZM4794.58 1150.72H4758.58V1167.26H4794.58H4830.58V1150.72H4794.58ZM4794.58 1167.26V1203.26H4815.55V1167.26V1131.26H4794.58V1167.26Z" fill="black" mask="url(#path-5-outside-2_1087_925)"/>
</g>
<defs>
<filter id="filter0_d_1087_925" x="272.039" y="334.434" width="4814.25" height="847.688" filterUnits="userSpaceOnUse" color-interpolation-filters="sRGB">
<feFlood flood-opacity="0" result="BackgroundImageFix"/>
<feColorMatrix in="SourceAlpha" type="matrix" values="0 0 0 0 0 0 0 0 0 0 0 0 0 0 0 0 0 0 127 0" result="hardAlpha"/>
<feOffset dx="80" dy="40"/>
<feGaussianBlur stdDeviation="15"/>
<feComposite in2="hardAlpha" operator="out"/>
<feColorMatrix type="matrix" values="0 0 0 0 0 0 0 0 0 0 0 0 0 0 0 0 0 0 0.25 0"/>
<feBlend mode="normal" in2="BackgroundImageFix" result="effect1_dropShadow_1087_925"/>
<feBlend mode="normal" in="SourceGraphic" in2="effect1_dropShadow_1087_925" result="shape"/>
</filter>
<filter id="filter1_d_1087_925" x="2747.66" y="945.777" width="2315.5" height="468.078" filterUnits="userSpaceOnUse" color-interpolation-filters="sRGB">
<feFlood flood-opacity="0" result="BackgroundImageFix"/>
<feColorMatrix in="SourceAlpha" type="matrix" values="0 0 0 0 0 0 0 0 0 0 0 0 0 0 0 0 0 0 127 0" result="hardAlpha"/>
<feOffset dx="80" dy="40"/>
<feGaussianBlur stdDeviation="15"/>
<feComposite in2="hardAlpha" operator="out"/>
<feColorMatrix type="matrix" values="0 0 0 0 0 0 0 0 0 0 0 0 0 0 0 0 0 0 0.25 0"/>
<feBlend mode="normal" in2="BackgroundImageFix" result="effect1_dropShadow_1087_925"/>
<feBlend mode="normal" in="SourceGraphic" in2="effect1_dropShadow_1087_925" result="shape"/>
</filter>
</defs>
</svg>
