<svg width="315" height="110" viewBox="0 0 315 110" fill="none" xmlns="http://www.w3.org/2000/svg">
<path fill-rule="evenodd" clip-rule="evenodd" d="M119.266 16.8184C118.916 17.3198 118.556 17.4279 118.039 17.1861C117.029 16.7138 113.642 18.9833 113.347 20.3303C113.178 21.0981 113.093 20.9248 113.01 19.6437L112.899 17.9303L110.811 18.6289C107.757 19.6509 106.849 19.859 106.235 19.6782C105.442 19.445 102.35 20.2747 101.798 20.8686C101.49 21.1999 101.206 21.1955 100.972 20.8547C100.684 20.438 100.318 20.4935 99.1145 21.1345C98.0923 21.6789 97.2904 21.8471 96.5951 21.6634C95.8173 21.4573 95.3887 21.6412 94.7873 22.4392C94.1318 23.3092 93.6319 23.4931 91.821 23.5325C90.6229 23.5583 89.4359 23.6818 89.1831 23.8068C88.9302 23.9314 87.5119 24.301 86.0313 24.6278C81.7524 25.5724 81.6286 25.6105 81.7154 25.957C81.7608 26.1383 81.0728 26.3155 80.1862 26.3517C78.7452 26.4101 78.6282 26.5099 79.0812 27.2898C79.4216 27.8757 79.3591 28.2013 78.8913 28.2806C78.5083 28.3455 78.1219 28.1081 78.0329 27.7529C77.9251 27.3224 77.3757 27.1911 76.3848 27.3591C75.5261 27.5046 74.9552 27.8383 75.033 28.1491C75.1158 28.4816 74.4058 28.8393 73.175 29.0852C70.9076 29.5377 70.2812 30.0455 71.4919 30.4497C72.0534 30.6373 72.1219 30.7626 71.7034 30.8384C71.3639 30.8996 71.1584 31.2405 71.2474 31.5956C71.3363 31.9508 71.0746 32.2981 70.6658 32.3674C70.2571 32.4366 69.8498 32.2027 69.7609 31.8476C69.6719 31.4924 69.8222 31.164 70.0947 31.1178C70.3672 31.0716 70.5417 30.8401 70.4824 30.6033C70.3198 29.9541 69.0107 30.3142 68.8808 31.0435C68.8116 31.4313 68.2851 31.6821 67.5351 31.6845C66.3967 31.6885 66.3474 31.8009 66.885 33.1661C67.4382 34.5708 68.9166 35.3695 69.3501 34.4977C69.4598 34.2776 70.1544 33.9592 70.8932 33.7909C71.632 33.6226 72.5104 33.4154 72.844 33.3306C73.1781 33.2457 73.986 33.225 74.6402 33.2842C75.5282 33.3649 75.7859 33.2184 75.6577 32.7065C75.5181 32.149 75.7421 32.0595 76.8623 32.2259C78.933 32.5333 80.6773 32.1246 80.4897 31.3755C80.3891 30.9739 80.7957 30.6505 81.5667 30.5198C82.2906 30.3971 82.8674 30.5574 82.9544 30.9048C83.1586 31.7202 87.0914 31.1075 87.2462 30.2363C87.308 29.8892 87.9569 29.5144 88.6878 29.4031C91.22 29.0179 91.7236 28.7953 91.5579 28.1336C91.4664 27.7681 91.6783 27.453 92.0284 27.4341C92.3789 27.4146 93.1689 27.2897 93.7846 27.1557C94.7434 26.9479 94.7981 26.8035 94.1667 26.1508C93.5651 25.5284 93.5796 25.411 94.2468 25.5116C94.6968 25.5798 95.1321 25.9055 95.2147 26.2352C95.2973 26.565 95.6756 26.7823 96.0551 26.7179C96.4346 26.6536 96.9442 26.867 97.1877 27.192C97.837 28.0603 103.75 26.7982 104.858 25.555C105.71 24.5987 106.84 24.1509 106.536 24.8904C106.44 25.1253 106.944 25.3154 107.657 25.3134C108.37 25.3111 109.032 25.1176 109.129 24.8836C109.225 24.6492 109.539 24.534 109.827 24.6275C110.115 24.7206 110.299 24.5915 110.236 24.341C110.173 24.0904 110.581 23.8072 111.142 23.7122C111.703 23.6171 112.073 23.7563 111.964 24.0216C111.842 24.3183 112.581 24.3398 113.884 24.0776C115.298 23.7932 115.544 23.6675 114.624 23.7006C113.64 23.7357 113.28 23.5473 113.369 23.0452C113.438 22.6579 113.671 22.4793 113.887 22.6483C114.495 23.1246 116.686 23.6701 117.464 23.5383C117.847 23.4733 118.977 22.4036 119.974 21.1606C121.215 19.6138 121.843 19.1233 121.963 19.6051C122.06 19.9917 121.553 20.7678 120.836 21.3291C119.369 22.4785 119.688 23.1612 121.545 22.8467C122.337 22.7124 122.615 22.483 122.317 22.2104C121.983 21.9049 122.131 21.8631 122.84 22.0631C124.091 22.4165 125.612 21.7983 125.416 21.0161C125.334 20.6889 125.49 20.3829 125.762 20.3367C126.035 20.2906 126.322 20.5111 126.401 20.8266C126.627 21.7273 132.437 20.6353 132.49 19.6825C132.523 19.0913 132.573 19.0958 132.776 19.7089C133.06 20.5656 134.097 20.5182 134.776 19.6168C135.129 19.1487 135.272 19.1221 135.368 19.507C135.509 20.0701 144.205 18.5708 145.105 17.8285C145.379 17.6021 145.778 17.6413 145.991 17.9153C146.288 18.2954 146.46 18.2455 146.723 17.7033C146.912 17.3127 146.921 16.8593 146.742 16.6953C146.563 16.5318 146.791 16.4545 147.249 16.5236C147.708 16.5931 148.14 16.878 148.21 17.1574C148.348 17.7123 149.327 17.6785 153.074 16.9895C154.432 16.7396 157.338 16.2771 159.532 15.9614C166.52 14.9562 166.943 14.8633 167.011 14.3222C167.057 13.9541 167.353 13.9496 167.977 14.3079C169.113 14.9601 172.185 14.4569 174.172 13.2931C175.484 12.5245 175.849 12.4627 176.804 12.8469C178.161 13.3924 179.2 13.2877 178.19 12.7076C177.205 12.1418 177.141 11.6289 178.037 11.477C178.446 11.4077 178.853 11.6417 178.942 11.9968C179.031 12.352 179.498 12.5923 179.979 12.5305C180.461 12.4691 181.536 12.3511 182.367 12.2685C183.199 12.1859 183.991 11.8837 184.128 11.5971C184.295 11.2485 184.424 11.2535 184.519 11.6125C184.598 11.908 185.162 12.0613 185.775 11.9539C186.549 11.8178 186.665 11.6836 186.157 11.5127C185.569 11.3157 185.543 11.1397 186.025 10.6155C186.514 10.0843 186.765 10.1082 187.381 10.7451C187.834 11.2128 188.41 11.3771 188.817 11.1538C189.191 10.9485 189.822 10.9305 190.22 11.1135C191.396 11.6551 193.046 11.4454 193.766 10.6633C194.202 10.1895 194.48 10.103 194.558 10.4172C194.687 10.93 196.327 10.8162 196.742 10.2656C197.3 9.52528 200.864 8.96354 201.429 9.52692C202.028 10.1233 204.197 9.94874 207.278 9.05619C208.281 8.76555 209.804 8.58059 210.662 8.64475C211.52 8.70935 212.183 8.60593 212.135 8.41522C212.088 8.2245 212.606 7.97418 213.287 7.85871C213.969 7.74324 214.587 7.89243 214.662 8.19035C214.824 8.8374 216.818 9.03344 216.896 8.40983C216.926 8.171 217.742 7.67144 218.709 7.2997C220.287 6.69342 220.49 6.71292 220.684 7.48784C220.875 8.25199 221.105 8.28046 222.683 7.73473C223.664 7.39574 224.33 7.29887 224.166 7.51934C223.732 8.09995 227.253 8.43481 227.836 7.86848C228.118 7.59405 228.498 7.56414 228.752 7.79621C228.99 8.01472 230.027 8.0508 231.056 7.87646C232.085 7.70213 233.122 7.67172 233.361 7.80895C234.037 8.19706 238.916 7.38037 239.49 6.78364C239.858 6.40041 240.053 6.45308 240.182 6.97012C240.326 7.54571 240.832 7.60447 242.709 7.26262C243.999 7.02734 245.836 6.83318 246.791 6.83116C247.912 6.82863 248.61 6.62205 248.764 6.24672C248.947 5.80141 249.198 5.77285 249.839 6.12384C251.052 6.78923 253.509 7.20264 253.817 6.79362C254.299 6.15368 256.431 5.99153 256.858 6.56269C257.189 7.00435 257.403 6.98836 257.865 6.4864C258.45 5.84998 259.77 5.92602 259.501 6.58025C259.376 6.88371 260.79 6.70648 262.586 6.19296C262.917 6.09816 263.121 5.67856 263.039 5.2608C262.919 4.65323 262.98 4.62053 263.34 5.09758C263.588 5.42579 264.176 5.85071 264.647 6.04187C265.119 6.23304 265.41 6.61948 265.294 6.90027C265.164 7.21626 265.424 7.26834 265.975 7.03613C266.466 6.83008 267.761 6.85828 268.854 7.09853C269.947 7.33912 271.947 7.34888 273.298 7.11979C274.65 6.89078 275.798 6.87124 275.849 7.07617C275.9 7.28152 276.277 7.39273 276.686 7.32345C277.094 7.25417 277.375 6.98309 277.31 6.72091C277.244 6.45873 277.553 6.29915 277.996 6.36634C278.438 6.4331 278.754 6.30022 278.696 6.07119C278.525 5.38625 279.934 5.3695 280.444 6.05015C281.14 6.98135 281.117 7.02124 279.731 7.25604C278.52 7.46129 278.509 7.50184 279.507 8.07535C280.256 8.50496 280.578 8.51635 280.629 8.11419C280.677 7.73042 281.307 7.80707 282.599 8.35375C283.801 8.86229 284.789 8.99872 285.286 8.72595C285.751 8.47068 286.309 8.50995 286.652 8.82247C286.971 9.11313 287.629 9.28382 288.115 9.20143C288.601 9.11948 289.087 9.2898 289.195 9.57934C289.303 9.86931 289.46 10.2646 289.544 10.4572C289.97 11.4375 294.519 11.503 294.274 10.5253C294.202 10.236 294.598 10.3713 295.155 10.8258C295.711 11.2808 296.087 11.8448 295.991 12.0794C295.757 12.6486 296.922 13.1261 298.701 13.1907C299.564 13.2222 300.866 13.8361 301.922 14.7091C302.898 15.5155 303.972 16.1358 304.309 16.088C304.647 16.0402 305.207 16.5013 305.554 17.1134C305.901 17.7251 306.692 18.5389 307.311 18.9223C308.076 19.3954 308.392 19.9229 308.296 20.5657C308.218 21.0861 308.394 22.267 308.687 23.1894C308.98 24.1122 308.998 25.364 308.727 25.9719C308.455 26.5797 308.308 27.374 308.399 27.7377C308.49 28.1011 308.329 28.3878 308.041 28.3751C307.753 28.362 307.357 28.8837 307.16 29.5341C306.963 30.1846 306.352 30.9923 305.802 31.3291C305.253 31.6659 304.886 32.2734 304.987 32.6789C305.089 33.0849 304.896 33.6248 304.558 33.8795C304.22 34.1342 304.014 34.9365 304.101 35.6624C304.215 36.6236 303.989 37.0402 303.27 37.1952C301.975 37.4749 299.904 38.9536 298.686 40.4688C298.149 41.136 297.641 41.6489 297.556 41.6081C297.122 41.4007 292.969 43.9783 292.183 44.943C291.908 45.2804 291.741 45.7867 291.811 46.0678C291.885 46.3606 291.509 46.5558 290.932 46.5242C290.379 46.4942 289.326 46.9518 288.592 47.542C287.859 48.1317 286.937 48.6688 286.545 48.7353C286.152 48.8019 285.164 49.6256 284.348 50.5654C283.533 51.5055 282.441 52.2834 281.922 52.2946C281.258 52.3088 281.046 52.58 281.204 53.2111C281.393 53.9671 281.21 54.0973 280.036 54.0431C278.883 53.9903 278.728 54.0925 279.135 54.6361C279.463 55.0754 279.368 55.3371 278.846 55.4256C278.355 55.5087 278.111 55.2997 278.189 54.8638C278.273 54.3918 278 54.2225 277.337 54.335C276.8 54.4259 276.402 54.6618 276.451 54.859C276.501 55.0566 276.271 55.2979 275.94 55.3962C270.656 56.9645 268.139 58.3406 268.244 59.6055C268.315 60.4645 268.234 60.5047 267.432 60.007C266.523 59.4435 266.498 59.4498 262.485 61.3179C261.552 61.7525 259.976 62.3427 258.983 62.6291C257.991 62.9157 256.969 63.3789 256.711 63.6581C256.455 63.9372 254.953 64.517 253.375 64.9465C251.783 65.3797 249.584 66.3865 248.437 67.2083C246.775 68.3974 246.199 68.6104 245.512 68.2893C244.887 67.9972 244.421 68.0586 243.782 68.5179C243.301 68.8633 242.146 69.2749 241.216 69.4325C240.286 69.59 238.909 70.1358 238.156 70.6454C237.313 71.216 234.866 71.982 231.79 72.6389C229.042 73.2258 226.454 73.9504 226.038 74.2493C225.622 74.5477 223.754 75.0838 221.888 75.4405C220.021 75.7973 217.661 76.5002 216.644 77.0029C215.626 77.5052 213.359 78.196 211.605 78.5382C209.372 78.9741 208.126 79.4554 207.448 80.1446C206.608 80.9993 206.368 81.0634 205.616 80.6316C204.986 80.2698 204.449 80.2984 203.644 80.7369C203.036 81.0684 201.691 81.4673 200.656 81.6235C199.62 81.7798 198.56 81.9872 198.301 82.0846C198.041 82.1825 197.118 82.3483 196.25 82.4537C195.382 82.5591 194.576 82.8774 194.46 83.1606C194.343 83.4438 193.731 83.7634 193.099 83.8705C192.467 83.9776 191.749 84.3964 191.503 84.8015C191.135 85.4087 190.918 85.4581 190.266 85.0839C189.286 84.5207 183.653 85.6572 182.794 86.5913C182.334 87.0917 182.088 87.1212 181.657 86.7266C181.246 86.3507 179.722 86.4779 175.619 87.2306C169.621 88.3312 167.774 89.0643 168.044 90.2374C168.207 90.9476 168.165 90.9515 167.48 90.2903C166.882 89.7128 166.685 89.7034 166.45 90.2405C166.223 90.7615 166.053 90.7256 165.662 90.0725C165.323 89.5079 164.688 89.2889 163.683 89.3909C162.869 89.4737 162.246 89.7126 162.299 89.9222C162.351 90.1319 161.708 90.3486 160.87 90.4045C160.032 90.4604 159.39 90.6818 159.444 90.8966C159.583 91.455 158.119 91.925 156.535 91.8302C155.517 91.7691 155.087 91.9743 154.802 92.6581C154.593 93.158 154.045 93.631 153.584 93.7091C152.932 93.8196 152.849 93.7138 153.211 93.2338C154.197 91.925 153.429 91.7162 149.986 92.3563C148.082 92.7101 146.367 92.8572 146.176 92.6822C145.666 92.2165 143.676 93.5972 143.63 94.4488C143.598 95.0367 143.541 95.0267 143.335 94.3969C143.106 93.6992 142.67 93.6972 139.268 94.382C137.172 94.8037 135.001 95.3839 134.444 95.6709C133.847 95.9785 133.255 96.0325 133.004 95.8031C132.77 95.5884 132.266 95.584 131.885 95.7931C131.504 96.0022 130.899 96.0468 130.541 95.892C128.663 95.0795 126.633 95.822 126.339 97.4292C126.238 97.9812 126.164 97.969 125.982 97.3703C125.819 96.8364 125.357 96.6891 124.394 96.8656C123.648 97.0021 122.472 97.1542 121.783 97.2028C120.402 97.3008 120.002 98.7939 121.249 99.1975C121.628 99.3204 121.839 99.6625 121.718 99.9572C121.399 100.732 120.592 100.761 120.403 100.006C120.314 99.6508 120.01 99.3993 119.728 99.4471C119.389 99.5046 119.327 99.196 119.546 98.5342C119.865 97.5709 119.787 97.5559 117.392 98.1138C115.529 98.5487 114.871 98.5456 114.76 98.1026C114.642 97.626 114.495 97.6396 114.004 98.1734C113.634 98.5748 113.351 98.6588 113.283 98.3868C113.217 98.1241 111.886 98.1536 110.072 98.4579C108.368 98.7435 104.468 99.3345 101.407 99.7712C98.3448 100.208 95.9794 100.694 96.1509 100.851C96.5661 101.23 94.8638 100.979 93.2085 100.417C92.2471 100.09 91.6886 100.127 91.1755 100.549C90.7811 100.874 89.9923 101.057 89.3929 100.963C87.8091 100.715 84.104 101.381 82.0342 102.286C80.67 102.882 80.1016 102.966 79.7278 102.624C79.4457 102.366 77.9715 102.357 76.3076 102.604C73.8848 102.964 73.2345 103.236 72.5115 104.196C71.4263 105.636 70.4917 105.878 71.034 104.579C71.4912 103.484 70.7674 102.84 70.0897 103.739C69.4217 104.625 68.6358 104.636 69.1721 103.752C69.4226 103.339 69.5415 103.006 69.4369 103.011C69.333 103.017 67.8106 103.152 66.0548 103.312C63.192 103.574 62.7571 103.73 61.8434 104.834L60.8246 106.064L60.8551 104.825C60.8884 103.475 60.9249 103.485 57.4679 103.939C56.2987 104.092 55.3869 104.395 55.4411 104.611C55.4953 104.828 55.1131 104.76 54.5918 104.46C54.07 104.161 53.2505 103.982 52.7704 104.064C52.2903 104.145 51.7241 104.112 51.5118 103.99C51.3 103.868 50.2716 103.862 49.2275 103.977C44.4045 104.504 41.2692 104.613 40.5521 104.278C39.9729 104.008 39.6012 104.097 39.1177 104.623C38.5647 105.224 38.3375 105.233 37.6348 104.681C37.0112 104.191 36.7749 104.18 36.6852 104.634C36.5912 105.109 36.4437 105.141 36.0001 104.782C35.6888 104.531 34.9377 104.5 34.331 104.713C33.7239 104.927 31.8853 104.932 30.2447 104.725C28.6044 104.518 26.891 104.526 26.4381 104.742C25.9329 104.984 25.5563 104.918 25.4647 104.57C25.3542 104.154 25.2281 104.197 24.985 104.734C24.7027 105.358 24.4965 105.347 23.5543 104.66C22.9485 104.219 21.0652 103.652 19.3684 103.4C17.6717 103.148 16.2519 102.814 16.2127 102.658C16.1736 102.502 15.3809 102.585 14.4513 102.844C12.8974 103.276 12.7382 103.222 12.4771 102.179C12.2463 101.258 11.8959 101.044 10.6027 101.039C9.48021 101.034 8.50387 100.576 7.28388 99.4808C6.33306 98.6273 5.59151 97.8545 5.63566 97.7627C5.6803 97.6707 5.33749 97.4259 4.87391 97.2186C4.41082 97.0112 3.61389 95.7533 3.10282 94.424C2.28631 92.2978 2.27779 91.9214 3.03392 91.2982C3.50667 90.9089 3.78366 90.1525 3.64965 89.6173C3.51576 89.0826 3.61869 88.6088 3.87833 88.5648C4.13796 88.5208 4.55137 87.7439 4.79623 86.8385C5.04109 85.9331 5.55111 85.1398 5.92868 85.0758C6.30624 85.0118 6.5543 84.7153 6.4797 84.4174C6.40499 84.1191 6.72922 83.5574 7.20021 83.1693C7.67119 82.7812 7.96556 82.1003 7.85441 81.6564C7.73906 81.1958 8.07801 80.6703 8.64487 80.4319C9.44298 80.0961 9.52102 79.8095 9.04266 78.9657C8.46198 77.9421 8.9854 77.3777 9.81334 78.1345C10.0411 78.3427 10.4132 78.4816 10.6406 78.4431C11.2565 78.3387 11.3875 76.9661 10.8297 76.4633C10.5628 76.2222 10.3231 75.6754 10.298 75.2475C10.2726 74.8201 10.0018 74.5123 9.69611 74.5641C9.39039 74.6159 9.32106 74.8238 9.54215 75.026C9.76323 75.2282 9.4161 75.6097 8.77061 75.8744C8.12512 76.139 7.55461 76.7464 7.50276 77.2242C7.45152 77.7023 7.20131 78.1284 6.94712 78.1715C6.69293 78.2146 6.5439 78.4858 6.61613 78.7742C6.68836 79.0627 6.26526 79.8421 5.67636 80.506C5.08686 81.1696 4.4694 82.1898 4.30425 82.772C4.13921 83.3547 3.35773 84.2437 2.56816 84.7478C1.77721 85.2526 1.21116 85.9974 1.30731 86.4061C1.42036 86.8865 1.19762 87.1046 0.676391 87.026C-0.257783 86.8846 -0.208236 87.3918 0.849943 88.8164C1.47448 89.6561 1.45355 89.9397 0.730294 90.459C0.249631 90.8044 0.0413686 91.2557 0.267816 91.4628C0.494155 91.6695 0.469291 92.1848 0.212658 92.608C-0.134236 93.1802 -0.0661476 93.547 0.479789 94.0419C0.929257 94.4486 1.10089 94.9711 0.923391 95.3885C0.527966 96.3176 1.09317 98.4612 1.7061 98.3573C1.97862 98.3111 2.35289 98.8033 2.5372 99.4506C2.72151 100.098 2.9247 100.367 2.98778 100.047C3.13758 99.2945 3.87735 99.1692 3.98175 99.8789C4.11755 100.803 6.71973 103.342 7.41094 103.225C7.76918 103.164 8.13076 103.387 8.21409 103.719C8.30929 104.1 8.6919 104.188 9.24101 103.957C9.84012 103.705 10.5634 103.949 11.5363 104.732C12.3172 105.361 13.3874 105.802 13.9136 105.713C14.4403 105.623 14.9437 105.841 15.0326 106.196C15.1215 106.551 15.5288 106.785 15.9376 106.716C16.3463 106.647 16.7334 106.8 16.7976 107.056C16.8618 107.313 17.1711 107.387 17.4843 107.22C17.798 107.054 17.9484 106.716 17.819 106.469C17.6895 106.223 17.9433 106.075 18.3825 106.141C18.8217 106.208 19.2434 106.51 19.3192 106.813C19.4538 107.35 22.6359 108.273 23.72 108.09C24.0198 108.039 24.3057 108.162 24.356 108.362C24.4062 108.563 25.1428 108.627 25.9934 108.505C26.8434 108.383 28.0146 108.528 28.5958 108.827C29.305 109.193 30.0554 109.206 30.8784 108.869C31.598 108.574 32.1501 108.547 32.2142 108.803C32.2744 109.044 32.7441 109.063 33.2583 108.847C34.3129 108.403 34.3561 107.821 33.3466 107.653C32.9763 107.591 33.1709 107.44 33.7792 107.318C34.4189 107.189 34.9493 107.349 35.0367 107.698C35.2167 108.417 38.2328 108.975 39.7756 108.574C40.3756 108.419 40.912 108.471 40.9672 108.692C41.134 109.358 42.7763 109.398 43.372 108.751C43.8035 108.282 43.9669 108.295 44.0957 108.809C44.2214 109.311 45.0335 109.404 47.4194 109.19C49.1562 109.034 51.2067 108.778 51.9774 108.622C53.2395 108.365 53.321 108.222 52.8018 107.184C52.3964 106.374 52.4328 105.919 52.9246 105.649C53.9854 105.067 54.1555 105.111 54.0103 105.927C53.9078 106.504 54.0945 106.585 54.8184 106.281C56.0185 105.776 56.1472 106.249 55.0835 107.253C54.3244 107.969 54.3372 108.08 55.242 108.657C55.9352 109.099 56.441 109.128 56.9594 108.756C57.3756 108.457 58.0341 108.339 58.4799 108.483C58.9121 108.623 59.4039 108.625 59.5719 108.488C59.7405 108.35 60.5627 108.342 61.3997 108.469C62.2368 108.595 64.0579 108.597 65.4471 108.472C66.8362 108.347 68.4191 108.286 68.9642 108.337C69.6098 108.396 69.796 108.281 69.4972 108.008C68.8099 107.38 69.8495 107.351 70.7456 107.973C71.8452 108.738 72.4327 108.523 72.1651 107.454C71.9976 106.785 72.131 106.625 72.6609 106.855C73.0598 107.029 74.1636 107.26 75.1139 107.369C76.7357 107.554 76.8265 107.505 76.5908 106.563C76.4301 105.922 76.6763 105.418 77.2726 105.167C78.0067 104.858 78.15 104.931 77.9447 105.51C77.4873 106.797 79.55 107.553 82.2448 107.086C83.5536 106.859 85.6205 106.701 86.8381 106.734C88.1307 106.77 89.1257 106.616 89.2294 106.364C89.327 106.127 89.1706 105.972 88.8822 106.021C88.5938 106.07 88.3196 105.959 88.2733 105.774C88.1401 105.242 90.751 103.988 91.4913 104.227C91.9297 104.369 91.786 104.608 91.0739 104.922L89.9877 105.401L91.3217 106.034C93.0157 106.837 100.048 105.806 100.24 104.726C100.393 103.864 101.198 103.758 101.402 104.573C101.501 104.97 102.028 105.14 102.769 105.014C103.784 104.842 103.918 104.609 103.615 103.547C103.352 102.624 102.978 102.295 102.225 102.324C101.327 102.359 101.273 102.279 101.81 101.701C102.329 101.141 102.684 101.317 104.119 102.85L105.815 104.661L105.78 103.351C105.76 102.631 105.465 101.644 105.123 101.159C104.642 100.475 104.679 100.302 105.285 100.394C105.715 100.459 106.126 100.733 106.198 101.003C106.276 101.297 106.442 101.226 106.613 100.827C107.012 99.8893 108.212 100.397 108.097 101.456C108.045 101.938 108.225 102.294 108.498 102.248C108.771 102.202 109.232 102.527 109.524 102.972C109.815 103.416 110.373 103.725 110.764 103.659C111.154 103.593 111.522 103.733 111.581 103.969C111.725 104.543 113.513 104.213 114.639 103.405C115.332 102.907 115.674 102.875 116.112 103.267C116.556 103.664 116.643 103.61 116.502 103.023C116.286 102.124 117.605 101.805 118.906 102.443C119.418 102.693 120.7 102.867 121.756 102.829C123.253 102.776 123.64 102.618 123.513 102.113C123.35 101.464 124.583 101.374 126.53 101.894C126.971 102.012 127.795 101.855 128.362 101.546C128.98 101.209 129.552 101.131 129.791 101.349C130.375 101.883 133.504 101.247 133.59 100.576C133.643 100.162 133.89 100.096 134.477 100.338C134.925 100.524 136.584 100.506 138.165 100.3C140.706 99.9688 141.145 99.772 141.959 98.5942L142.879 97.2628L143.291 98.2307C143.677 99.1399 143.896 99.1598 146.9 98.5592C148.658 98.2078 150.315 97.8623 150.581 97.7912C150.848 97.7205 154.144 97.2804 157.905 96.8124C164.322 96.0148 164.748 95.9104 164.782 95.1179C164.814 94.3724 164.847 94.3605 165.064 95.017C165.284 95.6804 165.904 95.8589 166.914 95.5486C167.644 95.324 181.857 92.4114 183.148 92.2218C183.901 92.1112 184.473 91.8393 184.417 91.6176C184.356 91.374 184.81 91.2885 185.568 91.4015C186.257 91.5037 187.076 91.3783 187.389 91.1229C187.705 90.8652 188.38 90.7966 188.904 90.9689C189.492 91.1619 190.549 91.0235 191.7 90.6028C192.717 90.2307 193.763 89.9345 194.023 89.9447C194.284 89.9553 194.6 89.7127 194.727 89.4063C194.9 88.9852 195.248 88.9258 196.144 89.163C196.798 89.3358 197.508 89.3339 197.722 89.1589C197.937 88.9838 199.485 88.5092 201.164 88.1049C202.841 87.7003 204.307 87.1422 204.422 86.8643C204.536 86.5864 205.057 86.294 205.58 86.2147C206.889 86.0158 208.348 85.7661 209.374 85.5663C209.848 85.4739 210.166 85.1197 210.081 84.7792C209.995 84.4387 210.26 84.1034 210.669 84.0341C211.078 83.9649 211.461 84.1019 211.52 84.3387C211.579 84.5755 211.948 84.7149 212.34 84.6485C212.847 84.5626 212.918 84.0258 212.588 82.7898C212.333 81.8336 212.232 80.9083 212.363 80.7334C212.496 80.5584 212.731 80.9225 212.886 81.5428C213.201 82.8025 214.664 84.7033 215.243 84.6052C216.171 84.4479 217.042 83.7029 216.911 83.179C216.668 82.2095 217.708 81.7613 218.591 82.4549C219.582 83.2325 221.159 82.5981 220.483 81.694C220.224 81.3467 220.319 81.0523 220.713 80.9854C221.084 80.9225 221.589 81.1399 221.835 81.4685C222.081 81.7971 222.785 81.9573 223.4 81.8244C224.23 81.6452 224.281 81.5699 223.601 81.5331C222.537 81.4751 222.177 80.7374 223.134 80.5752C223.49 80.5148 224.283 80.6667 224.895 80.9126C225.681 81.2286 226.158 81.1976 226.517 80.8073C226.875 80.4181 227.063 80.4033 227.152 80.7572C227.235 81.0909 227.797 81.0801 228.823 80.7254C230.472 80.1545 231.034 79.9695 235.861 78.4083C237.569 77.8553 239.368 77.1497 239.859 76.839C240.349 76.5288 241.313 76.2008 242 76.1103C243.788 75.8755 246.992 74.7337 247.43 74.1758C247.634 73.9149 248.225 73.63 248.742 73.5424C249.258 73.4549 250.182 72.9213 250.795 72.3561C251.553 71.6567 252.252 71.3852 252.985 71.5046C254.689 71.7819 255.324 71.5876 254.838 70.9384C254.555 70.56 254.683 70.2915 255.187 70.206C255.626 70.1318 256.032 70.2648 256.092 70.5016C256.151 70.7384 256.534 70.8754 256.943 70.8061C257.821 70.6573 257.817 70.6085 256.832 69.2832C256.339 68.6188 256.242 68.2322 256.556 68.179C256.821 68.134 257.112 68.3877 257.201 68.7429C257.29 69.098 257.79 69.3162 258.312 69.2276C258.835 69.1391 259.383 69.2418 259.532 69.4558C259.69 69.684 260.672 69.3896 261.903 68.7452C263.493 67.9125 264.063 67.303 264.245 66.2413L264.485 64.838L265.474 65.6456C266.415 66.4146 266.553 66.407 268.332 65.4898C269.36 64.9597 270.39 64.5875 270.622 64.6627C270.854 64.7375 270.829 64.3602 270.566 63.824C270.099 62.8661 270.92 61.5475 271.475 62.3658C271.631 62.5952 272.133 63.0773 272.592 63.4376C273.328 64.0156 273.639 63.9922 275.235 63.2383C276.23 62.7684 277.897 61.8536 278.938 61.205C279.981 60.5563 281.174 59.9676 281.591 59.8969C282.008 59.8262 283.111 59.1343 284.042 58.3595C284.973 57.5846 286.058 56.8959 286.453 56.829C286.847 56.7621 287.405 56.415 287.691 56.0582C287.976 55.7015 288.946 55.2302 289.845 55.0119C290.744 54.793 291.879 54.2475 292.368 53.7988C292.857 53.3503 293.653 52.916 294.137 52.8339C294.622 52.7519 294.945 52.3941 294.856 52.0389C294.766 51.6769 295.137 51.3182 295.701 51.2226C296.255 51.1287 296.763 50.7396 296.831 50.3579C296.899 49.9761 297.494 49.5724 298.153 49.4607C298.975 49.3214 299.414 48.8947 299.552 48.1016C299.749 46.9705 300.663 46.3511 300.877 47.2039C301.036 47.8406 301.963 47.5645 302.628 46.6827C302.948 46.2583 303.587 45.8471 304.047 45.769C304.509 45.6908 305.001 45.1694 305.141 44.6106C305.282 44.0515 305.788 43.3094 306.267 42.9612C306.746 42.613 307.522 41.8089 307.99 41.1739C308.459 40.5393 309.018 39.9814 309.233 39.9347C309.448 39.8875 310.029 39.1463 310.524 38.287C311.019 37.4276 311.912 36.1126 312.508 35.3652C313.954 33.5517 315.586 28.0074 314.384 28.9878C313.517 29.6963 313.359 27.6017 314.103 25.2523C314.551 23.8386 314.714 22.5992 314.466 22.4981C314.217 22.3967 313.678 20.9739 313.267 19.3364C312.766 17.3403 312.301 16.3339 311.857 16.284C311.492 16.2431 311.13 15.9561 311.053 15.6462C310.975 15.3358 310.571 15.0307 310.157 14.9682C309.742 14.9053 309.104 14.2871 308.74 13.5945C308.376 12.9018 307.844 12.2595 307.559 12.1669C307.273 12.0749 306.926 11.5759 306.786 11.0588C306.646 10.5418 305.915 9.71019 305.161 9.21106C303.284 7.96786 299.453 6.45317 299.592 7.00853C299.654 7.25736 299.371 7.51768 298.962 7.58696C298.553 7.65624 298.178 7.5502 298.129 7.35173C298.079 7.15284 297.425 6.86373 296.676 6.7097C295.928 6.55524 295.224 6.0871 295.111 5.66854C294.904 4.89141 291.715 3.87867 290.254 4.12624C289.819 4.20006 289.06 3.97503 288.568 3.62663C287.954 3.19086 287.637 3.16556 287.555 3.54609C287.474 3.92068 287.042 3.87281 286.214 3.39771C285.366 2.91049 284.648 2.83796 283.862 3.15952C283.229 3.41951 282.684 3.43277 282.624 3.18996C282.448 2.48737 278.459 1.35299 276.228 1.37074C275.094 1.37985 273.897 1.26191 273.567 1.10909C272.357 0.546841 266.863 0.154941 263.144 0.365971C261.98 0.432239 260.262 0.445216 259.326 0.39518C258.174 0.333766 257.663 0.456307 257.742 0.775313C257.807 1.03405 257.257 0.928403 256.521 0.539784C255.681 0.0965442 254.24 -0.0891436 252.651 0.0404908C251.259 0.153903 248.951 0.218829 247.522 0.184147C246.093 0.149895 243.614 0.264943 242.012 0.43951C240.41 0.614507 238.783 0.616862 238.397 0.444884C238.011 0.272908 236.13 0.37906 234.217 0.680421C230.789 1.22053 229.954 1.27 228.364 1.02925C226.919 0.810608 222.261 1.4106 222.36 1.8028C222.412 2.01331 221.996 2.06373 221.434 1.91485C220.731 1.72876 220.273 1.82932 219.965 2.23782C219.627 2.68594 219.481 2.68422 219.368 2.23219C219.259 1.79608 219.099 1.86355 218.78 2.47998C218.285 3.43528 216.271 3.69365 215.416 2.91189C215.049 2.57682 214.375 2.58877 213.376 2.94755C212.36 3.31177 211.951 3.31603 212.097 2.96002C212.232 2.632 211.938 2.70563 211.309 3.15728C210.479 3.75355 210.18 3.77899 209.578 3.30585C208.924 2.79277 208.81 2.81801 208.466 3.54943C208.111 4.30567 208.067 4.31048 207.865 3.61673C207.745 3.20535 207.587 2.86013 207.513 2.85011C207.44 2.84052 205.143 3.12224 202.409 3.47657C199.674 3.83055 197.115 3.96987 196.721 3.78616C196.231 3.5569 195.934 3.62475 195.779 4.00051C195.632 4.3585 194.899 4.5473 193.674 4.54278C190.472 4.53066 188.529 4.90527 188.68 5.50583C188.756 5.8102 188.595 6.09725 188.323 6.14344C188.05 6.18963 187.829 6.00009 187.83 5.72211C187.832 5.44403 187.262 5.25874 186.565 5.31007C185.867 5.36139 184.76 5.34885 184.104 5.2819C183.202 5.19029 182.954 5.33007 183.086 5.85659C183.182 6.23974 183.52 6.50863 183.838 6.45472C184.156 6.40089 184.286 6.5301 184.126 6.74163C183.966 6.9536 183.472 6.8413 183.028 6.49207C181.929 5.62906 179.602 5.9498 177.813 7.21071C176.649 8.03037 176.188 8.1593 175.64 7.81635C175.115 7.48838 175.115 7.43049 175.64 7.58025C176.067 7.70225 176.271 7.52005 176.168 7.10805C176.076 6.73911 175.715 6.48518 175.367 6.54413C174.597 6.67472 172.805 8.2008 172.186 9.25407C171.792 9.92396 171.701 9.89761 171.489 9.05209C171.295 8.27545 171.06 8.16852 170.323 8.5209C169.666 8.83516 169.352 8.76635 169.23 8.28073C169.105 7.78178 168.633 7.69399 167.469 7.9531C166.595 8.14846 165.557 8.52223 165.163 8.78433C164.769 9.04634 164.282 9.16656 164.081 9.05117C163.88 8.93534 161.656 9.1323 159.139 9.48838C155.679 9.97838 154.321 10.345 153.568 10.9935C152.733 11.7131 152.507 11.7618 152.159 11.297C151.723 10.7152 149.875 10.9136 148.988 11.6374C148.701 11.8714 148.61 12.1939 148.784 12.3536C148.959 12.5134 148.893 13.074 148.636 13.5986C148.238 14.4128 146.655 14.9566 145.045 14.8328C144.6 14.7987 146.993 13.4507 147.477 13.4633C147.727 13.4695 147.713 13.1841 147.447 12.8284C147.181 12.4732 146.919 12.0029 146.864 11.7842C146.806 11.553 145.18 11.7649 142.987 12.2891C138.532 13.3538 138.613 13.341 136.778 13.2747C135.681 13.2349 135.384 13.3804 135.512 13.8931C135.661 14.4872 135.507 14.5195 134.163 14.177C132.085 13.6477 128.391 14.3307 127.145 15.4745C126.427 16.1333 126.039 16.2643 125.809 15.9254C125.333 15.2238 122.795 15.7864 122.229 16.7183C121.787 17.4476 121.653 17.4563 120.752 16.8143C119.91 16.2143 119.687 16.2148 119.266 16.8184ZM125.945 16.94C126.033 17.2951 125.889 17.6476 125.624 17.7235C125.359 17.7994 124.917 17.9246 124.642 18.0021C124.367 18.0798 124.003 18.4695 123.834 18.8684C123.397 19.897 123.134 18.7448 123.531 17.5438C123.89 16.4607 125.71 16.0053 125.945 16.94ZM99.8926 22.2264C99.9188 22.3311 99.7471 22.5738 99.5113 22.7663C99.2754 22.9589 99.031 22.911 98.9682 22.6604C98.9055 22.4099 99.077 22.1667 99.3496 22.1206C99.6221 22.0744 99.8664 22.1218 99.8926 22.2264ZM85.889 27.0627C85.5734 27.8302 84.6488 27.4053 84.7987 26.5618C84.8813 26.0977 85.1306 25.9692 85.5167 26.191C85.8419 26.3778 86.0093 26.7699 85.889 27.0627ZM206.861 5.91853C206.95 6.2737 206.696 6.6198 206.295 6.68766C205.852 6.76273 205.616 6.53976 205.691 6.11689C205.759 5.7351 206.014 5.38899 206.257 5.34776C206.501 5.30653 206.773 5.56336 206.861 5.91853ZM211.948 4.71992C211.746 4.93946 211.462 5.34075 211.318 5.61196C211.169 5.89356 210.972 5.78239 210.86 5.35307C210.751 4.93486 211.03 4.5388 211.49 4.46095C211.944 4.38403 212.15 4.5003 211.948 4.71992ZM83.6451 27.4749C83.7044 27.7117 83.5299 27.9432 83.2574 27.9894C82.9849 28.0356 82.7134 27.8796 82.6541 27.6429C82.5948 27.4061 82.7693 27.1746 83.0418 27.1284C83.3143 27.0822 83.5858 27.2381 83.6451 27.4749ZM99.3239 24.6399C99.1952 24.8107 98.7715 24.8986 98.3831 24.8348C97.9533 24.7645 98.0452 24.6425 98.6172 24.524C99.1349 24.417 99.4526 24.4691 99.3239 24.6399ZM220.022 4.84408C220.073 5.04771 219.752 5.15994 219.31 5.09318C218.867 5.02599 218.462 4.80414 218.411 4.60007C218.36 4.39644 218.681 4.28422 219.124 4.35098C219.567 4.41817 219.971 4.64002 220.022 4.84408ZM230.311 2.61731C230.371 2.85409 230.028 3.11098 229.55 3.18833C228.808 3.30836 228.774 3.24939 229.32 2.78527C230.124 2.10158 230.18 2.09209 230.311 2.61731ZM74.6941 29.8895C74.9218 30.0977 74.8717 30.3082 74.5834 30.3571C74.295 30.4059 74.0101 30.2523 73.9508 30.0155C73.8915 29.7787 73.9411 29.5683 74.0615 29.5479C74.1819 29.5275 74.4663 29.6813 74.6941 29.8895ZM204.266 7.92918C204.325 8.16596 204.137 8.39975 203.849 8.44862C203.56 8.4975 203.413 8.32048 203.523 8.05515C203.632 7.78982 203.819 7.55612 203.939 7.53571C204.06 7.5153 204.207 7.6924 204.266 7.92918ZM216.894 6.88609C217.463 7.2816 217.532 7.47584 217.129 7.54411C216.815 7.59744 216.357 7.37218 216.111 7.04355C215.865 6.715 215.353 6.49881 214.974 6.56314C214.594 6.62747 214.233 6.4795 214.172 6.23455C214.032 5.67704 215.744 6.08652 216.894 6.88609ZM210.143 7.20423C210.014 7.37504 209.59 7.46301 209.202 7.39914C208.772 7.32882 208.864 7.20689 209.436 7.08839C209.953 6.98136 210.271 7.03341 210.143 7.20423ZM65.2623 33.1337C64.757 33.8037 65.3045 34.6224 66.1566 34.4712C66.841 34.3498 66.8596 34.2632 66.2451 34.0572C65.8177 33.9143 65.5674 33.5559 65.6888 33.2611C65.9315 32.6711 65.6697 32.593 65.2623 33.1337ZM229.123 6.68008C228.994 6.85089 228.57 6.93886 228.182 6.87499C227.752 6.80467 227.844 6.68274 228.416 6.56424C228.934 6.45722 229.251 6.50927 229.123 6.68008ZM230.894 7.00638C230.953 7.24316 230.779 7.47468 230.506 7.52086C230.234 7.56705 229.962 7.41111 229.903 7.17433C229.844 6.93755 230.018 6.70603 230.291 6.65984C230.563 6.61366 230.835 6.7696 230.894 7.00638ZM236.398 6.29787C236.487 6.65304 236.337 6.98142 236.064 7.02761C235.792 7.0738 235.496 6.821 235.407 6.46583C235.318 6.11066 235.469 5.78227 235.741 5.73608C236.014 5.6899 236.309 5.9427 236.398 6.29787ZM250.494 4.83289C250.586 5.20184 250.409 5.42216 250.1 5.32198C249.791 5.22179 249.492 4.9578 249.436 4.73479C249.381 4.51179 249.558 4.29189 249.831 4.24571C250.103 4.19951 250.402 4.46394 250.494 4.83289ZM269.791 5.57487C269.88 5.93004 269.619 6.27732 269.21 6.3466C268.801 6.41588 268.394 6.18197 268.305 5.8268C268.216 5.47163 268.478 5.12436 268.886 5.05508C269.295 4.98579 269.702 5.2197 269.791 5.57487ZM287.909 6.43097C287.846 6.75041 287.673 6.5271 287.525 5.93515C287.377 5.3432 287.429 5.08219 287.64 5.35469C287.852 5.62754 287.973 6.11186 287.909 6.43097ZM55.7181 51.0568C55.6089 51.3222 55.756 51.4992 56.0444 51.4503C56.3328 51.4014 56.5206 51.1677 56.4613 50.9309C56.402 50.6941 56.2554 50.517 56.135 50.5374C56.0146 50.5578 55.8273 50.7915 55.7181 51.0568ZM49.5384 53.8993C49.6867 54.4913 49.8598 54.7146 49.9229 54.3951C49.9866 54.076 49.8653 53.5917 49.6534 53.3189C49.4421 53.0464 49.3902 53.3074 49.5384 53.8993ZM39.2778 56.1831C38.6738 56.9847 38.856 57.6342 39.579 57.254C39.8931 57.0891 40.5968 57.1744 41.1436 57.4439C41.6905 57.7139 42.3427 57.7667 42.5936 57.5621C43.2048 57.0632 42.9908 56.3554 42.2664 56.4781C41.9473 56.5322 41.2474 56.3506 40.7119 56.0747C39.9604 55.6873 39.6325 55.7124 39.2778 56.1831ZM33.086 59.2C32.9585 59.3693 33.0413 59.7578 33.2704 60.0641C33.6043 60.5106 33.2345 60.6428 31.4041 60.7322C29.9509 60.8035 29.0412 61.0402 28.8998 61.3833C28.7779 61.68 28.9143 61.8826 29.2027 61.8337C29.4911 61.7848 29.8427 62.205 29.9835 62.7672C30.1848 63.571 30.5046 63.7447 31.4783 63.5797C32.3508 63.4318 32.6583 63.1356 32.5186 62.5777C32.3003 61.7059 33.4786 60.6665 34.5287 60.8049C34.9753 60.8639 35.024 60.6622 34.6761 60.197C34.3206 59.7223 34.3643 59.5686 34.8128 59.7138C35.1748 59.8311 35.4243 59.7425 35.3679 59.517C35.3114 59.2914 34.883 59.0494 34.4159 58.9787C33.3738 58.8209 33.3709 58.8214 33.086 59.2ZM36.4208 59.5965C36.6196 60.3904 37.6012 60.4983 38.4084 59.8153C39.0127 59.3036 39.012 59.2489 38.4046 59.5318C37.9902 59.725 37.347 59.7079 36.9747 59.4941C36.4746 59.2069 36.3299 59.2336 36.4208 59.5965ZM26.119 62.8051C26.0099 63.0704 26.157 63.2475 26.4454 63.1986C26.7337 63.1497 27.0389 63.3843 27.1229 63.7197C27.3442 64.6035 28.5387 64.6088 28.9989 63.728C29.296 63.1593 29.1991 62.8629 28.6043 62.5217C27.6685 61.9838 26.397 62.1288 26.119 62.8051ZM23.0643 64.5296C22.6144 64.719 22.3341 65.2233 22.4411 65.6504C22.548 66.0774 22.3261 66.7568 21.9477 67.1598C21.3485 67.7972 21.2761 67.7924 21.3892 67.122C21.466 66.6634 21.2067 66.3048 20.7471 66.235C20.323 66.1709 20.0227 66.3062 20.08 66.5352C20.1375 66.7647 19.8501 67.0091 19.4413 67.0783C19.0325 67.1476 18.745 67.392 18.8025 67.6215C18.8598 67.8505 18.5692 67.9873 18.1558 67.9245C16.9564 67.7432 17.01 68.5347 18.2475 69.2665C19.2486 69.8589 19.3614 69.8532 19.202 69.2169C19.1027 68.8204 19.3559 68.4391 19.7647 68.3699C20.1735 68.3006 20.584 68.5478 20.6772 68.9198C20.9603 70.0503 22.9559 69.117 23.0394 67.8149C23.0854 67.1011 23.2011 66.9568 23.3505 67.4255C23.6166 68.2574 24.4061 68.2932 24.737 67.4881C24.8554 67.1997 25.3932 66.9878 25.9321 67.0172C26.7322 67.0606 26.7902 66.9458 26.2507 66.3878C25.8877 66.0127 25.6965 65.5649 25.826 65.3931C26.0837 65.0505 24.6611 63.9179 24.1809 64.0832C24.0163 64.1398 23.5144 64.3407 23.0643 64.5296ZM26.5181 65.4301C25.9722 65.8943 26.0055 65.9532 26.7482 65.8332C27.2262 65.7558 27.5684 65.499 27.5091 65.2622C27.3776 64.737 27.3216 64.7465 26.5181 65.4301ZM14.3436 70.8464C12.1508 72.7084 11.9751 73.1206 13.35 73.1779C13.8521 73.1987 13.5193 73.26 12.6093 73.3142C10.8972 73.4159 10.4994 74.121 12.0235 74.3514C12.5733 74.4346 12.8742 74.8113 12.8466 75.3819C12.8228 75.8765 13.0055 76.2472 13.2527 76.2052C13.4995 76.1634 13.6046 75.7417 13.486 75.2681C13.251 74.3296 13.5868 74.1506 14.8124 74.5605C15.7358 74.8693 17.2532 73.8106 17.0501 72.9996C16.9727 72.6905 17.3037 72.5105 17.8455 72.5663C18.5936 72.6433 18.6144 72.6003 17.9521 72.3441C17.2823 72.0846 17.2167 71.8848 17.5962 71.2591C17.9739 70.6368 17.8997 70.3653 17.2028 69.8201C16.3863 69.1812 16.245 69.2316 14.3436 70.8464ZM6.60403 81.8199C6.83513 82.0311 6.5114 82.2812 5.87234 82.386C4.95031 82.5364 4.85132 82.467 5.36529 82.0298C6.15783 81.3561 6.10629 81.3648 6.60403 81.8199ZM298.776 43.9698C299.003 44.178 298.829 44.4095 298.388 44.4843C297.947 44.559 297.675 44.4031 297.785 44.1377C297.894 43.8724 298.068 43.6409 298.172 43.6232C298.276 43.6056 298.548 43.7615 298.776 43.9698ZM291.412 49.9493C291.342 50.3422 291.155 50.5892 290.997 50.4984C290.839 50.4076 290.805 50.1015 290.922 49.8188C291.238 49.0489 291.557 49.1339 291.412 49.9493ZM290.572 52.7843C290.502 53.1771 290.316 53.4242 290.158 53.3334C290 53.2426 289.965 52.9365 290.082 52.6537C290.399 51.8838 290.717 51.9689 290.572 52.7843ZM279.378 56.233C279.437 56.4698 279.249 56.7036 278.961 56.7524C278.672 56.8013 278.525 56.6243 278.634 56.359C278.744 56.0936 278.931 55.8599 279.051 55.8395C279.172 55.8191 279.318 55.9962 279.378 56.233ZM281.112 55.9391C281.34 56.1473 281.178 56.3766 280.754 56.4486C280.329 56.5206 279.933 56.3858 279.873 56.149C279.814 55.9122 279.975 55.683 280.232 55.6395C280.488 55.596 280.884 55.7308 281.112 55.9391ZM250.318 70.1338C250.377 70.3706 250.203 70.6021 249.93 70.6483C249.657 70.6945 249.386 70.5385 249.327 70.3018C249.267 70.065 249.442 69.8335 249.714 69.7873C249.987 69.7411 250.258 69.897 250.318 70.1338ZM59.7079 106.523C59.9718 106.632 59.8644 106.898 59.4689 107.115C58.9507 107.399 58.6851 107.252 58.5194 106.591C58.3928 106.085 58.5006 105.818 58.7584 105.998C59.0161 106.178 59.4436 106.414 59.7079 106.523ZM68.4893 105.71C68.3605 105.88 67.9368 105.968 67.5484 105.905C67.1186 105.834 67.2105 105.712 67.7826 105.594C68.3002 105.487 68.618 105.539 68.4893 105.71ZM190.44 86.7895C190.533 87.1606 190.154 87.511 189.55 87.6135C188.671 87.7624 188.573 87.6682 188.953 87.0414C189.204 86.6287 189.604 86.2579 189.843 86.2175C190.082 86.1769 190.351 86.4343 190.44 86.7895ZM136.237 96.2004C136.465 96.4086 136.29 96.6401 135.849 96.7149C135.408 96.7896 135.137 96.6337 135.246 96.3683C135.355 96.103 135.53 95.8715 135.634 95.8538C135.738 95.8362 136.009 95.9921 136.237 96.2004ZM116.706 99.6803C116.728 99.7694 116.472 100.14 116.137 100.505C115.638 101.047 115.497 101.04 115.353 100.468C115.257 100.084 115.513 99.7128 115.922 99.6435C116.33 99.5742 116.683 99.5907 116.706 99.6803ZM149.415 94.1648C149.441 94.2694 149.27 94.5121 149.034 94.7047C148.798 94.8973 148.553 94.8494 148.491 94.5988C148.428 94.3483 148.599 94.1051 148.872 94.0589C149.145 94.0127 149.389 94.0602 149.415 94.1648ZM127.683 98.9965C128.069 98.931 128.482 99.265 128.6 99.7386C128.719 100.212 128.689 100.621 128.533 100.648C127.964 100.744 126.804 99.7954 126.487 98.9748C126.309 98.5114 126.346 98.3537 126.571 98.6239C126.796 98.8945 127.297 99.062 127.683 98.9965ZM107.294 103.35C107.433 103.905 107.76 104.167 108.102 103.998C108.418 103.842 108.612 103.455 108.533 103.14C108.454 102.824 108.09 102.532 107.725 102.491C107.329 102.447 107.155 102.795 107.294 103.35ZM138.869 98.0826C138.797 98.4525 138.654 98.3703 138.504 97.8728C138.369 97.4227 138.423 97.1489 138.623 97.2639C138.823 97.379 138.934 97.7475 138.869 98.0826ZM140.568 99.0566C140.796 99.2648 140.634 99.4942 140.209 99.5661C139.785 99.6381 139.388 99.5033 139.329 99.2665C139.27 99.0298 139.431 98.8005 139.688 98.757C139.944 98.7135 140.34 98.8484 140.568 99.0566Z" fill="black"/>
</svg>
