<svg width="556" height="55" viewBox="0 0 556 55" fill="none" xmlns="http://www.w3.org/2000/svg">
<path fill-rule="evenodd" clip-rule="evenodd" d="M397.176 0.176348C396.994 0.362339 389.28 0.619915 380.031 0.749038C370.782 0.877492 359.985 1.15447 356.038 1.36321C345.47 1.92185 342.979 1.93924 342.221 1.45955C341.846 1.22137 341.384 1.18592 341.194 1.3806C340.75 1.83621 333.872 2.26974 320.929 2.65778C315.256 2.82839 310.385 3.11273 310.105 3.29069C309.824 3.46865 306.978 3.80919 303.781 4.04736C300.584 4.28554 297.876 4.73379 297.761 5.04355C297.648 5.35331 296.914 5.37271 296.13 5.08637C294.857 4.62206 293.177 4.57322 289.67 4.90038C288.887 4.9733 288.679 5.35733 288.981 6.17555C289.384 7.26607 289.332 7.26407 288.232 6.14545C287.262 5.15929 286.394 5.0188 283.375 5.35733C281.353 5.58413 278.305 5.73332 276.6 5.6885C274.686 5.63832 273.501 5.89656 273.501 6.36288C273.501 6.86934 272.802 6.95698 271.38 6.62982C270.214 6.36087 268.966 6.17154 268.607 6.20967C268.248 6.24714 265.753 6.33812 263.061 6.41172C260.37 6.48531 257.899 6.6994 257.572 6.88606C256.849 7.29818 254.853 7.50558 246.75 8.00936C243.341 8.22145 239.67 8.51582 238.594 8.66234C233.903 9.30327 228.458 9.78029 223.913 9.94822C221.222 10.0479 217.405 10.4781 215.431 10.9036C211.762 11.6951 203.821 12.4323 199.828 12.352C198.602 12.3273 197.359 12.6966 197.065 13.1723C196.63 13.8754 196.528 13.8728 196.52 13.1596C196.51 12.3367 194.98 12.3701 189.985 13.3007C186.233 14.0005 182.634 14.4883 179.546 14.7164C177.572 14.8629 174.342 15.1479 172.369 15.3506C170.395 15.554 166.872 15.8497 164.539 16.0083C162.206 16.1669 160.298 16.3381 160.298 16.3883C160.298 16.4867 159.306 16.7503 156.797 17.3189C155.949 17.5116 153.012 17.8609 150.273 18.0957C144.904 18.5553 142.681 18.8189 142.681 18.9955C142.681 19.0571 140.92 19.2464 138.767 19.4163C132.511 19.9108 129.869 20.2346 126.043 20.9745C124.07 21.3565 120.84 21.8496 118.866 22.0704C116.893 22.2918 114.123 22.6016 112.711 22.7595C111.3 22.9174 109.86 23.3389 109.512 23.6955C109.103 24.1143 108.452 24.1096 107.675 23.6828C106.887 23.2506 106.056 23.2486 105.277 23.6754C104.622 24.0353 102.493 24.3946 100.547 24.4736C98.6007 24.5525 96.2747 24.8997 95.3775 25.2443C94.4804 25.5895 92.7187 25.9528 91.4627 26.0525C86.0916 26.4766 81.296 27.2728 80.592 27.8568C80.117 28.2516 79.6877 28.2429 79.4417 27.8334C79.1866 27.4113 78.3045 27.4099 76.9369 27.8294C75.7748 28.186 73.2433 28.6236 71.31 28.8015C69.3761 28.9788 67.5355 29.2886 67.2184 29.49C66.902 29.6907 65.4006 29.9837 63.883 30.1416C60.0145 30.5443 57.6187 30.9531 54.5984 31.7259C53.163 32.0932 51.475 32.2323 50.8467 32.035C50.2184 31.8376 49.7043 31.9219 49.7036 32.2229C49.7023 32.5233 48.8541 32.7997 47.8173 32.8371C46.7812 32.8739 45.3869 33.1348 44.7201 33.4165C44.0526 33.6982 41.9823 33.9932 40.1189 34.0715C38.2561 34.1498 36.3339 34.5518 35.8478 34.9653C35.3617 35.3794 34.3909 35.7334 33.6895 35.7534C29.6135 35.8672 26.1032 36.379 25.3953 36.963C24.9497 37.3317 23.6304 37.8421 22.4644 38.0977C21.2978 38.3533 20.3426 38.7647 20.3413 39.0109C20.3394 39.2578 19.3855 39.5294 18.2208 39.6144C14.6368 39.876 13.4845 40.2714 13.6927 41.1672C13.8382 41.7934 13.6607 41.8363 13.0402 41.3238C11.8495 40.3403 8.30983 41.0207 6.72108 42.5387C5.98966 43.2372 4.91636 43.8086 4.33566 43.8086C2.90741 43.8086 -0.750312 47.6073 0.137042 48.1693C0.514167 48.4088 0.645315 49.1782 0.428043 49.88C-0.00845644 51.2897 0.695553 52.983 1.34084 52.0758C1.56529 51.7607 2.40958 51.1238 3.21668 50.6608C4.51118 49.9182 4.68473 49.9683 4.68473 51.0843C4.68473 51.7955 5.26804 52.506 6.01642 52.7067C7.13801 53.0077 7.27763 52.8351 6.90051 51.6168C6.65387 50.8207 5.98118 49.7696 5.40506 49.2812C4.48899 48.5031 4.56207 48.4389 5.98966 48.7674C6.88681 48.9735 7.83158 49.1468 8.08995 49.1514C8.34768 49.1568 8.38943 49.6124 8.18326 50.1644C7.97642 50.7163 8.13236 51.1679 8.52972 51.1679C8.92707 51.1679 9.252 50.8762 9.252 50.5196C9.252 50.1637 9.72177 50.0566 10.2966 50.2828C10.8708 50.5089 11.6009 50.2734 11.918 49.7603C12.3877 48.9996 12.4961 49.0304 12.5045 49.9255C12.5098 50.5303 13.0285 51.2468 13.6561 51.5178C15.3695 52.2578 20.2813 52.0544 21.2835 51.2014C21.947 50.6367 22.4207 50.7163 23.2109 51.5272C24.0565 52.3942 24.2587 52.419 24.2587 51.6536C24.2587 51.1324 24.8198 50.1851 25.5062 49.5489C26.7192 48.4229 26.7381 48.4597 26.2057 50.8796C25.7953 52.7482 25.8951 53.6099 26.6063 54.3398C27.878 55.6437 29.4758 54.9172 29.4882 53.0285C29.4954 51.9835 29.6664 51.7734 30.0298 52.3615C30.3391 52.8606 31.0457 53.0298 31.7171 52.7656C32.3526 52.5153 33.067 52.6331 33.3045 53.0271C33.7939 53.84 38.613 52.5749 38.613 51.6336C38.613 51.3338 38.35 51.2555 38.029 51.4589C37.7074 51.663 37.2741 51.3726 37.0647 50.814C36.7554 49.9871 36.9237 49.9302 37.9755 50.5069C38.6847 50.8963 39.2654 51.0073 39.2654 50.7531C39.2654 50.4995 39.8527 50.8367 40.5704 51.5024C41.7442 52.5916 41.8753 52.6016 41.8753 51.6061C41.8753 50.9973 42.3157 50.4989 42.854 50.4989C43.3923 50.4989 44.4708 49.8446 45.2512 49.0444C46.1711 48.1011 46.5307 47.9606 46.2749 48.645C45.7125 50.1463 46.4295 50.6079 47.5452 49.4632C48.7862 48.1914 49.7049 48.2282 49.7049 49.5509C49.7049 50.1336 50.0722 50.4768 50.5205 50.3136C50.9694 50.1503 51.2591 49.3327 51.1651 48.4971C51.0144 47.151 51.1188 47.0828 52.0786 47.8997C53.0579 48.7326 53.133 48.6135 52.8537 46.666C52.6071 44.9406 52.7167 44.6556 53.4024 45.2396C53.9185 45.6785 54.1019 46.6138 53.8624 47.5913C53.4925 49.1013 53.6269 49.2023 55.8068 49.0518C58.1622 48.8892 59.0848 47.9184 58.463 46.2572C58.2783 45.7641 58.555 44.9974 59.0776 44.5525C59.8651 43.8828 60.1013 44.0922 60.4641 45.7835C60.7968 47.3397 61.2581 47.8228 62.4097 47.8228C64.0265 47.8228 64.9883 46.3669 64.0246 45.3788C63.6794 45.0249 63.9959 44.4221 64.7964 43.9096C65.5422 43.4319 65.9585 43.3643 65.7203 43.7591C65.4665 44.1799 65.8287 44.4776 66.592 44.4776C67.3097 44.4776 68.0784 44.1765 68.3002 43.8086C69.1184 42.4504 69.9451 43.1857 69.5255 44.8991C69.1993 46.2311 69.3154 46.5844 70.0025 46.3529C70.5016 46.185 71.0008 45.2644 71.1117 44.3077C71.3152 42.5561 72.9138 40.6226 73.5878 41.3137C73.7874 41.5178 73.4527 42.4645 72.8446 43.4158C72.1798 44.4569 72.0284 45.1466 72.4662 45.1466C72.8661 45.1466 73.1937 44.9098 73.1937 44.6201C73.1937 44.3304 74.0961 44.0226 75.1981 43.9363C76.428 43.8407 77.0439 44.0441 76.7907 44.4635C76.1598 45.5106 77.4974 45.2751 78.3814 44.1826C78.8101 43.6527 79.5507 43.3724 80.0263 43.5597C80.502 43.7463 81.0605 43.6186 81.268 43.2747C81.4748 42.9315 82.351 42.7883 83.2149 42.9576C84.0788 43.1268 84.9838 42.9361 85.2265 42.5334C85.7928 41.5934 90.1578 41.5727 90.1578 42.51C90.1578 42.8993 90.4827 43.0124 90.8801 42.7609C91.3962 42.4337 91.376 42.1601 90.8103 41.8015C89.7167 41.1084 90.961 40.3778 94.299 39.7522C96.184 39.3983 97.1627 39.5221 97.821 40.1971C99.0953 41.5037 100.171 41.3653 99.6531 39.9616C99.2578 38.8878 99.3093 38.8798 100.277 39.8606C101.505 41.105 103.858 40.8254 105.627 39.225C107.296 37.715 108.687 37.4655 108.201 38.7634C107.989 39.3307 108.1 39.7944 108.447 39.7944C108.795 39.7944 109.079 39.4599 109.079 39.0511C109.079 38.5634 109.866 38.459 111.363 38.7467C113.346 39.128 113.647 39.0123 113.647 37.8662C113.647 36.478 116.828 33.4413 117.498 34.1899C117.712 34.4294 117.521 34.7599 117.072 34.9238C116.624 35.0884 116.256 35.7715 116.256 36.4425C116.256 38.095 118.511 37.4775 119.327 35.6016L119.936 34.2013L121.263 35.5621C122.459 36.7878 122.763 36.8306 124.317 35.9956C125.826 35.1854 126.043 35.1975 126.043 36.0933C126.043 36.672 126.611 37.1183 127.348 37.1183C128.066 37.1183 128.653 36.8172 128.653 36.4492C128.653 36.0813 129.387 35.7802 130.284 35.7802C131.182 35.7802 131.916 35.447 131.916 35.0396C131.916 34.6321 132.32 34.4582 132.813 34.6522C133.354 34.865 133.678 34.5893 133.629 33.9577C133.579 33.3235 134.128 32.8605 135.019 32.7843C136.372 32.6685 136.418 32.7722 135.588 34.0701C134.755 35.3734 134.805 35.4771 136.232 35.4136C137.083 35.3748 137.974 35.1433 138.213 34.8991C138.451 34.6542 139.008 34.7613 139.449 35.1366C140.529 36.0558 143.832 34.5284 143.379 33.3195C142.979 32.2477 143.782 32.1587 144.765 33.1663C145.275 33.6895 145.85 33.6928 146.787 33.1783C147.807 32.619 148.179 32.6792 148.468 33.4506C148.672 33.9959 149.38 34.4421 150.042 34.4421C151.743 34.4421 155.02 30.7718 154.518 29.4297C154.266 28.7554 154.377 28.5179 154.817 28.7962C155.202 29.041 155.366 29.8379 155.18 30.5678C154.775 32.1534 155.29 33.7731 156.197 33.7731C156.555 33.7731 156.68 33.3215 156.473 32.7695C156.052 31.6449 157.688 31.3519 158.341 32.435C158.562 32.803 159.24 33.08 159.847 33.0512C160.526 33.0184 160.637 32.8686 160.135 32.6612C159.687 32.4752 159.34 31.671 159.365 30.8742C159.409 29.4706 159.429 29.4665 159.972 30.7625C160.28 31.4984 160.553 31.7065 160.578 31.2248C160.603 30.7431 160.918 30.535 161.277 30.7625C161.635 30.9899 161.938 30.7819 161.95 30.3002C161.962 29.7703 162.359 29.9516 162.954 30.7591C163.798 31.9045 164.026 31.952 164.558 31.0936C164.898 30.5437 165.049 29.7321 164.891 29.2913C164.727 28.829 164.985 28.6383 165.501 28.841C166.566 29.2605 167.302 30.9705 166.786 31.8262C166.306 32.6237 167.299 32.5976 169.457 31.7566C170.602 31.3097 171.069 30.739 170.824 30.0841C170.619 29.5375 170.737 29.0899 171.084 29.0899C171.432 29.0899 171.716 29.3722 171.716 29.7174C171.716 31.0923 174.496 30.058 175.087 28.463C175.588 27.1122 175.82 26.9804 176.306 27.7746C176.636 28.3138 176.739 29.3046 176.535 29.9757C176.212 31.0421 176.44 31.1418 178.344 30.7625C179.544 30.5236 181.044 30.3329 181.681 30.3376C182.316 30.343 182.666 30.064 182.458 29.7181C182.249 29.3729 182.512 29.0899 183.042 29.0899C183.571 29.0899 184.128 29.4659 184.279 29.9262C184.493 30.5785 184.791 30.5611 185.634 29.8472C186.23 29.3441 187.31 29.0912 188.036 29.2859C188.762 29.4806 189.772 29.213 190.281 28.6905C190.85 28.1077 191.361 27.998 191.607 28.4055C192.152 29.3093 195.125 28.9902 195.978 27.9371C196.503 27.2888 196.33 27.0828 195.262 27.0828C193.997 27.0828 193.936 26.9302 194.664 25.5775C195.364 24.2762 195.506 24.2307 195.714 25.2429C195.845 25.8872 196.498 26.4137 197.164 26.4137C197.829 26.4137 198.762 26.8105 199.236 27.2955C199.713 27.7833 201.853 28.2496 204.028 28.3399C207.398 28.4797 208.225 28.2676 209.835 26.8493C211.551 25.3373 213.959 25.0683 213.105 26.484C212.907 26.8132 213.031 27.0828 213.381 27.0828C213.731 27.0828 214.166 26.7061 214.347 26.2465C214.61 25.5775 214.686 25.5775 214.727 26.2465C214.808 27.5538 219.163 27.2989 219.903 25.9434C220.41 25.0161 220.707 24.9586 221.503 25.637C222.286 26.3034 222.55 26.2967 222.822 25.6056C223.059 25.0034 223.325 24.9606 223.701 25.4651C223.997 25.8631 225.267 26.1642 226.523 26.1341C228.453 26.0879 228.778 25.8618 228.62 24.6763C228.517 23.9049 228.902 22.8739 229.476 22.3848C230.398 21.6007 230.471 21.6971 230.1 23.2131C229.861 24.1906 229.983 25.1218 230.385 25.3767C230.773 25.6223 231.09 25.4945 231.09 25.0924C231.09 24.6669 231.841 24.4876 232.885 24.6636C233.871 24.8295 234.679 25.0155 234.679 25.0757C234.679 25.1359 235.525 25.3272 236.558 25.4999C238.217 25.7768 238.395 25.6457 238.072 24.3799C237.732 23.0485 237.789 23.0224 238.854 24.0106C240.283 25.3366 241.53 25.3834 241.53 24.1116C241.53 23.5811 241.873 22.9301 242.293 22.6638C242.807 22.3387 242.92 22.5447 242.64 23.2934C242.333 24.1129 242.583 24.4067 243.588 24.4067C244.672 24.4067 244.799 24.2173 244.208 23.4867C243.609 22.7475 243.786 22.5668 245.106 22.5668C246.066 22.5668 246.75 22.9495 246.75 23.4867C246.75 24.7191 247.82 24.6609 248.291 23.4031C248.497 22.8512 249.042 22.4236 249.502 22.4524C250.157 22.4939 250.161 22.5782 249.523 22.8425C249.074 23.0285 248.707 23.4667 248.707 23.8172C248.707 24.1932 249.24 24.1611 250.012 23.7376C250.73 23.3436 251.317 23.2673 251.317 23.5684C251.317 24.8576 254.911 24.3056 256.963 22.7013C259.058 21.0622 259.147 21.0488 259.147 22.3654C259.147 24.0922 261.41 24.234 262.357 22.5668C262.726 21.9172 263.031 21.768 263.042 22.2323C263.053 22.7174 263.912 23.0686 265.089 23.0686C266.486 23.0686 267.015 22.7976 266.79 22.1968C266.366 21.0655 270.909 20.6775 271.578 21.7881C271.838 22.2183 272.391 22.3554 272.807 22.0911C273.359 21.7412 273.37 21.3719 272.848 20.727C272.42 20.1978 272.378 19.6873 272.743 19.4558C273.078 19.2431 273.514 19.7027 273.711 20.4761L274.07 21.8824L276.006 20.4687C278.273 18.8136 279 18.6818 278.501 20.0145C278.303 20.543 278.492 21.121 278.92 21.2997C279.349 21.479 279.127 21.6489 278.427 21.6777C277.652 21.7098 277.397 21.964 277.774 22.328C278.116 22.6565 279.34 22.7742 280.495 22.5896C282.166 22.322 282.566 21.9613 282.452 20.8213C282.368 19.9757 282.643 19.4572 283.125 19.5562C283.574 19.6485 283.945 19.3474 283.95 18.8871C283.957 18.3298 284.171 18.3854 284.593 19.0544C284.94 19.6064 285.234 19.7569 285.245 19.3889C285.256 19.021 285.512 19.1193 285.814 19.607C286.116 20.0947 287.575 20.6607 289.056 20.8641C291.335 21.1779 291.958 20.9892 293.1 19.6431C294.321 18.2021 294.414 18.18 294.088 19.413C293.82 20.4273 294.061 20.8113 295.033 20.9183C297.081 21.1431 298.467 21.1271 300.578 20.8548C301.655 20.7156 303.416 20.545 304.493 20.4761C306.279 20.361 306.349 20.2707 305.294 19.4498C304.198 18.5981 304.207 18.5306 305.457 18.1954C306.309 17.9672 306.777 18.1673 306.777 18.7614C306.777 19.2906 307.179 19.5234 307.724 19.3086C308.245 19.1039 309.03 19.1628 309.467 19.4398C309.905 19.7174 311.46 19.886 312.923 19.8151C314.388 19.7442 316.979 19.6191 318.684 19.5374C320.651 19.4431 321.783 19.0832 321.783 18.5526C321.783 18.0428 322.675 17.7163 324.067 17.7163C325.323 17.7163 326.351 18.0355 326.351 18.4248C326.351 18.8142 326.657 18.9393 327.032 18.7018C327.406 18.4643 328.134 18.6289 328.649 19.0671C329.297 19.6184 330.143 19.6719 331.393 19.2397C332.388 18.8965 334.334 18.738 335.718 18.8871C337.493 19.0785 338.099 18.9326 337.773 18.3927C337.49 17.9224 337.7 17.7083 338.319 17.8388C338.873 17.9552 339.799 17.4487 340.376 16.7128C341.41 15.3935 341.419 15.3955 341.021 16.8801C340.732 17.9592 340.896 18.3854 341.601 18.3854C342.142 18.3854 342.779 18.0636 343.016 17.6708C343.253 17.2775 343.858 17.1176 344.359 17.3149C344.866 17.5143 345.272 17.2688 345.272 16.7636C345.272 15.0375 347.195 15.0329 348.296 16.7563C349.177 18.1352 349.82 18.4014 351.957 18.2723C353.416 18.184 354.697 17.719 354.888 17.2085C355.075 16.7094 355.667 16.4746 356.205 16.686C356.742 16.8974 357.636 16.6887 358.191 16.2224C359.059 15.4938 359.147 15.5855 358.822 16.8801C358.614 17.7076 358.53 18.3854 358.634 18.3854C359.297 18.3854 362.531 16.3147 363.007 15.5861C363.369 15.0302 363.432 15.366 363.176 16.4967L362.771 18.2884L368.478 18.0315C371.617 17.8896 374.477 17.4755 374.833 17.1102C375.189 16.7449 375.657 15.3266 375.875 13.9584C376.091 12.5902 376.637 11.3445 377.088 11.1906C377.717 10.9752 377.75 11.3318 377.23 12.7341C376.858 13.7363 376.699 14.705 376.876 14.8863C377.052 15.0676 376.904 15.7788 376.545 16.4659C376.039 17.4347 376.118 17.7163 376.894 17.7163C377.445 17.7163 377.895 17.434 377.895 17.0888C377.895 16.7436 378.41 16.494 379.037 16.5348C379.665 16.575 380.809 16.395 381.579 16.1354C382.418 15.8524 383.331 16.007 383.862 16.5228C385.293 17.913 387.288 17.5317 388.119 15.7092L388.882 14.0367L388.935 15.8986C388.987 17.7511 389.005 17.7585 392.739 17.4374C394.803 17.2601 397.865 17.0995 399.546 17.0808C402.09 17.0527 402.676 16.8051 403.049 15.6002C403.447 14.315 403.565 14.2782 404.106 15.2704C404.582 16.1408 404.996 16.2331 405.986 15.6898C406.859 15.2115 407.256 15.2101 407.256 15.6858C407.256 16.0665 407.697 16.3783 408.235 16.3783C408.773 16.3783 409.214 16.668 409.214 17.0219C409.214 18.0475 421.393 17.3952 422.687 16.3C423.584 15.5413 423.832 15.534 424.07 16.2599C424.283 16.9068 424.82 16.7268 426.065 15.5908C427.003 14.7358 427.369 14.5706 426.881 15.2235C425.779 16.6947 426.442 17.5417 427.793 16.3917C428.602 15.7032 428.792 15.7166 428.809 16.4639C428.822 17.0808 429.141 16.9597 429.78 16.0926C430.303 15.3834 430.926 15.0027 431.163 15.2456C431.401 15.4891 432.01 15.166 432.516 14.5277C433.191 13.6774 433.528 13.5918 433.778 14.2079C433.966 14.6702 434.461 14.8703 434.879 14.6515C435.297 14.4334 434.938 14.8402 434.082 15.5554C433.078 16.3943 432.782 17.0185 433.247 17.3136C433.645 17.5651 434.618 17.0065 435.411 16.0712C436.942 14.2655 438.952 13.7369 438.369 15.2931C438.03 16.199 439.029 17.7163 439.965 17.7163C440.227 17.7163 440.571 17.0386 440.73 16.211C441.013 14.7385 441.029 14.7358 441.473 16.0886C441.885 17.3444 442.388 17.4588 446.939 17.3283C449.695 17.2494 452.023 17.1216 452.113 17.0446C452.607 16.6198 458.051 16.7376 459.37 17.2012C460.357 17.5484 461.261 17.4527 461.867 16.9376C462.496 16.4017 462.963 16.3602 463.255 16.8145C464.064 18.0743 466.544 18.2964 467.422 17.1878C468.138 16.2846 468.093 16.1923 467.12 16.5663C466.412 16.8386 465.978 16.6867 465.978 16.1649C465.978 14.6682 468.433 15.0335 468.851 16.5924C469.177 17.814 469.345 17.8883 469.883 17.0473C470.236 16.4954 470.53 16.3876 470.536 16.8085C470.551 17.9532 472.432 18.4717 473.816 17.7123C474.516 17.3276 475.187 17.2975 475.394 17.6414C475.826 18.3586 481.049 18.1686 482.276 17.3905C482.853 17.0252 482.989 17.0982 482.681 17.6086C482.383 18.1037 482.752 18.366 483.722 18.3472C485.169 18.3191 489.793 18.8664 489.793 19.0658C489.793 19.1193 491.188 19.2565 492.893 19.3715C494.597 19.4866 495.993 19.3869 495.994 19.1501C495.996 18.9139 497.317 18.6931 498.931 18.661C501.09 18.6169 501.864 18.8584 501.864 19.5749C501.864 20.2112 502.305 20.4299 503.138 20.2071C503.838 20.0191 504.549 20.2098 504.717 20.6306C504.886 21.0515 505.047 20.8474 505.075 20.1777C505.122 19.0698 505.22 19.0544 506.151 20.0105C507.118 21.0006 507.778 21.1445 512.633 21.4234C513.711 21.4857 515.228 21.7426 516.003 21.9948C516.779 22.2477 517.595 22.152 517.817 21.7834C518.075 21.3572 518.792 21.3351 519.787 21.7225C520.876 22.1473 521.448 22.0891 521.669 21.5298C521.844 21.0883 522.011 21.2535 522.039 21.8978C522.067 22.5421 522.31 23.08 522.58 23.094C524.639 23.2004 528.492 23.9925 529.431 24.5023C530.36 25.0074 530.575 24.8395 530.582 23.5938C530.591 22.3614 530.715 22.2597 531.225 23.0686C531.746 23.8948 531.859 23.9049 531.868 23.1241C531.873 22.6029 532.063 22.3668 532.289 22.5989C532.516 22.8311 533.25 22.7207 533.92 22.3527C535.324 21.582 535.366 21.7018 534.504 24.0287C534.006 25.3701 534.069 25.7447 534.791 25.7447C535.3 25.7447 535.889 25.457 536.101 25.1051C536.533 24.3866 538.493 24.9519 539.169 25.9902C539.412 26.3622 540.402 26.7764 541.37 26.9088C542.337 27.042 543.547 27.5799 544.06 28.1051C544.809 28.8738 545.239 28.9012 546.264 28.2449C546.964 27.7966 547.537 27.228 547.537 26.9811C547.537 26.3636 548.878 26.6492 550.636 27.6401C551.754 28.2703 552.104 28.2783 552.104 27.6715C552.104 27.1952 552.629 27.3631 553.413 28.0903C555.353 29.8907 555.787 28.7554 554.248 25.9046C553.21 23.9818 553.04 23.0191 553.515 21.7426C553.939 20.5999 553.903 20.0038 553.402 19.8325C553 19.6953 552.394 18.833 552.054 17.9157C551.714 16.9991 550.872 16.098 550.184 15.9133C549.495 15.7286 548.787 15.1921 548.611 14.7211C548.261 13.7844 536.284 9.886 535.213 10.3597C535.073 10.4212 534.733 10.0947 534.455 9.63444C534.178 9.17482 531.209 8.27096 527.858 7.62668C524.507 6.98173 521.03 6.27858 520.133 6.06315C519.236 5.84773 516.887 5.50385 514.913 5.29979C512.94 5.09507 510.756 4.75654 510.06 4.54713C509.365 4.33705 507.163 4.0768 505.167 3.96841C503.171 3.85936 500.804 3.57235 499.907 3.33016C499.009 3.08797 495.78 2.78624 492.729 2.65912C489.679 2.53201 487.184 2.38482 487.184 2.33263C487.184 2.28045 485.935 2.12122 484.411 1.97938C482.711 1.82149 481.638 2.00079 481.638 2.44169C481.638 2.92941 481.344 2.91201 480.727 2.38749C480.228 1.96132 477.438 1.56459 474.529 1.50638C471.62 1.44751 469.241 1.23208 469.241 1.02736C469.241 0.823301 464.469 0.57576 458.638 0.477412C452.806 0.379734 447.595 0.286069 447.057 0.269343C446.519 0.252617 444.17 0.34628 441.837 0.476741C439.505 0.607202 436.862 0.526251 435.965 0.296774C435.068 0.0672959 433.38 0.09807 432.213 0.364344C431.047 0.631288 430.093 0.600512 430.093 0.295434C430.093 -0.00964448 429.286 -0.0919342 428.298 0.11212C425.769 0.634634 402.865 0.745694 399.934 0.249942C398.598 0.0238091 397.357 -0.00897384 397.176 0.176348ZM454.877 13.8487C454.882 14.1129 454.464 14.1631 453.949 13.9604C453.433 13.7577 453.18 13.1395 453.387 12.5869C453.693 11.77 453.866 11.7493 454.315 12.4752C454.618 12.9662 454.871 13.5837 454.877 13.8487ZM329.663 12.8659C329.691 13.1415 329.811 13.8962 329.932 14.5418C330.052 15.1874 329.918 15.5681 329.634 15.3881C328.856 14.895 328.343 12.3641 329.022 12.3641C329.347 12.3641 329.635 12.5902 329.663 12.8659ZM405.299 12.6591C405.299 12.8217 405.005 13.1402 404.647 13.3676C404.288 13.5951 403.994 13.462 403.994 13.0726C403.994 12.6832 404.288 12.3641 404.647 12.3641C405.005 12.3641 405.299 12.4966 405.299 12.6591ZM379.527 15.0402C379.748 15.4082 379.619 15.7092 379.239 15.7092C378.859 15.7092 378.548 15.4082 378.548 15.0402C378.548 14.6722 378.677 14.3712 378.836 14.3712C378.994 14.3712 379.305 14.6722 379.527 15.0402ZM322.436 16.0043C322.436 16.1669 322.142 16.4853 321.783 16.7128C321.424 16.9403 321.131 16.8071 321.131 16.4177C321.131 16.0284 321.424 15.7092 321.783 15.7092C322.142 15.7092 322.436 15.8417 322.436 16.0043ZM326.174 16.1133C325.957 16.3355 325.394 16.3595 324.924 16.1662C324.403 15.9528 324.558 15.7942 325.318 15.7621C326.005 15.7333 326.39 15.8912 326.174 16.1133ZM328.634 16.3783C328.856 16.7462 328.562 17.0473 327.982 17.0473C327.401 17.0473 327.107 16.7462 327.329 16.3783C327.551 16.0103 327.845 15.7092 327.982 15.7092C328.119 15.7092 328.412 16.0103 328.634 16.3783ZM335.485 16.3C335.485 16.6252 334.824 17.062 334.017 17.2708C332.599 17.6367 332.592 17.6167 333.815 16.6793C335.293 15.548 335.485 15.5039 335.485 16.3ZM311.996 16.6733C311.996 16.8359 311.703 17.1544 311.344 17.3818C310.985 17.6093 310.691 17.4762 310.691 17.0868C310.691 16.6974 310.985 16.3783 311.344 16.3783C311.703 16.3783 311.996 16.5107 311.996 16.6733ZM281.806 17.4514C281.589 17.6735 281.026 17.6976 280.556 17.5043C280.035 17.2908 280.19 17.1323 280.95 17.1002C281.638 17.0714 282.023 17.2293 281.806 17.4514ZM288.953 19.8492C288.745 20.3824 288.59 20.2239 288.559 19.4444C288.531 18.7393 288.685 18.3446 288.902 18.5667C289.118 18.7888 289.142 19.3662 288.953 19.8492ZM518.176 20.058C518.176 21.7412 517.15 21.6663 517.014 19.973C516.936 19.0156 517.154 18.4857 517.528 18.7226C517.884 18.9487 518.176 19.5495 518.176 20.058ZM247.076 20.3925C247.298 20.7604 247.168 21.0615 246.788 21.0615C246.408 21.0615 246.097 20.7604 246.097 20.3925C246.097 20.0245 246.226 19.7234 246.385 19.7234C246.544 19.7234 246.854 20.0245 247.076 20.3925ZM283.065 20.7611C283.264 21.2943 283.69 21.7305 284.01 21.7305C284.948 21.7305 284.68 20.5698 283.647 20.1637C283.015 19.9148 282.822 20.1128 283.065 20.7611ZM537.697 20.7919C536.968 21.6924 537.006 21.96 537.943 22.4972C539.507 23.3951 539.402 24.6448 537.835 23.7845C537.165 23.4165 536.384 23.3309 536.1 23.5938C535.816 23.8567 535.778 23.5209 536.015 22.8465C536.251 22.1728 536.445 21.194 536.445 20.6721C536.445 20.1503 536.921 19.7234 537.503 19.7234C538.399 19.7234 538.429 19.888 537.697 20.7919ZM211.962 22.5253C211.754 23.0586 211.599 22.9 211.568 22.1206C211.54 21.4154 211.694 21.0207 211.911 21.2428C212.127 21.4649 212.151 22.0423 211.962 22.5253ZM525.353 21.3565C525.353 21.5191 525.059 21.8376 524.7 22.065C524.341 22.2925 524.048 22.1594 524.048 21.77C524.048 21.3806 524.341 21.0615 524.7 21.0615C525.059 21.0615 525.353 21.194 525.353 21.3565ZM527.31 21.7305C527.31 22.0985 527.017 22.3996 526.658 22.3996C526.299 22.3996 526.005 22.0985 526.005 21.7305C526.005 21.3626 526.299 21.0615 526.658 21.0615C527.017 21.0615 527.31 21.3626 527.31 21.7305ZM210.212 23.0686C210.212 23.8045 209.945 24.4067 209.62 24.4067C209.295 24.4067 209.183 23.8045 209.37 23.0686C209.558 22.3327 209.824 21.7305 209.962 21.7305C210.099 21.7305 210.212 22.3327 210.212 23.0686ZM214.126 23.0686C214.126 23.4366 213.997 23.7376 213.839 23.7376C213.68 23.7376 213.37 23.4366 213.148 23.0686C212.926 22.7006 213.056 22.3996 213.435 22.3996C213.815 22.3996 214.126 22.7006 214.126 23.0686ZM208.047 24.5324C207.839 25.0657 207.685 24.9071 207.653 24.1277C207.625 23.4225 207.779 23.0278 207.996 23.2499C208.212 23.472 208.236 24.0494 208.047 24.5324ZM546.232 26.6365C546.232 27.1276 545.791 27.529 545.253 27.529C544.221 27.529 543.981 26.9376 544.71 26.191C545.43 25.4524 546.232 25.6872 546.232 26.6365ZM119.818 36.494C119.581 36.8861 119.528 37.3511 119.699 37.5264C119.87 37.7016 120.184 37.3805 120.396 36.8125C120.837 35.6337 120.462 35.4263 119.818 36.494ZM55.6965 45.2918C55.2287 45.7715 54.9246 45.811 54.9246 45.3922C54.9246 45.0115 55.1204 44.4997 55.3598 44.2548C55.5986 44.0093 55.9464 43.9638 56.1317 44.1544C56.317 44.3445 56.1213 44.8563 55.6965 45.2918ZM19.039 49.4137C19.039 49.5522 18.5255 50.0794 17.8972 50.5845C16.8624 51.4161 16.8395 51.3927 17.6505 50.3316C18.5033 49.217 19.039 48.8631 19.039 49.4137ZM28.6466 52.506C28.5382 53.9792 27.5211 54.3819 27.5211 52.9522C27.5211 52.1541 28.0998 51.1679 28.5683 51.1679C28.6655 51.1679 28.7007 51.77 28.6466 52.506Z" fill="#858585"/>
</svg>
