<svg width="159" height="108" viewBox="0 0 159 108" fill="none" xmlns="http://www.w3.org/2000/svg">
<path d="M36 54V22.5H69.75C70.3467 22.5 70.919 22.7371 71.341 23.159C71.7629 23.581 72 24.1533 72 24.75V51.75C72 52.3467 71.7629 52.919 71.341 53.341C70.919 53.7629 70.3467 54 69.75 54H45M36 54V85.5M36 54H45M45 54L73.4535 78.075C73.7033 78.2864 73.9039 78.5497 74.0415 78.8466C74.1791 79.1435 74.2502 79.4668 74.25 79.794V85.5" stroke="black" stroke-width="5" stroke-linecap="square"/>
<path d="M123 23.2917V32.7434C122.999 33.8349 122.594 34.8883 121.861 35.7037L105 54.5M105 54.5L88.1385 35.7037C87.406 34.8883 87.0009 33.8349 87 32.7434V23.2917M105 54.5L88.1385 73.2963C87.406 74.1118 87.0009 75.1651 87 76.2567V85.7083M105 54.5L121.861 73.2963C122.594 74.1118 122.999 75.1651 123 76.2567V85.7083" stroke="black" stroke-width="5" stroke-linecap="square"/>
</svg>
