<svg width="1306" height="518" viewBox="0 0 1306 518" fill="none" xmlns="http://www.w3.org/2000/svg">
<path fill-rule="evenodd" clip-rule="evenodd" d="M363.739 298.487C363.249 299.69 361.853 301.081 360.637 301.575C359.422 302.069 358.505 303.538 358.597 304.841C358.701 306.292 365.914 304.4 377.213 299.959C392.153 294.086 395.421 292.124 394.411 289.64C393.583 287.6 391.944 287.494 389.53 289.32C387.533 290.834 385.036 291.427 383.984 290.64C381.683 288.919 365.004 295.382 363.739 298.487ZM407.697 281.11C406.497 282.83 404.313 284.037 402.846 283.795C401.377 283.554 402.06 284.422 404.363 285.727C409.918 288.875 418.478 284.525 416.467 279.576C414.821 275.525 411.147 276.17 407.697 281.11ZM425.688 275.064C425.81 279.493 430.718 280.604 432.36 276.573C433.63 273.457 430.252 269.632 427.29 270.835C426.354 271.216 425.633 273.12 425.688 275.064ZM447.21 266.955C446.881 269.462 446.105 270.35 445.486 268.925C444.095 265.718 433.797 269.581 435.112 272.816C435.642 274.121 437.664 273.938 439.696 272.399C441.696 270.887 443.678 270.5 444.102 271.544C444.525 272.586 447.167 272.506 449.972 271.367C453.052 270.115 454.587 268.1 453.847 266.28C451.916 261.528 447.867 261.941 447.21 266.955ZM466.114 256.12C465.774 256.955 463.429 258.97 460.9 260.597C453.928 265.087 453.982 265.209 462.419 263.977C471.576 262.637 479.43 257.586 476.957 254.628C475.138 252.451 467.161 253.55 466.114 256.12ZM483.723 251.051C482.9 253.764 483.637 254.32 486.736 253.331C489.041 252.594 490.302 250.707 489.615 249.015C488.096 245.277 485.168 246.289 483.723 251.051ZM341.455 311.399C342.148 313.104 344.97 313.222 348.709 311.702C352.448 310.183 354.388 308.13 353.695 306.425C353.004 304.723 350.182 304.605 346.442 306.124C342.703 307.644 340.764 309.697 341.455 311.399ZM496.663 248.814C497.35 250.504 499.289 251.327 500.972 250.643C502.655 249.959 503.69 248.559 503.273 247.532C502.856 246.505 500.917 245.682 498.965 245.703C496.803 245.729 495.904 246.944 496.663 248.814ZM512.219 242.418C513.566 243.881 515.391 244.784 516.272 244.426C517.153 244.068 517.83 242.148 517.776 240.16C517.707 237.714 516.397 237.065 513.722 238.152C511.048 239.238 510.562 240.617 512.219 242.418ZM530.649 235.031C533.436 238.059 537.019 236.091 536.705 231.708C536.593 230.145 534.64 229.652 532.317 230.596C529.383 231.788 528.884 233.114 530.649 235.031ZM544.853 228.918C544.962 232.844 547.658 234.563 549.547 231.914C551.268 229.504 548.912 223.852 546.581 224.8C545.579 225.207 544.801 227.06 544.853 228.918ZM552.286 225.072C551.497 230.084 555.513 229.668 573.208 222.904C585.714 218.122 590.142 215.638 588.864 214.118C587.817 212.876 582.43 213.798 575.854 216.338C569.683 218.727 561.955 221.041 558.68 221.482C555.251 221.944 552.539 223.466 552.286 225.072ZM293.856 332.227C290.737 334.484 287.439 337.374 286.529 338.65C285.616 339.925 283.805 340.171 282.501 339.198C280.804 337.928 279.98 338.38 279.599 340.789C279.176 343.468 278.236 343.879 274.985 342.805C272.084 341.847 270.773 342.282 270.451 344.311C270.205 345.88 268.414 347.632 266.474 348.203C260.167 350.054 258.024 351.749 258.988 354.12C259.655 355.762 264.424 354.103 275.128 348.508C283.483 344.14 292.477 339.806 295.113 338.876C297.749 337.946 299.181 336.645 298.297 335.984C297.412 335.322 300.426 333.671 304.995 332.316C310.352 330.725 312.95 328.987 312.311 327.416C311.767 326.077 312.476 325.19 313.887 325.445C315.298 325.7 316.047 324.911 315.552 323.694C314.431 320.935 313.148 321.427 309.375 326.068C307.39 328.507 305.703 329.192 304.289 328.134C301.95 326.384 301.91 326.398 293.856 332.227ZM325.186 318.156C325.37 318.608 327.117 318.96 329.07 318.939C331.021 318.916 332.248 317.987 331.796 316.874C331.343 315.759 329.595 315.407 327.912 316.091C326.229 316.775 325.003 317.704 325.186 318.156ZM361.997 303.459C362.231 304.034 361.963 304.691 361.402 304.919C360.841 305.147 360.191 304.863 359.957 304.288C359.724 303.713 359.991 303.056 360.552 302.828C361.113 302.6 361.764 302.884 361.997 303.459ZM421.582 280.466C422.205 281.999 423.072 282.378 423.51 281.308C423.944 280.237 423.434 278.982 422.376 278.518C421.316 278.056 420.959 278.933 421.582 280.466ZM595.922 212.319C596.34 213.348 597.879 213.842 599.341 213.421C600.804 212.997 603.931 212.143 606.294 211.524C638.262 203.135 649.388 197.812 639.771 195.506C634.225 194.175 594.707 209.328 595.922 212.319ZM647.575 193.204C648.243 194.848 651.73 194.579 667.497 191.675C670.227 191.169 672.197 189.39 672.142 187.472C672.077 185.142 669.641 184.674 664.039 185.915C652.694 188.429 646.711 191.077 647.575 193.204ZM246.227 357.812C246.461 358.387 247.111 358.671 247.672 358.443C248.233 358.215 248.501 357.558 248.267 356.983C248.033 356.408 247.383 356.124 246.822 356.352C246.261 356.58 245.993 357.237 246.227 357.812ZM681.125 183.759C687.263 185.492 689.278 184.696 687.823 181.115C687.14 179.435 684.514 179.108 681.513 180.328C676.776 182.253 676.746 182.523 681.125 183.759ZM690.289 178.967C689.993 180.83 690.479 181.042 691.561 179.523C693.308 177.078 693.363 174.903 691.662 175.595C691.166 175.796 690.549 177.314 690.289 178.967ZM710.894 169.486C706.109 173.092 710.249 176.53 716.607 174.232C721.276 172.544 721.536 171.839 718.451 169.218C716.475 167.542 714.705 166.358 714.519 166.59C714.332 166.821 712.702 168.125 710.894 169.486ZM219.367 373.6C220.075 375.342 222.455 376.001 224.722 375.08C226.988 374.159 228.235 372.027 227.527 370.284C226.819 368.542 224.438 367.884 222.172 368.805C219.906 369.726 218.659 371.858 219.367 373.6ZM228.717 367.364C228.951 367.939 229.601 368.223 230.162 367.995C230.723 367.767 230.991 367.11 230.757 366.535C230.523 365.96 229.873 365.676 229.312 365.904C228.751 366.132 228.483 366.789 228.717 367.364ZM239.342 364.265C239.809 365.415 241.165 365.961 242.352 365.479C243.539 364.996 243.563 363.89 242.402 363.022C241.241 362.153 239.887 361.606 239.392 361.808C238.896 362.009 238.874 363.115 239.342 364.265ZM695.281 178.998C695.055 180.43 695.844 181.206 697.031 180.724C698.218 180.241 698.809 178.905 698.341 177.754C697.874 176.604 697.088 175.827 696.592 176.029C696.096 176.23 695.508 177.566 695.281 178.998ZM702.62 177.68C704.337 177.687 706.067 176.896 706.462 175.927C706.857 174.957 705.453 174.953 703.339 175.916C701.003 176.982 700.721 177.674 702.62 177.68ZM731.406 165.537C731.64 166.112 732.29 166.397 732.851 166.169C733.412 165.941 733.68 165.284 733.446 164.708C733.213 164.133 732.562 163.849 732.001 164.077C731.44 164.305 731.173 164.962 731.406 165.537ZM737.526 163.05C737.76 163.626 738.41 163.91 738.971 163.682C739.532 163.454 739.8 162.797 739.566 162.222C739.333 161.646 738.682 161.362 738.121 161.59C737.56 161.818 737.293 162.475 737.526 163.05ZM744.071 161.609C744.539 162.76 746.353 163.119 748.101 162.409C749.85 161.698 750.332 160.406 749.171 159.537C748.01 158.669 746.198 158.308 745.141 158.738C744.084 159.167 743.604 160.459 744.071 161.609ZM752.234 158.3C753.23 160.751 763.815 159.023 778.426 154.029C788.614 150.545 791.206 148.922 790.268 146.613C788.57 142.434 779.409 143.463 778.618 147.92C778.173 150.428 777.254 150.982 775.515 149.79C772.738 147.887 751.201 155.759 752.234 158.3ZM176.736 394.851C176.163 398.483 182.936 399.925 184.344 396.47C185.488 393.664 181.827 390.072 178.992 391.225C178.002 391.627 176.987 393.258 176.736 394.851ZM196.952 386.161C195.481 389.708 198.314 390.304 201.703 387.16C203.839 385.176 206.902 383.502 208.51 383.439C210.119 383.375 211.034 382.34 210.547 381.142C209.725 379.119 198.088 383.417 196.952 386.161ZM726.957 170.189C728.017 170.65 729.241 170.153 729.679 169.083C730.114 168.012 729.247 167.633 727.751 168.241C726.256 168.849 725.899 169.725 726.957 170.189ZM794.306 144.852C793.287 148.212 793.595 148.828 795.9 148.026C797.469 147.478 803.259 145.484 808.764 143.595C814.27 141.707 818.905 139.316 819.068 138.285C819.499 135.549 808.326 137.486 804.356 140.835C802.462 142.433 800.565 142.709 800.058 141.46C798.753 138.247 795.778 139.999 794.306 144.852ZM213.728 381.172C214.788 381.634 216.012 381.136 216.449 380.066C216.884 378.995 216.017 378.617 214.522 379.224C213.026 379.832 212.669 380.708 213.728 381.172ZM838.533 127.934C836.659 129.755 833.8 131.271 832.178 131.303C830.557 131.333 829.627 132.337 830.113 133.534C831.492 136.928 839.177 135.514 843.967 130.982C846.355 128.723 849.094 127.217 850.052 127.637C851.01 128.054 851.156 126.828 850.378 124.912C848.873 121.208 844.234 122.391 838.533 127.934ZM854.93 121.749C859.903 122.633 859.915 122.664 856.601 125.861C853.546 128.808 853.672 128.93 858.06 127.305C864.123 125.058 860.661 118.304 854.23 119.833C849.971 120.844 849.98 120.868 854.93 121.749ZM823.059 137.202C822.763 139.065 823.248 139.277 824.33 137.758C826.077 135.313 826.133 133.138 824.431 133.83C823.936 134.031 823.319 135.549 823.059 137.202ZM863.95 120.04C863.449 123.217 867.428 123.827 875.249 121.77C881.806 120.049 883.976 116.382 880.138 113.511C878.632 112.385 877.305 113.049 875.986 115.583C874.517 118.408 873.233 118.956 870.701 117.85C866.656 116.082 864.461 116.794 863.95 120.04ZM887.312 110.786C884.341 114.947 889.675 117.066 896.32 114.366C901.079 112.432 901.977 111.102 900.295 108.486C898.035 104.969 890.511 106.301 887.312 110.786ZM923.894 98.4994C923.65 100.056 925.049 101.956 927.006 102.718C929.783 103.802 929.908 103.571 927.579 101.664C924.991 99.5478 925.217 99.4215 929.277 100.713C935.101 102.565 936.818 99.355 931.557 96.4508C926.986 93.9291 924.512 94.5908 923.894 98.4994ZM148.561 415.774C149.184 417.307 150.051 417.686 150.489 416.616C150.924 415.545 150.414 414.291 149.355 413.826C148.295 413.365 147.938 414.241 148.561 415.774ZM905.4 108.239C906.023 109.772 906.89 110.151 907.328 109.081C907.763 108.01 907.253 106.755 906.194 106.291C905.135 105.83 904.778 106.706 905.4 108.239ZM913.47 104.7C913.887 105.727 915.913 106.548 917.972 106.526C923.26 106.467 923.576 106.174 922.145 102.653C921.437 100.911 919.057 100.253 916.791 101.174C914.547 102.086 913.052 103.673 913.47 104.7ZM937.01 95.4583C936.498 98.7076 940.744 98.8513 948.991 95.8658C955.72 93.4286 959.63 89.9367 956.773 88.919C954.041 87.9455 937.322 93.477 937.01 95.4583ZM965.296 84.547C963.258 86.7688 961.867 89.2692 962.204 90.0995C963.123 92.3605 973.032 87.8222 973.487 84.9299C974.174 80.5765 969.151 80.3414 965.296 84.547ZM142.866 419.307C143.1 419.882 143.75 420.166 144.311 419.938C144.872 419.71 145.14 419.053 144.906 418.478C144.673 417.903 144.022 417.619 143.461 417.847C142.9 418.075 142.633 418.732 142.866 419.307ZM988.262 78.1856C989.431 81.0636 990.158 81.1022 991.582 78.3617C992.975 75.688 994.359 75.3791 997.407 77.0621C1000.46 78.7451 1004.54 77.835 1014.59 73.2341C1021.84 69.9137 1029.31 67.4818 1031.2 67.8284C1033.21 68.1975 1035.21 67.0555 1036.01 65.0871C1038.04 60.099 1031.38 59.4512 1021.59 63.6819C1017.14 65.6018 1007.48 68.8225 1000.13 70.8379C988.206 74.1068 986.926 74.8977 988.262 78.1856ZM111.855 436.579C112.595 438.399 114.655 439.299 116.43 438.578C118.207 437.856 118.845 436.296 117.845 435.111C115.008 431.743 110.355 432.886 111.855 436.579ZM123.741 430.734C124.364 432.267 125.231 432.645 125.669 431.576C126.103 430.505 125.593 429.25 124.535 428.786C123.475 428.324 123.118 429.2 123.741 430.734ZM978.925 84.4553C979.159 85.0304 979.809 85.3145 980.37 85.0866C980.931 84.8586 981.199 84.2015 980.965 83.6263C980.731 83.0511 980.081 82.7671 979.52 82.995C978.959 83.223 978.691 83.8801 978.925 84.4553ZM1040.53 60.589C1038.63 63.4279 1038.83 63.7013 1041.9 62.4859C1043.87 61.7052 1045.89 62.0769 1046.39 63.3109C1046.89 64.547 1048.78 64.5861 1050.59 63.4017C1052.39 62.2153 1053.3 59.847 1052.61 58.1361C1051.1 54.4194 1043.65 55.9331 1040.53 60.589ZM90.3359 447.963C90.5697 448.538 91.2199 448.822 91.7809 448.594C92.3419 448.366 92.6097 447.709 92.3759 447.134C92.1422 446.559 91.492 446.275 90.931 446.503C90.37 446.731 90.1022 447.388 90.3359 447.963ZM98.9209 445.693C97.1215 448.325 97.607 448.595 101.408 447.082C104.043 446.031 105.199 444.502 104.021 443.621C101.484 441.722 101.696 441.636 98.9209 445.693ZM1064.26 55.3367C1068.34 58.7947 1076.99 56.7297 1075.35 52.693C1074.18 49.8004 1068.89 49.1166 1063.77 51.1972C1061.56 52.0958 1061.69 53.1485 1064.26 55.3367ZM81.8357 456.291C82.6151 458.209 84.1022 459.037 85.1404 458.135C86.1786 457.233 86.6662 455.602 86.2217 454.508C85.7772 453.414 84.2901 452.586 82.9171 452.664C81.544 452.742 81.0564 454.373 81.8357 456.291ZM1082.62 47.1916C1082.86 47.7667 1083.51 48.0508 1084.07 47.8229C1084.63 47.5949 1084.9 46.9378 1084.66 46.3627C1084.43 45.7875 1083.78 45.5034 1083.22 45.7313C1082.66 45.9593 1082.39 46.6164 1082.62 47.1916ZM1095.71 44.3095C1096.42 46.035 1098.77 46.7232 1100.95 45.8379C1106.08 43.7531 1106.73 39.555 1101.91 39.6093C1096.01 39.6746 1094.34 40.9358 1095.71 44.3095ZM53.0469 475.299C53.1034 477.287 53.9607 478.583 54.9541 478.18C55.9476 477.776 56.745 476.082 56.7274 474.413C56.7022 472.081 56.9866 471.998 57.9668 474.053C59.3829 477.023 62.7375 473.633 61.4703 470.514C60.1581 467.285 52.9397 471.385 53.0469 475.299ZM65.6004 468.98C66.2234 470.513 67.0904 470.892 67.528 469.822C67.9627 468.751 67.4528 467.496 66.3943 467.032C65.3345 466.571 64.9775 467.447 65.6004 468.98ZM1117.81 40.2033C1118.05 40.7784 1118.7 41.0625 1119.26 40.8346C1119.82 40.6066 1120.09 39.9495 1119.85 39.3743C1119.62 38.7991 1118.97 38.5151 1118.41 38.743C1117.85 38.971 1117.58 39.6281 1117.81 40.2033ZM1126.4 37.9333C1127.02 39.4664 1127.89 39.8452 1128.33 38.7755C1128.76 37.7045 1128.25 36.4496 1127.19 35.9853C1126.13 35.524 1125.78 36.4002 1126.4 37.9333ZM1131.52 35.7227C1131.31 37.0326 1132.24 38.3018 1133.58 38.5434C1134.91 38.785 1136.19 37.7894 1136.42 36.3305C1136.71 34.5472 1138.38 33.8541 1141.52 34.2202C1147.56 34.9244 1158.95 30.3015 1157.85 27.5908C1156.88 25.1939 1157.3 25.133 1142.82 29.8074C1136.81 31.7494 1131.73 34.4108 1131.52 35.7227ZM1167.03 23.8606C1166.82 25.1675 1165.09 26.2544 1163.18 26.2749C1161.27 26.2976 1160.13 27.3559 1160.65 28.6296C1161.17 29.9034 1162.79 30.6058 1164.25 30.1933C1178.15 26.2769 1182.65 24.3238 1180.85 22.9799C1179.72 22.134 1178.15 22.3274 1177.38 23.4148C1176.6 24.5002 1175.61 24.4941 1175.16 23.3981C1174.03 20.6059 1167.48 20.9782 1167.03 23.8606ZM1189.07 19.2065C1187.62 22.7636 1189.72 23.3741 1196.25 21.2967C1201.62 19.5895 1202.31 18.8056 1199.52 17.5871C1195.55 15.8498 1190.09 16.6948 1189.07 19.2065ZM17.5577 498.858C15.4201 502.425 15.8681 502.65 21.4689 500.827C25.812 499.413 27.4034 497.814 26.551 495.716C25.0297 491.972 20.7962 493.451 17.5577 498.858ZM1206.37 17.3168C1204.96 19.3321 1206.5 19.7879 1211.53 18.8541C1219.57 17.3607 1221.98 14.6187 1216.24 13.5182C1211.54 12.617 1208.95 13.6171 1206.37 17.3168ZM1228.39 11.1779C1227.87 14.4928 1236.84 14.9905 1244.07 12.0494C1250.01 9.63556 1251.29 6.03527 1246.52 5.17264C1242.32 4.41422 1228.74 8.911 1228.39 11.1779ZM0.999593 514.725C-1.72581 518.71 1.49534 517.402 6.09959 512.653C8.30846 510.373 8.39094 509.582 6.34279 510.327C4.63345 510.946 2.2296 512.926 0.999593 514.725ZM1252.76 7.70642C1253.82 8.16771 1255.05 7.67036 1255.49 6.60065C1255.92 5.52966 1255.05 5.15085 1253.56 5.7585C1252.06 6.36609 1251.71 7.24221 1252.76 7.70642ZM1267.5 4.96797C1267.97 6.11832 1269.32 6.66409 1270.51 6.18167C1271.7 5.69921 1271.72 4.59309 1270.56 3.72456C1269.4 2.85605 1268.04 2.30944 1267.55 2.51086C1267.05 2.71232 1267.03 3.81762 1267.5 4.96797ZM1278.38 5.42085C1279.54 6.28937 1280.89 6.83597 1281.39 6.63456C1281.88 6.4331 1281.91 5.3278 1281.44 4.17745C1280.97 3.02709 1279.61 2.48133 1278.43 2.96374C1277.24 3.44621 1277.22 4.55233 1278.38 5.42085ZM1294.95 2.34115C1295.19 2.91633 1295.84 3.20044 1296.4 2.97247C1296.96 2.74449 1297.23 2.08742 1296.99 1.51225C1296.76 0.93707 1296.11 0.652951 1295.55 0.880925C1294.99 1.1089 1294.72 1.76598 1294.95 2.34115ZM1301.7 2.48369C1303.41 2.49047 1305.14 1.69978 1305.54 0.730164C1305.93 -0.239401 1304.53 -0.24391 1302.42 0.71969C1300.08 1.7858 1299.8 2.47798 1301.7 2.48369Z" fill="#858585"/>
</svg>
