<svg width="85" height="85" viewBox="0 0 85 85" fill="none" xmlns="http://www.w3.org/2000/svg">
<path fill-rule="evenodd" clip-rule="evenodd" d="M14.7179 0.263992C14.7042 0.78085 14.0883 0.908655 12.8315 0.655551C11.2513 0.337292 10.9651 0.473241 10.9651 1.54392C10.9651 2.23933 11.4031 2.97734 11.9375 3.18408C12.4726 3.39083 12.7214 3.86759 12.4906 4.24411C11.8753 5.2465 14.2146 9.27236 15.2902 9.06373C15.7929 8.966 17.1952 9.803 18.4065 10.9232C19.6172 12.0433 20.7719 12.9618 20.9716 12.963C21.1713 12.9649 22.5475 14.0939 24.0301 15.4721C25.5127 16.8504 26.9591 17.9781 27.2441 17.9781C27.5296 17.9781 27.7629 18.401 27.7629 18.9179C27.7629 19.4347 28.1269 19.8576 28.5723 19.8576C29.6126 19.8576 32.7289 21.3086 32.7351 21.796C32.7376 22.0008 33.4394 22.9876 34.2948 23.9887C35.1496 24.9905 35.8408 26.0912 35.8303 26.4358C35.8004 27.4275 34.4087 28.9737 33.0511 29.5232C32.2567 29.8452 32.0881 30.1334 32.5845 30.3201C33.7778 30.7686 33.5078 31.6802 32.2735 31.3694C31.6283 31.2072 30.1887 31.9959 28.7385 33.3078C27.3934 34.5245 26.0632 35.52 25.7833 35.52C25.5033 35.52 25.2744 35.8188 25.2744 36.1834C25.2744 36.548 25.5543 36.6727 25.8965 36.4597C26.2387 36.2467 26.5187 36.5123 26.5187 37.0492C26.5187 37.5861 26.1329 38.0259 25.6613 38.0259C25.1904 38.0259 24.4482 38.4582 24.0127 38.9864C23.5772 39.5151 22.9133 39.8434 22.5369 39.7162C21.6803 39.4268 16.6272 44.7194 15.8682 46.701C15.5584 47.5092 14.772 48.3117 14.1212 48.4828C13.4699 48.6544 12.7706 49.4632 12.5665 50.2795C12.3631 51.0965 11.4995 52.4666 10.6478 53.3243C9.79548 54.1826 9.09868 55.3203 9.09868 55.8528C9.09868 56.3854 8.83738 56.8208 8.51822 56.8208C7.77476 56.8208 6.94234 59.286 7.16693 60.8241C7.28887 61.6592 7.06241 61.901 6.39859 61.6448C5.23767 61.1962 3.85838 62.7449 4.32623 63.9716C4.51536 64.4678 4.29512 65.1864 3.83785 65.5691C2.68315 66.534 3.33391 68.7298 4.64974 68.3082C5.48093 68.0425 5.50954 68.0989 4.8003 68.607C4.31814 68.9522 3.58402 69.1038 3.16967 68.9434C2.20411 68.5707 1.72194 69.8481 1.96956 72.1223C2.08528 73.1854 1.66346 74.5925 0.929336 75.5931C-0.175589 77.0973 -0.229094 77.5841 0.421045 80.184C0.892006 82.0685 1.56268 83.2256 2.32418 83.4687C2.97058 83.6755 3.4994 84.1071 3.4994 84.4285C3.4994 84.7499 3.98965 85.0068 4.58815 84.9999C5.8847 84.9836 8.72975 81.0793 9.36683 78.4411C9.61568 77.4111 10.147 76.358 10.5476 76.1011C11.0267 75.7948 10.9035 75.6313 10.1874 75.625C9.58893 75.62 9.09868 75.3337 9.09868 74.9891C9.09868 74.6445 9.3886 74.3626 9.7426 74.3626C10.1644 74.3626 10.1395 73.8971 9.67043 73.0144C9.05202 71.8516 9.09868 71.7226 10.0083 72.074C11.5313 72.6623 14.6445 69.3156 14.9182 66.7946C15.0395 65.6807 15.5994 64.4296 16.1625 64.0148C16.7255 63.6001 17.1865 63.0588 17.1865 62.8119C17.1865 62.5651 18.0308 61.5126 19.0629 60.4732C20.0944 59.4345 21.8258 57.2712 22.9102 55.6661C23.994 54.0617 25.1456 52.5688 25.4685 52.3489C25.7914 52.129 25.8654 51.6384 25.6327 51.2594C25.3671 50.8259 25.568 50.7087 26.1752 50.943C26.7364 51.1598 27.1408 50.9825 27.1408 50.5189C27.1408 50.0803 27.5477 49.2747 28.0454 48.729C29.635 46.9848 31.3788 45.2538 32.3631 44.4431C32.8894 44.0096 33.1594 43.234 32.9634 42.7203C32.7637 42.1965 32.951 41.7849 33.3883 41.7849C33.8182 41.7849 35.1216 40.7982 36.2844 39.5922C37.4478 38.3862 38.7027 37.3994 39.0741 37.3994C39.4449 37.3994 40.2636 36.8018 40.8926 36.0713C41.8065 35.01 41.8999 34.4756 41.3561 33.4087C40.7956 32.3098 40.8211 32.2127 41.4986 32.8574C42.5936 33.8999 44.1551 33.8591 43.7507 32.7985C43.1952 31.3406 46.462 32.4057 47.1402 33.9036C47.4761 34.6466 49.1771 36.2304 50.9203 37.4233C52.6636 38.6161 55.0302 40.5087 56.1799 41.6283C57.3296 42.7485 58.6853 43.6644 59.1923 43.6644C59.6994 43.6644 60.1143 43.9463 60.1143 44.2909C60.1143 44.6355 60.487 44.9174 60.9424 44.9174C61.3978 44.9174 62.145 45.6222 62.6029 46.4836C63.0608 47.345 63.7949 48.0499 64.2354 48.0499C65.3552 48.0499 68.005 50.8384 67.7157 51.713C67.5838 52.1102 67.7797 52.4353 68.1505 52.4353C68.5207 52.4353 68.8243 52.8319 68.8243 53.3162C68.8243 53.875 69.2592 54.083 70.0114 53.885C70.7144 53.6996 71.7279 54.1062 72.4999 54.8837C73.2154 55.6041 74.2214 56.1943 74.7347 56.1943C75.2479 56.1943 75.6679 56.6172 75.6679 57.134C75.6679 58.2717 76.6845 58.3814 77.1243 57.2906C77.362 56.6999 77.5673 56.6873 77.9598 57.2411C78.246 57.6446 79.224 58.1627 80.1336 58.3927C81.4283 58.7197 81.9378 58.5267 82.4822 57.5024C82.8648 56.7832 83.5877 56.1943 84.0886 56.1943C84.6864 56.1943 85 55.5477 85 54.3148C85 53.0618 84.6889 52.4353 84.0668 52.4353C83.5535 52.4353 83.1242 52.0832 83.113 51.6522C83.0906 50.8196 81.0027 48.0499 80.3968 48.0499C79.5289 48.0499 77.5343 45.7945 77.5343 44.8134C77.5343 44.2207 76.9762 43.3418 76.2937 42.8606C75.6119 42.3795 75.2616 41.7611 75.5161 41.4867C75.7705 41.2117 75.2025 41.129 74.2537 41.3019C72.8465 41.5587 72.3351 41.2856 71.4759 39.8215C70.8967 38.8341 70.1072 38.0259 69.7227 38.0259C68.8554 38.0259 63.8472 33.1468 63.8472 32.3023C63.8472 31.964 63.617 31.8299 63.3358 32.0053C63.0546 32.1801 62.3578 31.7742 61.7866 31.1026C61.2155 30.431 60.3601 29.8815 59.8854 29.8815C59.4107 29.8815 58.6635 29.4461 58.2243 28.913C57.7857 28.3804 57.1094 28.0672 56.7224 28.2169C55.6343 28.6373 54.2226 27.2283 54.0348 25.5349C53.9128 24.4298 54.515 23.4368 56.2122 21.9445C57.5032 20.8099 58.7693 19.8764 59.0256 19.8695C59.2819 19.8632 59.4922 19.4347 59.4922 18.9179C59.4922 18.401 59.8636 17.9781 60.3171 17.9781C61.2759 17.9781 63.4876 15.6551 64.0463 14.0625C64.2572 13.4598 64.7891 12.9618 65.2277 12.9568C65.8231 12.9493 65.8051 12.807 65.1555 12.3929C64.5608 12.0133 65.0131 11.8385 66.5877 11.8385C69.0421 11.8385 74.0727 8.90335 73.4257 7.84896C72.8427 6.89857 74.3384 5.60486 76.0206 5.60486C77.9424 5.60486 79.6023 3.62889 78.651 2.47426C77.7029 1.32339 72.1266 1.45559 71.4659 2.64467C71.1741 3.1703 70.0406 3.66335 68.9475 3.74104C67.8544 3.81872 66.9598 4.16768 66.9591 4.51664C66.9579 5.17633 66.3382 5.57353 62.1525 7.59774C59.7292 8.76928 57.5455 11.0867 58.8651 11.0867C59.2097 11.0867 59.4922 11.4814 59.4922 11.9644C59.4922 12.6254 58.8028 12.777 56.6925 12.5784C54.4877 12.371 53.8929 12.5176 53.8929 13.2669C53.8929 13.8539 53.3212 14.2192 52.4041 14.2192C51.5854 14.2192 50.7542 14.642 50.557 15.1589C50.3604 15.6758 49.8807 16.0986 49.4919 16.0986C49.1024 16.0986 47.9527 16.8034 46.9361 17.6649C44.9254 19.3683 42.0722 19.7755 42.0722 18.359C42.0722 17.8798 41.3723 17.3103 40.5169 17.0941C39.1693 16.754 38.6318 15.7647 38.8806 14.0851C38.9167 13.8389 38.5527 13.79 38.0712 13.9761C36.9078 14.4253 34.1909 12.6398 31.4174 9.60252C29.7046 7.72742 28.7105 7.14541 27.2876 7.18613C25.6968 7.23186 25.4635 7.04705 25.746 5.96071C26.044 4.81359 25.876 4.72651 24.1209 5.11494C22.5295 5.46703 22.1637 5.34987 22.1637 4.49095C22.1637 3.84629 21.8265 3.56499 21.2989 3.76923C20.8229 3.95279 19.8549 3.55998 19.1475 2.89652C18.4395 2.23244 17.5299 1.68927 17.1256 1.68927C16.7212 1.68927 16.0188 1.19559 15.564 0.592902C15.0793 -0.0498816 14.7291 -0.186457 14.7179 0.263992ZM54.3178 17.4694C54.1194 17.9687 53.9719 17.8202 53.9421 17.0904C53.9153 16.4301 54.0621 16.0604 54.2687 16.2684C54.4752 16.4764 54.4976 17.0171 54.3178 17.4694Z" fill="#858585"/>
</svg>
