<svg width="24" height="24" viewBox="0 0 24 24" fill="none" xmlns="http://www.w3.org/2000/svg">
<path d="M22.1094 12.1714C22.1094 17.6964 17.6344 22.1714 12.1094 22.1714C6.58437 22.1714 2.10938 17.6964 2.10938 12.1714C2.10938 6.64639 6.58437 2.17139 12.1094 2.17139C17.6344 2.17139 22.1094 6.64639 22.1094 12.1714Z" fill="url(#paint0_linear_10228_680)"/>
<path d="M10.276 16.7547C9.95104 16.7547 10.0094 16.6297 9.89271 16.3214L8.94271 13.1881L14.8427 9.50472L15.5344 9.68805L14.9594 11.2547L10.276 16.7547Z" fill="#C8DAEA"/>
<path d="M10.276 16.7547C10.526 16.7547 10.6344 16.6381 10.776 16.5047C10.9927 16.2964 13.776 13.5881 13.776 13.5881L12.0677 13.1714L10.4844 14.1714L10.276 16.6714L10.276 16.7547Z" fill="#A9C9DD"/>
<path d="M10.4427 14.2047L14.476 17.1797C14.9344 17.4297 15.2677 17.3047 15.3844 16.7547L17.026 9.02139C17.1927 8.34639 16.7677 8.04639 16.326 8.24639L6.69271 11.9631C6.03437 12.2297 6.04271 12.5964 6.57604 12.7547L9.05104 13.5297L14.776 9.92139C15.0427 9.75472 15.2927 9.84639 15.0927 10.0297L10.4427 14.2047Z" fill="url(#paint1_linear_10228_680)"/>
<defs>
<linearGradient id="paint0_linear_10228_680" x1="15.0402" y1="5.33222" x2="10.0402" y2="16.9987" gradientUnits="userSpaceOnUse">
<stop stop-color="#37AEE2"/>
<stop offset="1" stop-color="#1E96C8"/>
</linearGradient>
<linearGradient id="paint1_linear_10228_680" x1="12.8602" y1="12.4843" x2="14.9435" y2="15.8177" gradientUnits="userSpaceOnUse">
<stop stop-color="#EFF7FC"/>
<stop offset="1" stop-color="white"/>
</linearGradient>
</defs>
</svg>
