<svg width="138" height="138" viewBox="0 0 138 138" fill="none" xmlns="http://www.w3.org/2000/svg">
<path d="M28.8498 36.2223C29.4134 35.7631 30.0637 35.4216 30.7617 35.2182C31.46 35.0148 32.1928 34.9538 32.9152 35.0385C33.6374 35.1232 34.3352 35.3522 34.9673 35.7116C35.5996 36.071 36.1531 36.5542 36.5953 37.1316C37.0253 37.6931 37.3405 38.333 37.5252 39.0153L39.0367 44.2126C44.0893 42.5826 49.6392 40.8923 55.5557 41.8599L55.5592 41.8604L55.5596 41.8613C58.1848 42.2958 60.8751 42.1157 63.4192 41.3362L63.4201 41.3358C66.1925 40.4796 68.4586 38.779 71.0476 36.811C73.3952 35.0263 76.0219 33.0113 79.2923 31.8505L79.9544 31.6296L79.9583 31.6288L88.5116 28.9929L88.5608 28.9779C89.9139 28.5982 91.3608 28.7447 92.6109 29.3868C93.8609 30.0288 94.8221 31.1193 95.3019 32.4401L95.5458 33.1117L95.5148 33.1981L107.512 71.9194L107.512 71.9211C108.369 74.696 106.708 77.8604 103.918 78.7139L103.918 78.7148L95.3651 81.3507L95.3577 81.3533L95.3511 81.3553C92.5821 82.1857 90.3321 83.8854 87.7513 85.8679C85.4132 87.664 82.7888 89.704 79.4995 90.8653L78.8326 91.0853C75.1065 92.2304 71.162 92.4755 67.3229 91.8012C64.855 91.395 62.3547 91.691 59.74 92.3363C57.6657 92.8482 55.6827 93.531 53.5896 94.2206L60.8667 119.225L60.8654 119.224C61.076 119.899 61.1544 120.609 61.0932 121.314C61.0303 122.038 60.8224 122.742 60.4823 123.385C60.1421 124.027 59.6761 124.596 59.1123 125.056C58.5486 125.515 57.8984 125.856 57.2004 126.06C56.5022 126.263 55.7701 126.324 55.0478 126.239C54.3254 126.154 53.627 125.926 52.9947 125.566C52.3626 125.207 51.809 124.724 51.3668 124.146C50.9368 123.585 50.6216 122.945 50.4369 122.263L50.436 122.263L27.0954 42.0531C26.885 41.3787 26.8082 40.6696 26.8693 39.9653C26.9322 39.2409 27.1396 38.5361 27.4798 37.8934C27.82 37.2506 28.286 36.6817 28.8498 36.2223ZM84.134 68.1931C83.0228 69.0112 81.942 69.9039 80.7096 70.8447C79.242 71.9649 77.6289 73.0871 75.7147 73.9374L75.7502 74.0472L75.7423 74.0488L78.5461 83.1922C79.8372 82.5569 81.0326 81.7221 82.2784 80.7662C83.6677 79.7004 85.2051 78.408 86.9204 77.2732L84.134 68.1931ZM51.5187 87.0763C54.2773 86.1517 57.292 85.1105 60.3882 84.5841L57.5465 75.3192C54.6744 75.7161 51.8366 76.705 48.8011 77.7203L51.5187 87.0763ZM60.3963 71.1169C62.4597 71.1109 64.4662 71.3116 66.2121 71.4004C67.7715 71.4797 69.2349 71.4827 70.6811 71.2654L67.7703 62.012C65.7188 62.3946 63.7633 62.387 61.9231 62.2941C60.3771 62.2161 58.9868 62.0896 57.6103 62.0354L60.3963 71.1169ZM83.5271 52.9291L86.4409 62.1615C89.413 60.7814 92.6594 59.9302 95.5478 59.113L92.6106 49.868C89.347 50.7991 86.279 51.5694 83.5271 52.9291ZM75.9974 42.0396C74.8824 42.8477 73.7991 43.725 72.5623 44.6487C71.0881 45.7496 69.4722 46.8481 67.5556 47.6875L70.4095 56.9823C71.7209 56.3457 72.9223 55.5193 74.1608 54.5755C75.5411 53.5236 77.0697 52.2378 78.7664 51.0902L75.9974 42.0396ZM43.8258 60.6715C46.4432 59.7908 49.2953 58.8249 52.223 58.3328L49.383 49.1277C46.6794 49.4679 43.9882 50.3736 41.115 51.3317L43.8258 60.6715Z" fill="#B8FF01" stroke="black" stroke-width="4"/>
</svg>
