<svg width="163" height="159" viewBox="0 0 163 159" fill="none" xmlns="http://www.w3.org/2000/svg">
<path d="M56.5506 17.3438C59.2633 15.2419 62.4306 13.8044 65.7987 13.1469L65.7983 13.1482C66.6212 12.9871 67.4718 13.0405 68.2673 13.3059C69.0626 13.5714 69.7755 14.0386 70.3367 14.6615C70.8979 15.2845 71.2888 16.0428 71.47 16.8615C71.6284 17.5778 71.6215 18.3194 71.4527 19.0305L71.3704 19.3339L66.4395 35.3824C67.2133 36.1959 68.1868 36.8015 69.2702 37.1335C70.3532 37.4654 71.4979 37.5078 72.5943 37.2678L77.5201 21.222L77.5196 21.2211C77.7659 20.4197 78.2157 19.6957 78.825 19.1197C79.4344 18.5437 80.1835 18.1354 80.9976 17.9347C81.8116 17.734 82.664 17.7473 83.4712 17.9739C84.278 18.2005 85.0127 18.632 85.6032 19.2266L86.07 19.7109C88.3645 22.1656 90.0671 25.1169 91.0442 28.338C92.0863 31.7739 92.2707 35.4129 91.5811 38.9365C90.8914 42.4601 89.3491 45.7611 87.0885 48.5506C84.828 51.3401 81.9182 53.5335 78.6139 54.9382L78.6135 54.9374C75.1878 56.3993 73.4784 58.1777 73.1604 59.7419L73.16 59.7432L64.6046 101.678L64.6038 101.683C64.1938 103.666 63.3736 105.543 62.1967 107.191C61.0199 108.84 59.5117 110.224 57.7692 111.255C56.0263 112.287 54.087 112.945 52.0758 113.184C50.0645 113.423 48.0252 113.24 46.0889 112.646C44.1527 112.051 42.3616 111.059 40.8309 109.733C39.3002 108.407 38.0633 106.775 37.1994 104.944C36.3355 103.112 35.8638 101.118 35.8143 99.0936C35.7649 97.0689 36.1389 95.0556 36.9122 93.1838L36.9143 93.1794L53.3595 53.6668C53.9713 52.1882 53.5533 49.756 51.5411 46.6284L51.2909 46.2294C51.045 45.8284 50.8126 45.4193 50.5941 45.0027C48.9885 41.9731 48.114 38.6096 48.0408 35.1815C47.9677 31.7503 48.6988 28.3494 50.1764 25.2519C51.6542 22.1543 53.8377 19.446 56.5506 17.3438ZM50.0431 97.6278C49.8432 97.7338 49.6935 97.915 49.627 98.1314C49.5606 98.3477 49.5829 98.5817 49.6889 98.7817L49.7031 98.8084C49.8091 99.0083 49.9903 99.1581 50.2066 99.2245C50.4229 99.2909 50.657 99.2687 50.8569 99.1627L50.8837 99.1485C51.0836 99.0425 51.2334 98.8613 51.2998 98.6449C51.3662 98.4286 51.3439 98.1946 51.238 97.9946L51.2238 97.9679C51.1178 97.768 50.9365 97.6182 50.7202 97.5518C50.5038 97.4853 50.2699 97.5076 50.0699 97.6136L50.0431 97.6278Z" fill="#B8FF01" stroke="black" stroke-width="4"/>
<path d="M13.2422 41.5986C14.1288 40.9787 15.1974 40.6731 16.2777 40.7298L16.279 40.7302L32.8931 41.6097L32.894 41.6093C33.7307 41.6538 34.5417 41.9144 35.2479 42.3652C35.9541 42.816 36.5317 43.4421 36.9243 44.1823L39.3268 48.7137L49.853 51.9433L51.961 52.5898L51.1131 54.6244L48.1286 61.7876L47.4308 63.463L45.6951 62.9308L35.8817 59.9178L31.3564 62.3171C30.6161 62.7095 29.7867 62.9036 28.9492 62.8805C28.1117 62.8573 27.2941 62.6179 26.5767 62.1853L26.5762 62.1844L12.3309 53.5893L12.3296 53.5889C11.4036 53.0296 10.6907 52.177 10.3046 51.1664C9.91865 50.1556 9.88199 49.0444 10.1996 48.01L11.384 44.1523L11.4467 43.9599C11.7835 43.0065 12.4109 42.18 13.2422 41.5986Z" fill="#B8FF01" stroke="black" stroke-width="4"/>
<mask id="path-3-outside-1_10314_203" maskUnits="userSpaceOnUse" x="58.5014" y="41.4552" width="63.0189" height="61.3586" fill="black">
<rect fill="white" x="58.5014" y="41.4552" width="63.0189" height="61.3586"/>
<path fill-rule="evenodd" clip-rule="evenodd" d="M73.0877 78.6422L94.6007 85.2444C96.2127 85.7393 97.9063 85.9119 99.5849 85.7522C101.264 85.5926 102.894 85.1039 104.384 84.3141C105.874 83.5242 107.193 82.4486 108.268 81.1488C109.342 79.8489 110.149 78.3503 110.644 76.7383C111.139 75.1264 111.312 73.4328 111.152 71.7541C110.992 70.0755 110.504 68.4448 109.714 66.955C108.924 65.4652 107.848 64.1456 106.548 63.0715C105.249 61.9974 103.75 61.1899 102.138 60.695L85.1357 55.4776C83.5605 56.6223 81.861 57.5855 80.0696 58.3488C78.6847 58.9367 77.7665 59.5441 77.2302 60.0351C77.056 60.1816 76.9046 60.3532 76.7812 60.5445L73.0877 78.6422ZM82.1394 67.9867C82.3618 67.264 82.8619 66.6591 83.53 66.3049C84.198 65.9507 84.9794 65.8761 85.7023 66.0976L95.348 69.0619C95.718 69.1614 96.0643 69.3343 96.366 69.5705C96.6677 69.8067 96.9188 70.1013 97.1042 70.4366C97.2897 70.7719 97.4057 71.1411 97.4453 71.5223C97.485 71.9034 97.4474 72.2886 97.335 72.6549C97.2225 73.0212 97.0374 73.3611 96.7907 73.6543C96.544 73.9476 96.2408 74.1881 95.8992 74.3616C95.5575 74.5351 95.1844 74.638 94.8021 74.6641C94.4198 74.6903 94.0362 74.6392 93.6741 74.5139L84.0302 71.553C83.3075 71.3306 82.7026 70.8304 82.3484 70.1624C81.9942 69.4943 81.9197 68.713 82.1412 67.99"/>
</mask>
<path fill-rule="evenodd" clip-rule="evenodd" d="M73.0877 78.6422L94.6007 85.2444C96.2127 85.7393 97.9063 85.9119 99.5849 85.7522C101.264 85.5926 102.894 85.1039 104.384 84.3141C105.874 83.5242 107.193 82.4486 108.268 81.1488C109.342 79.8489 110.149 78.3503 110.644 76.7383C111.139 75.1264 111.312 73.4328 111.152 71.7541C110.992 70.0755 110.504 68.4448 109.714 66.955C108.924 65.4652 107.848 64.1456 106.548 63.0715C105.249 61.9974 103.75 61.1899 102.138 60.695L85.1357 55.4776C83.5605 56.6223 81.861 57.5855 80.0696 58.3488C78.6847 58.9367 77.7665 59.5441 77.2302 60.0351C77.056 60.1816 76.9046 60.3532 76.7812 60.5445L73.0877 78.6422ZM82.1394 67.9867C82.3618 67.264 82.8619 66.6591 83.53 66.3049C84.198 65.9507 84.9794 65.8761 85.7023 66.0976L95.348 69.0619C95.718 69.1614 96.0643 69.3343 96.366 69.5705C96.6677 69.8067 96.9188 70.1013 97.1042 70.4366C97.2897 70.7719 97.4057 71.1411 97.4453 71.5223C97.485 71.9034 97.4474 72.2886 97.335 72.6549C97.2225 73.0212 97.0374 73.3611 96.7907 73.6543C96.544 73.9476 96.2408 74.1881 95.8992 74.3616C95.5575 74.5351 95.1844 74.638 94.8021 74.6641C94.4198 74.6903 94.0362 74.6392 93.6741 74.5139L84.0302 71.553C83.3075 71.3306 82.7026 70.8304 82.3484 70.1624C81.9942 69.4943 81.9197 68.713 82.1412 67.99" fill="#B8FF01"/>
<path d="M73.0877 78.6422L69.1685 77.8423L68.4423 81.4006L71.9141 82.4661L73.0877 78.6422ZM94.6007 85.2444L95.7747 81.4206L95.7743 81.4204L94.6007 85.2444ZM102.138 60.695L103.312 56.8711L103.311 56.871L102.138 60.695ZM85.1357 55.4776L86.3092 51.6536L84.4 51.0678L82.7844 52.2417L85.1357 55.4776ZM80.0696 58.3488L81.6326 62.0308L81.6377 62.0287L80.0696 58.3488ZM77.2302 60.0351L79.8039 63.0972L79.8689 63.0426L79.9314 62.9853L77.2302 60.0351ZM76.7812 60.5445L73.4206 58.375L73.0125 59.0073L72.862 59.7446L76.7812 60.5445ZM85.7023 66.0976L86.8774 62.2741L86.874 62.2731L85.7023 66.0976ZM95.348 69.0619L94.173 72.8854L94.2409 72.9063L94.3096 72.9248L95.348 69.0619ZM93.6741 74.5139L94.9823 70.7339L94.9156 70.7108L94.8481 70.6901L93.6741 74.5139ZM84.0302 71.553L82.8538 75.3761L82.8562 75.3768L84.0302 71.553ZM73.0877 78.6422L71.9141 82.4661L93.4272 89.0684L94.6007 85.2444L95.7743 81.4204L74.2612 74.8182L73.0877 78.6422ZM94.6007 85.2444L93.4267 89.0682C95.5408 89.7173 97.762 89.9436 99.9636 89.7343L99.5849 85.7522L99.2063 81.7702C98.0506 81.8801 96.8845 81.7613 95.7747 81.4206L94.6007 85.2444ZM99.5849 85.7522L99.9636 89.7343C102.165 89.5249 104.304 88.884 106.258 87.8481L104.384 84.3141L102.51 80.78C101.485 81.3239 100.362 81.6603 99.2063 81.7702L99.5849 85.7522ZM104.384 84.3141L106.258 87.8481C108.212 86.8121 109.942 85.4015 111.351 83.6968L108.268 81.1488L105.184 78.6008C104.445 79.4957 103.536 80.2362 102.51 80.78L104.384 84.3141ZM108.268 81.1488L111.351 83.6968C112.76 81.992 113.819 80.0264 114.468 77.9124L110.644 76.7383L106.82 75.5643C106.48 76.6741 105.924 77.7059 105.184 78.6008L108.268 81.1488ZM110.644 76.7383L114.468 77.9124C115.117 75.7983 115.343 73.577 115.134 71.3755L111.152 71.7541L107.17 72.1328C107.28 73.2885 107.161 74.4545 106.82 75.5643L110.644 76.7383ZM111.152 71.7541L115.134 71.3755C114.925 69.1739 114.284 67.0351 113.248 65.0813L109.714 66.955L106.18 68.8287C106.724 69.8544 107.06 70.9771 107.17 72.1328L111.152 71.7541ZM109.714 66.955L113.248 65.0813C112.212 63.1274 110.801 61.3967 109.096 59.988L106.548 63.0715L104.001 66.155C104.895 66.8945 105.636 67.803 106.18 68.8287L109.714 66.955ZM106.548 63.0715L109.096 59.988C107.392 58.5793 105.426 57.5202 103.312 56.8711L102.138 60.695L100.964 64.5188C102.074 64.8595 103.106 65.4155 104.001 66.155L106.548 63.0715ZM102.138 60.695L103.311 56.871L86.3092 51.6536L85.1357 55.4776L83.9623 59.3017L100.965 64.519L102.138 60.695ZM85.1357 55.4776L82.7844 52.2417C81.4527 53.2094 80.016 54.0237 78.5016 54.669L80.0696 58.3488L81.6377 62.0287C83.706 61.1473 85.6683 60.0352 87.4871 58.7135L85.1357 55.4776ZM80.0696 58.3488L78.5067 54.6668C76.8278 55.3795 75.4873 56.2075 74.529 57.0849L77.2302 60.0351L79.9314 62.9853C80.0458 62.8806 80.5416 62.4939 81.6326 62.0308L80.0696 58.3488ZM77.2302 60.0351L74.6566 56.973C74.177 57.3761 73.7604 57.8487 73.4206 58.375L76.7812 60.5445L80.1417 62.714C80.0489 62.8578 79.935 62.987 79.8039 63.0972L77.2302 60.0351ZM76.7812 60.5445L72.862 59.7446L69.1685 77.8423L73.0877 78.6422L77.0069 79.442L80.7004 61.3443L76.7812 60.5445ZM82.1394 67.9867L85.9625 69.1631C85.8731 69.4535 85.6721 69.6965 85.4037 69.8389L83.53 66.3049L81.6563 62.7709C80.0517 63.6216 78.8504 65.0744 78.3163 66.8103L82.1394 67.9867ZM83.53 66.3049L85.4037 69.8389C85.1352 69.9812 84.8212 70.0112 84.5307 69.9222L85.7023 66.0976L86.874 62.2731C85.1375 61.7411 83.2608 61.9201 81.6563 62.7709L83.53 66.3049ZM85.7023 66.0976L84.5273 69.9211L94.173 72.8854L95.348 69.0619L96.523 65.2384L86.8774 62.2741L85.7023 66.0976ZM95.348 69.0619L94.3096 72.9248C94.1609 72.8848 94.0218 72.8153 93.9005 72.7204L96.366 69.5705L98.8315 66.4207C98.1068 65.8534 97.2752 65.4379 96.3864 65.199L95.348 69.0619ZM96.366 69.5705L93.9005 72.7204C93.7792 72.6254 93.6783 72.5071 93.6038 72.3723L97.1042 70.4366L100.605 68.5008C100.159 67.6955 99.5562 66.988 98.8315 66.4207L96.366 69.5705ZM97.1042 70.4366L93.6038 72.3723C93.5293 72.2376 93.4827 72.0892 93.4668 71.936L97.4453 71.5223L101.424 71.1085C101.329 70.1931 101.05 69.3062 100.605 68.5008L97.1042 70.4366ZM97.4453 71.5223L93.4668 71.936C93.4509 71.7829 93.4659 71.6281 93.5111 71.4809L97.335 72.6549L101.159 73.8289C101.429 72.9491 101.519 72.0239 101.424 71.1085L97.4453 71.5223ZM97.335 72.6549L93.5111 71.4809C93.5563 71.3337 93.6307 71.1971 93.7298 71.0793L96.7907 73.6543L99.8516 76.2294C100.444 75.5251 100.889 74.7087 101.159 73.8289L97.335 72.6549ZM96.7907 73.6543L93.7298 71.0793C93.829 70.9614 93.9508 70.8648 94.0881 70.7951L95.8992 74.3616L97.7102 77.9281C98.5308 77.5114 99.2591 76.9337 99.8516 76.2294L96.7907 73.6543ZM95.8992 74.3616L94.0881 70.7951C94.2254 70.7254 94.3753 70.684 94.529 70.6735L94.8021 74.6641L95.0753 78.6548C95.9935 78.5919 96.8897 78.3448 97.7102 77.9281L95.8992 74.3616ZM94.8021 74.6641L94.529 70.6735C94.6826 70.663 94.8367 70.6835 94.9823 70.7339L93.6741 74.5139L92.3659 78.2939C93.2357 78.5949 94.1571 78.7177 95.0753 78.6548L94.8021 74.6641ZM93.6741 74.5139L94.8481 70.6901L85.2042 67.7291L84.0302 71.553L82.8562 75.3768L92.5001 78.3377L93.6741 74.5139ZM84.0302 71.553L85.2066 67.7299C85.497 67.8192 85.7401 68.0202 85.8824 68.2887L82.3484 70.1624L78.8144 72.0361C79.6652 73.6407 81.118 74.842 82.8538 75.3761L84.0302 71.553ZM82.3484 70.1624L85.8824 68.2887C86.0248 68.5572 86.0547 68.8711 85.9657 69.1617L82.1412 67.99L78.3166 66.8184C77.7846 68.5549 77.9637 70.4315 78.8144 72.0361L82.3484 70.1624Z" fill="black" mask="url(#path-3-outside-1_10314_203)"/>
<g filter="url(#filter0_n_10314_203)">
<path d="M126.875 12.9999H114.125L109.875 40.6249H131.125M131.125 70.3749H109.875L114.125 97.9999H126.875" fill="black"/>
<path d="M155.06 29.9556L146.044 20.94L123.505 37.4686L138.531 52.4947M117.495 73.5311L102.469 58.5051L85.9402 81.0441L94.9558 90.0597" fill="black"/>
<path d="M163 61.8749V49.1249L135.375 44.8749V66.1249M105.625 66.1249V44.8749L78 49.1249V61.8749" fill="black"/>
<path d="M146.046 90.0598L155.061 81.0441L138.533 58.5051L123.507 73.5311M102.47 52.4947L117.496 37.4687L94.9571 20.9401L85.9415 29.9557" fill="black"/>
<path d="M120.5 23.6249C112.046 23.6249 103.939 26.9831 97.961 32.9608C91.9832 38.9386 88.625 47.0461 88.625 55.4999C88.625 63.9537 91.9832 72.0612 97.961 78.0389C103.939 84.0166 112.046 87.3749 120.5 87.3749C128.954 87.3749 137.061 84.0166 143.039 78.0389C149.017 72.0612 152.375 63.9537 152.375 55.4999C152.375 47.0461 149.017 38.9386 143.039 32.9608C137.061 26.9831 128.954 23.6249 120.5 23.6249V40.6249C124.445 40.6249 128.229 42.1921 131.018 44.9817C133.808 47.7713 135.375 51.5548 135.375 55.4999C135.375 59.445 133.808 63.2285 131.018 66.0181C128.229 68.8077 124.445 70.3749 120.5 70.3749C116.555 70.3749 112.771 68.8077 109.982 66.0181C107.192 63.2285 105.625 59.445 105.625 55.4999C105.625 51.5548 107.192 47.7713 109.982 44.9817C112.771 42.1921 116.555 40.6249 120.5 40.6249" fill="black"/>
</g>
<path d="M68.0609 152.5L66.7609 142.1C66.0568 141.829 65.3938 141.504 64.7719 141.125C64.1501 140.746 63.5402 140.339 62.9422 139.906L53.2734 143.969L44.3359 128.531L52.7047 122.194C52.6505 121.814 52.6234 121.449 52.6234 121.098V118.905C52.6234 118.551 52.6505 118.185 52.7047 117.806L44.3359 111.469L53.2734 96.0311L62.9422 100.094C63.538 99.6603 64.1609 99.254 64.8109 98.8749C65.4609 98.4957 66.1109 98.1707 66.7609 97.8999L68.0609 87.4999H85.9359L87.2359 97.8999C87.9401 98.1707 88.6042 98.4957 89.2282 98.8749C89.8522 99.254 90.461 99.6603 91.0547 100.094L100.723 96.0311L109.661 111.469L101.292 117.806C101.346 118.185 101.373 118.551 101.373 118.905V121.095C101.373 121.448 101.319 121.814 101.211 122.194L109.58 128.531L100.642 143.969L91.0547 139.906C90.4589 140.339 89.8359 140.746 89.1859 141.125C88.5359 141.504 87.8859 141.829 87.2359 142.1L85.9359 152.5H68.0609ZM77.1609 131.375C80.3026 131.375 82.9839 130.264 85.2047 128.044C87.4255 125.823 88.5359 123.142 88.5359 120C88.5359 116.858 87.4255 114.177 85.2047 111.956C82.9839 109.735 80.3026 108.625 77.1609 108.625C73.9651 108.625 71.2698 109.735 69.0749 111.956C66.8801 114.177 65.7838 116.858 65.7859 120C65.7881 123.142 66.8855 125.823 69.0782 128.044C71.2709 130.264 73.9651 131.375 77.1609 131.375Z" fill="black"/>
<defs>
<filter id="filter0_n_10314_203" x="78" y="12.9999" width="85" height="85" filterUnits="userSpaceOnUse" color-interpolation-filters="sRGB">
<feFlood flood-opacity="0" result="BackgroundImageFix"/>
<feBlend mode="normal" in="SourceGraphic" in2="BackgroundImageFix" result="shape"/>
<feTurbulence type="fractalNoise" baseFrequency="2 2" stitchTiles="stitch" numOctaves="3" result="noise" seed="403" />
<feColorMatrix in="noise" type="luminanceToAlpha" result="alphaNoise" />
<feComponentTransfer in="alphaNoise" result="coloredNoise1">
<feFuncA type="discrete" tableValues="1 1 1 1 1 1 1 1 1 1 1 1 1 1 1 1 1 1 1 1 1 1 1 1 1 1 1 1 1 1 1 1 1 1 1 1 1 1 1 1 1 1 1 1 1 1 1 1 1 1 1 0 0 0 0 0 0 0 0 0 0 0 0 0 0 0 0 0 0 0 0 0 0 0 0 0 0 0 0 0 0 0 0 0 0 0 0 0 0 0 0 0 0 0 0 0 0 0 0 0 "/>
</feComponentTransfer>
<feComposite operator="in" in2="shape" in="coloredNoise1" result="noise1Clipped" />
<feFlood flood-color="rgba(0, 0, 0, 0.25)" result="color1Flood" />
<feComposite operator="in" in2="noise1Clipped" in="color1Flood" result="color1" />
<feMerge result="effect1_noise_10314_203">
<feMergeNode in="shape" />
<feMergeNode in="color1" />
</feMerge>
</filter>
</defs>
</svg>
