<svg width="243" height="395" viewBox="0 0 243 395" fill="none" xmlns="http://www.w3.org/2000/svg">
<path fill-rule="evenodd" clip-rule="evenodd" d="M100.749 351.458C98.8077 350.427 98.2236 350.23 98.2539 350.615C98.2809 350.963 97.9444 350.916 97.1609 350.464C95.8727 349.72 95.4519 349.977 96.3529 350.955C96.8085 351.45 96.7644 351.768 96.1756 352.237C95.4491 352.816 94.3508 352.715 94.7049 352.102C94.791 351.953 94.6191 351.784 94.323 351.726C94.0264 351.669 93.4726 351.292 93.0915 350.889C92.5602 350.326 92.205 350.196 91.5608 350.331C91.0875 350.43 90.2113 350.212 89.5484 349.829C88.5846 349.272 88.3735 349.272 88.3697 349.83C88.3659 350.351 88.2187 350.376 87.7345 349.939C87.2697 349.519 86.908 349.535 86.3588 350.001C85.8529 350.43 85.3455 350.479 84.7794 350.152C84.3206 349.887 83.5241 349.734 83.0094 349.811C82.4949 349.889 81.9743 349.785 81.852 349.581C81.7302 349.376 81.6521 349.486 81.6788 349.825C81.714 350.276 81.4902 350.304 80.8379 349.927C80.3489 349.645 79.5145 349.54 78.9841 349.695C78.4518 349.85 77.3896 349.708 76.6158 349.38C75.5384 348.923 75.128 348.93 74.8503 349.411C74.5968 349.85 74.0877 349.908 73.1509 349.603C72.4154 349.364 71.574 349.336 71.2811 349.541C70.8541 349.838 70.3583 349.688 68.7935 348.784C66.8021 347.634 65.7457 346.358 66.629 346.168C66.8865 346.113 67.4518 346.366 67.8858 346.731C68.6427 347.367 69.1552 347.291 68.7454 346.604C68.3933 346.013 69.3792 344.337 69.9037 344.634C70.1816 344.792 70.1715 344.643 69.8815 344.304C69.5121 343.872 69.014 343.704 68.2177 343.743C67.5927 343.773 67.136 343.703 67.203 343.587C67.2702 343.471 67.7793 343.362 68.3338 343.346C69.5803 343.309 69.5757 342.399 68.3247 341.677C67.6609 341.294 67.4899 340.971 67.7301 340.555C67.9156 340.234 67.7538 339.514 67.371 338.956C66.9414 338.329 66.8723 337.801 67.1908 337.579C67.5197 337.349 67.4731 337.084 67.0616 336.846C66.707 336.641 66.5165 336.301 66.6386 336.089C66.7607 335.878 66.6565 335.587 66.407 335.443C65.4298 334.878 64.6376 333.198 65.0291 332.52C65.4357 331.816 64.652 329.986 63.7115 329.443C63.4445 329.289 63.4499 329.114 63.7238 329.055C63.9979 328.997 63.9865 328.903 63.6982 328.847C63.0403 328.72 62.5633 328.122 62.2926 327.085C62.1239 326.44 61.5307 325.942 59.3068 324.576C57.4607 323.443 56.5933 322.765 56.7162 322.552C56.8201 322.372 56.3549 321.923 55.6532 321.527C54.7247 321.003 54.2292 320.939 53.7166 321.279C53.3374 321.531 53.0903 321.58 53.1669 321.389C53.3507 320.931 51.0677 319.622 50.8231 320.046C50.7191 320.226 50.9474 320.831 51.3303 321.389C51.7387 321.985 51.8249 322.546 51.539 322.746C51.2176 322.97 51.3461 323.374 51.9139 323.928C52.3908 324.394 52.7518 325.268 52.7206 325.883C52.6865 326.567 53.0589 327.391 53.6877 328.02C54.25 328.583 54.7841 329.545 54.8744 330.158C54.9647 330.77 55.3069 331.427 55.6349 331.616C55.9629 331.805 56.0979 332.076 55.9352 332.217C55.6752 332.443 55.8485 333.741 56.4914 336.383C56.8898 338.02 57.1479 340.189 56.9609 340.329C56.8544 340.409 57.1008 340.666 57.5091 340.902C58.0587 341.219 58.0935 341.467 57.6433 341.86C57.227 342.223 57.2425 342.714 57.6916 343.42C58.1411 344.125 58.1625 344.798 57.7582 345.557C57.2828 346.45 57.3462 346.845 58.0866 347.602C58.5912 348.117 59.0671 348.735 59.1444 348.974C59.2708 349.366 61.1254 350.555 64.6375 352.495C65.5464 352.997 66.1674 353.083 66.874 352.803C67.4118 352.59 68.0734 352.615 68.3443 352.86C68.6156 353.106 69.4043 353.314 70.0978 353.323C70.7907 353.333 71.5507 353.452 71.7861 353.588C72.0214 353.724 72.4891 353.674 72.8259 353.476C73.306 353.194 73.6641 353.293 74.4858 353.935C75.3813 354.634 75.5344 354.657 75.5383 354.093C75.5417 353.585 75.9146 353.541 77.1532 353.901C78.0394 354.159 79.0315 354.178 79.3582 353.944C79.726 353.679 80.3013 353.719 80.8697 354.047C81.6303 354.486 81.802 354.433 81.8733 353.731C81.9522 352.957 82.0486 352.955 83.0007 353.698C83.8919 354.394 84.1447 354.429 84.7522 353.945C85.3038 353.506 85.9106 353.538 87.4689 354.092C88.5718 354.484 89.5641 354.65 89.6732 354.461C89.7823 354.272 90.1812 354.296 90.5596 354.514C90.9381 354.733 91.3477 354.739 91.4698 354.527C91.5919 354.316 91.8982 354.262 92.1505 354.407C92.4028 354.553 92.7086 354.5 92.8301 354.29C92.9515 354.08 93.5468 354.002 94.1531 354.117C94.7595 354.232 95.3925 354.097 95.5599 353.815C95.7271 353.534 96.3812 353.028 97.0136 352.692C97.948 352.193 98.2429 352.204 98.5911 352.748C98.9381 353.29 99.015 353.301 98.9959 352.805C98.9785 352.356 99.2137 352.333 99.8752 352.715C100.372 353.001 100.845 353.121 100.926 352.98C101.008 352.839 101.36 352.888 101.709 353.09C102.058 353.291 102.555 353.309 102.813 353.129C103.226 352.842 102.975 352.639 100.749 351.458ZM133.976 279.428C133.159 278.956 133.088 278.137 133.85 277.973C134.675 277.796 134.422 277.326 133.252 276.86C132.007 276.365 132.228 275.871 133.604 276.071C135.061 276.282 135.942 275.534 135.368 274.573C134.945 273.862 134.805 273.791 134.025 273.888C133.265 273.983 133.269 274.078 134.054 274.632C134.917 275.241 134.901 275.254 133.683 274.939C132.809 274.712 132.217 274.842 131.79 275.354C131.406 275.813 130.916 275.953 130.51 275.718C129.517 275.144 129.406 275.802 130.367 276.561C130.829 276.927 131.115 277.385 131.002 277.58C130.889 277.775 131.107 278.113 131.485 278.332C132.733 279.052 131.958 279.167 130.209 278.521C128.829 278.012 128.397 277.73 128.015 277.089C127.587 276.372 127.478 276.402 126.944 277.382C126.617 277.983 126.549 278.81 126.793 279.221C127.038 279.63 127.109 280.088 126.952 280.236C126.795 280.385 126.643 280.915 126.614 281.416C126.575 282.083 126.852 282.493 127.657 282.958C128.959 283.71 128.948 283.763 127.376 284.25C126.568 284.501 126.31 284.756 126.608 285.01C126.867 285.232 126.772 285.633 126.382 285.964C126.004 286.284 125.886 286.741 126.112 287.001C126.335 287.258 126.395 287.678 126.247 287.935C125.931 288.482 127.289 289.67 128.244 289.684C128.606 289.689 129.089 289.331 129.317 288.89C129.546 288.448 129.545 288.171 129.316 288.274C129.087 288.377 128.688 288.339 128.43 288.19C128.172 288.041 128.179 287.814 128.447 287.687C128.777 287.529 128.644 287.288 128.03 286.933C127.361 286.547 127.227 286.237 127.514 285.739C127.826 285.2 127.993 285.196 128.362 285.72C129.103 286.773 130.104 286.448 130.655 284.974C130.924 284.255 131.499 283.496 131.933 283.287C132.653 282.939 132.615 282.852 131.503 282.298C130.833 281.964 130.061 281.739 129.79 281.797C128.938 281.98 128.274 280.39 128.955 279.795C129.4 279.407 129.842 279.434 130.651 279.901C131.252 280.248 131.678 280.648 131.596 280.789C131.515 280.93 131.242 280.926 130.989 280.78C130.737 280.634 130.465 280.628 130.386 280.766C130.298 280.919 130.756 281.162 131.556 281.387C133.03 281.802 133.225 281.704 132.696 280.816C132.415 280.346 132.573 280.196 133.373 280.172C134.644 280.135 134.821 279.916 133.976 279.428ZM127.36 290.033C126.861 289.197 125.227 288.268 125.273 288.847C125.292 289.094 124.939 289.28 124.487 289.261C123.799 289.232 123.763 289.058 124.264 288.191C124.593 287.621 124.64 287.027 124.369 286.87C124.097 286.714 124.116 286.301 124.41 285.954C125.059 285.188 124.756 283.832 123.899 283.666C123.556 283.599 122.983 284.054 122.623 284.676C122.115 285.557 122.135 285.86 122.716 286.047C123.344 286.25 123.305 286.364 122.47 286.77C121.925 287.036 121.347 287.177 121.184 287.083C121.022 286.989 120.822 287.258 120.739 287.68C120.638 288.195 120.381 288.33 119.959 288.09C119.431 287.789 119.409 287.824 119.825 288.312C120.171 288.716 120.136 288.855 119.712 288.774C118.952 288.627 118.666 289.047 119.283 289.403C119.535 289.549 119.838 289.5 119.956 289.296C120.074 289.092 120.503 288.993 120.91 289.078C121.317 289.162 121.866 289.126 122.131 288.997C122.515 288.81 122.568 288.858 122.391 289.232C122.129 289.785 122.99 290.398 123.292 289.874C123.405 289.678 123.846 289.63 124.272 289.767C125.159 290.054 125.114 290.415 124.193 290.402C123.765 290.396 123.64 290.706 123.795 291.386C123.98 292.192 124.163 292.376 124.776 292.367C125.19 292.36 125.753 291.969 126.025 291.498C126.297 291.027 126.792 290.645 127.126 290.65C127.531 290.656 127.608 290.45 127.36 290.033ZM136.609 271.831C136.359 271.541 135.829 271.153 135.431 270.968C135.032 270.785 134.581 270.251 134.428 269.783C134.263 269.28 134.339 269.041 134.612 269.199C135.318 269.606 135.713 268.566 135.072 267.987C134.588 267.549 133.84 267.684 133.048 268.353C132.96 268.427 132.685 268.485 132.437 268.482C131.598 268.47 132.605 269.749 134.128 270.628C135.052 271.162 135.621 271.677 135.585 271.949C135.535 272.322 135.65 272.391 136.294 272.376C136.906 272.362 136.97 272.251 136.609 271.831ZM139.28 266.452C139.09 265.896 136.871 265.296 136.619 265.732C136.493 265.95 136.788 266.353 137.279 266.637C137.902 266.997 138.093 267.387 137.921 267.947C137.729 268.568 137.866 268.53 138.538 267.775C139.012 267.242 139.347 266.647 139.28 266.452ZM137.433 270.058C137.334 269.891 136.753 269.715 136.143 269.668C135.342 269.606 135.156 269.722 135.473 270.088C136.184 270.907 137.924 270.881 137.433 270.058ZM163.635 220.528C163.056 220.075 162.672 219.547 162.783 219.355C163.053 218.887 160.897 217.323 160.345 217.587C160.114 217.697 160.103 218.287 160.319 218.897C160.631 219.775 161.085 220.221 162.495 221.035C164.552 222.223 165.351 221.867 163.635 220.528ZM162.886 222.97C162.523 222.761 161.998 222.206 161.718 221.737C161.337 221.097 161.037 220.882 160.517 220.875C159.996 220.867 159.956 221.087 160.354 221.755C160.685 222.311 160.951 222.528 161.064 222.333C161.366 221.809 162.107 222.475 161.942 223.122L161.787 223.729L162.666 223.54C163.394 223.383 163.432 223.285 162.886 222.97ZM161.574 225.83C161.318 225.535 160.944 225.291 160.744 225.288C160.201 225.281 160.66 225.88 161.397 226.14C161.913 226.322 161.948 226.261 161.574 225.83ZM160.662 226.814C160.237 226.568 159.814 226.616 159.633 226.931C159.272 227.556 160.395 228.087 160.989 227.572C161.223 227.37 161.09 227.06 160.662 226.814ZM156.122 235.13C155.87 234.985 155.777 234.662 155.915 234.413C156.054 234.164 156.048 233.661 155.903 233.295C155.667 232.703 155.634 232.684 155.606 233.123C155.588 233.395 155.171 233.564 154.68 233.498C153.875 233.39 153.842 233.482 154.344 234.415C154.996 235.624 156.04 236.332 156.359 235.78C156.481 235.568 156.374 235.276 156.122 235.13ZM155.111 237.281C154.875 237.145 154.196 237.061 153.601 237.093C153.006 237.126 152.692 237.252 152.903 237.374C153.114 237.495 153.793 237.58 154.412 237.562C155.032 237.543 155.346 237.417 155.111 237.281ZM133.869 271.616C131.972 269.913 130.905 270.409 132.7 272.159C133.531 272.97 133.855 273.151 134.312 273.059C135.183 272.884 135.146 272.763 133.869 271.616ZM122.561 291.744C122.316 291.378 121.968 291.077 121.789 291.075C121.227 291.067 121.51 292.057 122.18 292.443C122.981 292.905 123.142 292.609 122.561 291.744ZM164.205 218.481C163.78 218.344 163.406 218.277 163.374 218.332C163.342 218.387 163.625 218.611 164.004 218.83C164.382 219.048 164.756 219.115 164.835 218.979C164.914 218.842 164.631 218.618 164.205 218.481ZM135.17 267.182C134.539 266.818 134.247 266.727 134.522 266.98C134.796 267.234 135.312 267.532 135.669 267.643C136.025 267.754 135.801 267.547 135.17 267.182ZM125.813 282.836C124.833 282.402 124.649 282.425 124.905 282.949C125.366 283.891 126.443 284.417 126.766 283.858C126.98 283.486 126.77 283.261 125.813 282.836ZM163.406 217.307C163.215 217.086 162.875 216.945 162.65 216.994C162.425 217.042 162.398 217.262 162.589 217.482C162.78 217.703 163.121 217.844 163.345 217.795C163.57 217.747 163.597 217.527 163.406 217.307ZM160.345 222.87C160.064 222.99 159.551 223.052 159.206 223.008C158.803 222.957 158.846 223.033 159.328 223.221C159.74 223.382 160.252 223.32 160.467 223.083C160.741 222.781 160.705 222.718 160.345 222.87ZM118.605 294.612C118.365 294.334 118.008 294.196 117.814 294.305C117.344 294.567 116.242 293.914 116.213 293.356C116.195 293.024 115.935 292.862 115.164 292.7C114.059 292.468 112.748 293.492 113.554 293.958C113.823 294.113 114.113 294.119 114.199 293.971C114.396 293.629 117.926 294.683 118.396 295.224C118.589 295.446 118.813 295.513 118.895 295.372C118.976 295.231 118.846 294.889 118.605 294.612ZM155.812 229.311C155.509 229.253 155.232 229.256 155.196 229.318C155.16 229.38 155.337 229.55 155.59 229.696C155.842 229.841 156.119 229.838 156.205 229.689C156.291 229.54 156.114 229.37 155.812 229.311ZM155.2 230.724C155.086 230.533 154.484 230.083 153.862 229.724C152.793 229.106 152.709 229.141 152.295 230.374C151.739 232.027 151.926 232.314 153.492 232.208C154.752 232.123 155.596 231.389 155.2 230.724ZM164.124 212C162.04 210.394 160.293 210.802 161.912 212.517C162.443 213.08 162.667 213.217 162.572 212.921C162.492 212.675 162.933 212.569 163.551 212.687C164.929 212.949 165.096 212.749 164.124 212ZM163.102 214.806C163.209 214.137 162.426 213.617 162.117 214.152C161.995 214.363 161.708 214.428 161.48 214.296C161.251 214.164 161.039 214.349 161.008 214.707C160.888 216.101 162.882 216.195 163.102 214.806ZM155.725 227.723C155.369 227.518 153.745 227.675 153.57 227.931C153.329 228.283 154.725 228.851 155.235 228.608C155.898 228.292 156.095 227.936 155.725 227.723ZM153.259 231.084C152.877 230.864 152.702 230.459 152.867 230.174C153.031 229.89 153.469 229.838 153.851 230.059C154.233 230.28 154.407 230.684 154.243 230.969C154.078 231.254 153.641 231.305 153.259 231.084ZM157.054 223.783C156.722 223.666 156.29 223.66 156.093 223.77C155.873 223.892 156.05 224.071 156.551 224.233C157.489 224.536 157.968 224.106 157.054 223.783ZM116.855 291.847C116.784 291.147 116.199 290.962 115.868 291.534C115.705 291.816 115.837 292.199 116.162 292.387C116.775 292.741 116.934 292.617 116.855 291.847ZM175.324 185.715C174.922 185.483 175.036 184.929 175.704 183.865C176.348 182.839 176.511 182.101 176.208 181.592C175.961 181.178 175.966 180.958 176.219 181.104C176.91 181.503 177.962 180.727 177.585 180.096C177.354 179.708 176.997 179.521 176.385 179.466C175.905 179.424 175.31 179.155 175.062 178.869C174.741 178.499 174.896 178.447 175.599 178.687C176.142 178.874 176.664 178.932 176.759 178.818C176.854 178.704 177.21 178.499 177.55 178.363C177.89 178.227 178.235 177.773 178.318 177.354C178.4 176.934 178.657 176.701 178.89 176.835C179.122 176.969 179.251 176.89 179.176 176.659C179.102 176.428 178.64 176.008 178.15 175.725C177.661 175.442 177.193 175.326 177.112 175.467C177.031 175.608 176.654 175.545 176.276 175.326C175.897 175.108 175.488 175.102 175.366 175.313C175.244 175.525 174.834 175.519 174.456 175.301C173.542 174.773 173.815 174.376 174.859 174.713C175.347 174.87 175.668 174.752 175.642 174.426C175.611 174.036 176.066 174.032 177.172 174.412L178.744 174.953L178.119 173.905C177.617 173.062 177.648 172.824 178.282 172.691C178.715 172.601 178.963 172.348 178.833 172.13C178.506 171.581 176.879 171.311 175.971 171.655C174.525 172.205 171.523 170.3 172.811 169.651C173.028 169.542 172.897 169.273 172.518 169.055C172.017 168.766 171.719 168.918 171.42 169.617C171.195 170.145 171.188 170.68 171.406 170.806C171.624 170.931 171.541 171.188 171.221 171.375C170.481 171.81 170.733 172.748 171.914 173.952C173.109 175.172 173.01 176.343 171.798 175.323C170.777 174.465 169.916 174.586 170.374 175.523C170.612 176.011 170.56 176.128 170.198 175.919C169.915 175.755 169.512 175.918 169.303 176.28C168.991 176.821 169.102 177.003 169.931 177.304C170.691 177.579 170.819 177.727 170.453 177.902C170.185 178.03 169.71 177.903 169.396 177.62C169.05 177.307 168.733 177.267 168.589 177.517C168.458 177.743 168.557 178.048 168.81 178.194C169.062 178.339 169.055 178.835 168.794 179.296C168.073 180.57 168.423 181.2 170.18 181.788C170.988 182.059 171.316 182.075 170.907 181.825C170.018 181.278 169.876 180.455 170.642 180.291C171.066 180.2 171.238 180.337 171.385 180.879C171.513 181.357 171.733 181.553 172.062 181.482C172.329 181.425 173.002 181.637 173.556 181.954C174.375 182.423 174.461 182.41 174.018 181.885C173.553 181.333 173.591 181.305 174.279 181.698C174.77 181.979 174.973 182.351 174.798 182.653C174.499 183.171 172.918 183.3 172.169 182.868C171.928 182.729 171.369 182.79 170.925 183.004C170.482 183.218 169.829 183.226 169.473 183.02C168.742 182.598 167.739 183.121 167.961 183.808C168.041 184.057 167.586 184.889 166.95 185.656C166.312 186.423 165.864 187.323 165.954 187.655C166.135 188.331 167.417 189.179 168.294 189.205C168.643 189.215 169.034 189.532 169.3 190.022C169.687 190.732 169.659 190.753 169.057 190.209C168.678 189.866 167.988 189.59 167.494 189.583C167.008 189.577 166.389 189.443 166.118 189.287C165.087 188.692 165.04 190.053 166.06 190.971C167.388 192.167 167.452 192.198 167.696 191.776C167.934 191.363 170.136 192.147 170.149 192.648C170.163 193.196 170.978 193.508 171.234 193.063C171.364 192.839 171.092 192.356 170.63 191.991C169.605 191.181 169.746 190.833 171.091 190.852C172.045 190.865 172.062 190.831 171.356 190.316C170.911 189.99 170.789 189.676 171.06 189.547C171.332 189.417 171.231 189.163 170.811 188.92C169.867 188.375 169.017 186.96 169.799 187.236C170.221 187.385 170.315 187.196 170.152 186.529C170.029 186.028 170.086 185.62 170.278 185.623C170.853 185.631 171.951 187.585 171.661 188.086C171.286 188.736 172.476 189.04 173.671 188.601C174.524 188.288 174.577 188.132 174.058 187.463C173.499 186.741 173.511 186.719 174.234 187.136C174.79 187.457 175.135 187.366 175.454 186.815C175.71 186.371 175.655 185.906 175.324 185.715ZM172.416 185.061C171.806 184.709 171.815 184.621 172.464 184.576C172.901 184.546 173.335 184.567 173.43 184.622C173.526 184.677 173.504 184.895 173.382 185.106C173.26 185.318 172.825 185.297 172.416 185.061ZM180.724 169.672C180.459 169.295 180.202 169.021 180.153 169.063C179.226 169.849 179.095 170.118 179.517 170.361C179.795 170.522 179.792 170.763 179.509 170.898C179.186 171.052 179.228 171.225 179.624 171.364C180.519 171.681 181.296 170.486 180.724 169.672ZM85.4187 334.284C85.2167 334.052 84.9808 333.983 84.8947 334.133C84.8085 334.282 84.9444 334.523 85.1967 334.669C85.449 334.815 85.6847 334.883 85.7207 334.821C85.7567 334.759 85.6207 334.517 85.4187 334.284ZM85.0926 335.167C84.5597 334.273 80.2634 334.744 80.5501 335.665C80.6028 335.834 80.2718 335.955 79.815 335.933C79.1313 335.901 79.0245 335.825 79.2121 335.5C79.3373 335.283 79.2747 335.01 79.0728 334.893C78.5632 334.599 77.2797 334.609 77.1065 334.909C77.0279 335.045 77.1358 335.159 77.3464 335.162C77.5574 335.165 78.06 335.517 78.463 335.944C78.9822 336.494 79.4334 336.743 80.0064 336.794C80.4517 336.834 80.9926 337.07 81.2086 337.319C81.4246 337.568 81.6263 337.659 81.6572 337.522C81.8561 336.641 82.5769 336.233 83.2476 336.62C83.9302 337.014 83.9531 336.959 83.4725 336.066C83.0203 335.227 83.0474 335.137 83.6483 335.484C84.3828 335.908 85.4007 335.684 85.0926 335.167ZM169.244 184.592C168.801 184.339 168.506 184.017 168.587 183.876C168.668 183.735 169.405 184.009 170.224 184.484C171.353 185.141 171.512 185.313 170.881 185.2C170.423 185.119 169.687 184.845 169.244 184.592ZM90.8315 324.186C90.5922 324.294 90.481 324.525 90.5842 324.698C90.6873 324.871 90.8829 324.782 91.0192 324.5C91.1696 324.189 91.096 324.066 90.8315 324.186ZM181.561 164.876C181.6 164.522 181.507 163.97 181.354 163.65C181.201 163.329 181.285 162.967 181.54 162.845C181.849 162.698 181.539 162.197 180.612 161.345C178.895 159.769 174.957 157.989 174.616 158.636C174.324 159.188 174.974 160.559 175.741 161.008C176.249 161.305 176.21 161.349 175.548 161.226C174.44 161.02 172.937 163.62 173.211 165.267C173.439 166.641 173.76 166.929 175.084 166.947C175.585 166.954 176.297 167.135 176.666 167.348C177.204 167.658 177.175 167.783 176.519 167.973C176.07 168.104 175.474 168.005 175.194 167.753C174.483 167.11 173.238 166.923 173.42 167.486C173.503 167.743 173.89 168.138 174.281 168.364C174.811 168.669 174.824 168.895 174.334 169.249C173.757 169.665 173.825 169.809 174.882 170.419C175.967 171.046 176.097 171.027 176.181 170.229C176.233 169.743 176.106 169.195 175.9 169.013C175.693 168.831 175.59 168.569 175.67 168.43C175.852 168.114 177.609 169.552 177.844 170.21C177.967 170.555 178.068 170.605 178.199 170.39C178.3 170.224 178.203 169.881 177.983 169.628C177.764 169.375 177.816 169.006 178.1 168.808C178.421 168.583 178.333 167.972 177.865 167.188C176.978 165.7 177.097 165.253 178.215 165.875C180.411 167.097 180.639 167.151 180.456 166.402C180.336 165.913 180.434 165.763 180.752 165.947C181.245 166.231 181.441 165.971 181.561 164.876ZM176.044 172.868C175.844 172.533 175.883 172.262 176.129 172.266C176.375 172.269 176.664 172.545 176.772 172.878C177.025 173.662 176.513 173.655 176.044 172.868ZM85.4547 330.213C85.154 329.942 85.1286 329.501 85.3984 329.232C85.6807 328.95 85.6227 328.337 85.2602 327.78C84.6553 326.849 84.593 326.83 83.4525 327.225C82.6462 327.504 82.4147 327.756 82.7239 328.021C82.9728 328.234 82.9225 328.586 82.6115 328.803C82.1923 329.095 82.2331 329.233 82.7684 329.337C83.2692 329.434 83.3228 329.512 82.9438 329.594C82.2035 329.753 83.1393 330.777 84.2701 331.046C84.7645 331.163 85.228 331.357 85.299 331.477C85.3706 331.596 85.557 331.472 85.7139 331.2C85.8708 330.928 85.7541 330.484 85.4547 330.213ZM80.2349 339.206C79.4945 338.073 78.3597 337.396 77.7169 337.703C77.4484 337.831 76.6513 337.774 75.9463 337.575C74.8591 337.27 74.5695 337.39 74.0391 338.369C73.6738 339.043 73.642 339.474 73.9632 339.405C74.2648 339.34 74.6039 339.441 74.7157 339.628C75.1152 340.299 73.8984 340.171 72.8916 339.437C72.3273 339.025 71.8108 338.784 71.7436 338.901C71.5833 339.178 73.1072 340.788 73.5355 340.794C74.0216 340.801 75.3124 342.254 75.1234 342.582C75.0183 342.764 74.3678 342.444 73.267 341.671C71.3 340.288 70.3208 340.345 71.3078 341.785C71.8012 342.505 71.9999 342.634 72.3532 342.465C72.6124 342.341 73.1407 342.535 73.6553 342.941C74.2441 343.406 74.5916 343.503 74.7421 343.242C74.8638 343.031 75.3471 342.893 75.8159 342.935C76.7068 343.015 77.8505 341.366 77.1748 340.976C76.9633 340.854 76.8902 340.581 77.0124 340.369C77.2998 339.871 77.636 340.082 78.28 341.162C78.7683 341.981 78.8275 342.015 79.1982 341.693C79.6092 341.336 78.9936 339.975 78.2188 339.528C77.9757 339.387 77.7577 339.031 77.7344 338.735C77.6877 338.14 78.4487 338.438 78.6619 339.098C78.736 339.328 79.1286 339.867 79.5346 340.298C80.1438 340.943 80.3209 340.995 80.5508 340.597C80.7038 340.332 80.5618 339.706 80.2349 339.206ZM182.972 160.983C182.856 160.583 182.502 160.206 182.185 160.144C181.823 160.074 181.822 159.909 182.183 159.697C182.608 159.448 182.359 158.679 181.218 156.715C180.372 155.259 179.753 153.943 179.841 153.789C179.93 153.636 180.134 153.662 180.295 153.848C180.457 154.033 180.95 154.251 181.393 154.331C182.055 154.45 182.111 154.374 181.712 153.901C181.445 153.585 181.312 153.239 181.416 153.132C181.52 153.025 181.205 152.657 180.717 152.315C179.884 151.732 179.806 150.702 180.631 151.179C180.84 151.299 181.119 150.999 181.252 150.512C181.385 150.025 181.225 149.471 180.896 149.281C180.568 149.091 180.292 148.789 180.283 148.609C180.275 148.429 179.772 148.216 179.166 148.135C178.207 148.007 178.164 148.045 178.84 148.435C179.266 148.682 179.559 148.966 179.49 149.067C179.263 149.399 177.638 149.451 177.104 149.143C176.418 148.746 176.628 148.433 177.588 148.422C178.209 148.415 178.212 148.359 177.602 148.132C176.342 147.663 175.737 148.715 176.789 149.546C177.644 150.221 177.62 150.358 176.379 151.881C174.808 153.809 174.643 155.584 175.966 156.347C176.95 156.916 176.945 157.271 175.951 157.257C175.024 157.244 175.668 157.805 177.411 158.528C178.584 159.015 178.681 159.012 177.877 158.516C176.603 157.73 176.796 157.253 178.134 157.879L179.13 158.345L178.478 157.177C177.555 155.523 178.363 155.728 179.36 157.4C179.813 158.16 180.329 158.866 180.506 158.968C180.684 159.071 180.912 159.626 181.014 160.202C181.116 160.778 181.368 161.163 181.575 161.058C181.782 160.953 182.21 161.101 182.528 161.388C183.204 161.999 183.254 161.954 182.972 160.983ZM79.928 337.438C79.0715 336.944 78.91 336.942 79.1999 337.428C79.4898 337.914 79.7348 338.056 80.3009 338.064C80.867 338.071 80.7845 337.933 79.928 337.438ZM179 164.252C178.621 164.033 178.212 164.027 178.09 164.239C177.968 164.45 177.654 164.5 177.393 164.349C177.071 164.163 177.171 164.001 177.705 163.846C178.138 163.72 178.304 163.508 178.074 163.375C177.845 163.243 177.779 162.859 177.928 162.522C178.078 162.185 178.317 161.593 178.46 161.205C178.63 160.742 178.95 160.634 179.393 160.89C180.243 161.38 180.614 163.009 180.088 163.94C179.829 164.4 179.446 164.509 179 164.252ZM81.4331 333.381C81.0032 333.242 80.7526 332.865 80.7912 332.416C80.8263 332.011 80.6615 331.677 80.425 331.673C79.8126 331.665 80.3628 333.587 81.0936 334.009C81.4294 334.203 81.802 334.192 81.9216 333.985C82.0447 333.772 81.8332 333.51 81.4331 333.381ZM75.1592 341.635C74.1964 340.874 74.3678 340.361 75.4567 340.746C75.789 340.863 75.9548 341.142 75.8258 341.365C75.6969 341.588 75.8324 341.91 76.1269 342.08C76.4209 342.25 76.5362 342.387 76.3827 342.385C76.229 342.383 75.6784 342.045 75.1592 341.635ZM168.148 181.387C167.933 181.139 167.626 180.934 167.467 180.931C167.309 180.929 167.458 181.18 167.799 181.488C168.507 182.128 168.734 182.062 168.148 181.387ZM85.7004 324.62C85.471 324.723 85.3045 325.011 85.3304 325.261C85.3556 325.51 85.5431 325.426 85.7466 325.074C85.9501 324.721 85.9291 324.517 85.7004 324.62ZM79.7705 333.402C79.5554 333.154 79.2334 332.949 79.0551 332.946C78.6206 332.94 78.9109 333.774 79.4522 334.087C80.0385 334.425 80.255 333.96 79.7705 333.402ZM75.8871 340.232C75.643 340.091 75.6617 339.871 75.9288 339.744C76.1963 339.616 76.4962 339.559 76.5953 339.616C76.6944 339.673 76.6757 339.893 76.5536 340.104C76.4315 340.316 76.1316 340.373 75.8871 340.232ZM171.89 172.452C171.793 172.396 171.781 172.01 171.863 171.592C171.945 171.175 172.153 170.997 172.326 171.196C172.631 171.547 172.245 172.657 171.89 172.452ZM176.933 160.734C176.733 160.399 176.772 160.128 177.018 160.132C177.264 160.135 177.553 160.411 177.661 160.744C177.914 161.528 177.402 161.521 176.933 160.734ZM76.1423 336.169C75.7513 335.816 75.5691 335.853 75.531 336.292C75.4689 337.013 76.1861 337.563 76.4936 337.03C76.607 336.834 76.4489 336.446 76.1423 336.169ZM174.882 162.715C174.616 162.269 174.55 161.906 174.734 161.909C175.195 161.916 176.089 163.362 175.688 163.453C175.51 163.493 175.148 163.161 174.882 162.715ZM177.667 155.447C177.356 155.387 177.338 155.24 177.626 155.102C178.188 154.834 178.564 154.943 178.351 155.311C178.274 155.444 177.967 155.505 177.667 155.447ZM64.7746 350.566C64.6778 350.51 64.6239 350.171 64.6545 349.813C64.6857 349.455 64.8978 349.269 65.1267 349.402C65.3552 349.534 65.4091 349.872 65.2463 350.154C65.0835 350.436 64.8709 350.621 64.7746 350.566ZM63.3754 349.23C63.0936 349.176 62.8014 348.939 62.7254 348.704C62.6499 348.47 62.9098 348.463 63.3029 348.69C64.1089 349.156 64.1385 349.378 63.3754 349.23ZM63.5005 344.703C63.2482 344.557 63.1084 344.323 63.1898 344.182C63.2712 344.041 63.5442 344.044 63.7965 344.19C64.0488 344.336 64.1887 344.57 64.1073 344.711C64.0259 344.852 63.7528 344.848 63.5005 344.703ZM64.4131 336.477C64.5346 336.681 64.3154 336.56 63.9258 336.208C63.0488 335.415 63.5788 335.049 64.8144 335.595C65.57 335.928 65.5964 336.01 64.9629 336.054C64.5393 336.083 64.2916 336.274 64.4131 336.477ZM184.613 127.405C184.499 127.004 184.791 125.794 185.262 124.715C185.733 123.635 185.981 122.521 185.813 122.239C185.645 121.957 185.659 121.465 185.843 121.145C186.096 120.708 185.966 120.495 185.321 120.286C184.687 120.081 184.617 119.976 185.054 119.882C185.804 119.721 186.528 118.691 186.176 118.285C186.028 118.115 186.068 117.379 186.264 116.648C186.459 115.917 186.473 115.15 186.295 114.944C186.116 114.738 186.122 114.306 186.308 113.984C186.494 113.661 186.342 112.933 185.971 112.364C185.464 111.59 185.472 111.182 185.999 110.734C186.444 110.356 186.551 109.849 186.289 109.355C186.06 108.925 185.97 108.244 186.087 107.841C186.258 107.256 186.013 106.923 184.856 106.169C183.251 105.123 183.226 104.675 184.769 104.629C185.59 104.605 185.669 104.522 185.159 104.219C184.704 103.948 184.829 103.876 185.588 103.971C186.475 104.081 186.717 103.874 187.017 102.755C187.266 101.82 187.158 101.282 186.663 100.996C186.133 100.69 186.116 100.439 186.596 100.021C187.371 99.3439 187.17 97.8835 186.326 98.0645C186.016 98.1315 185.582 97.9515 185.317 97.6467C184.966 97.2412 185.106 97.1468 185.898 97.2548C186.891 97.3904 186.893 97.3687 185.938 96.817C184.765 96.1401 184.822 95.6579 186.029 96.0474C186.615 96.2368 186.867 96.094 186.883 95.5642C186.896 95.1506 187.102 94.3102 187.342 93.6967C187.582 93.0834 187.815 92.4696 187.86 92.3335C187.904 92.1969 187.293 91.7784 186.5 91.4035C184.892 90.6431 184.814 90.328 186.235 90.3477C187.102 90.3601 187.122 90.3229 186.459 89.9399C185.895 89.6144 185.892 89.3985 186.441 88.9894L187.152 88.46L185.456 88.4791C184.018 88.4954 183.655 88.3764 183.068 87.6957C182.504 87.0417 182.334 86.9647 182.152 87.2797C182.03 87.4923 182.245 87.8485 182.631 88.0716C183.188 88.3931 183.146 88.7388 182.427 89.7485L181.522 91.0203L183.283 92.2079C184.83 93.2514 185.005 93.4872 184.723 94.1503C184.512 94.6479 184.178 94.7753 183.743 94.5242C183.38 94.3147 183.183 93.9703 183.305 93.7588C183.427 93.5473 183.321 93.2551 183.068 93.1094C182.816 92.9638 182.466 93.093 182.291 93.3965C181.976 93.9413 181.964 93.9334 181.354 92.7701L180.736 91.5921L180.083 93.2121C179.693 94.1812 179.637 95.0762 179.944 95.4386C180.382 95.9575 180.34 96.0239 179.647 95.8989C178.954 95.7737 178.917 95.8995 179.389 96.7753C179.692 97.3377 180.217 97.9578 180.556 98.1538C181.441 98.6647 180.866 99.3751 179.697 99.2156C178.554 99.0592 178.62 99.2623 180.083 100.399C180.664 100.85 180.921 101.004 180.654 100.743C180.305 100.402 180.377 100.207 180.909 100.052C181.786 99.7966 183.033 100.761 182.493 101.276C182.251 101.507 182.418 101.758 182.988 102.019C183.669 102.331 183.726 102.523 183.263 102.941C182.94 103.231 182.476 103.512 182.231 103.564C181.595 103.701 180.962 102.857 181.505 102.598C182.253 102.241 180.282 101.329 179.349 101.6C178.174 101.943 178.026 103.478 179.035 104.855C179.659 105.704 179.72 106.079 179.259 106.231C178.911 106.345 178.421 107.013 178.172 107.715C177.921 108.417 177.539 109.311 177.32 109.702C177.031 110.22 177.154 110.546 177.776 110.905C178.244 111.175 178.527 111.569 178.405 111.781C178.283 111.992 177.873 111.987 177.495 111.768C177.113 111.547 176.675 111.599 176.511 111.883C176.346 112.168 176.521 112.573 176.903 112.793C177.325 113.037 177.453 113.43 177.233 113.81C177.036 114.151 176.976 115.193 177.098 116.125C177.221 117.058 177.122 117.706 176.878 117.565C176.139 117.138 176.004 117.935 176.614 119.121C176.931 119.737 177.091 120.413 176.97 120.623C176.849 120.833 177.02 121.353 177.35 121.779C177.857 122.434 177.819 122.562 177.1 122.612C176.485 122.654 176.401 122.758 176.795 122.986C177.124 123.176 177.118 123.432 176.779 123.631C175.931 124.129 175.942 125.569 176.797 126.069C177.402 126.422 177.4 126.48 176.787 126.366C175.527 126.132 176.129 127.114 177.435 127.424C178.297 127.629 178.424 127.713 178.007 127.803C177.606 127.889 177.804 128.054 178.783 128.449C179.772 128.849 180.041 129.077 179.871 129.37C179.728 129.619 180.079 130.009 180.843 130.45C181.906 131.064 182.049 131.046 182.126 130.293C182.196 129.612 182.334 129.556 182.836 130.008C183.294 130.422 183.555 130.406 183.82 129.947C184.096 129.468 183.974 129.248 183.294 129.003C182.75 128.807 182.654 128.714 183.045 128.763C184.048 128.887 184.84 128.201 184.613 127.405ZM181.975 125.527C181.657 125.234 181.801 125.236 182.342 125.532C182.832 125.8 183.068 126.017 182.867 126.014C182.665 126.011 182.264 125.792 181.975 125.527ZM181.595 121.882C181.321 121.628 181.612 121.719 182.243 122.084C182.874 122.448 183.098 122.655 182.742 122.544C182.385 122.433 181.869 122.135 181.595 121.882ZM182.407 120.457C182.104 119.945 182.173 119.946 182.747 120.462C183.144 120.82 183.315 121.11 183.129 121.107C182.942 121.105 182.617 120.813 182.407 120.457ZM176.665 128.038C176.286 127.819 175.877 127.814 175.755 128.025C175.632 128.237 175.842 128.588 176.221 128.807C176.599 129.025 177.009 129.031 177.131 128.82C177.253 128.608 177.043 128.256 176.665 128.038ZM182.64 107.561C182.403 107.423 182.275 107.196 182.357 107.055C182.438 106.914 182.827 106.985 183.22 107.212C183.613 107.439 183.741 107.666 183.504 107.717C183.266 107.768 182.878 107.698 182.64 107.561ZM178.908 115.147C178.605 115.089 178.428 114.919 178.514 114.77C178.601 114.62 178.878 114.617 179.13 114.763C179.382 114.909 179.559 115.079 179.523 115.141C179.487 115.203 179.21 115.206 178.908 115.147ZM181.334 108.297C180.805 108.126 180.654 107.885 180.858 107.533C181.107 107.101 181.233 107.134 181.635 107.736C182.233 108.63 182.252 108.594 181.334 108.297ZM180.433 105.09C180.13 105.031 179.949 104.868 180.031 104.727C180.112 104.586 180.426 104.519 180.729 104.577C181.032 104.636 181.213 104.799 181.131 104.94C181.05 105.081 180.736 105.148 180.433 105.09ZM53.8073 322.823C53.4757 322.523 53.2306 322.232 53.2626 322.177C53.2945 322.122 53.6304 322.255 54.0089 322.474C54.3873 322.692 54.6324 322.983 54.5536 323.119C54.4748 323.256 54.1389 323.122 53.8073 322.823ZM178.349 104.399C178.082 104.245 177.924 104.308 177.999 104.539C178.073 104.77 178.225 105.011 178.336 105.076C178.448 105.14 178.605 105.077 178.687 104.936C178.768 104.795 178.616 104.553 178.349 104.399Z" fill="#858585"/>
<path d="M169.817 90.8965C171.711 92.0327 173.761 92.8836 175.902 93.4219V90.2812C174.56 89.8848 173.265 89.3456 172.039 88.6709L169.817 90.8965ZM190.797 88.6699C189.571 89.3447 188.276 89.8847 186.934 90.2812V93.4209C189.075 92.8811 191.125 92.0283 193.018 90.8906L190.797 88.6699ZM159.495 77.0156C160.034 79.1568 160.885 81.2063 162.021 83.0996L164.246 80.8779C163.572 79.6522 163.032 78.3573 162.636 77.0156H159.495ZM200.2 77.0156C199.804 78.3575 199.263 79.6521 198.589 80.8779L200.814 83.0996C201.95 81.2062 202.802 79.1569 203.341 77.0156H200.2ZM184.688 63.6035C183.127 62.9568 181.409 62.7875 179.751 63.1172C178.093 63.447 176.569 64.2608 175.374 65.4561C174.179 66.6514 173.365 68.1751 173.035 69.833C172.706 71.4907 172.875 73.209 173.521 74.7705C174.168 76.3322 175.264 77.6673 176.67 78.6064C178.075 79.5455 179.728 80.0469 181.418 80.0469C183.685 80.0469 185.859 79.1468 187.462 77.5439C189.065 75.9411 189.965 73.7668 189.965 71.5C189.965 69.8097 189.463 68.1574 188.524 66.752C187.585 65.3464 186.25 64.2504 184.688 63.6035ZM198.588 62.1201C199.263 63.3465 199.804 64.6418 200.2 65.9844H203.339C202.799 63.8427 201.946 61.7927 200.809 59.8994L198.588 62.1201ZM162.021 59.8994C160.885 61.7929 160.034 63.8429 159.495 65.9844H162.636C163.032 64.6424 163.571 63.347 164.246 62.1211L162.021 59.8994ZM175.902 49.5771C173.761 50.1154 171.711 50.9664 169.817 52.1025L172.039 54.3281C173.265 53.6535 174.56 53.1142 175.902 52.7178V49.5771ZM186.934 52.7178C188.275 53.1141 189.57 53.6537 190.796 54.3281L193.018 52.1025C191.124 50.9666 189.075 50.1153 186.934 49.5771V52.7178ZM215.053 72.123C214.934 78.5589 212.97 84.8301 209.389 90.1895C205.692 95.7216 200.439 100.034 194.292 102.58C188.145 105.126 181.381 105.792 174.855 104.494C168.33 103.196 162.336 99.9918 157.631 95.2871C152.926 90.5824 149.722 84.5881 148.424 78.0625C147.126 71.537 147.792 64.7729 150.338 58.626C152.884 52.479 157.196 47.2257 162.729 43.5293C168.261 39.8328 174.764 37.8594 181.418 37.8594H181.42L182.255 37.8711C190.871 38.094 199.086 41.6134 205.195 47.7227C211.502 54.0289 215.049 62.5796 215.059 71.498V71.5L215.053 72.123Z" fill="#B8FF01" stroke="black" stroke-width="4"/>
<g filter="url(#filter0_n_10314_199)">
<path d="M60.1276 312.399C68.4522 314.852 75.4613 320.512 79.6128 328.133C83.7641 335.755 84.7176 344.713 82.2641 353.038C79.8105 361.362 74.1507 368.371 66.5294 372.523C58.908 376.674 49.9495 377.629 41.6249 375.175C33.3003 372.721 26.2914 367.061 22.14 359.439C17.9887 351.818 17.0351 342.86 19.4887 334.535C21.9424 326.211 27.6021 319.201 35.2234 315.05C42.8447 310.899 51.8031 309.945 60.1276 312.399ZM33.0039 306.795L35.4978 311.373L36.45 313.12L34.7076 314.081C27.0651 318.296 21.0443 325.292 18.4134 334.218C15.7731 343.176 17.0458 352.287 21.1811 359.974L22.1236 361.726L14.0293 366.135L13.0773 364.36C7.8826 354.665 6.3149 343.007 9.66531 331.64C13.0157 320.273 20.6555 311.329 30.2781 306.001L32.0409 305.025L33.0039 306.795ZM88.6752 323.213C93.8698 332.909 95.4378 344.566 92.0875 355.933C88.7371 367.3 81.0973 376.244 71.4744 381.572L69.7128 382.547L68.7486 380.779L66.2548 376.201L65.3037 374.453L67.0458 373.492C74.6893 369.277 80.6992 362.312 83.3394 353.354C85.9702 344.429 84.7069 335.286 80.5723 327.6L79.6301 325.847L87.7244 321.438L88.6752 323.213ZM57.0666 322.784C45.4871 319.371 33.2873 326.017 29.8741 337.596C26.4611 349.176 33.1066 361.375 44.6862 364.789C56.2658 368.202 68.4656 361.556 71.8786 349.977C75.2914 338.397 68.6462 326.197 57.0666 322.784ZM53.7396 353.222L50.6786 363.607L40.2932 360.546L43.3542 350.161L53.7396 353.222ZM61.4605 327.027L54.5389 350.51L44.1535 347.449L51.0751 323.965L61.4605 327.027Z" fill="#B8FF01" stroke="black" stroke-width="4"/>
</g>
<path d="M225.976 45.6836L228.202 54.501L237.705 56.8564H237.704C238.589 57.0746 239.383 57.573 239.963 58.2793C240.544 58.9869 240.879 59.8648 240.915 60.7812L240.914 61.124C240.88 61.921 240.619 62.6938 240.159 63.3506C239.635 64.1 238.881 64.6563 238.015 64.9414L238.016 64.9424L211.25 73.7861C210.493 74.036 209.683 74.0673 208.913 73.8799L208.586 73.7861L181.82 64.9424V64.9414C180.954 64.6563 180.201 64.0998 179.677 63.3506C179.152 62.6 178.885 61.6979 178.921 60.7812C178.957 59.8647 179.292 58.9869 179.873 58.2793C180.453 57.5732 181.246 57.0747 182.131 56.8564L191.633 54.501L193.86 45.6836L194.346 43.7607L196.272 44.2305C199.934 45.123 204.687 45.6729 209.918 45.6729C215.149 45.6729 219.902 45.123 223.563 44.2305L225.49 43.7607L225.976 45.6836ZM220.646 24.5479L224.896 41.3994L225.391 43.3564L223.429 43.832C219.839 44.703 215.131 45.2549 209.918 45.2549C204.704 45.2549 200.001 44.7028 196.407 43.832L194.445 43.3574L194.939 41.3994L199.19 24.5479L199.624 22.8311L201.38 23.0527C203.992 23.3822 206.875 23.5674 209.918 23.5674C212.961 23.5674 215.844 23.3822 218.456 23.0527L220.212 22.8311L220.646 24.5479ZM203.651 6.86035C205.284 0.379812 214.552 0.379816 216.185 6.86035L219.553 20.2236L220.109 22.4336L217.846 22.6992C215.425 22.9826 212.751 23.1455 209.918 23.1455C207.088 23.1455 204.41 22.9868 201.979 22.6885L199.729 22.4121L200.283 20.2148L203.651 6.86035Z" fill="#B8FF01" stroke="black" stroke-width="4"/>
<defs>
<filter id="filter0_n_10314_199" x="0" y="292.913" width="101.75" height="101.748" filterUnits="userSpaceOnUse" color-interpolation-filters="sRGB">
<feFlood flood-opacity="0" result="BackgroundImageFix"/>
<feBlend mode="normal" in="SourceGraphic" in2="BackgroundImageFix" result="shape"/>
<feTurbulence type="fractalNoise" baseFrequency="2 2" stitchTiles="stitch" numOctaves="3" result="noise" seed="8555" />
<feColorMatrix in="noise" type="luminanceToAlpha" result="alphaNoise" />
<feComponentTransfer in="alphaNoise" result="coloredNoise1">
<feFuncA type="discrete" tableValues="1 1 1 1 1 1 1 1 1 1 1 1 1 1 1 1 1 1 1 1 1 1 1 1 1 1 1 1 1 1 1 1 1 1 1 1 1 1 1 1 1 1 1 1 1 1 1 1 1 1 1 0 0 0 0 0 0 0 0 0 0 0 0 0 0 0 0 0 0 0 0 0 0 0 0 0 0 0 0 0 0 0 0 0 0 0 0 0 0 0 0 0 0 0 0 0 0 0 0 0 "/>
</feComponentTransfer>
<feComposite operator="in" in2="shape" in="coloredNoise1" result="noise1Clipped" />
<feFlood flood-color="rgba(0, 0, 0, 0.25)" result="color1Flood" />
<feComposite operator="in" in2="noise1Clipped" in="color1Flood" result="color1" />
<feMerge result="effect1_noise_10314_199">
<feMergeNode in="shape" />
<feMergeNode in="color1" />
</feMerge>
</filter>
</defs>
</svg>
